<svg xmlns="http://www.w3.org/2000/svg" xmlns:xlink="http://www.w3.org/1999/xlink" version="1.1"
	viewBox="0 0 426.12 352.02">
	<defs>
		<style>
			.nofill {fill: none;}
			.cMain {fill: #17a4fa;}
			.cPrimary {fill: #0956b6;}
			.cWhite {fill: white;}
			.cCyan {fill:#ccffff}

			.fluxColorBG {
				mix-blend-mode: multiply;
				fill: url(#gradientFluxBG);
			}

			.maskFluxIn {clip-path: url(#fluxIn);}
			.fluxColorC {fill: url(#gradientFluxIn);}

			.blur {	filter: url(blurFilter);}

			[id^=tPoint], [id^=cPoint], [id^=bPoint] {
				animation: 1s scale, alternate infinite;
			}

			[id^=c0], [id^=c1], [id^=e0], [id^=e1]   {
				animation: 3s moving alternate infinite;
			}
			.del05 {
				animation-delay:0.5s;
			}
			.del10 {
				animation-delay:1s;
			}
			.del15 {
				animation-delay:1.5s;
			}
			.del20 {
				animation-delay:2s;
			}
			.del25 {
				animation-delay:2.5s;
			}
			.del30 {
				animation-delay:3s;
			}


			@keyframes scale {
				from {
					transform: scale(1)
				}

				to {
					transform: scale(1.5)
				}
			}

			@keyframes moving {
				from {
					transform: translateX(0px)
				}

				to {
					transform: translateX(420px)
				}
			}

			@keyframes pulse {
			0% {
				transform: scale(0.95);
				box-shadow: 0 0 0 0 rgba(0, 0, 0, 0.7);
			}
			
			70% {
				transform: scale(1);
				box-shadow: 0 0 0 10px rgba(0, 0, 0, 0);
			}
			
			100% {
				transform: scale(0.95);
				box-shadow: 0 0 0 0 rgba(0, 0, 0, 0);
			}
		}	
		</style>
		
		<path id="fluxMask" class="cMain"
				d="M353.76,204.14a1.78,1.78,0,1,0,1,0,2.29,2.29,0,0,0,1.53-1.14,2.27,2.27,0,0,0,1.89,1.13,1.72,1.72,0,1,0,.14,0,2.29,2.29,0,0,0,2-1.26,2.21,2.21,0,0,0,4-.18,2.11,2.11,0,0,0,4-.35,2,2,0,1,0,0-1,2.09,2.09,0,0,0-1.47-1.54,2.06,2.06,0,0,0,1.47-1.84,1.94,1.94,0,0,0,1.94,1.83,2,2,0,0,0,0-3.92,1.94,1.94,0,0,0-1.94,1.83,2,2,0,0,0-4-.52,2.16,2.16,0,0,0-1.7-1.47,1.9,1.9,0,1,0-.7,0,2.17,2.17,0,0,0-1.61,1.23,2.22,2.22,0,0,0-1.36-1.22,2,2,0,1,0-2.62-2.32,2.09,2.09,0,1,0-2.95,2.32,2.29,2.29,0,0,0-.27,4.08,2.34,2.34,0,0,0,.68,4.31Zm3.82-8.39a2.19,2.19,0,0,0-1.28,1.07,2.28,2.28,0,0,0-1.14-1.07,2.11,2.11,0,0,0,1.14-1.43A2,2,0,0,0,357.58,195.75Zm5.54,4.08a2.16,2.16,0,0,0,1.17-1.32,2,2,0,0,0,1.37,1.32,2.09,2.09,0,0,0-1.37,1.19A2.23,2.23,0,0,0,363.12,199.83Zm-3.85,0a2.23,2.23,0,0,0,1-1.07,2.2,2.2,0,0,0,1.08,1.07,2.17,2.17,0,0,0-1.08,1A2.24,2.24,0,0,0,359.27,199.83Zm-3.84,0a2.33,2.33,0,0,0,.87-.92,2.23,2.23,0,0,0,.93.92,2.26,2.26,0,0,0-.94.87A2.39,2.39,0,0,0,355.43,199.83Zm-1.17-8.4a1.55,1.55,0,1,1,1.55-1.55A1.54,1.54,0,0,1,354.26,191.43Zm0-6.76a1.22,1.22,0,1,1-1.22,1.22A1.22,1.22,0,0,1,354.26,184.67Zm0-4.09a1.32,1.32,0,1,1-1.32,1.32A1.32,1.32,0,0,1,354.26,180.58Zm0-4.15a1.48,1.48,0,1,1-1.47,1.48A1.47,1.47,0,0,1,354.26,176.43Zm0-4a1.5,1.5,0,1,1-1.5,1.5A1.5,1.5,0,0,1,354.26,172.42Zm0-1.15a1.35,1.35,0,1,1,1.35-1.35A1.34,1.34,0,0,1,354.26,171.27Zm0-4.26a1.08,1.08,0,1,1,1.07-1.08A1.08,1.08,0,0,1,354.26,167Zm4,24.32a1.45,1.45,0,1,1,1.45-1.45A1.45,1.45,0,0,1,358.25,191.33Zm0-6.57a1.13,1.13,0,1,1-1.13,1.13A1.14,1.14,0,0,1,358.25,184.76Zm0-4.09A1.23,1.23,0,1,1,357,181.9,1.23,1.23,0,0,1,358.25,180.67Zm0-4.16a1.4,1.4,0,1,1-1.4,1.4A1.4,1.4,0,0,1,358.25,176.51Zm0-4a1.42,1.42,0,1,1-1.42,1.42A1.41,1.41,0,0,1,358.25,172.5Zm0-1.31a1.27,1.27,0,1,1,1.26-1.27A1.26,1.26,0,0,1,358.25,171.19Zm0-4.25a1,1,0,1,1,1-1A1,1,0,0,1,358.25,166.94Zm4,37.25a1.66,1.66,0,1,1-1.66,1.66A1.66,1.66,0,0,1,362.24,204.19Zm0-13a1.35,1.35,0,1,1,1.35-1.35A1.34,1.34,0,0,1,362.24,191.23Zm0-6.36a1,1,0,1,1-1,1A1,1,0,0,1,362.24,184.87Zm0-4.11a1.14,1.14,0,1,1-1.14,1.14A1.14,1.14,0,0,1,362.24,180.76Zm0-4.15a1.3,1.3,0,1,1-1.3,1.3A1.3,1.3,0,0,1,362.24,176.61Zm0-4a1.34,1.34,0,1,1-1.34,1.34A1.34,1.34,0,0,1,362.24,172.58Zm0-1.47a1.19,1.19,0,1,1,1.18-1.19A1.19,1.19,0,0,1,362.24,171.11Zm0-4.25a.93.93,0,1,1,.93-.93A.93.93,0,0,1,362.24,166.86Zm4,37.39a1.6,1.6,0,1,1-1.59,1.6A1.6,1.6,0,0,1,366.23,204.25Zm0-8.58a1.8,1.8,0,1,1,1.79-1.8A1.8,1.8,0,0,1,366.23,195.67Zm0-4.54a1.25,1.25,0,1,1,1.25-1.25A1.25,1.25,0,0,1,366.23,191.13Zm0-6.15a.91.91,0,1,1-.91.91A.91.91,0,0,1,366.23,185Zm0-4.12a1,1,0,0,1,0,2.08,1,1,0,0,1,0-2.08Zm0-4.16a1.21,1.21,0,1,1-1.21,1.21A1.21,1.21,0,0,1,366.23,176.7Zm0-1.54a1.24,1.24,0,1,1,0-2.48,1.24,1.24,0,1,1,0,2.48Zm0-4.15a1.09,1.09,0,1,1,1.09-1.09A1.08,1.08,0,0,1,366.23,171Zm0-4.22a.86.86,0,0,1-.85-.86.85.85,0,1,1,1.7,0A.86.86,0,0,1,366.23,166.79Zm4,37.53a1.53,1.53,0,1,1-1.53,1.53A1.52,1.52,0,0,1,370.22,204.32Zm0-8.75a1.7,1.7,0,1,1,1.7-1.7A1.7,1.7,0,0,1,370.22,195.57Zm0-4.56a1.13,1.13,0,1,1,1.13-1.13A1.14,1.14,0,0,1,370.22,191Zm0-5.94a.82.82,0,1,1-.82.82A.82.82,0,0,1,370.22,185.07Zm0-4.11a.94.94,0,1,1-.94.94A.94.94,0,0,1,370.22,181Zm0-4.16a1.11,1.11,0,1,1-1.11,1.11A1.11,1.11,0,0,1,370.22,176.8Zm0-4a1.16,1.16,0,1,1-1.15,1.16A1.15,1.15,0,0,1,370.22,172.76Zm0-1.83a1,1,0,1,1,1-1A1,1,0,0,1,370.22,170.93Zm0-4.23a.77.77,0,0,1-.76-.77.76.76,0,0,1,.76-.76.77.77,0,0,1,.77.76A.78.78,0,0,1,370.22,166.7Zm4,37.72a1.43,1.43,0,1,1-1.42,1.43A1.43,1.43,0,0,1,374.21,204.42Zm0-4.46a1.9,1.9,0,1,1-1.89,1.89A1.9,1.9,0,0,1,374.21,200Zm0-.25a1.85,1.85,0,1,1,1.85-1.85A1.85,1.85,0,0,1,374.21,199.71Zm1.59-5.84a1.59,1.59,0,1,1-1.59-1.58A1.58,1.58,0,0,1,375.8,193.87Zm-1.59-3a1,1,0,1,1,1-1A1,1,0,0,1,374.21,190.9Zm0-5.72a.71.71,0,1,1-.71.71A.71.71,0,0,1,374.21,185.18Zm0-4.09a.81.81,0,1,1-.8.81A.81.81,0,0,1,374.21,181.09Zm0-4.19a1,1,0,1,1-1,1A1,1,0,0,1,374.21,176.9Zm0-1.93a1.06,1.06,0,1,1,1.05-1.05A1,1,0,0,1,374.21,175Zm0-4.14a.91.91,0,1,1,.91-.91A.9.9,0,0,1,374.21,170.83Zm0-4.22a.68.68,0,1,1,.68-.68A.67.67,0,0,1,374.21,166.61Zm4,37.9a1.34,1.34,0,1,1,0,2.67,1.34,1.34,0,0,1,0-2.67Zm0-4.4a1.75,1.75,0,1,1-1.74,1.74A1.74,1.74,0,0,1,378.2,200.11Zm0-.54a1.71,1.71,0,1,1,1.71-1.71A1.71,1.71,0,0,1,378.2,199.57Zm1.49-5.7a1.49,1.49,0,1,1-1.49-1.48A1.49,1.49,0,0,1,379.69,193.87Zm-1.49-3.1a.89.89,0,1,1,.89-.89A.89.89,0,0,1,378.2,190.77Zm0-5.47a.59.59,0,1,1-.58.59A.59.59,0,0,1,378.2,185.3Zm0-4.11a.71.71,0,1,1-.7.71A.71.71,0,0,1,378.2,181.19Zm0-4.19a.91.91,0,1,1,0,1.81.91.91,0,0,1,0-1.81Zm0-2.13a1,1,0,1,1,1-1A1,1,0,0,1,378.2,174.87Zm.82-5a.82.82,0,1,1-.82-.81A.81.81,0,0,1,379,169.92Zm-1.39-4a.58.58,0,1,1,.57.58A.58.58,0,0,1,377.63,165.93Zm4.57,38.68a1.24,1.24,0,1,1-1.24,1.24A1.24,1.24,0,0,1,382.2,204.61Zm0-4.39a1.64,1.64,0,1,1-1.64,1.63A1.63,1.63,0,0,1,382.2,200.22Zm0-.75a1.61,1.61,0,1,1,1.6-1.61A1.61,1.61,0,0,1,382.2,199.47Zm1.36-5.6a1.37,1.37,0,1,1-1.36-1.36A1.36,1.36,0,0,1,383.56,193.87Zm-1.36-3.21a.78.78,0,0,1-.78-.78.78.78,0,1,1,.78.78Zm0-5.25a.48.48,0,1,1-.48.48A.48.48,0,0,1,382.2,185.41Zm0-4.1a.59.59,0,1,1-.59.59A.58.58,0,0,1,382.2,181.31Zm0-4.2a.79.79,0,0,1,.79.8.79.79,0,0,1-.79.79.79.79,0,0,1-.8-.79A.8.8,0,0,1,382.2,177.11Zm0-2.34a.86.86,0,1,1,.85-.85A.85.85,0,0,1,382.2,174.77Zm.7-4.85a.71.71,0,1,1-.7-.7A.7.7,0,0,1,382.9,169.92Zm-1.19-4a.49.49,0,0,1,1,0,.49.49,0,1,1-1,0Zm4.48,38.76a1.16,1.16,0,1,1-1.15,1.16A1.16,1.16,0,0,1,386.19,204.69Zm0-4.35a1.52,1.52,0,1,1-1.52,1.51A1.52,1.52,0,0,1,386.19,200.34Zm0-1a1.46,1.46,0,1,1,1.46-1.46A1.46,1.46,0,0,1,386.19,199.32Zm1.23-5.45a1.23,1.23,0,1,1-1.23-1.23A1.23,1.23,0,0,1,387.42,193.87Zm-1.23-3.35a.64.64,0,1,1,.64-.64A.64.64,0,0,1,386.19,190.52Zm.32-4.63a.32.32,0,0,1-.32.32.32.32,0,0,1,0-.64A.32.32,0,0,1,386.51,185.89Zm-.8-4a.48.48,0,1,1,1,0,.48.48,0,0,1-1,0Zm.48-4.66a.67.67,0,1,1-.67.67A.67.67,0,0,1,386.19,177.24Zm0-2.58a.74.74,0,0,1-.74-.74.74.74,0,1,1,1.48,0A.74.74,0,0,1,386.19,174.66Zm.61-4.74a.61.61,0,0,1-.61.61.61.61,0,1,1,.61-.61Zm-1-4a.38.38,0,0,1,.38-.37.38.38,0,0,1,0,.75A.38.38,0,0,1,385.81,165.93Zm4.37,38.86a1.06,1.06,0,1,1-1.05,1.06A1.06,1.06,0,0,1,390.18,204.79Zm0-4.32a1.39,1.39,0,1,1-1.39,1.38A1.38,1.38,0,0,1,390.18,200.47Zm0-1.27a1.34,1.34,0,1,1,1.34-1.34A1.34,1.34,0,0,1,390.18,199.2Zm1.08-5.33a1.09,1.09,0,1,1-1.08-1.08A1.08,1.08,0,0,1,391.26,193.87Zm-.55-4a.53.53,0,0,1-.53.53.53.53,0,0,1,0-1.06A.53.53,0,0,1,390.71,189.88Zm-.31-4a.22.22,0,1,1-.22-.22A.22.22,0,0,1,390.4,185.89Zm-.56-4a.34.34,0,1,1,.34.34A.34.34,0,0,1,389.84,181.9Zm.34-4.55a.56.56,0,1,1-.56.56A.56.56,0,0,1,390.18,177.35Zm0-2.81a.62.62,0,0,1-.62-.62.62.62,0,0,1,1.24,0A.62.62,0,0,1,390.18,174.54Zm.49-4.62a.49.49,0,1,1-.49-.48A.49.49,0,0,1,390.67,169.92Zm-.78-4a.29.29,0,0,1,.58,0,.29.29,0,0,1-.58,0Zm4.28,39a.95.95,0,1,1-.94.95A.95.95,0,0,1,394.17,204.9Zm0-4.3a1.25,1.25,0,1,1-1.25,1.25A1.25,1.25,0,0,1,394.17,200.6Zm0-1.52a1.22,1.22,0,1,1,1.22-1.22A1.22,1.22,0,0,1,394.17,199.08Zm1-5.21a1,1,0,1,1-1-1A1,1,0,0,1,395.13,193.87Zm-.55-4a.41.41,0,1,1-.41-.41A.41.41,0,0,1,394.58,189.88Zm-.29-4a.12.12,0,1,1-.12-.12A.12.12,0,0,1,394.29,185.89Zm-.35-4a.23.23,0,1,1,.23.23A.23.23,0,0,1,393.94,181.9Zm.23-4.45a.46.46,0,0,1,.45.46.45.45,0,1,1-.9,0A.46.46,0,0,1,394.17,177.45Zm0-3a.52.52,0,0,1-.52-.52.52.52,0,0,1,1,0A.52.52,0,0,1,394.17,174.44Zm0-4.11a.41.41,0,1,1,.41-.41A.41.41,0,0,1,394.17,170.33Zm.2-4.4a.2.2,0,1,1-.2-.2A.2.2,0,0,1,394.37,165.93ZM398.16,205a.83.83,0,1,1-.83.83A.83.83,0,0,1,398.16,205Zm0-4.26a1.1,1.1,0,1,1-1.09,1.09A1.09,1.09,0,0,1,398.16,200.76Zm0-1.83a1.07,1.07,0,1,1,1.06-1.07A1.06,1.06,0,0,1,398.16,198.93Zm.81-5.06a.81.81,0,1,1-.81-.81A.81.81,0,0,1,399,193.87Zm-.54-4a.27.27,0,0,1-.27.27.26.26,0,0,1-.26-.27.25.25,0,0,1,.26-.26A.26.26,0,0,1,398.43,189.88Zm-.26-4a0,0,0,0,1,0,0h0Zm-.13-4a.12.12,0,1,1,.24,0,.12.12,0,0,1-.24,0Zm.12-4.29a.29.29,0,0,1,.3.3.3.3,0,0,1-.3.3.31.31,0,0,1-.3-.3A.3.3,0,0,1,398.16,177.61Zm0-3.3a.39.39,0,0,1-.4-.39.4.4,0,0,1,.8,0A.39.39,0,0,1,398.16,174.31Zm0-4.1a.29.29,0,1,1,.29-.29A.29.29,0,0,1,398.16,170.21Zm.1-4.28a.09.09,0,0,1-.1.1.1.1,0,0,1-.1-.1.11.11,0,0,1,.1-.1A.1.1,0,0,1,398.26,165.93Zm3.89,39.19a.73.73,0,1,1,0,1.46.73.73,0,0,1,0-1.46Zm0-4.23a1,1,0,1,1-1,1A1,1,0,0,1,402.15,200.89Zm0-2.09a.94.94,0,1,1,.94-.94A.94.94,0,0,1,402.15,198.8Zm.69-4.93a.69.69,0,0,1-.69.69.68.68,0,0,1-.68-.69.67.67,0,0,1,.68-.68A.68.68,0,0,1,402.84,193.87Zm-.54-4a.15.15,0,0,1-.15.14.14.14,0,0,1,0-.28A.15.15,0,0,1,402.3,189.88Zm-.18-8s0,0,0,0a0,0,0,0,1,0,0s0,0,0,0A0,0,0,0,1,402.12,181.9Zm-.18-4a.21.21,0,0,1,.21-.21.21.21,0,0,1,.21.21.21.21,0,0,1-.21.21A.22.22,0,0,1,401.94,177.91Zm.48-4a.27.27,0,1,1-.27-.27A.27.27,0,0,1,402.42,173.92Zm-.27-3.83a.16.16,0,0,1-.16-.17.16.16,0,0,1,.16-.16.17.17,0,0,1,.17.16A.17.17,0,0,1,402.15,170.09Zm0-4.16s0,0,0,0,0,0,0,0a0,0,0,0,1,0,0A0,0,0,0,1,402.13,165.93Zm4,39.31a.61.61,0,1,1-.61.61A.61.61,0,0,1,406.14,205.24Zm0-4.17a.79.79,0,1,1-.78.78A.78.78,0,0,1,406.14,201.07Zm0-2.44a.77.77,0,0,1-.76-.77.76.76,0,0,1,.76-.76.77.77,0,0,1,.77.76A.78.78,0,0,1,406.14,198.63Zm.53-4.76a.52.52,0,0,1-.53.53.53.53,0,0,1-.53-.53.53.53,0,0,1,.53-.53A.53.53,0,0,1,406.67,193.87Zm-.47-4a.06.06,0,0,1-.06.06.06.06,0,0,1-.05-.06,0,0,0,0,1,.05,0A.06.06,0,0,1,406.2,189.88Zm-.16-12a.1.1,0,0,1,.1-.1.09.09,0,0,1,.1.1.1.1,0,0,1-.1.1A.11.11,0,0,1,406,177.91Zm.28-4a.18.18,0,0,1-.18.17.18.18,0,0,1-.17-.17.18.18,0,0,1,.17-.18A.18.18,0,0,1,406.32,173.92Zm-.09-4a.09.09,0,1,1-.18,0,.09.09,0,0,1,.18,0Zm3.9,35.42a.51.51,0,1,1-.5.51A.5.5,0,0,1,410.13,205.34Zm0-4.16a.68.68,0,1,1-.67.67A.67.67,0,0,1,410.13,201.18Zm0-2.66a.66.66,0,0,1-.65-.66.66.66,0,0,1,1.31,0A.66.66,0,0,1,410.13,198.52Zm.39-4.65a.39.39,0,1,1-.77,0,.39.39,0,1,1,.77,0Zm-.37-4h0s0,0,0,0h0Zm0-12h0Zm0-3.93a0,0,0,0,1-.05-.05s0-.06.05-.06a.05.05,0,0,1,.06.06S410.17,174,410.13,174Zm0-4a0,0,0,0,1,0,0h0A0,0,0,0,1,410.13,169.94Zm4,35.52a.39.39,0,1,1-.39.39A.38.38,0,0,1,414.13,205.46Zm0-4.11a.51.51,0,1,1-.51.5A.5.5,0,0,1,414.13,201.35Zm0-3a.48.48,0,1,1,.47-.48A.47.47,0,0,1,414.13,198.34Zm0-4.71a.25.25,0,0,1,0,.49.25.25,0,1,1,0-.49Zm4,12a.25.25,0,1,1-.25.25A.25.25,0,0,1,418.12,205.6Zm0-4.08a.34.34,0,0,1,0,.67.34.34,0,0,1,0-.67Zm0-3.34a.32.32,0,0,1-.32-.32.32.32,0,0,1,.32-.32.33.33,0,0,1,.32.32A.32.32,0,0,1,418.12,198.18Zm0-4.43a.13.13,0,0,1,.12.12.12.12,0,0,1-.12.12.12.12,0,0,1-.12-.12A.12.12,0,0,1,418.12,193.75Zm4,12a.12.12,0,0,1,.12.13.12.12,0,1,1-.24,0A.12.12,0,0,1,422.11,205.72Zm0-4a.16.16,0,0,1,.16.16.16.16,0,0,1-.16.17.17.17,0,0,1-.17-.17A.17.17,0,0,1,422.11,201.69Zm0-3.67a.16.16,0,0,1-.16-.16.16.16,0,0,1,.16-.15.15.15,0,0,1,.15.15A.16.16,0,0,1,422.11,198Zm0-4.15s0,0,0,0a0,0,0,0,1,0,0s0,0,0,0A0,0,0,0,1,422.14,193.87Zm4,12a0,0,0,0,1,0,0,0,0,0,0,1,0,0s0,0,0,0S426.12,205.83,426.12,205.85Zm0-4s0,0,0,0,0,0,0,0a0,0,0,0,1,0,0Zm0-4h0Zm-74.18-48a2.35,2.35,0,0,0,1.17,2,2.29,2.29,0,0,0,.27,4.08,2.09,2.09,0,1,0,2.95,2.33,2,2,0,1,0,2.62-2.33,2.18,2.18,0,0,0,1.36-1.21,2.14,2.14,0,0,0,1.61,1.22,1.9,1.9,0,1,0,.7,0,2.16,2.16,0,0,0,1.7-1.47,2,2,0,0,0,4-.52,1.94,1.94,0,0,0,1.94,1.83,2,2,0,0,0,0-3.92,1.94,1.94,0,0,0-1.94,1.83,2.06,2.06,0,0,0-1.47-1.84,2.07,2.07,0,0,0,1.47-1.54,2,2,0,1,0,0-1,2.11,2.11,0,0,0-4-.35,2.21,2.21,0,0,0-4-.18,2.25,2.25,0,0,0-2-1.26,1.73,1.73,0,1,0-.14,0,2.26,2.26,0,0,0-1.89,1.12,2.32,2.32,0,0,0-1.53-1.14,1.78,1.78,0,1,0-1,0A2.35,2.35,0,0,0,351.91,149.86Zm5.32,2a2.15,2.15,0,0,0-.93.91,2.33,2.33,0,0,0-.87-.92,2.39,2.39,0,0,0,.86-.87A2.22,2.22,0,0,0,357.23,151.89Zm5.89,0a2.22,2.22,0,0,0,1.17-1.2,2.09,2.09,0,0,0,1.37,1.19,2,2,0,0,0-1.37,1.32A2.14,2.14,0,0,0,363.12,151.89Zm-3.85,0a2.32,2.32,0,0,0,1-1,2.23,2.23,0,0,0,1.08,1,2.15,2.15,0,0,0-1.08,1.06A2.17,2.17,0,0,0,359.27,151.89ZM355.16,156a2.31,2.31,0,0,0,1.14-1.06,2.18,2.18,0,0,0,1.28,1.06,2,2,0,0,0-1.28,1.44A2.11,2.11,0,0,0,355.16,156Zm-.9,4.32a1.55,1.55,0,1,1-1.55,1.55A1.56,1.56,0,0,1,354.26,160.28Zm4,.1a1.45,1.45,0,1,1-1.45,1.45A1.45,1.45,0,0,1,358.25,160.38Zm4-12.85a1.66,1.66,0,1,1,1.66-1.66A1.66,1.66,0,0,1,362.24,147.53Zm0,12.95a1.35,1.35,0,1,1-1.35,1.35A1.35,1.35,0,0,1,362.24,160.48Zm4-13a1.6,1.6,0,1,1,1.59-1.59A1.59,1.59,0,0,1,366.23,147.46Zm-1.79,10.38a1.79,1.79,0,1,1,1.79,1.79A1.79,1.79,0,0,1,364.44,157.84Zm1.79,2.74a1.25,1.25,0,1,1-1.25,1.25A1.25,1.25,0,0,1,366.23,160.58Zm4-13.18a1.53,1.53,0,1,1,1.53-1.53A1.54,1.54,0,0,1,370.22,147.4Zm-1.69,10.44a1.7,1.7,0,1,1,1.69,1.69A1.69,1.69,0,0,1,368.53,157.84Zm1.69,2.86a1.13,1.13,0,1,1-1.13,1.13A1.13,1.13,0,0,1,370.22,160.7Zm4-13.4a1.43,1.43,0,1,1,1.43-1.43A1.42,1.42,0,0,1,374.21,147.3Zm0,.67a1.89,1.89,0,1,1-1.89,1.89A1.89,1.89,0,0,1,374.21,148Zm0,4a1.85,1.85,0,1,1-1.85,1.85A1.85,1.85,0,0,1,374.21,152Zm0,4.26a1.58,1.58,0,1,1-1.58,1.58A1.59,1.59,0,0,1,374.21,156.26Zm0,4.55a1,1,0,1,1-1,1A1,1,0,0,1,374.21,160.81Zm4-13.6a1.34,1.34,0,1,1,1.34-1.34A1.33,1.33,0,0,1,378.2,147.21Zm0,.9a1.75,1.75,0,1,1-1.74,1.75A1.75,1.75,0,0,1,378.2,148.11Zm0,4a1.7,1.7,0,1,1-1.7,1.7A1.7,1.7,0,0,1,378.2,152.15Zm0,4.21a1.48,1.48,0,1,1-1.48,1.48A1.49,1.49,0,0,1,378.2,156.36Zm0,4.59a.89.89,0,1,1-.88.88A.88.88,0,0,1,378.2,161Zm4-13.84a1.24,1.24,0,1,1,1.24-1.24A1.24,1.24,0,0,1,382.2,147.11Zm0,1.11a1.64,1.64,0,1,1-1.64,1.64A1.63,1.63,0,0,1,382.2,148.22Zm0,4a1.6,1.6,0,1,1-1.61,1.6A1.6,1.6,0,0,1,382.2,152.25Zm0,4.23a1.36,1.36,0,1,1-1.37,1.36A1.36,1.36,0,0,1,382.2,156.48Zm0,4.58a.78.78,0,1,1-.78.77A.78.78,0,0,1,382.2,161.06Zm4-14a1.15,1.15,0,1,1,1.15-1.15A1.15,1.15,0,0,1,386.19,147Zm0,1.32a1.52,1.52,0,1,1-1.52,1.52A1.52,1.52,0,0,1,386.19,148.34Zm0,4a1.46,1.46,0,1,1-1.46,1.46A1.46,1.46,0,0,1,386.19,152.39Zm0,4.22a1.23,1.23,0,1,1-1.23,1.23A1.23,1.23,0,0,1,386.19,156.61Zm0,4.58a.65.65,0,1,1-.65.64A.64.64,0,0,1,386.19,161.19Zm4-14.27a1,1,0,1,1,1.05-1A1,1,0,0,1,390.18,146.92Zm0,1.56a1.38,1.38,0,1,1-1.39,1.38A1.38,1.38,0,0,1,390.18,148.48Zm0,4a1.34,1.34,0,1,1-1.34,1.34A1.34,1.34,0,0,1,390.18,152.51Zm0,4.25a1.09,1.09,0,0,1,0,2.17,1.09,1.09,0,1,1,0-2.17Zm0,4.54a.53.53,0,0,1,.53.53.53.53,0,0,1-.53.53.52.52,0,0,1-.53-.53A.53.53,0,0,1,390.18,161.3Zm4-14.49a.94.94,0,1,1,.94-.94A.94.94,0,0,1,394.17,146.81Zm0,1.8a1.25,1.25,0,1,1-1.25,1.25A1.25,1.25,0,0,1,394.17,148.61Zm0,4a1.22,1.22,0,1,1-1.22,1.22A1.22,1.22,0,0,1,394.17,152.63Zm0,4.25a1,1,0,1,1-1,1A1,1,0,0,1,394.17,156.88Zm-.41,5a.41.41,0,1,1,.82,0,.41.41,0,0,1-.82,0Zm4.4-15.13a.83.83,0,1,1,.83-.83A.83.83,0,0,1,398.16,146.7Zm0,2.06a1.1,1.1,0,1,1-1.09,1.1A1.1,1.1,0,0,1,398.16,148.76Zm0,4a1.06,1.06,0,1,1-1.06,1.06A1.05,1.05,0,0,1,398.16,152.79Zm0,4.24a.81.81,0,1,1-.81.81A.81.81,0,0,1,398.16,157Zm-.26,4.8a.26.26,0,0,1,.26-.26.27.27,0,1,1,0,.53A.26.26,0,0,1,397.9,161.83Zm4.25-15.23a.73.73,0,1,1,0-1.46.73.73,0,1,1,0,1.46Zm0,2.3a1,1,0,1,1-1,1A1,1,0,0,1,402.15,148.9Zm0,4a.94.94,0,1,1-.94.94A.94.94,0,0,1,402.15,152.91Zm0,4.25a.68.68,0,0,1,.69.68.69.69,0,0,1-.69.69.68.68,0,0,1-.68-.69A.67.67,0,0,1,402.15,157.16Zm-.14,4.67a.14.14,0,0,1,.14-.14.15.15,0,0,1,.15.14.15.15,0,0,1-.15.15A.15.15,0,0,1,402,161.83Zm4.13-15.35a.62.62,0,0,1-.61-.61.61.61,0,0,1,.61-.61.61.61,0,0,1,.61.61A.61.61,0,0,1,406.14,146.48Zm0,2.59a.79.79,0,0,1,.79.79.79.79,0,1,1-.79-.79Zm-.76,4.78a.76.76,0,0,1,.76-.76.76.76,0,1,1,0,1.52A.76.76,0,0,1,405.38,153.85Zm.76,3.46a.53.53,0,0,1,.53.53.52.52,0,0,1-.53.53.53.53,0,0,1-.53-.53A.53.53,0,0,1,406.14,157.31Zm-.05,4.52a0,0,0,0,1,.05-.05.06.06,0,0,1,.06.05.06.06,0,0,1-.06.06A.06.06,0,0,1,406.09,161.83Zm4-15.45a.51.51,0,1,1,.51-.51A.5.5,0,0,1,410.13,146.38Zm0,2.8a.68.68,0,0,1,.68.68.68.68,0,1,1-.68-.68Zm-.65,4.67a.66.66,0,1,1,.65.65A.65.65,0,0,1,409.48,153.85Zm.65,3.6a.39.39,0,0,1,.39.39.39.39,0,1,1-.77,0A.39.39,0,0,1,410.13,157.45Zm0,4.39v0h0Zm4-15.58a.39.39,0,0,1-.39-.39.39.39,0,1,1,.77,0A.39.39,0,0,1,414.13,146.26Zm0,3.09a.51.51,0,0,1,0,1,.51.51,0,0,1,0-1Zm-.48,4.5a.48.48,0,1,1,.48.48A.48.48,0,0,1,413.65,153.85Zm.48,3.75a.25.25,0,0,1,0,.49.25.25,0,1,1,0-.49Zm4-11.49a.25.25,0,1,1,.24-.24A.25.25,0,0,1,418.12,146.11Zm0,3.42a.33.33,0,1,1,0,.66.33.33,0,0,1,0-.66Zm-.32,4.32a.32.32,0,0,1,.32-.32.32.32,0,0,1,0,.64A.32.32,0,0,1,417.8,153.85Zm.32,3.87a.12.12,0,0,1,0,.24.12.12,0,0,1,0-.24Zm4-11.73a.12.12,0,0,1-.12-.12.12.12,0,0,1,.24,0A.12.12,0,0,1,422.11,146Zm0,3.7a.17.17,0,0,1,0,.34.17.17,0,0,1,0-.34Zm-.16,4.16a.15.15,0,0,1,.16-.15.15.15,0,0,1,.15.15.16.16,0,0,1-.15.16A.16.16,0,0,1,422,153.85Zm.16,4a0,0,0,0,1,0,.06s0,0,0,0S422.09,157.81,422.11,157.81Zm4-11.94,0,0a0,0,0,0,1,0,0,0,0,0,0,1,0,0A0,0,0,0,1,426.12,145.87Zm0,4,0,0a0,0,0,0,1,0,0,0,0,0,0,1,0,0A0,0,0,0,1,426.12,149.86Zm0,4h0S426.09,153.86,426.09,153.85ZM72.37,204.14a1.79,1.79,0,1,1-1,0A2.31,2.31,0,0,1,69.83,203,2.26,2.26,0,0,1,68,204.13a1.73,1.73,0,1,1-.15,0,2.29,2.29,0,0,1-2-1.26,2.21,2.21,0,0,1-4-.18,2.11,2.11,0,0,1-4-.35,2,2,0,1,1,0-1,2.08,2.08,0,0,1,1.48-1.54A2,2,0,0,1,57.85,198a2,2,0,1,1,0-.26,2,2,0,0,1,4-.52,2.17,2.17,0,0,1,1.7-1.47,1.91,1.91,0,1,1,.7,0A2.16,2.16,0,0,1,65.84,197a2.25,2.25,0,0,1,1.36-1.22,2,2,0,1,1,2.62-2.32,2.09,2.09,0,1,1,3,2.32,2.29,2.29,0,0,1,.27,4.08,2.34,2.34,0,0,1-.67,4.31Zm-3.83-8.39a2.24,2.24,0,0,1,1.29,1.07A2.22,2.22,0,0,1,71,195.75a2.11,2.11,0,0,1-1.14-1.43A2,2,0,0,1,68.54,195.75ZM63,199.83a2.16,2.16,0,0,1-1.17-1.32,2,2,0,0,1-1.36,1.32A2.1,2.1,0,0,1,61.83,201,2.23,2.23,0,0,1,63,199.83Zm3.85,0a2.23,2.23,0,0,1-1-1.07,2.23,2.23,0,0,1-1.07,1.07,2.19,2.19,0,0,1,1.07,1A2.24,2.24,0,0,1,66.85,199.83Zm3.84,0a2.24,2.24,0,0,1-.86-.92,2.35,2.35,0,0,1-.93.92,2.29,2.29,0,0,1,.93.87A2.39,2.39,0,0,1,70.69,199.83Zm1.17-8.4a1.55,1.55,0,1,0-1.55-1.55A1.54,1.54,0,0,0,71.86,191.43Zm0-6.76a1.22,1.22,0,1,0,1.22,1.22A1.22,1.22,0,0,0,71.86,184.67Zm0-4.09a1.32,1.32,0,1,0,1.32,1.32A1.32,1.32,0,0,0,71.86,180.58Zm0-4.15a1.48,1.48,0,1,0,1.48,1.48A1.47,1.47,0,0,0,71.86,176.43Zm0-4a1.5,1.5,0,1,0,1.5,1.5A1.5,1.5,0,0,0,71.86,172.42Zm0-1.15a1.35,1.35,0,1,0-1.35-1.35A1.34,1.34,0,0,0,71.86,171.27Zm0-4.26a1.08,1.08,0,1,0-1.07-1.08A1.08,1.08,0,0,0,71.86,167Zm-4,24.32a1.45,1.45,0,1,0-1.45-1.45A1.45,1.45,0,0,0,67.87,191.33Zm0-6.57A1.13,1.13,0,1,0,69,185.89,1.14,1.14,0,0,0,67.87,184.76Zm0-4.09a1.23,1.23,0,1,0,1.23,1.23A1.23,1.23,0,0,0,67.87,180.67Zm0-4.16a1.4,1.4,0,1,0,1.4,1.4A1.4,1.4,0,0,0,67.87,176.51Zm0-4a1.42,1.42,0,1,0,1.42,1.42A1.41,1.41,0,0,0,67.87,172.5Zm0-1.31a1.27,1.27,0,1,0-1.26-1.27A1.26,1.26,0,0,0,67.87,171.19Zm0-4.25a1,1,0,1,0-1-1A1,1,0,0,0,67.87,166.94Zm-4,37.25a1.66,1.66,0,1,0,1.66,1.66A1.66,1.66,0,0,0,63.88,204.19Zm0-13a1.35,1.35,0,1,0-1.35-1.35A1.34,1.34,0,0,0,63.88,191.23Zm0-6.36a1,1,0,1,0,1,1A1,1,0,0,0,63.88,184.87Zm0-4.11A1.14,1.14,0,1,0,65,181.9,1.14,1.14,0,0,0,63.88,180.76Zm0-4.15a1.3,1.3,0,1,0,1.3,1.3A1.3,1.3,0,0,0,63.88,176.61Zm0-4a1.34,1.34,0,1,0,1.34,1.34A1.34,1.34,0,0,0,63.88,172.58Zm0-1.47a1.19,1.19,0,1,0-1.18-1.19A1.19,1.19,0,0,0,63.88,171.11Zm0-4.25a.93.93,0,0,0,0-1.86.93.93,0,1,0,0,1.86Zm-4,37.39a1.6,1.6,0,1,0,1.59,1.6A1.6,1.6,0,0,0,59.89,204.25Zm0-8.58a1.8,1.8,0,1,0-1.79-1.8A1.8,1.8,0,0,0,59.89,195.67Zm0-4.54a1.25,1.25,0,1,0-1.25-1.25A1.25,1.25,0,0,0,59.89,191.13Zm0-6.15a.91.91,0,1,0,.91.91A.91.91,0,0,0,59.89,185Zm0-4.12a1,1,0,1,0,1,1A1,1,0,0,0,59.89,180.86Zm0-4.16a1.21,1.21,0,1,0,1.21,1.21A1.21,1.21,0,0,0,59.89,176.7Zm0-1.54a1.24,1.24,0,1,0-1.24-1.24A1.24,1.24,0,0,0,59.89,175.16Zm0-4.15a1.09,1.09,0,1,0-1.08-1.09A1.09,1.09,0,0,0,59.89,171Zm0-4.22a.86.86,0,0,0,.85-.86.85.85,0,0,0-1.7,0A.86.86,0,0,0,59.89,166.79Zm-4,37.53a1.53,1.53,0,1,0,1.53,1.53A1.53,1.53,0,0,0,55.9,204.32Zm0-8.75a1.7,1.7,0,1,0-1.69-1.7A1.7,1.7,0,0,0,55.9,195.57Zm0-4.56a1.13,1.13,0,1,0-1.13-1.13A1.14,1.14,0,0,0,55.9,191Zm0-5.94a.82.82,0,1,0,.82.82A.82.82,0,0,0,55.9,185.07Zm0-4.11a.94.94,0,1,0,.94.94A.94.94,0,0,0,55.9,181Zm0-4.16A1.11,1.11,0,1,0,57,177.91,1.11,1.11,0,0,0,55.9,176.8Zm0-4a1.16,1.16,0,1,0,1.15,1.16A1.15,1.15,0,0,0,55.9,172.76Zm0-1.83a1,1,0,1,0-1-1A1,1,0,0,0,55.9,170.93Zm0-4.23a.77.77,0,0,0,.76-.77.76.76,0,0,0-1.52,0A.77.77,0,0,0,55.9,166.7Zm-4,37.72a1.43,1.43,0,1,0,1.43,1.43A1.43,1.43,0,0,0,51.91,204.42Zm0-4.46a1.9,1.9,0,1,0,1.89,1.89A1.89,1.89,0,0,0,51.91,200Zm0-.25a1.85,1.85,0,1,0-1.85-1.85A1.85,1.85,0,0,0,51.91,199.71Zm-1.58-5.84a1.58,1.58,0,1,0,1.58-1.58A1.57,1.57,0,0,0,50.33,193.87Zm1.58-3a1,1,0,1,0-1-1A1,1,0,0,0,51.91,190.9Zm0-5.72a.71.71,0,1,0,.71.71A.71.71,0,0,0,51.91,185.18Zm0-4.09a.81.81,0,1,0,0,1.62.81.81,0,0,0,0-1.62Zm0-4.19a1,1,0,1,0,1,1A1,1,0,0,0,51.91,176.9Zm0-1.93a1.06,1.06,0,1,0-1-1.05A1,1,0,0,0,51.91,175Zm0-4.14a.91.91,0,1,0-.91-.91A.91.91,0,0,0,51.91,170.83Zm0-4.22a.68.68,0,1,0-.68-.68A.68.68,0,0,0,51.91,166.61Zm-4,37.9a1.34,1.34,0,1,0,1.34,1.34A1.34,1.34,0,0,0,47.92,204.51Zm0-4.4a1.75,1.75,0,1,0,1.75,1.74A1.74,1.74,0,0,0,47.92,200.11Zm0-.54a1.71,1.71,0,1,0-1.71-1.71A1.71,1.71,0,0,0,47.92,199.57Zm-1.49-5.7a1.49,1.49,0,1,0,1.49-1.48A1.49,1.49,0,0,0,46.43,193.87Zm1.49-3.1a.89.89,0,1,0-.89-.89A.88.88,0,0,0,47.92,190.77Zm0-5.47a.59.59,0,1,0,.58.59A.59.59,0,0,0,47.92,185.3Zm0-4.11a.71.71,0,1,0,.71.71A.71.71,0,0,0,47.92,181.19Zm0-4.19a.91.91,0,1,0,0,1.81.91.91,0,0,0,0-1.81Zm0-2.13a1,1,0,1,0-1-1A1,1,0,0,0,47.92,174.87Zm-.82-5a.82.82,0,1,0,.82-.81A.81.81,0,0,0,47.1,169.92Zm1.39-4a.58.58,0,1,0-.57.58A.58.58,0,0,0,48.49,165.93Zm-4.56,38.68a1.24,1.24,0,1,0,1.23,1.24A1.23,1.23,0,0,0,43.93,204.61Zm0-4.39a1.64,1.64,0,1,0,1.63,1.63A1.63,1.63,0,0,0,43.93,200.22Zm0-.75a1.61,1.61,0,1,0-1.61-1.61A1.61,1.61,0,0,0,43.93,199.47Zm-1.37-5.6a1.37,1.37,0,1,0,1.37-1.36A1.36,1.36,0,0,0,42.56,193.87Zm1.37-3.21a.78.78,0,0,0,.77-.78.78.78,0,0,0-1.55,0A.78.78,0,0,0,43.93,190.66Zm0-5.25a.48.48,0,1,0,.47.48A.48.48,0,0,0,43.93,185.41Zm0-4.1a.59.59,0,1,0,.58.59A.58.58,0,0,0,43.93,181.31Zm0-4.2a.8.8,0,0,0-.8.8.79.79,0,0,0,.8.79.79.79,0,0,0,.79-.79A.79.79,0,0,0,43.93,177.11Zm0-2.34a.85.85,0,0,0,.85-.85.86.86,0,1,0-.85.85Zm-.71-4.85a.71.71,0,1,0,.71-.7A.7.7,0,0,0,43.22,169.92Zm1.19-4a.49.49,0,0,0-1,0,.49.49,0,1,0,1,0Zm-4.48,38.76a1.16,1.16,0,1,0,1.16,1.16A1.16,1.16,0,0,0,39.93,204.69Zm0-4.35a1.52,1.52,0,1,0,1.52,1.51A1.52,1.52,0,0,0,39.93,200.34Zm0-1a1.46,1.46,0,1,0-1.46-1.46A1.46,1.46,0,0,0,39.93,199.32Zm-1.22-5.45a1.23,1.23,0,1,0,1.22-1.23A1.23,1.23,0,0,0,38.71,193.87Zm1.22-3.35a.64.64,0,1,0-.64-.64A.64.64,0,0,0,39.93,190.52Zm-.32-4.63a.33.33,0,1,0,.32-.32A.32.32,0,0,0,39.61,185.89Zm.8-4a.48.48,0,1,0-.95,0,.48.48,0,0,0,.95,0Zm-.48-4.66a.67.67,0,1,0,.67.67A.67.67,0,0,0,39.93,177.24Zm0-2.58a.75.75,0,0,0,.75-.74.76.76,0,0,0-.75-.75.75.75,0,0,0-.74.75A.74.74,0,0,0,39.93,174.66Zm-.6-4.74a.61.61,0,1,0,.6-.6A.6.6,0,0,0,39.33,169.92Zm1-4a.38.38,0,1,0-.38.38A.38.38,0,0,0,40.31,165.93Zm-4.37,38.86A1.06,1.06,0,1,0,37,205.85,1.06,1.06,0,0,0,35.94,204.79Zm0-4.32a1.39,1.39,0,1,0,1.39,1.38A1.38,1.38,0,0,0,35.94,200.47Zm0-1.27a1.34,1.34,0,1,0-1.34-1.34A1.34,1.34,0,0,0,35.94,199.2Zm-1.08-5.33a1.09,1.09,0,1,0,1.08-1.08A1.08,1.08,0,0,0,34.86,193.87Zm.55-4a.53.53,0,0,0,.53.53.53.53,0,0,0,0-1.06A.53.53,0,0,0,35.41,189.88Zm.31-4a.22.22,0,0,0,.22.22.22.22,0,1,0,0-.44A.22.22,0,0,0,35.72,185.89Zm.57-4a.35.35,0,0,0-.35-.34.34.34,0,0,0,0,.68A.35.35,0,0,0,36.29,181.9Zm-.35-4.55a.56.56,0,1,0,.56.56A.56.56,0,0,0,35.94,177.35Zm0-2.81a.62.62,0,0,0,.62-.62.61.61,0,0,0-.62-.62.62.62,0,0,0-.62.62A.62.62,0,0,0,35.94,174.54Zm-.48-4.62a.48.48,0,0,0,.48.49.49.49,0,1,0,0-1A.48.48,0,0,0,35.46,169.92Zm.77-4a.28.28,0,0,0-.29-.28.27.27,0,0,0-.28.28.28.28,0,0,0,.28.29A.29.29,0,0,0,36.23,165.93ZM32,204.9a.95.95,0,1,0,.94.95A.95.95,0,0,0,32,204.9Zm0-4.3a1.25,1.25,0,1,0,1.25,1.25A1.25,1.25,0,0,0,32,200.6Zm0-1.52a1.22,1.22,0,1,0-1.22-1.22A1.22,1.22,0,0,0,32,199.08Zm-1-5.21a1,1,0,1,0,1-1A1,1,0,0,0,31,193.87Zm.55-4a.41.41,0,0,0,.41.41.41.41,0,1,0,0-.82A.41.41,0,0,0,31.54,189.88Zm.29-4a.12.12,0,1,0,.12-.12A.12.12,0,0,0,31.83,185.89Zm.35-4a.23.23,0,1,0-.23.23A.23.23,0,0,0,32.18,181.9ZM32,177.45a.46.46,0,0,0-.45.46.45.45,0,0,0,.45.45.46.46,0,0,0,.46-.45A.47.47,0,0,0,32,177.45Zm0-3a.52.52,0,0,0,.52-.52.52.52,0,0,0-1,0A.52.52,0,0,0,32,174.44Zm0-4.11a.41.41,0,1,0,0-.81.41.41,0,1,0,0,.81Zm-.2-4.4a.2.2,0,1,0,.2-.2A.2.2,0,0,0,31.75,165.93ZM28,205a.83.83,0,1,0,.83.83A.83.83,0,0,0,28,205Zm0-4.26a1.1,1.1,0,1,0,1.1,1.09A1.09,1.09,0,0,0,28,200.76Zm0-1.83a1.07,1.07,0,1,0-1.06-1.07A1.06,1.06,0,0,0,28,198.93Zm-.81-5.06a.81.81,0,1,0,.81-.81A.81.81,0,0,0,27.15,193.87Zm.55-4a.26.26,0,0,0,.26.27.27.27,0,0,0,.27-.27.26.26,0,0,0-.27-.26A.25.25,0,0,0,27.7,189.88Zm.25-4a0,0,0,0,0,0,0h0Zm.13-4a.12.12,0,1,0-.24,0,.12.12,0,1,0,.24,0ZM28,177.61a.3.3,0,0,0-.3.3.31.31,0,0,0,.3.3.3.3,0,0,0,.3-.3A.29.29,0,0,0,28,177.61Zm0-3.3a.39.39,0,0,0,.4-.39.4.4,0,1,0-.8,0A.39.39,0,0,0,28,174.31Zm0-4.1a.29.29,0,1,0-.29-.29A.29.29,0,0,0,28,170.21Zm-.1-4.28a.1.1,0,0,0,.1.1.09.09,0,0,0,.1-.1.1.1,0,0,0-.1-.1A.11.11,0,0,0,27.86,165.93ZM24,205.12a.73.73,0,1,0,.73.73A.73.73,0,0,0,24,205.12Zm0-4.23a1,1,0,1,0,1,1A1,1,0,0,0,24,200.89Zm0-2.09a.94.94,0,1,0-.94-.94A.94.94,0,0,0,24,198.8Zm-.69-4.93a.69.69,0,0,0,1.38,0,.69.69,0,0,0-1.38,0Zm.55-4a.14.14,0,1,0,.14-.14A.14.14,0,0,0,23.83,189.88Zm.17-8s0,0,0,0,0,0,0,0a0,0,0,0,0,.06,0Zm.18-4a.21.21,0,1,0-.42,0,.21.21,0,1,0,.42,0Zm-.48-4a.27.27,0,0,0,.27.26.27.27,0,0,0,0-.53A.27.27,0,0,0,23.7,173.92Zm.27-3.83a.17.17,0,0,0,.17-.17.17.17,0,0,0-.34,0A.17.17,0,0,0,24,170.09Zm0-4.16s0,0,0,0,0,0,0,0a0,0,0,0,0,0,0A0,0,0,0,0,24,165.93Zm-4,39.31a.61.61,0,1,0,.61.61A.61.61,0,0,0,20,205.24Zm0-4.17a.79.79,0,1,0,.78.78A.78.78,0,0,0,20,201.07Zm0-2.44a.77.77,0,0,0,.76-.77.76.76,0,0,0-.76-.76.77.77,0,0,0-.77.76A.78.78,0,0,0,20,198.63Zm-.53-4.76a.52.52,0,0,0,.53.53.53.53,0,0,0,.53-.53.53.53,0,0,0-.53-.53A.53.53,0,0,0,19.45,193.87Zm.47-4a.06.06,0,0,0,.06.06.06.06,0,0,0,.05-.06,0,0,0,0,0-.05,0A.06.06,0,0,0,19.92,189.88Zm.16-12a.1.1,0,0,0-.1-.1.09.09,0,0,0-.1.1.1.1,0,0,0,.1.1A.11.11,0,0,0,20.08,177.91Zm-.28-4a.18.18,0,0,0,.36,0,.18.18,0,0,0-.36,0Zm.09-4a.09.09,0,0,0,.18,0,.09.09,0,0,0-.18,0ZM16,205.34a.51.51,0,1,0,.51.51A.51.51,0,0,0,16,205.34Zm0-4.16a.68.68,0,1,0,.67.67A.67.67,0,0,0,16,201.18Zm0-2.66a.66.66,0,0,0,.65-.66.65.65,0,0,0-.65-.65.66.66,0,0,0-.66.65A.67.67,0,0,0,16,198.52Zm-.39-4.65a.39.39,0,1,0,.77,0,.39.39,0,1,0-.77,0Zm.38-4h0s0,0,0,0h0Zm0-12h0ZM16,174a0,0,0,0,0,0-.05s0-.06,0-.06a.06.06,0,0,0-.06.06A.06.06,0,0,0,16,174Zm0-4a0,0,0,0,0,0,0h0S16,169.94,16,169.94Zm-4,35.52a.39.39,0,1,0,0,.77.39.39,0,0,0,0-.77Zm0-4.11a.51.51,0,1,0,.5.5A.5.5,0,0,0,12,201.35Zm0-3a.48.48,0,1,0-.48-.48A.47.47,0,0,0,12,198.34Zm0-4.71a.25.25,0,1,0,.24.24A.25.25,0,0,0,12,193.63Zm-4,12a.25.25,0,1,0,.25.25A.25.25,0,0,0,8,205.6Zm0-4.08a.34.34,0,0,0,0,.67.34.34,0,1,0,0-.67Zm0-3.34a.32.32,0,0,0,.33-.32.33.33,0,0,0-.65,0A.32.32,0,0,0,8,198.18Zm0-4.43a.13.13,0,0,0-.12.12A.12.12,0,0,0,8,194a.12.12,0,0,0,.13-.12A.13.13,0,0,0,8,193.75Zm-4,12a.13.13,0,0,0-.12.13A.13.13,0,0,0,4,206a.12.12,0,0,0,.12-.12A.12.12,0,0,0,4,205.72Zm0-4a.16.16,0,0,0-.16.16A.16.16,0,0,0,4,202a.17.17,0,0,0,.17-.17A.17.17,0,0,0,4,201.69ZM4,198a.16.16,0,0,0,.16-.16.16.16,0,0,0-.16-.15.15.15,0,0,0-.15.15A.16.16,0,0,0,4,198Zm0-4.15s0,0,0,0a0,0,0,0,0,0,0s0,0,0,0A0,0,0,0,0,4,193.87Zm-4,12a0,0,0,0,0,0,0,0,0,0,0,0,0,0s0,0,0,0S0,205.83,0,205.85Zm0-4s0,0,0,0,0,0,0,0l0,0Zm0-4H0Zm74.18-48a2.33,2.33,0,0,1-1.17,2,2.29,2.29,0,0,1-.27,4.08,2.09,2.09,0,1,1-3,2.33A2,2,0,1,1,67.2,156a2.21,2.21,0,0,1-1.36-1.21A2.12,2.12,0,0,1,64.23,156a1.9,1.9,0,1,1-.7,0,2.17,2.17,0,0,1-1.7-1.47,2,2,0,0,1-4-.52,2,2,0,1,1,0-.26,2,2,0,0,1,1.47-1.84,2.07,2.07,0,0,1-1.48-1.54,2,2,0,1,1,0-1,2.11,2.11,0,0,1,4-.35,2.21,2.21,0,0,1,4-.18,2.25,2.25,0,0,1,2-1.26,1.73,1.73,0,1,1,.15,0,2.25,2.25,0,0,1,1.88,1.12,2.34,2.34,0,0,1,1.53-1.14,1.79,1.79,0,1,1,1,0A2.35,2.35,0,0,1,74.21,149.86Zm-5.31,2a2.26,2.26,0,0,1,.93.91,2.24,2.24,0,0,1,.86-.92,2.39,2.39,0,0,1-.86-.87A2.25,2.25,0,0,1,68.9,151.89Zm-5.9,0a2.22,2.22,0,0,1-1.17-1.2,2.1,2.1,0,0,1-1.36,1.19,2,2,0,0,1,1.36,1.32A2.14,2.14,0,0,1,63,151.89Zm3.85,0a2.32,2.32,0,0,1-1-1,2.25,2.25,0,0,1-1.07,1A2.16,2.16,0,0,1,65.84,153,2.17,2.17,0,0,1,66.85,151.89ZM71,156a2.25,2.25,0,0,1-1.13-1.06A2.23,2.23,0,0,1,68.54,156a2,2,0,0,1,1.28,1.44A2.11,2.11,0,0,1,71,156Zm.9,4.32a1.55,1.55,0,1,0,1.55,1.55A1.56,1.56,0,0,0,71.86,160.28Zm-4,.1a1.45,1.45,0,1,0,1.45,1.45A1.45,1.45,0,0,0,67.87,160.38Zm-4-12.85a1.66,1.66,0,1,0-1.66-1.66A1.66,1.66,0,0,0,63.88,147.53Zm0,12.95a1.35,1.35,0,1,0,1.35,1.35A1.36,1.36,0,0,0,63.88,160.48Zm-4-13a1.6,1.6,0,1,0-1.59-1.59A1.59,1.59,0,0,0,59.89,147.46Zm1.79,10.38a1.79,1.79,0,1,0-1.79,1.79A1.79,1.79,0,0,0,61.68,157.84Zm-1.79,2.74a1.25,1.25,0,1,0,1.25,1.25A1.25,1.25,0,0,0,59.89,160.58Zm-4-13.18a1.53,1.53,0,1,0-1.53-1.53A1.54,1.54,0,0,0,55.9,147.4Zm1.69,10.44a1.69,1.69,0,1,0-1.69,1.69A1.69,1.69,0,0,0,57.59,157.84ZM55.9,160.7A1.13,1.13,0,1,0,57,161.83,1.14,1.14,0,0,0,55.9,160.7Zm-4-13.4a1.43,1.43,0,1,0-1.43-1.43A1.43,1.43,0,0,0,51.91,147.3Zm0,.67a1.89,1.89,0,1,0,1.89,1.89A1.88,1.88,0,0,0,51.91,148Zm0,4a1.85,1.85,0,1,0,1.85,1.85A1.85,1.85,0,0,0,51.91,152Zm0,4.26a1.58,1.58,0,1,0,1.58,1.58A1.58,1.58,0,0,0,51.91,156.26Zm0,4.55a1,1,0,1,0,1,1A1,1,0,0,0,51.91,160.81Zm-4-13.6a1.34,1.34,0,1,0-1.34-1.34A1.34,1.34,0,0,0,47.92,147.21Zm0,.9a1.75,1.75,0,1,0,1.75,1.75A1.75,1.75,0,0,0,47.92,148.11Zm0,4a1.7,1.7,0,1,0,1.7,1.7A1.71,1.71,0,0,0,47.92,152.15Zm0,4.21a1.48,1.48,0,1,0,1.48,1.48A1.49,1.49,0,0,0,47.92,156.36Zm0,4.59a.89.89,0,1,0,.88.88A.88.88,0,0,0,47.92,161Zm-4-13.84a1.24,1.24,0,1,0-1.24-1.24A1.24,1.24,0,0,0,43.93,147.11Zm0,1.11a1.64,1.64,0,1,0,1.63,1.64A1.63,1.63,0,0,0,43.93,148.22Zm0,4a1.6,1.6,0,1,0,1.6,1.6A1.6,1.6,0,0,0,43.93,152.25Zm0,4.23a1.36,1.36,0,1,0,1.36,1.36A1.36,1.36,0,0,0,43.93,156.48Zm0,4.58a.78.78,0,1,0,.77.77A.78.78,0,0,0,43.93,161.06Zm-4-14a1.15,1.15,0,1,0-1.15-1.15A1.16,1.16,0,0,0,39.93,147Zm0,1.32a1.52,1.52,0,1,0,1.52,1.52A1.52,1.52,0,0,0,39.93,148.34Zm0,4a1.46,1.46,0,1,0,1.47,1.46A1.46,1.46,0,0,0,39.93,152.39Zm0,4.22a1.23,1.23,0,1,0,1.23,1.23A1.23,1.23,0,0,0,39.93,156.61Zm0,4.58a.65.65,0,1,0,.65.64A.64.64,0,0,0,39.93,161.19Zm-4-14.27a1,1,0,1,0-1-1A1,1,0,0,0,35.94,146.92Zm0,1.56a1.38,1.38,0,1,0,1.39,1.38A1.38,1.38,0,0,0,35.94,148.48Zm0,4a1.34,1.34,0,1,0,1.34,1.34A1.34,1.34,0,0,0,35.94,152.51Zm0,4.25a1.09,1.09,0,0,0,0,2.17,1.09,1.09,0,1,0,0-2.17Zm0,4.54a.53.53,0,0,0-.53.53.53.53,0,0,0,.53.53.52.52,0,0,0,.53-.53A.53.53,0,0,0,35.94,161.3Zm-4-14.49a.94.94,0,1,0-.94-.94A.94.94,0,0,0,32,146.81Zm0,1.8a1.25,1.25,0,1,0,1.25,1.25A1.25,1.25,0,0,0,32,148.61Zm0,4a1.22,1.22,0,1,0,1.22,1.22A1.22,1.22,0,0,0,32,152.63Zm0,4.25a1,1,0,1,0,1,1A1,1,0,0,0,32,156.88Zm.41,5a.41.41,0,0,0-.41-.41.42.42,0,0,0-.41.41.41.41,0,0,0,.41.41A.41.41,0,0,0,32.36,161.83ZM28,146.7a.83.83,0,1,0-.83-.83A.83.83,0,0,0,28,146.7Zm0,2.06a1.1,1.1,0,1,0,1.1,1.1A1.09,1.09,0,0,0,28,148.76Zm0,4A1.06,1.06,0,1,0,29,153.85,1.05,1.05,0,0,0,28,152.79ZM28,157a.81.81,0,1,0,.81.81A.81.81,0,0,0,28,157Zm.27,4.8a.27.27,0,0,0-.27-.26.27.27,0,0,0,0,.53A.27.27,0,0,0,28.23,161.83ZM24,146.6a.73.73,0,1,0-.73-.73A.73.73,0,0,0,24,146.6Zm0,2.3a1,1,0,1,0,1,1A1,1,0,0,0,24,148.9Zm0,4a.94.94,0,1,0,.94.94A.94.94,0,0,0,24,152.91Zm0,4.25a.68.68,0,0,0-.69.68.69.69,0,0,0,1.38,0A.68.68,0,0,0,24,157.16Zm.14,4.67a.14.14,0,1,0-.28,0,.14.14,0,1,0,.28,0ZM20,146.48a.62.62,0,0,0,.61-.61.61.61,0,0,0-.61-.61.61.61,0,0,0-.61.61A.61.61,0,0,0,20,146.48Zm0,2.59a.79.79,0,0,0-.79.79.79.79,0,1,0,.79-.79Zm.76,4.78a.76.76,0,0,0-.76-.76.76.76,0,1,0,0,1.52A.76.76,0,0,0,20.74,153.85ZM20,157.31a.53.53,0,0,0-.53.53.52.52,0,0,0,.53.53.53.53,0,0,0,.53-.53A.53.53,0,0,0,20,157.31Zm.05,4.52a0,0,0,0,0-.05-.05.06.06,0,0,0-.06.05.06.06,0,0,0,.06.06A.06.06,0,0,0,20,161.83Zm-4-15.45a.51.51,0,1,0-.51-.51A.51.51,0,0,0,16,146.38Zm0,2.8a.68.68,0,0,0-.68.68.68.68,0,1,0,.68-.68Zm.65,4.67a.65.65,0,0,0-.65-.65.65.65,0,1,0,0,1.3A.65.65,0,0,0,16.64,153.85Zm-.65,3.6a.39.39,0,0,0-.39.39.39.39,0,1,0,.77,0A.39.39,0,0,0,16,157.45Zm0,4.39v0a0,0,0,0,0,0,0h0Zm-4-15.58a.39.39,0,0,0,.38-.39.39.39,0,1,0-.77,0A.39.39,0,0,0,12,146.26Zm0,3.09a.51.51,0,1,0,.5.51A.51.51,0,0,0,12,149.35Zm.47,4.5a.48.48,0,1,0-.47.48A.48.48,0,0,0,12.47,153.85ZM12,157.6a.25.25,0,1,0,.24.24A.25.25,0,0,0,12,157.6ZM8,146.11a.25.25,0,1,0-.24-.24A.25.25,0,0,0,8,146.11Zm0,3.42a.33.33,0,1,0,.34.33A.33.33,0,0,0,8,149.53Zm.33,4.32a.33.33,0,1,0-.33.32A.32.32,0,0,0,8.33,153.85ZM8,157.72A.12.12,0,1,0,8,158a.12.12,0,1,0,0-.24ZM4,146a.12.12,0,0,0,.12-.12.12.12,0,0,0-.12-.12.12.12,0,0,0-.12.12A.13.13,0,0,0,4,146Zm0,3.7A.17.17,0,0,0,4,150a.17.17,0,0,0,0-.34Zm.16,4.16A.15.15,0,0,0,4,153.7a.15.15,0,0,0-.15.15A.16.16,0,0,0,4,154,.16.16,0,0,0,4.17,153.85Zm-.16,4a0,0,0,0,0,0,.06s0,0,0,0S4,157.81,4,157.81ZM0,145.87l0,0,0,0,0,0A0,0,0,0,0,0,145.87Zm0,4,0,0,0,0a0,0,0,0,0,0,0A0,0,0,0,0,0,149.86Zm0,4H0a0,0,0,0,0,0,0A0,0,0,0,0,0,153.85Z"/>
		
		<path id="fluxMaskIns" class="fluxColorC"
		 		d="M203.75,189.09a1.34,1.34,0,1,1-1.34-1.33A1.34,1.34,0,0,1,203.75,189.09Zm3,2.92a1.4,1.4,0,1,0,1.4,1.4A1.4,1.4,0,0,0,206.72,192Zm-4.31-6a1.18,1.18,0,1,0-1.17-1.18A1.17,1.17,0,0,0,202.41,186Zm4.31-19.9a1.24,1.24,0,1,0,1.23,1.23A1.23,1.23,0,0,0,206.72,166.06Zm8.62-5.77a1.62,1.62,0,1,0-1.61-1.62A1.62,1.62,0,0,0,215.34,160.29Zm-8.62,17.21a1.46,1.46,0,1,0-1.46-1.45A1.45,1.45,0,0,0,206.72,177.5Zm0-15.91a1.4,1.4,0,1,0,1.4,1.39A1.4,1.4,0,0,0,206.72,161.59Zm0,8.92a1.1,1.1,0,1,0,1.1,1.09A1.1,1.1,0,0,0,206.72,170.51Zm-4.31,10.88a.92.92,0,1,0-.92-.92A.92.92,0,0,0,202.41,181.39Zm0,10.71a1.31,1.31,0,1,0,1.3,1.31A1.31,1.31,0,0,0,202.41,192.1Zm0-27.81a1.31,1.31,0,1,0-1.3-1.31A1.31,1.31,0,0,0,202.41,164.29Zm0,1.88a1.13,1.13,0,1,0,1.13,1.12A1.12,1.12,0,0,0,202.41,166.17Zm-4.31,39a1.2,1.2,0,0,0-1.18,1c.7-.17,1.41-.35,2.14-.55A1.22,1.22,0,0,0,198.1,205.12Zm4.31-34.5a1,1,0,1,0,1,1A1,1,0,0,0,202.41,170.62Zm0,6.78a1.35,1.35,0,1,0-1.35-1.35A1.35,1.35,0,0,0,202.41,177.4Zm0,23.65a1,1,0,1,0,1,1A1,1,0,0,0,202.41,201.05Zm0-4.46a1.13,1.13,0,1,0,1.13,1.12A1.12,1.12,0,0,0,202.41,196.59ZM211,186.15a1.37,1.37,0,1,0-1.36-1.37A1.37,1.37,0,0,0,211,186.15Zm0,10.24a1.33,1.33,0,1,0,1.33,1.32A1.32,1.32,0,0,0,211,196.39Zm0-8.82a1.53,1.53,0,1,0,1.53,1.52A1.53,1.53,0,0,0,211,187.57Zm0-10a1.57,1.57,0,1,0-1.56-1.56A1.56,1.56,0,0,0,211,177.61Zm-12.93,14.6a1.2,1.2,0,1,0,1.2,1.2A1.19,1.19,0,0,0,198.1,192.21ZM211,191.9a1.51,1.51,0,1,0,1.51,1.51A1.5,1.5,0,0,0,211,191.9Zm4.31-14.18a1.68,1.68,0,0,0,1.68-1.67s0-.05,0-.07,0,0,0-.06a1.68,1.68,0,1,0-3.35,0s0,0,0,.06,0,0,0,.07A1.67,1.67,0,0,0,215.34,177.72ZM211,181.56a1.09,1.09,0,1,0-1.09-1.09A1.09,1.09,0,0,0,211,181.56Zm-1.13,20,1.47-.72a1.28,1.28,0,0,0-.34-.06A1.21,1.21,0,0,0,209.9,201.59Zm1.13-31.2a1.22,1.22,0,1,0,1.22,1.21A1.22,1.22,0,0,0,211,170.39Zm-4.31,11.09a1,1,0,1,0-1-1A1,1,0,0,0,206.72,181.48Zm0,19.45a1.1,1.1,0,0,0-1.1,1.1,1.08,1.08,0,0,0,.88,1.05l1.13-.47a1.06,1.06,0,0,0,.19-.58A1.1,1.1,0,0,0,206.72,200.93Zm0-14.87a1.28,1.28,0,1,0-1.28-1.28A1.28,1.28,0,0,0,206.72,186.06Zm0,1.59a1.45,1.45,0,1,0,1.45,1.44A1.44,1.44,0,0,0,206.72,187.65ZM211,166a1.33,1.33,0,1,0,1.33,1.32A1.32,1.32,0,0,0,211,166Zm0-8.83a1.53,1.53,0,1,0,1.53,1.53A1.54,1.54,0,0,0,211,157.14Zm0,4.34a1.51,1.51,0,1,0,1.51,1.5A1.5,1.5,0,0,0,211,161.48Zm-4.31,35a1.24,1.24,0,1,0,1.23,1.23A1.24,1.24,0,0,0,206.72,196.48Zm0-39.25a1.45,1.45,0,1,0,1.45,1.44A1.44,1.44,0,0,0,206.72,157.23Zm-21.55,35.31a.87.87,0,1,0,.86.87A.87.87,0,0,0,185.17,192.54Zm3.43-7.76a.89.89,0,1,0,.88-.88A.88.88,0,0,0,188.6,184.78Zm1.5-4.31a.62.62,0,0,0-.62-.62.63.63,0,1,0,.62.62Zm-4.93,21a.52.52,0,1,0,.52.52A.51.51,0,0,0,185.17,201.51Zm0,5.66a.84.84,0,1,0-.84-.83A.84.84,0,0,0,185.17,207.17Zm4.31-17a1,1,0,1,0-1-1A1,1,0,0,0,189.48,190.12Zm0,11.27a.64.64,0,0,0-.63.64.63.63,0,0,0,.63.63.64.64,0,0,0,.64-.63A.64.64,0,0,0,189.48,201.39Zm0-4.44a.77.77,0,0,0,0,1.53.77.77,0,1,0,0-1.53Zm46-51.32a1.22,1.22,0,1,0,1.25-1.22l-.19,0A1.21,1.21,0,0,0,235.43,145.63Zm-46,61.66a1,1,0,1,0-.95-.95A1,1,0,0,0,189.48,207.29ZM232.34,147a1.35,1.35,0,0,0,1.35-1.35,1.3,1.3,0,0,0-.24-.73c-.78.14-1.58.29-2.41.47a1.19,1.19,0,0,0,0,.26A1.35,1.35,0,0,0,232.34,147Zm-41.9,29.07a1,1,0,0,0-.07-.35c-.24.42-.47.84-.7,1.26A.93.93,0,0,0,190.44,176.05Zm-5.27,21a.64.64,0,1,0,.63.63A.63.63,0,0,0,185.17,197.08Zm46-12.3a1.06,1.06,0,0,0,0,.19c.15-.19.31-.36.47-.56s.4-.52.61-.79A1.17,1.17,0,0,0,231.17,184.78Zm-4.59,4.31a1.5,1.5,0,0,0,.2.73c.65-.64,1.3-1.31,1.93-2a1.41,1.41,0,0,0-.68-.18A1.45,1.45,0,0,0,226.58,189.09Zm-32.79,16.15a1.1,1.1,0,0,0-1.1,1.1,1.06,1.06,0,0,0,.25.66c.61-.11,1.24-.23,1.89-.37a1,1,0,0,0,.06-.29A1.1,1.1,0,0,0,193.79,205.24Zm28.42-11.83a1.42,1.42,0,0,0,.07.42c.71-.56,1.41-1.16,2.1-1.77a1.46,1.46,0,0,0-.66-.16A1.51,1.51,0,0,0,222.21,193.41Zm-24.11,7.73a.89.89,0,1,0,.89.89A.88.88,0,0,0,198.1,201.14Zm-8.62-8.71a1,1,0,1,0,1,1A1,1,0,0,0,189.48,192.43Zm8.62-6.56a1.09,1.09,0,1,0-1.09-1.09A1.09,1.09,0,0,0,198.1,185.87Zm0-8.6a1.22,1.22,0,1,0-1.22-1.22A1.22,1.22,0,0,0,198.1,177.27Zm0-11a1,1,0,0,0,0,2,1,1,0,1,0,0-2Zm0,30.42a1,1,0,0,0,0,2,1,1,0,1,0,0-2Zm-4.31-4.38a1.09,1.09,0,1,0,1.09,1.09A1.09,1.09,0,0,0,193.79,192.32Zm4.31-11a.83.83,0,1,0-.82-.83A.83.83,0,0,0,198.1,181.3Zm0,9a1.25,1.25,0,1,0-1.24-1.25A1.24,1.24,0,0,0,198.1,190.34Zm0-19.62a.89.89,0,0,0,0,1.77.89.89,0,1,0,0-1.77Zm-4.31,15a1,1,0,1,0-1-1A1,1,0,0,0,193.79,185.76Zm.77-14.16a.77.77,0,0,0-.77-.76.77.77,0,0,0,0,1.53A.77.77,0,0,0,194.56,171.6Zm-.77,29.66a.77.77,0,1,0,.77.77A.77.77,0,0,0,193.79,201.26Zm-1.1-25.21a1.1,1.1,0,1,0,1.1-1.1A1.1,1.1,0,0,0,192.69,176.05Zm1.1,5.15a.73.73,0,1,0-.73-.73A.72.72,0,0,0,193.79,181.2Zm0,15.64a.88.88,0,1,0,.87.87A.87.87,0,0,0,193.79,196.84Zm0-6.61a1.14,1.14,0,1,0-1.13-1.14A1.14,1.14,0,0,0,193.79,190.23Zm22.63-39.79c-.46.23-.93.46-1.39.71a1.07,1.07,0,0,0,.31.06A1.13,1.13,0,0,0,216.42,150.44Zm20.23,5a1.09,1.09,0,1,0-1.09-1.09A1.09,1.09,0,0,0,236.65,155.45Zm-5.23,25a.92.92,0,1,0,.92-.92A.92.92,0,0,0,231.42,180.47Zm.92-3.07a1.35,1.35,0,1,0-1.35-1.35A1.35,1.35,0,0,0,232.34,177.4Zm4.31-26.52a.83.83,0,1,0-.83-.83A.83.83,0,0,0,236.65,150.88Zm0,9a1.25,1.25,0,1,0-1.24-1.25A1.24,1.24,0,0,0,236.65,159.92Zm0,10.8a.89.89,0,1,0,.88.88A.88.88,0,0,0,236.65,170.72Zm0-4.44a1,1,0,1,0,1,1A1,1,0,0,0,236.65,166.28Zm-4.31-4.6a1.31,1.31,0,1,0,1.3,1.3A1.3,1.3,0,0,0,232.34,161.68ZM228,186.06a1.28,1.28,0,1,0-1.28-1.28A1.28,1.28,0,0,0,228,186.06Zm8.62-24.27a1.2,1.2,0,1,0,1.19,1.19A1.19,1.19,0,0,0,236.65,161.79Zm-4.31-6.25a1.18,1.18,0,1,0-1.17-1.18A1.17,1.17,0,0,0,232.34,155.54Zm0,15.08a1,1,0,1,0,1,1A1,1,0,0,0,232.34,170.62ZM228,177.5a1.46,1.46,0,1,0-1.46-1.45A1.46,1.46,0,0,0,228,177.5Zm0,4a1,1,0,1,0-1-1A1,1,0,0,0,228,181.48ZM232.34,151a.92.92,0,1,0-.92-.92A.92.92,0,0,0,232.34,151Zm0,15.2a1.13,1.13,0,1,0,1.12,1.12A1.12,1.12,0,0,0,232.34,166.17Zm0-6.16a1.34,1.34,0,1,0-1.34-1.34A1.34,1.34,0,0,0,232.34,160Zm12-14.38a1,1,0,0,0,1,1,.93.93,0,0,0,.6-.23c0-.58,0-1.08,0-1.45a.93.93,0,0,0-.6-.23A1,1,0,0,0,244.31,145.63ZM211,155.73a1.36,1.36,0,0,0,.54-2.62l-1.9,1.23v0A1.36,1.36,0,0,0,211,155.73Zm8.38-4.52a1.16,1.16,0,0,0,1.16-1.16,1.13,1.13,0,0,0-.9-1.1c-.42.17-.84.36-1.26.55a1.13,1.13,0,0,0,1,1.71Zm8.62-4.13a1.45,1.45,0,0,0,1.45-1.35c-.87.21-1.76.44-2.66.7A1.45,1.45,0,0,0,228,147.08Zm0,14.51a1.4,1.4,0,1,0,1.4,1.39A1.4,1.4,0,0,0,228,161.59ZM185.17,190a.92.92,0,0,0,0-1.84,1,1,0,0,0-.24.05c-.16.5-.31,1-.45,1.46A.9.9,0,0,0,185.17,190Zm18.52-31c-.37.33-.74.68-1.11,1A1.31,1.31,0,0,0,203.69,159Zm41-8.91a.6.6,0,0,0,1,.5c0-.32.06-.63.08-.94a.6.6,0,0,0-.43-.18A.62.62,0,0,0,244.65,150.05Zm-45.43,13.32-.6.68A1.18,1.18,0,0,0,199.22,163.37Zm45.17-9a.87.87,0,0,0,.59.83q.15-.88.27-1.71A.88.88,0,0,0,244.39,154.36ZM241,144.53a1.1,1.1,0,1,0,1.1,1.1A1.1,1.1,0,0,0,241,144.53Zm-4.31,30.3a1.22,1.22,0,0,0,0,2.44h0c.36-.6.7-1.19,1-1.79A1.21,1.21,0,0,0,236.65,174.83Zm4.31-15a1.14,1.14,0,1,0-1.14-1.14A1.14,1.14,0,0,0,241,159.81Zm0-4.47a1,1,0,1,0-1-1A1,1,0,0,0,241,155.34Zm-25.62.48a1.46,1.46,0,1,0-1.46-1.46A1.46,1.46,0,0,0,215.34,155.82ZM241,161.9a1.09,1.09,0,1,0,1.09,1.08A1.08,1.08,0,0,0,241,161.9Zm3.28-3.23s0,0,0,0c0-.16.08-.33.11-.48A1,1,0,0,0,244.24,158.67ZM241,166.42a.88.88,0,0,0,0,1.75.94.94,0,0,0,.29-.06c.17-.41.32-.81.47-1.22A.87.87,0,0,0,241,166.42Zm0-15.64a.73.73,0,1,0-.73-.73A.73.73,0,0,0,241,150.78Zm-21.55,9.51a1.62,1.62,0,1,0-1.61-1.62A1.61,1.61,0,0,0,219.41,160.29Zm0,1.1A1.59,1.59,0,1,0,221,163,1.59,1.59,0,0,0,219.41,161.39Zm0,8.9a1.32,1.32,0,1,0,1.31,1.31A1.32,1.32,0,0,0,219.41,170.29Zm0-14.47a1.46,1.46,0,1,0-1.46-1.46A1.46,1.46,0,0,0,219.41,155.82Zm0,30.42a1.46,1.46,0,1,0-1.46-1.46A1.46,1.46,0,0,0,219.41,186.24Zm0,5.58a1.59,1.59,0,1,0,1.59,1.59A1.59,1.59,0,0,0,219.41,191.82Zm0-4.34a1.62,1.62,0,1,0,1.61,1.61A1.61,1.61,0,0,0,219.41,187.48Zm0-9.76a1.68,1.68,0,1,0-1.67-1.67A1.67,1.67,0,0,0,219.41,177.72Zm0-11.85a1.43,1.43,0,1,0,1.42,1.42A1.42,1.42,0,0,0,219.41,165.87Zm-4.07,4.42a1.32,1.32,0,1,0,1.32,1.31A1.31,1.31,0,0,0,215.34,170.29Zm0,26a1.43,1.43,0,0,0-.57,2.73c.66-.39,1.32-.8,2-1.22,0,0,0-.06,0-.09A1.43,1.43,0,0,0,215.34,196.29Zm0-30.42a1.43,1.43,0,1,0,1.43,1.42A1.43,1.43,0,0,0,215.34,165.87Zm0,21.61a1.62,1.62,0,1,0,1.62,1.61A1.61,1.61,0,0,0,215.34,187.48Zm0-26.09a1.59,1.59,0,1,0,1.59,1.59A1.6,1.6,0,0,0,215.34,161.39Zm0,20.24a1.16,1.16,0,1,0-1.16-1.16A1.16,1.16,0,0,0,215.34,181.63Zm0,10.19a1.59,1.59,0,1,0,1.59,1.59A1.59,1.59,0,0,0,215.34,191.82Zm0-5.58a1.46,1.46,0,1,0-1.46-1.46A1.46,1.46,0,0,0,215.34,186.24Zm8.38-30.51a1.37,1.37,0,1,0-1.36-1.37A1.36,1.36,0,0,0,223.72,155.73Zm4.31-.09a1.28,1.28,0,1,0-1.28-1.28A1.28,1.28,0,0,0,228,155.64Zm-4.31,25.92a1.09,1.09,0,1,0-1.09-1.09A1.09,1.09,0,0,0,223.72,181.56Zm0,9.06a1.53,1.53,0,1,0-1.53-1.53A1.53,1.53,0,0,0,223.72,190.62Zm0-4.47a1.37,1.37,0,1,0-1.36-1.37A1.36,1.36,0,0,0,223.72,186.15ZM228,166.06a1.24,1.24,0,1,0,1.23,1.23A1.23,1.23,0,0,0,228,166.06Zm-8.62,15.57a1.16,1.16,0,1,0-1.16-1.16A1.16,1.16,0,0,0,219.41,181.63ZM228,151.06a1,1,0,1,0-1-1A1,1,0,0,0,228,151.06Zm0,9.06a1.45,1.45,0,1,0-1.45-1.45A1.45,1.45,0,0,0,228,160.12Zm-4.31,17.49a1.57,1.57,0,1,0-1.57-1.56A1.56,1.56,0,0,0,223.72,177.61Zm4.31-7.1a1.1,1.1,0,1,0,1.1,1.09A1.09,1.09,0,0,0,228,170.51Zm-9.63,26.21.44-.31A1.4,1.4,0,0,0,218.4,196.72Zm5.32-45.58a1.09,1.09,0,1,0-1.09-1.09A1.09,1.09,0,0,0,223.72,151.14Zm0,14.83a1.33,1.33,0,1,0,1.33,1.32A1.33,1.33,0,0,0,223.72,166Zm0,4.42a1.22,1.22,0,1,0,1.22,1.21A1.22,1.22,0,0,0,223.72,170.39Zm0-8.91a1.51,1.51,0,1,0,1.51,1.5A1.51,1.51,0,0,0,223.72,161.48Zm0-1.28a1.53,1.53,0,1,0-1.53-1.53A1.53,1.53,0,0,0,223.72,160.2Z" />
           
		<clipPath id="clipPathId" clipPathUnits="objectBoundingBox">
			<use xlink:href="fluxMask" overflow="visible"/>
		</clipPath>

		<clipPath id="clipPathIdIns" clipPathUnits="objectBoundingBox">
			<use xlink:href="fluxMaskIns" overflow="visible"/>
		</clipPath>

		<clipPath id="rectTransition">
			<rect x="100" y="0" width="1000" height="1000">
				<animate attributeType="XML" attributeName="x" type="translate" from="-1000" to="1000" dur="2s"
					fill="#FdFdFd" repeatCount="indefinite" />
			</rect>
		</clipPath>

		<linearGradient id="gradientFluxBG" x1="183.11" y1="145.19" x2="245.67" y2="207.75"
			gradientUnits="userSpaceOnUse">
			<stop offset="0.1" stop-color="#0956b6" />
			<stop offset="0.5" stop-color="#17a4fa" stop-opacity="0" />
			<stop offset="0.9" stop-color="#0956b6" />
		</linearGradient>

		<linearGradient id="gradientFluxIn" x1="260.05" y1="175.93" x2="326.18" y2="175.93"
			gradientTransform="matrix(-1, 0, 0, 1, 506.44, 0)" gradientUnits="userSpaceOnUse">
			<stop offset="0.1" stop-color="#0956b6" />
			<stop offset="0.16" stop-color="#125ebb" />
			<stop offset="0.25" stop-color="#2a76c8" />
			<stop offset="0.36" stop-color="#529bdd" />
			<stop offset="0.49" stop-color="#89cffb" />
			<stop offset="0.5" stop-color="#8bd1fc" />
			<stop offset="0.51" stop-color="#89cffb" />
			<stop offset="0.64" stop-color="#529bdd" />
			<stop offset="0.75" stop-color="#2a76c8" />
			<stop offset="0.84" stop-color="#125ebb" />
			<stop offset="0.9" stop-color="#0956b6" />
		</linearGradient>


		<filter id="blurFilter">
			<feGaussianBlur in="SourceGraphic" stdDeviation="0.5" />
		</filter>

	</defs>
	<title>HSVG</title>
			<g id="Hyperiot">

			<mask id="fluxMaskInv">
				<use xlink:href="#fluxMask" fill="#fff" overflow="visible"/>
				<use xlink:href="#fluxMaskIns" fill="#fff" overflow="visible"/>
			</mask>

  			<use xlink:href="#fluxMask" overflow="visible"/>


				<g id="H">
					<path id="H_Dx" class="cPrimary"
						d="M233.72,182.35C214.77,209.49,182.05,208,182.05,208h0L170,352,82.05,308,70,176l2.91-32H246.05S247.77,162.23,233.72,182.35ZM181.49,132,170.05,0l-88,44-8,88Z" />
					<path id="H_Sx" class="cMain"
						d="M354.16,144,345.92,44l-88-44L246,142.82c0,.46,0,.92,0,1.39a63.72,63.72,0,0,1-63.72,63.72H182l-.08.08h64l12,144,88-44,12-132Z" />
					<path id="H_Central" class="fluxColorBG"
						d="M231.77,184.42c-20,24.94-49.85,23.58-49.85,23.58s-1.36-22.4,15.82-42.84C217.36,141.81,245.92,144,245.92,144S247.52,164.76,231.77,184.42Z" />
				</g>
				<use xlink:href="#fluxMaskIns" overflow="visible"/>

				<g id="Circuit">
					<path id="tLine01" class="cCyan" 
						d="M254.5,40.18a.26.26,0,0,1-.21-.11.25.25,0,0,1,.06-.35l15.54-11.1,1.95-21.55a.25.25,0,1,1,.5,0l-2,21.67a.25.25,0,0,1-.1.18L254.64,40.13A.24.24,0,0,1,254.5,40.18Z" />
					<path class="cCyan" d="M270.6,7A1.5,1.5,0,1,1,272,8.59,1.5,1.5,0,0,1,270.6,7Z" />
					<path class="cCyan" d="M253.62,38.7a1.51,1.51,0,1,0,2.1.35A1.51,1.51,0,0,0,253.62,38.7Z" />
					<circle id="tPoint01" class="cWhite" filter="url(#blurFilter)" cx="0" cy="0" r="1.8" >
						<animate attributeName="opacity" values="0;1;0" dur="1s" repeatCount="indefinite" />
						<animateMotion dur="3s" repeatCount="indefinite">
							<mpath xlink:href="#tLine01"></mpath>
						</animateMotion>
					</circle>

					<path id="tLine02" class="cCyan"
						d="M280.14,46.88a.25.25,0,0,1-.25-.25V33a.25.25,0,0,1,.08-.18l14.39-14.4a.25.25,0,1,1,.36.36L280.39,33.1V46.63A.25.25,0,0,1,280.14,46.88Z" />
					<path class="cCyan" d="M295.6,19.66a1.5,1.5,0,1,0-2.12,0A1.49,1.49,0,0,0,295.6,19.66Z" />
					<path class="cCyan" d="M281.65,46.63a1.51,1.51,0,1,1-3,0,1.51,1.51,0,0,1,3,0Z" />
					<circle id="tPoint02" class="cWhite" filter="url(#blurFilter)" cx="0" cy="0" r="1.8">
						<animate attributeName="opacity" values="0;1;0" dur="1s" repeatCount="indefinite" />
						<animateMotion dur="3s" repeatCount="indefinite">
							<mpath xlink:href="#tLine02"></mpath>
						</animateMotion>
					</circle>

					<path id="tLine03" class="cCyan"
						d="M271.48,58.08a.22.22,0,0,1-.15-.06l-9.51-7.44h-8.09a.25.25,0,0,1,0-.5h8.18a.27.27,0,0,1,.15.05l9.58,7.5a.25.25,0,0,1,0,.35A.26.26,0,0,1,271.48,58.08Z" />
					<circle class="cCyan" cx="253.73" cy="50.33" r="1.5" />
					<path class="cCyan" d="M270.56,59a1.5,1.5,0,1,0-.26-2.11A1.5,1.5,0,0,0,270.56,59Z" />
					<circle id="tPoint03 " class="cWhite" cx="0" cy="0" r="1.8">
						<animate attributeName="opacity" values="0;1;0" dur="1s" repeatCount="indefinite" />
						<animateMotion dur="3s" repeatCount="indefinite">
							<mpath xlink:href="#tLine03"></mpath>
						</animateMotion>
					</circle>

					<path id="tLine04" class="cCyan"
						d="M260.33,65.15h-7.72a.25.25,0,0,1,0-.5h7.62l4.29-4.17a.26.26,0,0,1,.36,0,.25.25,0,0,1,0,.35l-4.37,4.24A.22.22,0,0,1,260.33,65.15Z" />
					<path class="cCyan" d="M252.61,66.41a1.51,1.51,0,1,1,1.5-1.51A1.51,1.51,0,0,1,252.61,66.41Z" />
					<path class="cCyan" d="M265.74,61.74a1.5,1.5,0,1,0-2.12,0A1.5,1.5,0,0,0,265.74,61.74Z" />
					<circle id="tPoint04" class="cWhite" cx="0" cy="0" r="1.8">
						<animate attributeName="opacity" values="0;1;0" dur="1s" repeatCount="indefinite" />
						<animateMotion dur="3s" repeatCount="indefinite">
							<mpath xlink:href="#tLine04"></mpath>
						</animateMotion>
					</circle>

					<path id="tLine05" class="cCyan"
						d="M250.7,86.94a.25.25,0,0,1-.18-.08.24.24,0,0,1,0-.35l60.24-60.17a.25.25,0,0,1,.36,0,.24.24,0,0,1,0,.35L250.87,86.86A.23.23,0,0,1,250.7,86.94Z" />
					<path class="cCyan"
						d="M251.76,87.75a1.5,1.5,0,0,1-2.13,0,1.52,1.52,0,0,1,0-2.13,1.51,1.51,0,0,1,2.13,2.13Z" />
					<path class="cCyan" d="M312,27.58a1.5,1.5,0,1,0-2.12-2.13A1.5,1.5,0,0,0,312,27.58Z" />
					<circle id="tPoint05" class="cWhite" cx="0" cy="0" r="1.8">
						<animate attributeName="opacity" values="0;1;0" dur="1s" repeatCount="indefinite" />
						<animateMotion dur="3s" repeatCount="indefinite">
							<mpath xlink:href="#tLine05"></mpath>
						</animateMotion>
					</circle>

					<path id="tLine06" class="cCyan"
						d="M304.77,60.9a.25.25,0,0,1-.25-.25V42.53a.25.25,0,0,1,.09-.19l9.91-7.82a.25.25,0,0,1,.35,0,.26.26,0,0,1,0,.36L305,42.66v18A.25.25,0,0,1,304.77,60.9Z" />
					<path class="cCyan" d="M306.27,60.65a1.5,1.5,0,1,1-1.5-1.51A1.5,1.5,0,0,1,306.27,60.65Z" />
					<path class="cCyan" d="M315.61,35.9a1.51,1.51,0,1,0-2.11-.25A1.51,1.51,0,0,0,315.61,35.9Z" />
					<circle id="tPoint06" class="cWhite" filter="url(#blurFilter)" cx="0" cy="0" r="1.8">
						<animate attributeName="opacity" values="0;1;0" dur="1s" repeatCount="indefinite" />
						<animateMotion dur="3s" repeatCount="indefinite">
							<mpath xlink:href="#tLine06"></mpath>
						</animateMotion>
					</circle>

					<path id="tLine07" class="cCyan"
						d="M258.88,128.87a.25.25,0,0,1-.25-.25V90.16a.26.26,0,0,1,.07-.17l29.45-29.17a.29.29,0,0,1,.18-.07h6.41a.25.25,0,0,1,0,.5h-6.31l-29.3,29v38.35A.25.25,0,0,1,258.88,128.87Z" />
					<circle class="cCyan" cx="258.88" cy="128.62" r="1.5" />
					<circle class="cCyan" cx="294.74" cy="61" r="1.5" />
					<circle id="tPoint07" class="cWhite" cx="0" cy="0" r="1.8">
						<animate attributeName="opacity" values="0;1;0" dur="1s" repeatCount="indefinite" />
						<animateMotion dur="3s" repeatCount="indefinite">
							<mpath xlink:href="#tLine07"></mpath>
						</animateMotion>
					</circle>

					<path id="tLine08" class="cCyan"
						d="M260,140.94h-5.5a.25.25,0,0,1-.25-.25.25.25,0,0,1,.25-.25h5.36l8.4-13.38V92.67a.25.25,0,0,1,.08-.18l19.12-18.56a.24.24,0,0,1,.17-.07h0l16.92.09,15.06-15.43-.14-21.1a.26.26,0,0,1,.25-.26h0a.25.25,0,0,1,.25.25l.14,21.21a.24.24,0,0,1-.07.18L304.83,74.38a.27.27,0,0,1-.18.07h0l-16.92-.09-19,18.42v34.35a.32.32,0,0,1,0,.14l-8.52,13.56A.24.24,0,0,1,260,140.94Z" />
					<path class="cCyan" d="M321.23,37.4a1.51,1.51,0,1,0-1.5,1.52A1.51,1.51,0,0,0,321.23,37.4Z" />
					<path class="cCyan" d="M254.5,142.2a1.51,1.51,0,1,1,0-3,1.51,1.51,0,0,1,0,3Z" />
					<circle id="tPoint08" class="cWhite" cx="0" cy="0" r="1.8">
						<animate attributeName="opacity" values="0;1;0" dur="1s" repeatCount="indefinite" />
						<animateMotion dur="3s" repeatCount="indefinite">
							<mpath xlink:href="#tLine08"></mpath>
						</animateMotion>
					</circle>

					<path id="tLine09" class="cCyan"
						d="M348,61.8h-9.11a.25.25,0,0,1-.2-.09l-7.81-9.91a.25.25,0,1,1,.39-.31L339,61.3h9a.25.25,0,0,1,.25.25A.25.25,0,0,1,348,61.8Z" />
					<path class="cCyan" d="M329.84,52.58a1.51,1.51,0,1,1,2.12.25A1.51,1.51,0,0,1,329.84,52.58Z" />
					<circle class="cCyan" cx="347.95" cy="61.55" r="1.5" />
					<circle id="tPoint09" class="cWhite" cx="0" cy="0" r="1.8">
						<animate attributeName="opacity" values="0;1;0" dur="1s" repeatCount="indefinite" />
						<animateMotion dur="3s" repeatCount="indefinite">
							<mpath xlink:href="#tLine09"></mpath>
						</animateMotion>
					</circle>

					<path id="tLine10" class="cCyan"
						d="M315,89H297.54a.25.25,0,0,1,0-.5h17.33l17.22-19.3a.27.27,0,0,1,.19-.08H348.5a.25.25,0,0,1,.25.25.26.26,0,0,1-.25.25H332.39l-17.22,19.3A.27.27,0,0,1,315,89Z" />
					<circle class="cCyan" cx="297.54" cy="88.76" r="1.5" />
					<path class="cCyan" d="M348.5,70.88a1.51,1.51,0,0,0,0-3,1.51,1.51,0,1,0,0,3Z" />
					<circle id="tPoint10" class="cWhite" cx="0" cy="0" r="1.8">
						<animate attributeName="opacity" values="0;1;0" dur="1s" repeatCount="indefinite" />
						<animateMotion dur="3s" repeatCount="indefinite">
							<mpath xlink:href="#tLine10"></mpath>
						</animateMotion>
					</circle>

					<path id="tLine11" class="cCyan"
						d="M276.81,108.87a.22.22,0,0,1-.17-.07.24.24,0,0,1,0-.35l13.62-13.61-.09-16.45a.25.25,0,0,1,.25-.25h0a.25.25,0,0,1,.25.25L290.76,95a.23.23,0,0,1-.08.17L277,108.8A.24.24,0,0,1,276.81,108.87Z" />
					<path class="cCyan" d="M288.92,78.4a1.5,1.5,0,1,1,1.51,1.5A1.49,1.49,0,0,1,288.92,78.4Z" />
					<path class="cCyan"	d="M275.75,107.56a1.5,1.5,0,0,0,0,2.13,1.51,1.51,0,0,0,2.13-2.13A1.5,1.5,0,0,0,275.75,107.56Z" />
					<circle id="tPoint11" class="cWhite" cx="0" cy="0" r="1.8">
						<animate attributeName="opacity" values="0;1;0" dur="1s" repeatCount="indefinite" />
						<animateMotion dur="3s" repeatCount="indefinite">
							<mpath xlink:href="#tLine11"></mpath>
						</animateMotion>
					</circle>

					<path id="tLine12" class="cCyan"
						d="M275.86,137.24a.25.25,0,0,1-.25-.25V116.72a.29.29,0,0,1,.07-.18l21.21-21.36a.29.29,0,0,1,.18-.07h0l33.85.15,12.49-12.42a.25.25,0,1,1,.35.35L331.2,95.68a.23.23,0,0,1-.17.08h0l-33.85-.15-21.06,21.21V137A.25.25,0,0,1,275.86,137.24Z" />
					<circle class="cCyan" cx="275.86" cy="137" r="1.5" />
					<path class="cCyan" d="M344.64,84.08a1.5,1.5,0,1,0-2.12,0A1.5,1.5,0,0,0,344.64,84.08Z" />
					<circle id="tPoint12" class="cWhite" cx="0" cy="0" r="1.8">
						<animate attributeName="opacity" values="0;1;0" dur="1s" repeatCount="indefinite" />
						<animateMotion dur="3s" repeatCount="indefinite">
							<mpath xlink:href="#tLine12"></mpath>
						</animateMotion>
					</circle>

					<path id="tLine13" data-name="tLine12" class="cCyan"
						d="M328.09,104.7h0l-26.23-.07a.25.25,0,0,1-.25-.25.25.25,0,0,1,.25-.25h0l26.23.07a.25.25,0,0,1,0,.5Z" />
					<path class="cCyan" d="M328.1,103a1.5,1.5,0,1,1-1.51,1.5A1.5,1.5,0,0,1,328.1,103Z" />
					<path class="cCyan" d="M301.87,102.88a1.5,1.5,0,1,0,1.5,1.5A1.5,1.5,0,0,0,301.87,102.88Z" />
					<circle id="tPoint13" class="cWhite" cx="0" cy="0" r="1.8">
						<animate attributeName="opacity" values="0;1;0" dur="1s" repeatCount="indefinite" />
						<animateMotion dur="3s" repeatCount="indefinite">
							<mpath xlink:href="#tLine13"></mpath>
						</animateMotion>
					</circle>

					<path id="tLine14" class="cCyan"
						d="M284.42,128.87a.24.24,0,0,1-.19-.4l11.53-14.34a.26.26,0,0,1,.2-.1h43.42l11.27-11.26a.26.26,0,0,1,.36,0,.27.27,0,0,1,0,.36l-11.34,11.33a.26.26,0,0,1-.18.07H296.08l-11.46,14.25A.27.27,0,0,1,284.42,128.87Z" />
					<path class="cCyan" d="M285.59,129.57a1.5,1.5,0,1,1-.23-2.12A1.5,1.5,0,0,1,285.59,129.57Z" />
					<path class="cCyan" d="M351.89,104a1.5,1.5,0,1,0-2.12,0A1.49,1.49,0,0,0,351.89,104Z" />
					<circle id="tPoint14" class="cWhite" cx="0" cy="0" r="1.8">
						<animate attributeName="opacity" values="0;1;0" dur="1s" repeatCount="indefinite" />
						<animateMotion dur="3s" repeatCount="indefinite">
							<mpath xlink:href="#tLine14"></mpath>
						</animateMotion>
					</circle>

					<path id="tLine15" class="cCyan"
						d="M346.36,130.68a.25.25,0,0,1-.2-.09l-6.29-8-40.19-.07a.25.25,0,0,1,0-.5h0l40.31.07a.26.26,0,0,1,.2.1l6.36,8.13a.24.24,0,0,1,0,.35A.3.3,0,0,1,346.36,130.68Z" />
					<path class="cCyan" d="M299.67,123.74a1.51,1.51,0,1,1,1.51-1.5A1.51,1.51,0,0,1,299.67,123.74Z" />
					<path class="cCyan" d="M345.17,131.36a1.51,1.51,0,1,0,.26-2.11A1.51,1.51,0,0,0,345.17,131.36Z" />
					<circle id="tPoint15" class="cWhite" cx="0" cy="0" r="1.8">
						<animate attributeName="opacity" values="0;1;0" dur="1s" repeatCount="indefinite" />
						<animateMotion dur="3s" repeatCount="indefinite">
							<mpath xlink:href="#tLine15"></mpath>
						</animateMotion>
					</circle>

					<path id="cLine01" class="cCyan"
						d="M355.22,153.26H349.7a.25.25,0,0,1-.2-.09l-17.15-21.6h-34l-14.47,17.18a.25.25,0,0,1-.19.09h-32a.25.25,0,0,1,0-.5h31.91L298,131.16a.22.22,0,0,1,.19-.09h34.26a.24.24,0,0,1,.19.1l17.16,21.59h5.4a.25.25,0,0,1,.25.25A.25.25,0,0,1,355.22,153.26Z" />
					<path class="cCyan" d="M251.63,150.09a1.51,1.51,0,1,1,1.5-1.5A1.5,1.5,0,0,1,251.63,150.09Z" />
					<circle class="cCyan" cx="355.22" cy="153.01" r="1.5" />
					<circle id="cPoint01" class="cWhite" cx="0" cy="0" r="1.8">
						<animate attributeName="opacity" values="0;1;0" dur="1s" repeatCount="indefinite" />
						<animateMotion dur="3s" repeatCount="indefinite">
							<mpath xlink:href="#cLine01"></mpath>
						</animateMotion>
					</circle>

					<path id="cLine02" class="cCyan"
						d="M356.17,164.81h-8a.25.25,0,0,1-.19-.09l-18.06-21.59H303.42L292,157a.23.23,0,0,1-.19.09H250.58a.25.25,0,0,1,0-.5h41.07l11.46-13.86a.25.25,0,0,1,.19-.09h26.76a.25.25,0,0,1,.19.09l18.06,21.59h7.86a.25.25,0,0,1,0,.5Z" />
					<path class="cCyan" d="M250.58,158.33a1.5,1.5,0,1,1,1.5-1.5A1.51,1.51,0,0,1,250.58,158.33Z" />
					<path class="cCyan" d="M356.17,166.06a1.51,1.51,0,1,0-1.5-1.5A1.51,1.51,0,0,0,356.17,166.06Z" />
					<circle id="cPoint02" class="cWhite" cx="0" cy="0" r="1.8">
						<animate attributeName="opacity" values="0;1;0" dur="1s" repeatCount="indefinite" />
						<animateMotion dur="3s" repeatCount="indefinite">
							<mpath xlink:href="#cLine02"></mpath>
						</animateMotion>
					</circle>

					<path id="cLine03" class="cCyan"
						d="M301.22,164.55H248.51a.25.25,0,0,1,0-.5H301.1l9.95-13.51a.25.25,0,0,1,.41.3l-10,13.61A.25.25,0,0,1,301.22,164.55Z" />
					<path class="cCyan" d="M248.51,165.81A1.51,1.51,0,1,1,250,164.3,1.51,1.51,0,0,1,248.51,165.81Z" />
					<path class="cCyan" d="M312.47,151.58a1.51,1.51,0,1,0-2.11.32A1.5,1.5,0,0,0,312.47,151.58Z" />
					<circle id="cPoint03" class="cWhite" cx="0" cy="0" r="1.8">
						<animate attributeName="opacity" values="0;1;0" dur="1s" repeatCount="indefinite" />
						<animateMotion dur="3s" repeatCount="indefinite">
							<mpath xlink:href="#cLine03"></mpath>
						</animateMotion>
					</circle>

					<path id="cLine04" class="cCyan"
						d="M357.52,176.23H343.58a.25.25,0,0,1-.19-.09l-15.23-18.49h-9.75l-11.18,15.14a.24.24,0,0,1-.2.11h-62.1a.26.26,0,0,1-.25-.25.25.25,0,0,1,.25-.25h62l11.18-15.15a.26.26,0,0,1,.2-.1h10a.25.25,0,0,1,.19.09l15.23,18.49h13.82a.25.25,0,0,1,0,.5Z" />
					<path class="cCyan" d="M244.93,174.15a1.51,1.51,0,0,1,0-3,1.51,1.51,0,1,1,0,3Z" />
					<circle class="cCyan" cx="357.52" cy="175.98" r="1.5" />
					<circle id="cPoint04" class="cWhite" cx="0" cy="0" r="1.8">
						<animate attributeName="opacity" values="0;1;0" dur="1s" repeatCount="indefinite" />
						<animateMotion dur="3s" repeatCount="indefinite">
							<mpath xlink:href="#cLine04"></mpath>
						</animateMotion>
					</circle>

					<path id="cLine05" class="cCyan"
						d="M275.44,180.76H240.33a.25.25,0,0,1-.25-.25.25.25,0,0,1,.25-.25h35.11a.25.25,0,0,1,.25.25A.25.25,0,0,1,275.44,180.76Z" />
					<path class="cCyan" d="M240.33,182a1.51,1.51,0,1,1,0-3,1.51,1.51,0,0,1,0,3Z" />
					<circle class="cCyan" cx="275.44" cy="180.51" r="1.5" />
					<circle id="cPoint05" class="cWhite" cx="0" cy="0" r="1.8">
						<animate attributeName="opacity" values="0;1;0" dur="1s" repeatCount="indefinite" />
						<animateMotion dur="3s" repeatCount="indefinite">
							<mpath xlink:href="#cLine05"></mpath>
						</animateMotion>
					</circle>

					<path id="cLine06" class="cCyan"
						d="M318,180.83H282.61a.25.25,0,0,1,0-.5h35.26l7.75-11.89a.25.25,0,1,1,.41.27l-7.82,12A.24.24,0,0,1,318,180.83Z" />
					<path class="cCyan" d="M282.61,182.09a1.51,1.51,0,1,1,0-3,1.51,1.51,0,0,1,0,3Z" />
					<path class="cCyan" d="M327.09,169.4a1.51,1.51,0,1,0-2.52-1.65,1.51,1.51,0,0,0,2.52,1.65Z" />
					<circle id="cPoint06" class="cWhite" cx="0" cy="0" r="1.8">
						<animate attributeName="opacity" values="0;1;0" dur="1s" repeatCount="indefinite" />
						<animateMotion dur="3s" repeatCount="indefinite">
							<mpath xlink:href="#cLine06"></mpath>
						</animateMotion>
					</circle>

					<path id="cLine07" class="cCyan"
						d="M349.7,183.87h-8.83a.29.29,0,0,1-.18-.07l-7.57-7.61a.25.25,0,0,1,0-.36.27.27,0,0,1,.36,0l7.49,7.54h8.73a.25.25,0,0,1,0,.5Z" />
					<path class="cCyan" d="M332.23,177.07a1.51,1.51,0,1,1,2.13,0A1.5,1.5,0,0,1,332.23,177.07Z" />
					<circle class="cCyan" cx="349.7" cy="183.62" r="1.5" />
					<circle id="cPoint07" class="cWhite" cx="0" cy="0" r="1.8">
						<animate attributeName="opacity" values="0;1;0" dur="1s" repeatCount="indefinite" />
						<animateMotion dur="3s" repeatCount="indefinite">
							<mpath xlink:href="#cLine07"></mpath>
						</animateMotion>
					</circle>

					<path id="cLine08" class="cCyan"
						d="M307,198.88H291.21a.21.21,0,0,1-.18-.09l-8.61-9.64H234.93a.26.26,0,0,1-.25-.25.25.25,0,0,1,.25-.25h47.6a.23.23,0,0,1,.18.08l8.61,9.65h15.6l9.14-9a.29.29,0,0,1,.18-.07h40.68a.25.25,0,0,1,.25.25.25.25,0,0,1-.25.25H316.34l-9.14,9A.28.28,0,0,1,307,198.88Z" />
					<circle class="cCyan" cx="234.93" cy="188.89" r="1.5" />
					<path class="cCyan" d="M356.92,191.1a1.51,1.51,0,1,0,0-3,1.51,1.51,0,0,0,0,3Z" />
					<circle id="cPoint08" class="cWhite" cx="0" cy="0" r="1.8">
						<animate attributeName="opacity" values="0;1;0" dur="1s" repeatCount="indefinite" />
						<animateMotion dur="3s" repeatCount="indefinite">
							<mpath xlink:href="#cLine08"></mpath>
						</animateMotion>
					</circle>

					<path id="cLine09" class="cCyan"
						d="M310.56,206.8H281.21a.27.27,0,0,1-.19-.08l-8.81-9.85H224.7a.25.25,0,0,1-.25-.25.25.25,0,0,1,.25-.25h47.62a.21.21,0,0,1,.18.09l8.82,9.84h29.14l11.28-10.82a.25.25,0,0,1,.35,0,.25.25,0,0,1,0,.36l-11.36,10.88A.23.23,0,0,1,310.56,206.8Z" />
					<path class="cCyan" d="M224.7,198.13a1.51,1.51,0,1,1,1.5-1.51A1.51,1.51,0,0,1,224.7,198.13Z" />
					<path class="cCyan" d="M323,196.75a1.5,1.5,0,1,0-2.12,0A1.49,1.49,0,0,0,323,196.75Z" />
					<circle id="cPoint09" class="cWhite" cx="0" cy="0" r="1.8">
						<animate attributeName="opacity" values="0;1;0" dur="1s" repeatCount="indefinite" />
						<animateMotion dur="3s" repeatCount="indefinite">
							<mpath xlink:href="#cLine09"></mpath>
						</animateMotion>
					</circle>

					<path id="cLine10" class="cCyan"
						d="M313.53,214.13H270.37a.23.23,0,0,1-.18-.08L261.34,204H212.28a.25.25,0,0,1,0-.5h49.18a.25.25,0,0,1,.19.09l8.84,10.08h42.94l12.74-12.7a.24.24,0,0,1,.18-.07h29.3a.25.25,0,0,1,.25.25.25.25,0,0,1-.25.25h-29.2l-12.74,12.7A.24.24,0,0,1,313.53,214.13Z" />
					<path class="cCyan" d="M212.28,205.22a1.51,1.51,0,1,1,1.51-1.51A1.51,1.51,0,0,1,212.28,205.22Z" />
					<circle class="cCyan" cx="355.65" cy="201.11" r="1.5" />
					<circle id="cPoint10" class="cWhite" cx="0" cy="0" r="1.8">
						<animate attributeName="opacity" values="0;1;0" dur="1s" repeatCount="indefinite" />
						<animateMotion dur="3s" repeatCount="indefinite">
							<mpath xlink:href="#cLine10"></mpath>
						</animateMotion>
					</circle>

					<path id="cLine11" class="cCyan"
						d="M354.12,217.94H337.44a.27.27,0,0,1-.18-.08l-9.17-9.67a.25.25,0,1,1,.37-.35l9.09,9.6h16.57a.25.25,0,0,1,.25.25A.25.25,0,0,1,354.12,217.94Z" />
					<path class="cCyan" d="M327.18,209.05a1.51,1.51,0,1,1,2.13.06A1.51,1.51,0,0,1,327.18,209.05Z" />
					<path class="cCyan" d="M354.12,219.19a1.51,1.51,0,0,0,0-3,1.51,1.51,0,1,0,0,3Z" />
					<circle id="cPoint11" class="cWhite" cx="0" cy="0" r="1.8">
						<animate attributeName="opacity" values="0;1;0" dur="1s" repeatCount="indefinite" />
						<animateMotion dur="3s" repeatCount="indefinite">
							<mpath xlink:href="#cLine11"></mpath>
						</animateMotion>
					</circle>

					<path id="bLine01" class="cCyan"
						d="M327.69,317.38a.25.25,0,0,1-.25-.25V288.68l-31-31.8a.23.23,0,0,1-.08-.17V227.88l-4.81-5.32-35.06,0a.23.23,0,0,1-.19-.09L245.79,209a.25.25,0,1,1,.39-.3L256.64,222l35,0a.25.25,0,0,1,.18.08l5,5.48a.23.23,0,0,1,.06.16v28.83l31,31.79a.25.25,0,0,1,.08.18v28.55A.25.25,0,0,1,327.69,317.38Z" />
					<path class="cCyan"
						d="M244.8,209.73a1.51,1.51,0,0,1,.26-2.11,1.5,1.5,0,1,1,1.85,2.37A1.51,1.51,0,0,1,244.8,209.73Z" />
					<circle class="cCyan" cx="327.69" cy="317.13" r="1.5" />
					<circle id="bPoint01" class="cWhite" cx="0" cy="0" r="1.8">
						<animate attributeName="opacity" values="0;1;0" dur="1s" repeatCount="indefinite" />
						<animateMotion dur="3s" repeatCount="indefinite">
							<mpath xlink:href="#bLine01"></mpath>
						</animateMotion>
					</circle>

					<path id="bLine02" class="cCyan"
						d="M353.18,227.11H315.3a.26.26,0,0,1-.25-.25.25.25,0,0,1,.25-.25h37.88a.25.25,0,0,1,.25.25A.25.25,0,0,1,353.18,227.11Z" />
					<path class="cCyan" d="M315.3,228.36a1.51,1.51,0,1,1,1.51-1.51A1.5,1.5,0,0,1,315.3,228.36Z" />
					<path class="cCyan" d="M353.18,228.36a1.51,1.51,0,1,0-1.5-1.51A1.51,1.51,0,0,0,353.18,228.36Z" />
					<circle id="bPoint02" class="cWhite" cx="0" cy="0" r="1.8">
						<animate attributeName="opacity" values="0;1;0" dur="1s" repeatCount="indefinite" />
						<animateMotion dur="3s" repeatCount="indefinite">
							<mpath xlink:href="#bLine02"></mpath>
						</animateMotion>
					</circle>

					<path id="bLine03" class="cCyan"
						d="M351.22,250H331.53a.27.27,0,0,1-.19-.08l-12.72-14.26h-12.8a.25.25,0,0,1,0-.5h12.91a.23.23,0,0,1,.18.08l12.73,14.26h19.58a.25.25,0,0,1,0,.5Z" />
					<circle class="cCyan" cx="305.82" cy="235.4" r="1.5" />
					<circle class="cCyan" cx="351.22" cy="249.74" r="1.5" />
					<circle id="bPoint03" class="cWhite" cx="0" cy="0" r="1.8">
						<animate attributeName="opacity" values="0;1;0" dur="1s" repeatCount="indefinite" />
						<animateMotion dur="3s" repeatCount="indefinite">
							<mpath xlink:href="#bLine03"></mpath>
						</animateMotion>
					</circle>

					<path id="bLine04" class="cCyan"
						d="M349.7,266.7H323.12a.25.25,0,0,1-.18-.08l-19.17-19.31a.25.25,0,1,1,.35-.35l19.1,19.24H349.7a.25.25,0,0,1,.25.25A.25.25,0,0,1,349.7,266.7Z" />
					<path class="cCyan" d="M302.88,248.19a1.5,1.5,0,1,1,2.12,0A1.49,1.49,0,0,1,302.88,248.19Z" />
					<circle class="cCyan" cx="349.7" cy="266.45" r="1.5" />
					<circle id="bPoint04" class="cWhite" cx="0" cy="0" r="1.8">
						<animate attributeName="opacity" values="0;1;0" dur="1s" repeatCount="indefinite" />
						<animateMotion dur="3s" repeatCount="indefinite">
							<mpath xlink:href="#bLine04"></mpath>
						</animateMotion>
					</circle>

					<path id="bLine05" class="cCyan"
						d="M348.19,283.24H332.47a.25.25,0,0,1-.25-.25.25.25,0,0,1,.25-.25h15.72a.25.25,0,0,1,.25.25A.25.25,0,0,1,348.19,283.24Z" />
					<circle class="cCyan" cx="332.47" cy="282.99" r="1.5" />
					<circle class="cCyan" cx="348.19" cy="282.99" r="1.5" />
					<circle id="bPoint05" class="cWhite" cx="0" cy="0" r="1.8">
						<animate attributeName="opacity" values="0;1;0" dur="1s" repeatCount="indefinite" />
						<animateMotion dur="3s" repeatCount="indefinite">
							<mpath xlink:href="#bLine05"></mpath>
						</animateMotion>
					</circle>

					<path id="bLine06" class="cCyan"
						d="M310.44,325.92a.25.25,0,0,1-.25-.25V289.28l-28-29.4a.28.28,0,0,1-.07-.17V241l-4.82-5.32h-24.1a.25.25,0,0,1-.25-.25.25.25,0,0,1,.25-.25h24.21a.25.25,0,0,1,.19.09l5,5.47a.27.27,0,0,1,.06.17v18.72l28,29.4a.22.22,0,0,1,.07.17v36.49A.25.25,0,0,1,310.44,325.92Z" />
					<circle class="cCyan" cx="253.22" cy="235.41" r="1.5" />
					<circle class="cCyan" cx="310.44" cy="325.67" r="1.5" />
					<circle id="bPoint06" class="cWhite" cx="0" cy="0" r="1.8">
						<animate attributeName="opacity" values="0;1;0" dur="1s" repeatCount="indefinite" />
						<animateMotion dur="3s" repeatCount="indefinite">
							<mpath xlink:href="#bLine06"></mpath>
						</animateMotion>
					</circle>

					<path id="bLine07" class="cCyan"
						d="M275.23,252.21a.23.23,0,0,1-.18-.08l-4.14-4.75H253.82a.25.25,0,0,1-.25-.25.25.25,0,0,1,.25-.25H271a.24.24,0,0,1,.18.09l4.21,4.83a.25.25,0,0,1,0,.35A.27.27,0,0,1,275.23,252.21Z" />
					<circle class="cCyan" cx="253.82" cy="247.13" r="1.5" />
					<path class="cCyan" d="M274.1,253a1.51,1.51,0,1,0,.15-2.12A1.5,1.5,0,0,0,274.1,253Z" />
					<circle id="bPoint07" class="cWhite" cx="0" cy="0" r="1.8">
						<animate attributeName="opacity" values="0;1;0" dur="1s" repeatCount="indefinite" />
						<animateMotion dur="3s" repeatCount="indefinite">
							<mpath xlink:href="#bLine07"></mpath>
						</animateMotion>
					</circle>

					<path id="bLine08" class="cCyan"
						d="M294.52,334.46a.25.25,0,0,1-.25-.25V290l-23-24.27h-15.8a.25.25,0,0,1-.25-.25.25.25,0,0,1,.25-.25H271.4a.25.25,0,0,1,.18.08l23.12,24.42a.23.23,0,0,1,.07.17v44.29A.25.25,0,0,1,294.52,334.46Z" />
					<circle class="cCyan" cx="255.49" cy="265.5" r="1.5" />
					<path class="cCyan" d="M293,334.21a1.5,1.5,0,1,0,1.5-1.51A1.5,1.5,0,0,0,293,334.21Z" />
					<circle id="bPoint08" class="cWhite" cx="0" cy="0" r="1.8">
						<animate attributeName="opacity" values="0;1;0" dur="1s" repeatCount="indefinite" />
						<animateMotion dur="3s" repeatCount="indefinite">
							<mpath xlink:href="#bLine08"></mpath>
						</animateMotion>
					</circle>

					<path id="bLine09" class="cCyan"
						d="M262.11,288.2H253a.25.25,0,0,1,0-.5h9l7.73-9.81a.26.26,0,0,1,.36,0,.26.26,0,0,1,0,.35l-7.82,9.9A.24.24,0,0,1,262.11,288.2Z" />
					<path class="cCyan" d="M253,289.45a1.51,1.51,0,1,1,1.51-1.5A1.5,1.5,0,0,1,253,289.45Z" />
					<path class="cCyan" d="M271.1,279a1.5,1.5,0,1,0-2.11.25A1.5,1.5,0,0,0,271.1,279Z" />
					<circle id="bPoint09" class="cWhite" cx="0" cy="0" r="1.8">
					<animate attributeName="opacity" values="0;1;0" dur="1s" repeatCount="indefinite" />
						<animateMotion dur="3s" repeatCount="indefinite">
							<mpath xlink:href="#bLine09"></mpath>
						</animateMotion>
					</circle>

					<path id="bLine10" class="cCyan"
						d="M286,313.31a.24.24,0,0,1-.18-.07L268.56,296H253.22a.25.25,0,0,1,0-.5h15.45a.26.26,0,0,1,.17.07l17.3,17.3a.24.24,0,0,1,0,.35A.22.22,0,0,1,286,313.31Z" />
					<path class="cCyan"
						d="M287,312a1.51,1.51,0,0,1-2.13,2.13,1.52,1.52,0,0,1,0-2.13A1.5,1.5,0,0,1,287,312Z" />
					<circle class="cCyan" cx="253.22" cy="295.77" r="1.5" />
					<circle id="bPoint10" class="cWhite" cx="0" cy="0" r="1.8">
					<animate attributeName="opacity" values="0;1;0" dur="1s" repeatCount="indefinite" />
						<animateMotion dur="3s" repeatCount="indefinite">
							<mpath xlink:href="#bLine10"></mpath>
						</animateMotion>
					</circle>

					<path id="bLine11" class="cCyan"
						d="M278.36,342a.26.26,0,0,1-.25-.25V329.28l-14-14.78h-9.27a.25.25,0,0,1-.25-.25.25.25,0,0,1,.25-.25h9.37a.27.27,0,0,1,.19.08L278.55,329a.25.25,0,0,1,.06.17v12.59A.25.25,0,0,1,278.36,342Z" />
					<circle class="cCyan" cx="278.36" cy="341.77" r="1.5" />
					<path class="cCyan" d="M254.83,312.74a1.51,1.51,0,1,0,1.51,1.51A1.5,1.5,0,0,0,254.83,312.74Z" />
					<circle id="bPoint11" class="cWhite" cx="0" cy="0" r="1.8">
					<animate attributeName="opacity" values="0;1;0" dur="1s" repeatCount="indefinite" />
						<animateMotion dur="3s" repeatCount="indefinite">
							<mpath xlink:href="#bLine11"></mpath>
						</animateMotion>
					</circle>
				</g>


				<g id="TransitionElix" mask="url(#fluxMaskInv)" >
                    <ellipse id="e01" class="cWhite del05" cx="9.03" cy="145.75" rx="9.03" ry="2.8" />
                    <ellipse id="e02" class="cWhite" cx="9.03" cy="149.69" rx="9.03" ry="2.8" />
                    <ellipse id="e03" class="cWhite del05" cx="9.03" cy="153.86" rx="9.03" ry="2.8" />
                    <ellipse id="e04" class="cWhite del25" cx="9.03" cy="157.87" rx="9.03" ry="2.8" />
                    <ellipse id="e05" class="cWhite del15" cx="9.03" cy="161.89" rx="9.03" ry="2.8" />
                    <ellipse id="e06" class="cWhite del10" cx="9.03" cy="165.83" rx="9.03" ry="2.8" />
                    <ellipse id="e07" class="cWhite del30" cx="9.03" cy="169.84" rx="9.03" ry="2.8" />
                    <ellipse id="e08" class="cWhite" cx="9.03" cy="173.97" rx="9.03" ry="2.8" />
                    <ellipse id="e09" class="cWhite del15" cx="9.03" cy="178.01" rx="9.03" ry="2.8" />
                    <ellipse id="e10" class="cWhite del05" cx="9.03" cy="181.78" rx="9.03" ry="2.8" />
                    <ellipse id="e11" class="cWhite del25" cx="9.03" cy="186.01" rx="9.03" ry="2.8" />
                    <ellipse id="e12" class="cWhite" cx="9.03" cy="189.83" rx="9.03" ry="2.8" />
                    <ellipse id="e13" class="cWhite del05" cx="9.03" cy="193.91" rx="9.03" ry="2.8" />
                    <ellipse id="e14" class="cWhite" cx="9.03" cy="198.02" rx="9.03" ry="2.8" />
                    <ellipse id="e15" class="cWhite del15" cx="9.03" cy="202.02" rx="9.03" ry="2.8" />
                    <ellipse id="e16" class="cWhite del20" cx="9.03" cy="205.97" rx="9.03" ry="2.8" />
                </g>
	</g>

			
</svg>