<svg height="480pt" viewBox="0 0 480.92812 480" width="480pt" xmlns="http://www.w3.org/2000/svg"><path d="m.464844 344.457031c.042968 10.132813 6.445312 19.148438 16 22.527344v17.472656c0 4.417969 3.582031 8 8 8h64v-16h-56v-9.472656c11.476562-4.089844 18.058594-16.136719 15.296875-28.003906-2.761719-11.863281-13.988281-19.769531-26.09375-18.367188-12.101563 1.402344-21.222657 11.660157-21.203125 23.84375zm32 0c0 4.417969-3.582032 8-8 8-4.417969 0-8-3.582031-8-8s3.582031-8 8-8c4.417968 0 8 3.582031 8 8zm0 0"/><path d="m40.464844 424.457031h80c4.417968 0 8-3.582031 8-8v-25.472656c6.777344-2.421875 12.109375-7.753906 14.527344-14.527344h65.472656c4.417968 0 8-3.582031 8-8v-48h-16v40h-57.472656c-3.699219-10.53125-14.1875-17.109375-25.28125-15.855469-11.089844 1.253907-19.84375 10.007813-21.101563 21.101563-1.253906 11.09375 5.324219 21.582031 15.855469 25.28125v17.472656h-80c-4.417969 0-8 3.582031-8 8v16c-11.699219-.113281-21.808594 8.148438-24.023438 19.636719-2.21875 11.488281 4.085938 22.917969 14.984375 27.167969 10.902344 4.253906 23.28125.109375 29.425781-9.847657 6.144532-9.957031 4.300782-22.878906-4.386718-30.71875zm80-64c4.417968 0 8 3.582031 8 8s-3.582032 8-8 8c-4.417969 0-8-3.582031-8-8s3.582031-8 8-8zm-96 104c-4.417969 0-8-3.582031-8-8s3.582031-8 8-8c4.417968 0 8 3.582031 8 8s-3.582032 8-8 8zm0 0"/><path d="m248.464844 433.929688v-113.472657h-16v80h-72c-4.417969 0-8 3.582031-8 8v32h-38.238282c-7.757812-8.507812-20.480468-10.273437-30.261718-4.199219-9.78125 6.074219-13.839844 18.257813-9.65625 28.984376 4.179687 10.726562 15.417968 16.945312 26.730468 14.792968 11.308594-2.152344 19.476563-12.066406 19.425782-23.578125h40c4.417968 0 8-3.582031 8-8v-32h64v17.472657c-11.019532 3.894531-17.628906 15.164062-15.652344 26.683593 1.976562 11.523438 11.964844 19.941407 23.652344 19.941407s21.679687-8.417969 23.65625-19.941407c1.976562-11.519531-4.636719-22.789062-15.65625-26.683593zm-152 30.527343c-4.417969 0-8-3.582031-8-8s3.582031-8 8-8c4.417968 0 8 3.582031 8 8s-3.582032 8-8 8zm144 0c-4.417969 0-8-3.582031-8-8s3.582031-8 8-8c4.417968 0 8 3.582031 8 8s-3.582032 8-8 8zm0 0"/><path d="m438.992188 392.457031h17.472656c4.417968 0 8-3.582031 8-8v-41.472656c11.019531-3.894531 17.632812-15.164063 15.65625-26.6875-1.976563-11.519531-11.96875-19.941406-23.65625-19.941406s-21.675782 8.421875-23.652344 19.941406c-1.976562 11.523437 4.632812 22.792969 15.652344 26.6875v33.472656h-9.472656c-3.339844-9.585937-12.375-16.007812-22.527344-16.007812-10.148438 0-19.1875 6.421875-22.527344 16.007812h-33.472656v-24c0-4.417969-3.582032-8-8-8h-56v16h48v24c0 4.417969 3.582031 8 8 8h41.472656c2.421875 6.773438 7.753906 12.105469 14.527344 14.527344v25.472656c0 4.417969 3.582031 8 8 8h16c-.113282 11.699219 8.148437 21.808594 19.636718 24.023438 11.488282 2.21875 22.917969-4.085938 27.171876-14.984375 4.25-10.902344.105468-23.28125-9.851563-29.425782-9.953125-6.144531-22.878906-4.300781-30.714844 4.386719h-14.242187v-17.472656c6.777344-2.421875 12.109375-7.753906 14.527344-14.527344zm17.472656-80c4.417968 0 8 3.582031 8 8s-3.582032 8-8 8c-4.417969 0-8-3.582031-8-8s3.582031-8 8-8zm0 120c4.417968 0 8 3.582031 8 8s-3.582032 8-8 8c-4.417969 0-8-3.582031-8-8s3.582031-8 8-8zm-40-40c-4.417969 0-8-3.582031-8-8s3.582031-8 8-8c4.417968 0 8 3.582031 8 8s-3.582032 8-8 8zm0 0"/><path d="m384.464844 432.457031c-10.132813.042969-19.148438 6.445313-22.527344 16h-41.472656v-17.472656c10.53125-3.699219 17.109375-14.1875 15.855468-25.28125-1.253906-11.09375-10.007812-19.847656-21.101562-21.101563-11.09375-1.253906-21.582031 5.324219-25.28125 15.855469h-9.472656v-80h-16v88c0 4.417969 3.582031 8 8 8h17.472656c2.421875 6.773438 7.753906 12.105469 14.527344 14.527344v25.472656c0 4.417969 3.582031 8 8 8h49.472656c4.089844 11.476563 16.136719 18.058594 28.003906 15.296875 11.863282-2.765625 19.769532-13.992187 18.367188-26.09375-1.402344-12.101562-11.660156-21.226562-23.84375-21.203125zm-72-16c-4.417969 0-8-3.582031-8-8s3.582031-8 8-8c4.417968 0 8 3.582031 8 8s-3.582032 8-8 8zm72 48c-4.417969 0-8-3.582031-8-8s3.582031-8 8-8c4.417968 0 8 3.582031 8 8s-3.582032 8-8 8zm0 0"/><path d="m264.464844 136.457031h-48c-4.417969 0-8 3.582031-8 8v48c0 4.417969 3.582031 8 8 8h48c4.417968 0 8-3.582031 8-8v-48c0-4.417969-3.582032-8-8-8zm-8 48h-32v-32h32zm0 0"/><path d="m296.464844 265.121094.59375-7.121094 31.765625 28.417969c3.292969 2.945312 8.351562 2.667969 11.296875-.625 18.179687-20.332031 24.753906-48.523438 17.433594-74.796875-7.320313-26.273438-27.519532-47.007813-53.59375-55.011719.242187-8.609375.535156-17.214844.535156-25.769531.019531-49.160156-21.476563-95.867188-58.832032-127.832032-2.992187-2.558593-7.40625-2.558593-10.398437 0-37.34375 31.96875-58.828125 78.675782-58.800781 127.832032 0 8.554687.296875 17.160156.535156 25.769531-26.074219 8.003906-46.273438 28.738281-53.59375 55.011719-7.316406 26.273437-.746094 54.464844 17.433594 74.796875 2.949218 3.292969 8.003906 3.570312 11.296875.625l31.769531-28.417969.589844 7.121094c.347656 4.144531 3.808594 7.332031 7.96875 7.335937h13.761718l-5.519531 22.0625c-.597656 2.390625-.058593 4.921875 1.457031 6.859375 1.515626 1.941406 3.839844 3.078125 6.300782 3.078125h64c2.460937 0 4.789062-1.136719 6.304687-3.078125 1.515625-1.9375 2.050781-4.46875 1.457031-6.859375l-5.519531-22.0625h13.757813c4.171875.015625 7.652344-3.179687 8-7.335937zm4.800781-57.886719c.953125-11.441406 1.601563-22.960937 2.152344-34.488281 18.3125 7.035156 32.386719 22.085937 38.183593 40.828125 5.796876 18.742187 2.679688 39.109375-8.464843 55.257812l-34.398438-30.808593zm-153.457031 61.597656c-11.140625-16.148437-14.261719-36.515625-8.464844-55.257812 5.796875-18.742188 19.871094-33.792969 38.183594-40.828125.53125 11.527344 1.203125 23.046875 2.152344 34.488281l2.570312 30.789063zm92.65625-249.625c13.671875 12.917969 24.824218 28.261719 32.894531 45.25h-65.789063c8.070313-16.988281 19.226563-32.332031 32.894532-45.25zm-21.75 269.25 4-16h35.503906l4 16zm62.398437-32h-81.289062l-4.207031-50.550781c-2.089844-25.097656-3.152344-50.5625-3.152344-75.691406.039062-16.941406 2.914062-33.761719 8.496094-49.757813h79.007812c5.585938 15.996094 8.457031 32.816407 8.496094 49.757813 0 25.128906-1.0625 50.59375-3.152344 75.691406zm0 0"/><path d="m216.464844 216.457031h16v16h-16zm0 0"/><path d="m248.464844 216.457031h16v16h-16zm0 0"/><path d="m216.464844 112.457031h16v16h-16zm0 0"/><path d="m248.464844 112.457031h16v16h-16zm0 0"/><path d="m24.464844 104.457031h16v16h-16zm0 0"/><path d="m24.464844 136.457031h16v56h-16zm0 0"/><path d="m448.464844 40.457031h16v16h-16zm0 0"/><path d="m448.464844 72.457031h16v56h-16zm0 0"/><path d="m80.464844 208.457031h16v16h-16zm0 0"/><path d="m80.464844 240.457031h16v56h-16zm0 0"/><path d="m384.464844 240.457031h16v16h-16zm0 0"/><path d="m384.464844 272.457031h16v56h-16zm0 0"/><path d="m112.464844 8.457031h16v16h-16zm0 0"/><path d="m112.464844 40.457031h16v56h-16zm0 0"/><path d="m320.464844 16.457031h16v16h-16zm0 0"/><path d="m320.464844 48.457031h16v56h-16zm0 0"/></svg>