<svg id="Layer_2" enable-background="new 0 0 64 64" height="512" viewBox="0 0 64 64" width="512" xmlns="http://www.w3.org/2000/svg"><path d="m60 52h-56c-1.105 0-2-.895-2-2v-36c0-1.105.895-2 2-2h56c1.105 0 2 .895 2 2v36c0 1.105-.895 2-2 2z" fill="#edeff1"/><path d="m60 12h-56c-1.105 0-2 .895-2 2v6h60v-6c0-1.105-.895-2-2-2z" fill="#6e83b7"/><path d="m5 23h18v24h-18z" fill="#80d6fb"/><path d="m22 47h-16v-5c0-2.209 1.791-4 4-4h8c2.209 0 4 1.791 4 4z" fill="#ffe352"/><path d="m17 38c0 1.657-1.343 3-3 3s-3-1.343-3-3z" fill="#ffb236"/><path d="m19 44h3v3h-3z" fill="#fcb98b"/><path d="m6 44h3v3h-3z" fill="#fcb98b"/><path d="m19 43h3v1h-3z" fill="#ffb236"/><path d="m6 43h3v1h-3z" fill="#ffb236"/><path d="m12 37v1c0 1.105.895 2 2 2s2-.895 2-2v-1z" fill="#fcb98b"/><path d="m19 33c0 2.761-2.239 5-5 5s-5-2.239-5-5v-3h10z" fill="#ffd3b3"/><path d="m9 33 1-3h8l1 3v-4c0-1.105-.895-2-2-2 0-1.105-.895-2-2-2h-3c-1.657 0-3 1.343-3 3z" fill="#6e83b7"/><path d="m19 31v-1c.552 0 1 .448 1 1v1c0 .552-.448 1-1 1v-1z" fill="#fcb98b"/><path d="m9 31v-1c-.552 0-1 .448-1 1v1c0 .552.448 1 1 1v-1z" fill="#fcb98b"/><path d="m28 23h31v2h-31z" fill="#6e83b7"/><path d="m28 29h20v2h-20z" fill="#d3d3d3"/><path d="m28 35h18v2h-18z" fill="#d3d3d3"/><path d="m53 35h6v2h-6z" fill="#6e83b7"/><path d="m53 41h6v2h-6z" fill="#6e83b7"/><g fill="#d3d3d3"><path d="m28 41h18v2h-18z"/><path d="m49 47h10v2h-10z"/></g></svg>