<svg id="Layer_3" enable-background="new 0 0 64 64" height="512" viewBox="0 0 64 64" width="512" xmlns="http://www.w3.org/2000/svg"><path d="m62 1h-40c-.553 0-1 .448-1 1v3h-3c-.553 0-1 .448-1 1v31h-2.5l-2.7-3.6c-.189-.252-.486-.4-.8-.4h-9c-.553 0-1 .448-1 1v28c0 .552.447 1 1 1h40 16c.553 0 1-.448 1-1v-3h3c.553 0 1-.448 1-1v-56c0-.552-.447-1-1-1zm-51.5 34 2.7 3.6c.188.252.485.4.8.4h27v4h-35c-.469 0-.874.326-.977.783l-2.023 9.106v-17.889zm-7.253 26 3.555-16h34.198v16zm53.753 0h-14v-23c0-.552-.447-1-1-1h-23v-30h30v7c0 .552.447 1 1 1h7zm-1.414-48h-4.586v-4.586zm5.414 44h-2v-43c0-.277-.112-.527-.294-.708l-7.998-7.998c-.181-.182-.431-.294-.708-.294h-27v-2h38z"/><path d="m37 57h2v2h-2z"/><path d="m33 57h2v2h-2z"/><path d="m29 57h2v2h-2z"/><path d="m47 20c0-.552-.447-1-1-1h-1.416c-.221-.777-.529-1.529-.922-2.248l1.045-1.045c.391-.391.391-1.023 0-1.414l-3-3c-.391-.391-1.023-.391-1.414 0l-1.045 1.045c-.719-.393-1.471-.701-2.248-.922v-1.416c0-.552-.447-1-1-1h-4c-.553 0-1 .448-1 1v1.416c-.777.221-1.529.529-2.248.922l-1.045-1.045c-.391-.391-1.023-.391-1.414 0l-3 3c-.391.391-.391 1.023 0 1.414l1.045 1.045c-.393.719-.701 1.471-.922 2.248h-1.416c-.553 0-1 .448-1 1v4c0 .552.447 1 1 1h1.416c.221.777.529 1.529.922 2.248l-1.045 1.045c-.391.391-.391 1.023 0 1.414l3 3c.391.391 1.023.391 1.414 0l1.045-1.045c.719.393 1.471.701 2.248.922v1.416c0 .552.447 1 1 1h4c.553 0 1-.448 1-1v-1.416c.777-.221 1.529-.529 2.248-.922l1.045 1.045c.391.391 1.023.391 1.414 0l3-3c.391-.391.391-1.023 0-1.414l-1.045-1.045c.393-.719.701-1.471.922-2.248h1.416c.553 0 1-.448 1-1zm-2 3h-1.201c-.476 0-.886.335-.98.801-.218 1.08-.641 2.11-1.254 3.062-.255.396-.199.916.134 1.249l.887.888-1.586 1.586-.888-.888c-.334-.334-.854-.388-1.249-.133-.951.613-1.981 1.035-3.062 1.254-.466.095-.801.505-.801.98v1.201h-2v-1.201c0-.476-.335-.885-.801-.98-1.081-.219-2.111-.642-3.062-1.254-.395-.254-.915-.201-1.249.133l-.888.888-1.586-1.586.888-.888c.333-.333.389-.853.134-1.249-.613-.953-1.036-1.983-1.254-3.062-.095-.466-.505-.801-.981-.801h-1.201v-2h1.201c.476 0 .886-.335.98-.801.218-1.08.641-2.11 1.254-3.062.255-.396.199-.916-.134-1.249l-.887-.888 1.586-1.586.888.888c.334.334.854.389 1.249.133.951-.613 1.981-1.035 3.062-1.254.466-.095.801-.505.801-.98v-1.201h2v1.201c0 .476.335.885.801.98 1.081.219 2.111.642 3.062 1.254.395.255.915.201 1.249-.133l.888-.888 1.586 1.586-.888.888c-.333.333-.389.853-.134 1.249.613.953 1.036 1.983 1.254 3.062.095.466.505.801.981.801h1.201z"/><path d="m34 15c-3.859 0-7 3.14-7 7s3.141 7 7 7 7-3.14 7-7-3.141-7-7-7zm0 12c-2.757 0-5-2.243-5-5s2.243-5 5-5 5 2.243 5 5-2.243 5-5 5z"/><path d="m47 27v25c0 .155.036.309.105.447l3 6c.17.339.516.553.895.553s.725-.214.895-.553l3-6c.069-.138.105-.292.105-.447v-25c0-2.206-1.794-4-4-4s-4 1.794-4 4zm2 23v-19h4v19zm2 5.764-1.882-3.764h3.764zm0-30.764c1.103 0 2 .897 2 2v2h-4v-2c0-1.103.897-2 2-2z"/></svg>