<svg id="svg" version="1.1" xmlns="http://www.w3.org/2000/svg" xmlns:xlink="http://www.w3.org/1999/xlink" width="400" height="400" viewBox="0, 0, 400,400"><g id="svgg"><path id="path0" d="M189.000 0.457 C 73.481 8.050,-13.013 111.543,1.838 224.400 C 14.192 318.277,88.034 389.605,182.593 398.999 C 249.631 405.660,321.427 373.058,360.600 318.167 C 402.444 259.535,411.310 190.423,385.278 125.800 C 353.554 47.045,272.050 -5.003,189.000 0.457 M222.690 17.562 C 243.792 20.441,263.209 26.278,281.123 35.128 C 356.426 72.329,397.131 155.803,379.771 237.428 C 371.799 274.912,351.557 309.896,323.468 334.737 C 320.410 337.441,320.555 337.585,320.226 331.532 C 318.066 291.797,294.034 254.379,257.265 233.505 C 250.065 229.418,239.943 225.015,233.488 223.163 C 230.090 222.188,229.835 221.745,232.199 220.927 C 261.701 210.713,283.148 172.768,278.624 138.788 C 268.812 65.096,174.297 42.943,133.615 104.800 C 108.117 143.571,122.667 197.827,164.249 219.029 C 170.541 222.237,170.475 222.052,165.782 223.354 C 118.334 236.517,82.114 281.959,79.741 331.300 C 79.438 337.611,79.592 337.446,76.532 334.728 C 24.703 288.685,3.955 215.590,23.647 148.415 C 45.129 75.134,109.925 22.612,186.200 16.652 C 192.540 16.156,216.826 16.763,222.690 17.562 " stroke="none" fill="#040404" fill-rule="evenodd"></path><path id="path1" d="M0.056 94.300 C 0.088 148.578,0.254 186.817,0.447 184.400 C 2.068 164.079,8.020 139.498,15.155 123.652 C 16.060 121.643,16.800 119.889,16.800 119.754 C 16.800 119.069,25.078 103.117,27.779 98.600 C 61.480 42.213,119.910 5.596,184.400 0.447 C 186.819 0.254,148.603 0.088,94.300 0.056 L 0.000 0.000 0.056 94.300 M212.800 0.261 C 213.570 0.334,216.540 0.588,219.400 0.826 C 236.894 2.278,261.312 8.399,276.070 15.031 C 278.234 16.004,280.117 16.800,280.253 16.800 C 281.980 16.800,302.625 28.228,310.800 33.710 C 360.672 67.149,394.766 123.882,399.196 180.800 C 399.444 183.990,399.700 187.050,399.764 187.600 C 399.828 188.150,399.907 146.165,399.940 94.300 L 400.000 0.000 305.700 0.064 C 253.835 0.099,212.030 0.188,212.800 0.261 M185.800 17.239 C 154.164 20.546,129.119 28.499,106.030 42.570 C 9.467 101.418,-12.541 227.239,58.335 315.245 C 61.244 318.857,69.129 327.145,74.200 331.920 L 79.000 336.440 79.505 329.720 C 83.267 279.625,116.162 238.504,164.737 223.175 L 168.874 221.869 164.133 219.435 C 120.135 196.841,106.754 139.079,136.448 99.925 C 175.166 48.870,255.542 62.312,275.624 123.200 C 288.042 160.850,270.255 204.123,235.971 219.673 C 231.132 221.867,231.127 221.850,237.363 224.035 C 284.846 240.676,317.539 283.076,320.609 332.000 C 320.754 334.310,320.932 336.261,321.004 336.335 C 321.277 336.614,338.016 319.642,340.891 316.171 C 378.788 270.409,392.122 211.646,377.565 154.546 C 360.175 86.331,303.861 33.113,235.185 19.994 C 221.009 17.286,197.759 15.989,185.800 17.239 M0.056 305.700 L 0.000 400.000 94.300 399.940 C 146.165 399.907,188.150 399.828,187.600 399.764 C 187.050 399.700,183.990 399.444,180.800 399.196 C 147.365 396.594,106.824 380.823,80.600 360.218 C 74.481 355.411,72.482 353.771,68.400 350.215 C 52.474 336.341,38.339 319.257,27.205 300.429 C 24.628 296.072,16.800 280.884,16.800 280.242 C 16.800 280.112,16.012 278.249,15.048 276.103 C 7.974 260.345,2.063 235.854,0.447 215.600 C 0.254 213.183,0.088 251.422,0.056 305.700 M399.599 213.500 C 399.589 226.416,394.596 250.159,388.094 268.200 C 362.427 339.429,292.488 393.670,219.200 399.188 C 215.790 399.445,212.640 399.708,212.200 399.773 C 211.760 399.838,253.835 399.916,305.700 399.946 L 400.000 400.000 400.000 305.800 C 400.000 253.990,399.910 211.600,399.800 211.600 C 399.690 211.600,399.599 212.455,399.599 213.500 " stroke="none" fill="#f4f4f4" fill-rule="evenodd"></path><path id="path2" d="M171.700 1.876 C 172.085 1.976,172.715 1.976,173.100 1.876 C 173.485 1.775,173.170 1.693,172.400 1.693 C 171.630 1.693,171.315 1.775,171.700 1.876 M196.700 16.698 C 198.515 16.772,201.485 16.772,203.300 16.698 C 205.115 16.623,203.630 16.563,200.000 16.563 C 196.370 16.563,194.885 16.623,196.700 16.698 M186.705 17.083 C 187.202 17.179,187.922 17.175,188.305 17.075 C 188.687 16.975,188.280 16.896,187.400 16.901 C 186.520 16.905,186.207 16.987,186.705 17.083 M211.905 17.083 C 212.402 17.179,213.122 17.175,213.505 17.075 C 213.887 16.975,213.480 16.896,212.600 16.901 C 211.720 16.905,211.407 16.987,211.905 17.083 M182.300 17.482 C 182.795 17.578,183.605 17.578,184.100 17.482 C 184.595 17.387,184.190 17.309,183.200 17.309 C 182.210 17.309,181.805 17.387,182.300 17.482 M215.900 17.482 C 216.395 17.578,217.205 17.578,217.700 17.482 C 218.195 17.387,217.790 17.309,216.800 17.309 C 215.810 17.309,215.405 17.387,215.900 17.482 M178.500 17.876 C 178.885 17.976,179.515 17.976,179.900 17.876 C 180.285 17.775,179.970 17.693,179.200 17.693 C 178.430 17.693,178.115 17.775,178.500 17.876 M220.100 17.876 C 220.485 17.976,221.115 17.976,221.500 17.876 C 221.885 17.775,221.570 17.693,220.800 17.693 C 220.030 17.693,219.715 17.775,220.100 17.876 M109.500 21.627 C 108.675 22.063,108.000 22.508,108.000 22.618 C 108.000 22.727,108.720 22.449,109.600 22.000 C 110.480 21.551,111.200 21.097,111.200 20.992 C 111.200 20.730,111.197 20.731,109.500 21.627 M289.600 21.379 C 289.600 21.489,290.140 21.859,290.800 22.200 C 291.460 22.541,292.000 22.731,292.000 22.621 C 292.000 22.511,291.460 22.141,290.800 21.800 C 290.140 21.459,289.600 21.269,289.600 21.379 M122.800 33.400 C 122.250 33.714,121.980 33.972,122.200 33.972 C 122.420 33.972,123.050 33.714,123.600 33.400 C 124.150 33.086,124.420 32.828,124.200 32.828 C 123.980 32.828,123.350 33.086,122.800 33.400 M113.500 38.027 C 112.675 38.463,112.000 38.908,112.000 39.018 C 112.000 39.127,112.720 38.849,113.600 38.400 C 114.480 37.951,115.200 37.497,115.200 37.392 C 115.200 37.130,115.197 37.131,113.500 38.027 M65.375 52.500 L 64.200 53.800 65.500 52.625 C 66.712 51.530,66.984 51.200,66.675 51.200 C 66.606 51.200,66.021 51.785,65.375 52.500 M58.788 58.700 L 56.200 61.400 58.900 58.812 C 60.385 57.388,61.600 56.173,61.600 56.112 C 61.600 55.817,61.193 56.192,58.788 58.700 M341.000 58.800 C 342.528 60.340,343.869 61.600,343.979 61.600 C 344.089 61.600,342.928 60.340,341.400 58.800 C 339.872 57.260,338.531 56.000,338.421 56.000 C 338.311 56.000,339.472 57.260,341.000 58.800 M78.778 62.300 L 77.400 63.800 78.900 62.422 C 80.296 61.138,80.584 60.800,80.278 60.800 C 80.212 60.800,79.537 61.475,78.778 62.300 M324.383 65.300 C 326.041 67.066,326.400 67.384,326.400 67.083 C 326.400 67.019,325.545 66.164,324.500 65.183 L 322.600 63.400 324.383 65.300 M74.800 65.800 C 73.828 66.790,73.123 67.600,73.233 67.600 C 73.343 67.600,74.228 66.790,75.200 65.800 C 76.172 64.810,76.877 64.000,76.767 64.000 C 76.657 64.000,75.772 64.810,74.800 65.800 M51.978 65.900 L 50.600 67.400 52.100 66.022 C 53.496 64.738,53.784 64.400,53.478 64.400 C 53.412 64.400,52.737 65.075,51.978 65.900 M193.300 68.676 C 193.685 68.776,194.315 68.776,194.700 68.676 C 195.085 68.575,194.770 68.493,194.000 68.493 C 193.230 68.493,192.915 68.575,193.300 68.676 M205.300 68.676 C 205.685 68.776,206.315 68.776,206.700 68.676 C 207.085 68.575,206.770 68.493,206.000 68.493 C 205.230 68.493,204.915 68.575,205.300 68.676 M65.385 75.300 L 63.400 77.400 65.500 75.415 C 67.451 73.571,67.783 73.200,67.485 73.200 C 67.422 73.200,66.477 74.145,65.385 75.300 M334.200 75.200 C 335.283 76.300,336.260 77.200,336.370 77.200 C 336.480 77.200,335.683 76.300,334.600 75.200 C 333.517 74.100,332.540 73.200,332.430 73.200 C 332.320 73.200,333.117 74.100,334.200 75.200 M162.700 77.429 C 161.149 78.270,161.325 78.561,162.900 77.759 C 164.408 76.993,164.675 76.794,164.167 76.816 C 163.965 76.825,163.305 77.101,162.700 77.429 M337.600 79.000 C 338.346 79.770,339.047 80.400,339.157 80.400 C 339.267 80.400,338.746 79.770,338.000 79.000 C 337.254 78.230,336.553 77.600,336.443 77.600 C 336.333 77.600,336.854 78.230,337.600 79.000 M61.775 79.300 L 60.600 80.600 61.900 79.425 C 63.112 78.330,63.384 78.000,63.075 78.000 C 63.006 78.000,62.421 78.585,61.775 79.300 M143.792 91.700 L 140.200 95.400 143.900 91.808 C 147.336 88.472,147.782 88.000,147.492 88.000 C 147.432 88.000,145.767 89.665,143.792 91.700 M255.800 91.600 C 257.771 93.580,259.473 95.200,259.583 95.200 C 259.693 95.200,258.171 93.580,256.200 91.600 C 254.229 89.620,252.527 88.000,252.417 88.000 C 252.307 88.000,253.829 89.620,255.800 91.600 M30.953 93.300 C 29.576 95.636,29.486 95.835,30.187 95.000 C 31.000 94.032,31.700 92.800,31.438 92.800 C 31.333 92.800,31.115 93.025,30.953 93.300 M21.580 109.639 C 21.120 110.540,20.813 111.346,20.897 111.430 C 20.981 111.514,21.441 110.776,21.919 109.791 C 23.009 107.547,22.715 107.415,21.580 109.639 M380.881 115.391 C 381.359 116.376,381.819 117.114,381.903 117.030 C 382.084 116.849,380.468 113.600,380.197 113.600 C 380.094 113.600,380.402 114.406,380.881 115.391 M33.265 123.017 C 32.595 124.488,32.723 124.802,33.447 123.465 C 33.786 122.840,33.988 122.254,33.896 122.163 C 33.805 122.071,33.521 122.456,33.265 123.017 M14.465 125.017 C 13.795 126.488,13.923 126.802,14.647 125.465 C 14.986 124.840,15.188 124.254,15.096 124.163 C 15.005 124.071,14.721 124.456,14.465 125.017 M279.309 144.000 C 279.309 144.990,279.387 145.395,279.482 144.900 C 279.578 144.405,279.578 143.595,279.482 143.100 C 279.387 142.605,279.309 143.010,279.309 144.000 M279.293 152.400 C 279.293 153.170,279.375 153.485,279.476 153.100 C 279.576 152.715,279.576 152.085,279.476 151.700 C 279.375 151.315,279.293 151.630,279.293 152.400 M120.493 153.200 C 120.493 153.970,120.575 154.285,120.676 153.900 C 120.776 153.515,120.776 152.885,120.676 152.500 C 120.575 152.115,120.493 152.430,120.493 153.200 M398.493 175.200 C 398.493 175.970,398.575 176.285,398.676 175.900 C 398.776 175.515,398.776 174.885,398.676 174.500 C 398.575 174.115,398.493 174.430,398.493 175.200 M17.693 179.200 C 17.693 179.970,17.775 180.285,17.876 179.900 C 17.976 179.515,17.976 178.885,17.876 178.500 C 17.775 178.115,17.693 178.430,17.693 179.200 M382.493 182.400 C 382.493 183.170,382.575 183.485,382.676 183.100 C 382.776 182.715,382.776 182.085,382.676 181.700 C 382.575 181.315,382.493 181.630,382.493 182.400 M17.309 183.200 C 17.309 184.190,17.387 184.595,17.482 184.100 C 17.578 183.605,17.578 182.795,17.482 182.300 C 17.387 181.805,17.309 182.210,17.309 183.200 M269.800 186.800 C 269.459 187.460,269.269 188.000,269.379 188.000 C 269.489 188.000,269.859 187.460,270.200 186.800 C 270.541 186.140,270.731 185.600,270.621 185.600 C 270.511 185.600,270.141 186.140,269.800 186.800 M382.893 187.200 C 382.893 187.970,382.975 188.285,383.076 187.900 C 383.176 187.515,383.176 186.885,383.076 186.500 C 382.975 186.115,382.893 186.430,382.893 187.200 M16.901 187.800 C 16.905 188.680,16.987 188.993,17.083 188.495 C 17.179 187.998,17.175 187.278,17.075 186.895 C 16.975 186.513,16.896 186.920,16.901 187.800 M383.365 200.000 C 383.365 203.850,383.425 205.425,383.498 203.500 C 383.571 201.575,383.571 198.425,383.498 196.500 C 383.425 194.575,383.365 196.150,383.365 200.000 M16.563 200.000 C 16.563 203.630,16.623 205.115,16.698 203.300 C 16.772 201.485,16.772 198.515,16.698 196.700 C 16.623 194.885,16.563 196.370,16.563 200.000 M144.200 204.800 C 145.950 206.560,147.471 208.000,147.581 208.000 C 147.691 208.000,146.350 206.560,144.600 204.800 C 142.850 203.040,141.329 201.600,141.219 201.600 C 141.109 201.600,142.450 203.040,144.200 204.800 M255.991 205.500 L 252.600 209.000 256.100 205.609 C 258.025 203.744,259.600 202.169,259.600 202.109 C 259.600 201.818,259.141 202.249,255.991 205.500 M16.901 212.200 C 16.905 213.080,16.987 213.393,17.083 212.895 C 17.179 212.398,17.175 211.678,17.075 211.295 C 16.975 210.913,16.896 211.320,16.901 212.200 M382.893 212.800 C 382.893 213.570,382.975 213.885,383.076 213.500 C 383.176 213.115,383.176 212.485,383.076 212.100 C 382.975 211.715,382.893 212.030,382.893 212.800 M17.309 216.400 C 17.309 217.390,17.387 217.795,17.482 217.300 C 17.578 216.805,17.578 215.995,17.482 215.500 C 17.387 215.005,17.309 215.410,17.309 216.400 M382.493 217.200 C 382.493 217.970,382.575 218.285,382.676 217.900 C 382.776 217.515,382.776 216.885,382.676 216.500 C 382.575 216.115,382.493 216.430,382.493 217.200 M17.701 220.600 C 17.705 221.480,17.787 221.793,17.883 221.295 C 17.979 220.798,17.975 220.078,17.875 219.695 C 17.775 219.313,17.696 219.720,17.701 220.600 M381.693 224.000 C 381.693 224.770,381.775 225.085,381.876 224.700 C 381.976 224.315,381.976 223.685,381.876 223.300 C 381.775 222.915,381.693 223.230,381.693 224.000 M146.300 230.427 C 145.475 230.863,144.800 231.308,144.800 231.418 C 144.800 231.596,147.959 230.119,148.367 229.751 C 148.827 229.334,147.625 229.728,146.300 230.427 M21.268 241.200 C 21.288 242.239,21.918 243.946,21.932 243.000 C 21.938 242.560,21.789 241.840,21.600 241.400 C 21.389 240.910,21.261 240.832,21.268 241.200 M113.993 253.900 L 109.400 258.600 114.100 254.007 C 118.466 249.740,118.982 249.200,118.693 249.200 C 118.635 249.200,116.520 251.315,113.993 253.900 M285.000 254.400 C 287.633 257.040,289.877 259.200,289.987 259.200 C 290.097 259.200,288.033 257.040,285.400 254.400 C 282.767 251.760,280.523 249.600,280.413 249.600 C 280.303 249.600,282.367 251.760,285.000 254.400 M14.028 273.800 C 14.028 274.020,14.286 274.650,14.600 275.200 C 14.914 275.750,15.172 276.020,15.172 275.800 C 15.172 275.580,14.914 274.950,14.600 274.400 C 14.286 273.850,14.028 273.580,14.028 273.800 M381.072 284.219 C 380.132 286.189,380.264 286.524,381.247 284.662 C 381.693 283.816,381.987 283.054,381.901 282.967 C 381.814 282.881,381.441 283.444,381.072 284.219 M37.800 285.200 C 38.141 285.860,38.511 286.400,38.621 286.400 C 38.731 286.400,38.541 285.860,38.200 285.200 C 37.859 284.540,37.489 284.000,37.379 284.000 C 37.269 284.000,37.459 284.540,37.800 285.200 M21.800 290.800 C 22.141 291.460,22.511 292.000,22.621 292.000 C 22.731 292.000,22.541 291.460,22.200 290.800 C 21.859 290.140,21.489 289.600,21.379 289.600 C 21.269 289.600,21.459 290.140,21.800 290.800 M61.600 319.400 C 62.346 320.170,63.047 320.800,63.157 320.800 C 63.267 320.800,62.746 320.170,62.000 319.400 C 61.254 318.630,60.553 318.000,60.443 318.000 C 60.333 318.000,60.854 318.630,61.600 319.400 M66.200 324.400 C 67.728 325.940,69.069 327.200,69.179 327.200 C 69.289 327.200,68.128 325.940,66.600 324.400 C 65.072 322.860,63.731 321.600,63.621 321.600 C 63.511 321.600,64.672 322.860,66.200 324.400 M330.394 327.500 L 325.000 333.000 330.500 327.606 C 335.609 322.594,336.181 322.000,335.894 322.000 C 335.836 322.000,333.361 324.475,330.394 327.500 M72.000 330.200 C 73.417 331.630,74.667 332.800,74.777 332.800 C 74.887 332.800,73.817 331.630,72.400 330.200 C 70.983 328.770,69.733 327.600,69.623 327.600 C 69.513 327.600,70.583 328.770,72.000 330.200 M79.331 333.800 C 79.333 335.340,79.405 335.921,79.492 335.091 C 79.579 334.261,79.577 333.001,79.489 332.291 C 79.400 331.581,79.329 332.260,79.331 333.800 M347.978 333.900 L 346.600 335.400 348.100 334.022 C 349.496 332.738,349.784 332.400,349.478 332.400 C 349.412 332.400,348.737 333.075,347.978 333.900 M52.000 334.200 C 52.746 334.970,53.447 335.600,53.557 335.600 C 53.667 335.600,53.146 334.970,52.400 334.200 C 51.654 333.430,50.953 332.800,50.843 332.800 C 50.733 332.800,51.254 333.430,52.000 334.200 M320.514 334.600 C 320.517 335.700,320.595 336.103,320.687 335.495 C 320.779 334.886,320.777 333.986,320.682 333.495 C 320.587 333.003,320.511 333.500,320.514 334.600 M76.400 334.125 C 76.400 334.194,76.985 334.779,77.700 335.425 L 79.000 336.600 77.825 335.300 C 76.730 334.088,76.400 333.816,76.400 334.125 M322.175 335.300 L 321.000 336.600 322.300 335.425 C 323.015 334.779,323.600 334.194,323.600 334.125 C 323.600 333.816,323.270 334.088,322.175 335.300 M341.000 341.200 C 338.367 343.840,336.303 346.000,336.413 346.000 C 336.523 346.000,338.767 343.840,341.400 341.200 C 344.033 338.560,346.097 336.400,345.987 336.400 C 345.877 336.400,343.633 338.560,341.000 341.200 M58.200 340.800 C 59.506 342.120,60.665 343.200,60.775 343.200 C 60.885 343.200,59.906 342.120,58.600 340.800 C 57.294 339.480,56.135 338.400,56.025 338.400 C 55.915 338.400,56.894 339.480,58.200 340.800 M64.800 346.925 C 64.800 346.994,65.385 347.579,66.100 348.225 L 67.400 349.400 66.225 348.100 C 65.130 346.888,64.800 346.616,64.800 346.925 M333.375 348.500 L 332.200 349.800 333.500 348.625 C 334.215 347.979,334.800 347.394,334.800 347.325 C 334.800 347.016,334.470 347.288,333.375 348.500 M283.600 381.400 C 283.050 381.714,282.780 381.972,283.000 381.972 C 283.220 381.972,283.850 381.714,284.400 381.400 C 284.950 381.086,285.220 380.828,285.000 380.828 C 284.780 380.828,284.150 381.086,283.600 381.400 M124.800 385.400 C 125.350 385.714,125.980 385.972,126.200 385.972 C 126.420 385.972,126.150 385.714,125.600 385.400 C 125.050 385.086,124.420 384.828,124.200 384.828 C 123.980 384.828,124.250 385.086,124.800 385.400 M174.500 398.676 C 174.885 398.776,175.515 398.776,175.900 398.676 C 176.285 398.575,175.970 398.493,175.200 398.493 C 174.430 398.493,174.115 398.575,174.500 398.676 " stroke="none" fill="#969696" fill-rule="evenodd"></path><path id="path3" d="M191.905 0.283 C 192.402 0.379,193.122 0.375,193.505 0.275 C 193.887 0.175,193.480 0.096,192.600 0.101 C 191.720 0.105,191.407 0.187,191.905 0.283 M206.705 0.283 C 207.202 0.379,207.922 0.375,208.305 0.275 C 208.687 0.175,208.280 0.096,207.400 0.101 C 206.520 0.105,206.207 0.187,206.705 0.283 M189.107 16.690 C 189.826 16.779,190.906 16.777,191.507 16.686 C 192.108 16.595,191.520 16.522,190.200 16.524 C 188.880 16.526,188.388 16.601,189.107 16.690 M208.707 16.690 C 209.426 16.779,210.506 16.777,211.107 16.686 C 211.708 16.595,211.120 16.522,209.800 16.524 C 208.480 16.526,207.988 16.601,208.707 16.690 M183.105 17.083 C 183.602 17.179,184.322 17.175,184.705 17.075 C 185.087 16.975,184.680 16.896,183.800 16.901 C 182.920 16.905,182.607 16.987,183.105 17.083 M215.505 17.083 C 216.002 17.179,216.722 17.175,217.105 17.075 C 217.487 16.975,217.080 16.896,216.200 16.901 C 215.320 16.905,215.007 16.987,215.505 17.083 M65.978 52.300 L 64.600 53.800 66.100 52.422 C 66.925 51.663,67.600 50.988,67.600 50.922 C 67.600 50.616,67.262 50.904,65.978 52.300 M340.800 59.000 C 343.323 61.530,345.477 63.600,345.587 63.600 C 345.697 63.600,343.723 61.530,341.200 59.000 C 338.677 56.470,336.523 54.400,336.413 54.400 C 336.303 54.400,338.277 56.470,340.800 59.000 M58.992 58.900 L 55.400 62.600 59.100 59.008 C 62.536 55.672,62.982 55.200,62.692 55.200 C 62.632 55.200,60.967 56.865,58.992 58.900 M73.781 66.500 L 72.200 68.200 73.900 66.619 C 74.835 65.749,75.600 64.984,75.600 64.919 C 75.600 64.616,75.252 64.919,73.781 66.500 M325.800 66.400 C 326.659 67.280,327.452 68.000,327.562 68.000 C 327.672 68.000,327.059 67.280,326.200 66.400 C 325.341 65.520,324.548 64.800,324.438 64.800 C 324.328 64.800,324.941 65.520,325.800 66.400 M51.775 66.500 L 50.600 67.800 51.900 66.625 C 52.615 65.979,53.200 65.394,53.200 65.325 C 53.200 65.016,52.870 65.288,51.775 66.500 M197.715 68.696 C 198.988 68.776,200.968 68.775,202.115 68.694 C 203.262 68.614,202.220 68.549,199.800 68.550 C 197.380 68.551,196.442 68.616,197.715 68.696 M191.905 69.083 C 192.402 69.179,193.122 69.175,193.505 69.075 C 193.887 68.975,193.480 68.896,192.600 68.901 C 191.720 68.905,191.407 68.987,191.905 69.083 M206.705 69.083 C 207.202 69.179,207.922 69.175,208.305 69.075 C 208.687 68.975,208.280 68.896,207.400 68.901 C 206.520 68.905,206.207 68.987,206.705 69.083 M333.183 73.700 C 334.841 75.466,335.200 75.784,335.200 75.483 C 335.200 75.419,334.345 74.564,333.300 73.583 L 331.400 71.800 333.183 73.700 M66.181 74.100 L 64.600 75.800 66.300 74.219 C 67.235 73.349,68.000 72.584,68.000 72.519 C 68.000 72.216,67.652 72.519,66.181 74.100 M146.778 89.100 L 145.400 90.600 146.900 89.222 C 147.725 88.463,148.400 87.788,148.400 87.722 C 148.400 87.416,148.062 87.704,146.778 89.100 M253.400 89.600 C 254.259 90.480,255.052 91.200,255.162 91.200 C 255.272 91.200,254.659 90.480,253.800 89.600 C 252.941 88.720,252.148 88.000,252.038 88.000 C 251.928 88.000,252.541 88.720,253.400 89.600 M258.200 94.400 C 259.059 95.280,259.852 96.000,259.962 96.000 C 260.072 96.000,259.459 95.280,258.600 94.400 C 257.741 93.520,256.948 92.800,256.838 92.800 C 256.728 92.800,257.341 93.520,258.200 94.400 M140.981 94.900 L 139.400 96.600 141.100 95.019 C 142.035 94.149,142.800 93.384,142.800 93.319 C 142.800 93.016,142.452 93.319,140.981 94.900 M120.540 148.000 C 120.540 149.870,120.609 150.635,120.693 149.700 C 120.777 148.765,120.777 147.235,120.693 146.300 C 120.609 145.365,120.540 146.130,120.540 148.000 M382.493 179.600 C 382.493 180.370,382.575 180.685,382.676 180.300 C 382.776 179.915,382.776 179.285,382.676 178.900 C 382.575 178.515,382.493 178.830,382.493 179.600 M382.901 183.800 C 382.905 184.680,382.987 184.993,383.083 184.495 C 383.179 183.998,383.175 183.278,383.075 182.895 C 382.975 182.513,382.896 182.920,382.901 183.800 M16.901 184.200 C 16.905 185.080,16.987 185.393,17.083 184.895 C 17.179 184.398,17.175 183.678,17.075 183.295 C 16.975 182.913,16.896 183.320,16.901 184.200 M16.520 190.000 C 16.520 191.210,16.595 191.705,16.687 191.100 C 16.778 190.495,16.778 189.505,16.687 188.900 C 16.595 188.295,16.520 188.790,16.520 190.000 M383.314 189.800 C 383.317 190.900,383.395 191.303,383.487 190.695 C 383.579 190.086,383.577 189.186,383.482 188.695 C 383.387 188.203,383.311 188.700,383.314 189.800 M0.101 192.600 C 0.105 193.480,0.187 193.793,0.283 193.295 C 0.379 192.798,0.375 192.078,0.275 191.695 C 0.175 191.313,0.096 191.720,0.101 192.600 M399.701 192.600 C 399.705 193.480,399.787 193.793,399.883 193.295 C 399.979 192.798,399.975 192.078,399.875 191.695 C 399.775 191.313,399.696 191.720,399.701 192.600 M141.200 201.325 C 141.200 201.394,141.785 201.979,142.500 202.625 L 143.800 203.800 142.625 202.500 C 141.530 201.288,141.200 201.016,141.200 201.325 M257.978 203.100 L 256.600 204.600 258.100 203.222 C 259.496 201.938,259.784 201.600,259.478 201.600 C 259.412 201.600,258.737 202.275,257.978 203.100 M146.600 206.800 C 147.683 207.900,148.660 208.800,148.770 208.800 C 148.880 208.800,148.083 207.900,147.000 206.800 C 145.917 205.700,144.940 204.800,144.830 204.800 C 144.720 204.800,145.517 205.700,146.600 206.800 M253.978 207.100 L 252.600 208.600 254.100 207.222 C 255.496 205.938,255.784 205.600,255.478 205.600 C 255.412 205.600,254.737 206.275,253.978 207.100 M399.701 207.400 C 399.705 208.280,399.787 208.593,399.883 208.095 C 399.979 207.598,399.975 206.878,399.875 206.495 C 399.775 206.113,399.696 206.520,399.701 207.400 M0.093 207.600 C 0.093 208.370,0.175 208.685,0.276 208.300 C 0.376 207.915,0.376 207.285,0.276 206.900 C 0.175 206.515,0.093 206.830,0.093 207.600 M16.520 209.600 C 16.520 210.810,16.595 211.305,16.687 210.700 C 16.778 210.095,16.778 209.105,16.687 208.500 C 16.595 207.895,16.520 208.390,16.520 209.600 M383.320 210.000 C 383.320 211.210,383.395 211.705,383.487 211.100 C 383.578 210.495,383.578 209.505,383.487 208.900 C 383.395 208.295,383.320 208.790,383.320 210.000 M16.901 215.400 C 16.905 216.280,16.987 216.593,17.083 216.095 C 17.179 215.598,17.175 214.878,17.075 214.495 C 16.975 214.113,16.896 214.520,16.901 215.400 M382.901 216.200 C 382.905 217.080,382.987 217.393,383.083 216.895 C 383.179 216.398,383.175 215.678,383.075 215.295 C 382.975 214.913,382.896 215.320,382.901 216.200 M17.293 220.000 C 17.293 220.770,17.375 221.085,17.476 220.700 C 17.576 220.315,17.576 219.685,17.476 219.300 C 17.375 218.915,17.293 219.230,17.293 220.000 M382.493 220.000 C 382.493 220.770,382.575 221.085,382.676 220.700 C 382.776 220.315,382.776 219.685,382.676 219.300 C 382.575 218.915,382.493 219.230,382.493 220.000 M117.578 250.700 L 116.200 252.200 117.700 250.822 C 119.096 249.538,119.384 249.200,119.078 249.200 C 119.012 249.200,118.337 249.875,117.578 250.700 M281.183 250.900 C 282.841 252.666,283.200 252.984,283.200 252.683 C 283.200 252.619,282.345 251.764,281.300 250.783 L 279.400 249.000 281.183 250.900 M287.000 256.800 C 288.306 258.120,289.465 259.200,289.575 259.200 C 289.685 259.200,288.706 258.120,287.400 256.800 C 286.094 255.480,284.935 254.400,284.825 254.400 C 284.715 254.400,285.694 255.480,287.000 256.800 M60.800 318.925 C 60.800 318.994,61.385 319.579,62.100 320.225 L 63.400 321.400 62.225 320.100 C 61.130 318.888,60.800 318.616,60.800 318.925 M69.000 327.600 C 71.854 330.460,74.278 332.800,74.388 332.800 C 74.498 332.800,72.254 330.460,69.400 327.600 C 66.546 324.740,64.122 322.400,64.012 322.400 C 63.902 322.400,66.146 324.740,69.000 327.600 M330.593 327.700 L 326.200 332.200 330.700 327.807 C 333.175 325.391,335.200 323.366,335.200 323.307 C 335.200 323.018,334.674 323.520,330.593 327.700 M348.575 332.900 L 347.400 334.200 348.700 333.025 C 349.415 332.379,350.000 331.794,350.000 331.725 C 350.000 331.416,349.670 331.688,348.575 332.900 M50.800 332.525 C 50.800 332.594,51.385 333.179,52.100 333.825 L 53.400 335.000 52.225 333.700 C 51.130 332.488,50.800 332.216,50.800 332.525 M322.975 334.900 L 321.800 336.200 323.100 335.025 C 323.815 334.379,324.400 333.794,324.400 333.725 C 324.400 333.416,324.070 333.688,322.975 334.900 M340.794 341.100 L 335.800 346.200 340.900 341.206 C 343.705 338.459,346.000 336.164,346.000 336.106 C 346.000 335.819,345.433 336.363,340.794 341.100 M58.800 341.000 C 60.881 343.090,62.674 344.800,62.784 344.800 C 62.894 344.800,61.281 343.090,59.200 341.000 C 57.119 338.910,55.326 337.200,55.216 337.200 C 55.106 337.200,56.719 338.910,58.800 341.000 M65.200 346.925 C 65.200 346.994,65.785 347.579,66.500 348.225 L 67.800 349.400 66.625 348.100 C 65.530 346.888,65.200 346.616,65.200 346.925 M332.575 348.900 L 331.400 350.200 332.700 349.025 C 333.415 348.379,334.000 347.794,334.000 347.725 C 334.000 347.416,333.670 347.688,332.575 348.900 M191.905 399.883 C 192.402 399.979,193.122 399.975,193.505 399.875 C 193.887 399.775,193.480 399.696,192.600 399.701 C 191.720 399.705,191.407 399.787,191.905 399.883 M206.705 399.883 C 207.202 399.979,207.922 399.975,208.305 399.875 C 208.687 399.775,208.280 399.696,207.400 399.701 C 206.520 399.705,206.207 399.787,206.705 399.883 " stroke="none" fill="#6c6c6c" fill-rule="evenodd"></path><path id="path4" d="M329.800 70.400 C 330.659 71.280,331.452 72.000,331.562 72.000 C 331.672 72.000,331.059 71.280,330.200 70.400 C 329.341 69.520,328.548 68.800,328.438 68.800 C 328.328 68.800,328.941 69.520,329.800 70.400 M279.293 150.000 C 279.293 150.770,279.375 151.085,279.476 150.700 C 279.576 150.315,279.576 149.685,279.476 149.300 C 279.375 148.915,279.293 149.230,279.293 150.000 " stroke="none" fill="#747474" fill-rule="evenodd"></path></g></svg>