<?xml version="1.0" encoding="UTF-8" standalone="no"?>
<!DOCTYPE svg PUBLIC "-//W3C//DTD SVG 1.1//EN"
 "http://www.w3.org/Graphics/SVG/1.1/DTD/svg11.dtd">
<!-- Generated by graphviz version 2.40.1 (20161225.0304)
 -->
<!-- Title: dependencies Pages: 1 -->
<svg width="3452pt" height="211pt"
 viewBox="0.00 0.00 3452.00 211.00" xmlns="http://www.w3.org/2000/svg" xmlns:xlink="http://www.w3.org/1999/xlink">
<g id="graph0" class="graph" transform="scale(1 1) rotate(0) translate(4 207)">
<title>dependencies</title>
<polygon fill="#ffffff" stroke="transparent" points="-4,4 -4,-207 3448,-207 3448,4 -4,4"/>
<text text-anchor="start" x="1701.0091" y="-42.4" font-family="sans-serif" font-weight="bold" font-size="14.00" fill="#000000">Legend</text>
<polygon fill="#ffffb3" stroke="transparent" points="1488,-10 1488,-30 1508,-30 1508,-10 1488,-10"/>
<text text-anchor="start" x="1511.629" y="-15.4" font-family="sans-serif" font-size="14.00" fill="#000000"> &#160;Declarations</text>
<polygon fill="#8dd3c7" stroke="transparent" points="1601,-10 1601,-30 1621,-30 1621,-10 1601,-10"/>
<text text-anchor="start" x="1624.7251" y="-15.4" font-family="sans-serif" font-size="14.00" fill="#000000"> &#160;Module</text>
<polygon fill="#80b1d3" stroke="transparent" points="1687,-10 1687,-30 1707,-30 1707,-10 1687,-10"/>
<text text-anchor="start" x="1710.7812" y="-15.4" font-family="sans-serif" font-size="14.00" fill="#000000"> &#160;Bootstrap</text>
<polygon fill="#fdb462" stroke="transparent" points="1784,-10 1784,-30 1804,-30 1804,-10 1784,-10"/>
<text text-anchor="start" x="1807.6732" y="-15.4" font-family="sans-serif" font-size="14.00" fill="#000000"> &#160;Providers</text>
<polygon fill="#fb8072" stroke="transparent" points="1880,-10 1880,-30 1900,-30 1900,-10 1880,-10"/>
<text text-anchor="start" x="1903.7258" y="-15.4" font-family="sans-serif" font-size="14.00" fill="#000000"> &#160;Exports</text>
<g id="clust1" class="cluster">
<title>cluster_DashboardModule</title>
<polygon fill="none" stroke="#000000" stroke-dasharray="1,5" points="8,-70 8,-195 3436,-195 3436,-70 8,-70"/>
</g>
<g id="clust2" class="cluster">
<title>cluster_DashboardModule_declarations</title>
<polygon fill="none" stroke="#000000" points="258,-78 258,-130 3428,-130 3428,-78 258,-78"/>
</g>
<g id="clust22" class="cluster">
<title>cluster_DashboardModule_providers</title>
<polygon fill="none" stroke="#000000" points="16,-78 16,-130 250,-130 250,-78 16,-78"/>
</g>
<!-- AddWidgetDialogComponent -->
<g id="node1" class="node">
<title>AddWidgetDialogComponent</title>
<polygon fill="#ffffb3" stroke="#000000" points="3420.252,-122 3235.748,-122 3235.748,-86 3420.252,-86 3420.252,-122"/>
<text text-anchor="middle" x="3328" y="-99.8" font-family="Times,serif" font-size="14.00" fill="#000000">AddWidgetDialogComponent</text>
</g>
<!-- DashboardModule -->
<g id="node17" class="node">
<title>DashboardModule</title>
<polygon fill="#8dd3c7" stroke="#000000" points="1806.191,-187 1803.191,-191 1782.191,-191 1779.191,-187 1685.809,-187 1685.809,-151 1806.191,-151 1806.191,-187"/>
<text text-anchor="middle" x="1746" y="-164.8" font-family="Times,serif" font-size="14.00" fill="#000000">DashboardModule</text>
</g>
<!-- AddWidgetDialogComponent&#45;&gt;DashboardModule -->
<g id="edge1" class="edge">
<title>AddWidgetDialogComponent&#45;&gt;DashboardModule</title>
<path fill="none" stroke="#000000" d="M3328,-122.3228C3328,-145.6602 3328,-183 3328,-183 3328,-183 1816.5648,-183 1816.5648,-183"/>
<polygon fill="#000000" stroke="#000000" points="1816.5649,-179.5001 1806.5648,-183 1816.5648,-186.5001 1816.5649,-179.5001"/>
</g>
<!-- ConfirmRecordingActionComponent -->
<g id="node2" class="node">
<title>ConfirmRecordingActionComponent</title>
<polygon fill="#ffffb3" stroke="#000000" points="3217.6909,-122 2992.3091,-122 2992.3091,-86 3217.6909,-86 3217.6909,-122"/>
<text text-anchor="middle" x="3105" y="-99.8" font-family="Times,serif" font-size="14.00" fill="#000000">ConfirmRecordingActionComponent</text>
</g>
<!-- ConfirmRecordingActionComponent&#45;&gt;DashboardModule -->
<g id="edge2" class="edge">
<title>ConfirmRecordingActionComponent&#45;&gt;DashboardModule</title>
<path fill="none" stroke="#000000" d="M3105,-122.1554C3105,-144.3519 3105,-179 3105,-179 3105,-179 1816.1481,-179 1816.1481,-179"/>
<polygon fill="#000000" stroke="#000000" points="1816.1481,-175.5001 1806.1481,-179 1816.148,-182.5001 1816.1481,-175.5001"/>
</g>
<!-- DashboardComponent -->
<g id="node3" class="node">
<title>DashboardComponent</title>
<polygon fill="#ffffb3" stroke="#000000" points="2973.9734,-122 2832.0266,-122 2832.0266,-86 2973.9734,-86 2973.9734,-122"/>
<text text-anchor="middle" x="2903" y="-99.8" font-family="Times,serif" font-size="14.00" fill="#000000">DashboardComponent</text>
</g>
<!-- DashboardComponent&#45;&gt;DashboardModule -->
<g id="edge3" class="edge">
<title>DashboardComponent&#45;&gt;DashboardModule</title>
<path fill="none" stroke="#000000" d="M2903,-122.2843C2903,-143.3211 2903,-175 2903,-175 2903,-175 1816.1721,-175 1816.1721,-175"/>
<polygon fill="#000000" stroke="#000000" points="1816.1721,-171.5001 1806.1721,-175 1816.172,-178.5001 1816.1721,-171.5001"/>
</g>
<!-- DashboardViewComponent -->
<g id="node4" class="node">
<title>DashboardViewComponent</title>
<polygon fill="#ffffb3" stroke="#000000" points="2814.292,-122 2641.708,-122 2641.708,-86 2814.292,-86 2814.292,-122"/>
<text text-anchor="middle" x="2728" y="-99.8" font-family="Times,serif" font-size="14.00" fill="#000000">DashboardViewComponent</text>
</g>
<!-- DashboardViewComponent&#45;&gt;DashboardModule -->
<g id="edge4" class="edge">
<title>DashboardViewComponent&#45;&gt;DashboardModule</title>
<path fill="none" stroke="#000000" d="M2728,-122.308C2728,-142.1455 2728,-171 2728,-171 2728,-171 1816.3184,-171 1816.3184,-171"/>
<polygon fill="#000000" stroke="#000000" points="1816.3184,-167.5001 1806.3184,-171 1816.3183,-174.5001 1816.3184,-167.5001"/>
</g>
<!-- DashboardsListComponent -->
<g id="node5" class="node">
<title>DashboardsListComponent</title>
<polygon fill="#ffffb3" stroke="#000000" points="2623.6965,-122 2454.3035,-122 2454.3035,-86 2623.6965,-86 2623.6965,-122"/>
<text text-anchor="middle" x="2539" y="-99.8" font-family="Times,serif" font-size="14.00" fill="#000000">DashboardsListComponent</text>
</g>
<!-- DashboardsListComponent&#45;&gt;DashboardModule -->
<g id="edge5" class="edge">
<title>DashboardsListComponent&#45;&gt;DashboardModule</title>
<path fill="none" stroke="#000000" d="M2539,-122.2222C2539,-140.8285 2539,-167 2539,-167 2539,-167 1816.2548,-167 1816.2548,-167"/>
<polygon fill="#000000" stroke="#000000" points="1816.2548,-163.5001 1806.2548,-167 1816.2547,-170.5001 1816.2548,-163.5001"/>
</g>
<!-- DynamicWidgetComponent -->
<g id="node6" class="node">
<title>DynamicWidgetComponent</title>
<polygon fill="#ffffb3" stroke="#000000" points="2435.8599,-122 2262.1401,-122 2262.1401,-86 2435.8599,-86 2435.8599,-122"/>
<text text-anchor="middle" x="2349" y="-99.8" font-family="Times,serif" font-size="14.00" fill="#000000">DynamicWidgetComponent</text>
</g>
<!-- DynamicWidgetComponent&#45;&gt;DashboardModule -->
<g id="edge6" class="edge">
<title>DynamicWidgetComponent&#45;&gt;DashboardModule</title>
<path fill="none" stroke="#000000" d="M2349,-122.0225C2349,-139.3734 2349,-163 2349,-163 2349,-163 1816.3004,-163 1816.3004,-163"/>
<polygon fill="#000000" stroke="#000000" points="1816.3004,-159.5001 1806.3004,-163 1816.3003,-166.5001 1816.3004,-159.5001"/>
</g>
<!-- EventsLogSettingsComponent -->
<g id="node7" class="node">
<title>EventsLogSettingsComponent</title>
<polygon fill="#ffffb3" stroke="#000000" points="2244.601,-122 2057.399,-122 2057.399,-86 2244.601,-86 2244.601,-122"/>
<text text-anchor="middle" x="2151" y="-99.8" font-family="Times,serif" font-size="14.00" fill="#000000">EventsLogSettingsComponent</text>
</g>
<!-- EventsLogSettingsComponent&#45;&gt;DashboardModule -->
<g id="edge7" class="edge">
<title>EventsLogSettingsComponent&#45;&gt;DashboardModule</title>
<path fill="none" stroke="#000000" d="M2151,-122.0091C2151,-138.0494 2151,-159 2151,-159 2151,-159 1816.1953,-159 1816.1953,-159"/>
<polygon fill="#000000" stroke="#000000" points="1816.1953,-155.5001 1806.1953,-159 1816.1952,-162.5001 1816.1953,-155.5001"/>
</g>
<!-- InfoRecordingActionComponent -->
<g id="node8" class="node">
<title>InfoRecordingActionComponent</title>
<polygon fill="#ffffb3" stroke="#000000" points="2039.573,-122 1838.427,-122 1838.427,-86 2039.573,-86 2039.573,-122"/>
<text text-anchor="middle" x="1939" y="-99.8" font-family="Times,serif" font-size="14.00" fill="#000000">InfoRecordingActionComponent</text>
</g>
<!-- InfoRecordingActionComponent&#45;&gt;DashboardModule -->
<g id="edge8" class="edge">
<title>InfoRecordingActionComponent&#45;&gt;DashboardModule</title>
<path fill="none" stroke="#000000" d="M1939,-122.1243C1939,-136.7832 1939,-155 1939,-155 1939,-155 1816.2725,-155 1816.2725,-155"/>
<polygon fill="#000000" stroke="#000000" points="1816.2726,-151.5001 1806.2725,-155 1816.2725,-158.5001 1816.2726,-151.5001"/>
</g>
<!-- MyTelInputComponent -->
<g id="node9" class="node">
<title>MyTelInputComponent</title>
<polygon fill="#ffffb3" stroke="#000000" points="1820.486,-122 1671.514,-122 1671.514,-86 1820.486,-86 1820.486,-122"/>
<text text-anchor="middle" x="1746" y="-99.8" font-family="Times,serif" font-size="14.00" fill="#000000">MyTelInputComponent</text>
</g>
<!-- MyTelInputComponent&#45;&gt;DashboardModule -->
<g id="edge9" class="edge">
<title>MyTelInputComponent&#45;&gt;DashboardModule</title>
<path fill="none" stroke="#000000" d="M1746,-122.1061C1746,-122.1061 1746,-140.991 1746,-140.991"/>
<polygon fill="#000000" stroke="#000000" points="1742.5001,-140.9909 1746,-150.991 1749.5001,-140.991 1742.5001,-140.9909"/>
</g>
<!-- PacketSelectComponent -->
<g id="node10" class="node">
<title>PacketSelectComponent</title>
<polygon fill="#ffffb3" stroke="#000000" points="1653.3571,-122 1500.6429,-122 1500.6429,-86 1653.3571,-86 1653.3571,-122"/>
<text text-anchor="middle" x="1577" y="-99.8" font-family="Times,serif" font-size="14.00" fill="#000000">PacketSelectComponent</text>
</g>
<!-- PacketSelectComponent&#45;&gt;DashboardModule -->
<g id="edge10" class="edge">
<title>PacketSelectComponent&#45;&gt;DashboardModule</title>
<path fill="none" stroke="#000000" d="M1577,-122.1243C1577,-136.7832 1577,-155 1577,-155 1577,-155 1675.4645,-155 1675.4645,-155"/>
<polygon fill="#000000" stroke="#000000" points="1675.4645,-158.5001 1685.4645,-155 1675.4644,-151.5001 1675.4645,-158.5001"/>
</g>
<!-- SensorValueSettingsComponent -->
<g id="node11" class="node">
<title>SensorValueSettingsComponent</title>
<polygon fill="#ffffb3" stroke="#000000" points="1482.9748,-122 1285.0252,-122 1285.0252,-86 1482.9748,-86 1482.9748,-122"/>
<text text-anchor="middle" x="1384" y="-99.8" font-family="Times,serif" font-size="14.00" fill="#000000">SensorValueSettingsComponent</text>
</g>
<!-- SensorValueSettingsComponent&#45;&gt;DashboardModule -->
<g id="edge11" class="edge">
<title>SensorValueSettingsComponent&#45;&gt;DashboardModule</title>
<path fill="none" stroke="#000000" d="M1384,-122.0091C1384,-138.0494 1384,-159 1384,-159 1384,-159 1675.8167,-159 1675.8167,-159"/>
<polygon fill="#000000" stroke="#000000" points="1675.8167,-162.5001 1685.8167,-159 1675.8167,-155.5001 1675.8167,-162.5001"/>
</g>
<!-- StatsChartSettingsComponent -->
<g id="node12" class="node">
<title>StatsChartSettingsComponent</title>
<polygon fill="#ffffb3" stroke="#000000" points="1267.2715,-122 1082.7285,-122 1082.7285,-86 1267.2715,-86 1267.2715,-122"/>
<text text-anchor="middle" x="1175" y="-99.8" font-family="Times,serif" font-size="14.00" fill="#000000">StatsChartSettingsComponent</text>
</g>
<!-- StatsChartSettingsComponent&#45;&gt;DashboardModule -->
<g id="edge12" class="edge">
<title>StatsChartSettingsComponent&#45;&gt;DashboardModule</title>
<path fill="none" stroke="#000000" d="M1175,-122.0225C1175,-139.3734 1175,-163 1175,-163 1175,-163 1675.7031,-163 1675.7031,-163"/>
<polygon fill="#000000" stroke="#000000" points="1675.7032,-166.5001 1685.7031,-163 1675.7031,-159.5001 1675.7032,-166.5001"/>
</g>
<!-- TextLabelSettingsComponent -->
<g id="node13" class="node">
<title>TextLabelSettingsComponent</title>
<polygon fill="#ffffb3" stroke="#000000" points="1064.9762,-122 881.0238,-122 881.0238,-86 1064.9762,-86 1064.9762,-122"/>
<text text-anchor="middle" x="973" y="-99.8" font-family="Times,serif" font-size="14.00" fill="#000000">TextLabelSettingsComponent</text>
</g>
<!-- TextLabelSettingsComponent&#45;&gt;DashboardModule -->
<g id="edge13" class="edge">
<title>TextLabelSettingsComponent&#45;&gt;DashboardModule</title>
<path fill="none" stroke="#000000" d="M973,-122.2222C973,-140.8285 973,-167 973,-167 973,-167 1675.666,-167 1675.666,-167"/>
<polygon fill="#000000" stroke="#000000" points="1675.666,-170.5001 1685.666,-167 1675.6659,-163.5001 1675.666,-170.5001"/>
</g>
<!-- TimeChartSettingsComponent -->
<g id="node14" class="node">
<title>TimeChartSettingsComponent</title>
<polygon fill="#ffffb3" stroke="#000000" points="862.5968,-122 675.4032,-122 675.4032,-86 862.5968,-86 862.5968,-122"/>
<text text-anchor="middle" x="769" y="-99.8" font-family="Times,serif" font-size="14.00" fill="#000000">TimeChartSettingsComponent</text>
</g>
<!-- TimeChartSettingsComponent&#45;&gt;DashboardModule -->
<g id="edge14" class="edge">
<title>TimeChartSettingsComponent&#45;&gt;DashboardModule</title>
<path fill="none" stroke="#000000" d="M769,-122.308C769,-142.1455 769,-171 769,-171 769,-171 1675.6216,-171 1675.6216,-171"/>
<polygon fill="#000000" stroke="#000000" points="1675.6216,-174.5001 1685.6216,-171 1675.6215,-167.5001 1675.6216,-174.5001"/>
</g>
<!-- WidgetSettingsDialogComponent -->
<g id="node15" class="node">
<title>WidgetSettingsDialogComponent</title>
<polygon fill="#ffffb3" stroke="#000000" points="657.7589,-122 452.2411,-122 452.2411,-86 657.7589,-86 657.7589,-122"/>
<text text-anchor="middle" x="555" y="-99.8" font-family="Times,serif" font-size="14.00" fill="#000000">WidgetSettingsDialogComponent</text>
</g>
<!-- WidgetSettingsDialogComponent&#45;&gt;DashboardModule -->
<g id="edge15" class="edge">
<title>WidgetSettingsDialogComponent&#45;&gt;DashboardModule</title>
<path fill="none" stroke="#000000" d="M555,-122.2843C555,-143.3211 555,-175 555,-175 555,-175 1675.7119,-175 1675.7119,-175"/>
<polygon fill="#000000" stroke="#000000" points="1675.712,-178.5001 1685.7119,-175 1675.7119,-171.5001 1675.712,-178.5001"/>
</g>
<!-- WidgetsLayoutComponent -->
<g id="node16" class="node">
<title>WidgetsLayoutComponent</title>
<polygon fill="#ffffb3" stroke="#000000" points="433.6456,-122 266.3544,-122 266.3544,-86 433.6456,-86 433.6456,-122"/>
<text text-anchor="middle" x="350" y="-99.8" font-family="Times,serif" font-size="14.00" fill="#000000">WidgetsLayoutComponent</text>
</g>
<!-- WidgetsLayoutComponent&#45;&gt;DashboardModule -->
<g id="edge16" class="edge">
<title>WidgetsLayoutComponent&#45;&gt;DashboardModule</title>
<path fill="none" stroke="#000000" d="M350,-122.1554C350,-144.3519 350,-179 350,-179 350,-179 1675.5675,-179 1675.5675,-179"/>
<polygon fill="#000000" stroke="#000000" points="1675.5676,-182.5001 1685.5675,-179 1675.5675,-175.5001 1675.5676,-182.5001"/>
</g>
<!-- DashboardConfigService -->
<g id="node18" class="node">
<title>DashboardConfigService</title>
<ellipse fill="#fdb462" stroke="#000000" cx="133" cy="-104" rx="108.7903" ry="18"/>
<text text-anchor="middle" x="133" y="-99.8" font-family="Times,serif" font-size="14.00" fill="#000000">DashboardConfigService</text>
</g>
<!-- DashboardConfigService&#45;&gt;DashboardModule -->
<g id="edge17" class="edge">
<title>DashboardConfigService&#45;&gt;DashboardModule</title>
<path fill="none" stroke="#000000" d="M133,-122.3228C133,-145.6602 133,-183 133,-183 133,-183 1675.7124,-183 1675.7124,-183"/>
<polygon fill="#000000" stroke="#000000" points="1675.7124,-186.5001 1685.7124,-183 1675.7123,-179.5001 1675.7124,-186.5001"/>
</g>
</g>
</svg>
