<svg id="Capa_1" enable-background="new 0 0 515.556 515.556" height="512" viewBox="0 0 515.556 515.556" width="512" xmlns="http://www.w3.org/2000/svg"><path d="m257.778 0c-142.137 0-257.778 115.641-257.778 257.778s115.641 257.778 257.778 257.778 257.778-115.641 257.778-257.778-115.642-257.778-257.778-257.778zm0 451.111c-106.61 0-193.333-86.723-193.333-193.333s86.723-193.334 193.333-193.334 193.333 86.723 193.333 193.333-86.723 193.334-193.333 193.334z"/><path d="m257.778 128.889c-71.068 0-128.889 57.805-128.889 128.889s57.821 128.889 128.889 128.889 128.889-57.805 128.889-128.889-57.821-128.889-128.889-128.889z"/></svg>