<?xml version="1.0" encoding="UTF-8" standalone="no"?>
<!DOCTYPE svg PUBLIC "-//W3C//DTD SVG 1.1//EN"
 "http://www.w3.org/Graphics/SVG/1.1/DTD/svg11.dtd">
<!-- Generated by graphviz version 2.40.1 (20161225.0304)
 -->
<!-- Title: dependencies Pages: 1 -->
<svg width="1246pt" height="211pt"
 viewBox="0.00 0.00 1246.00 211.00" xmlns="http://www.w3.org/2000/svg" xmlns:xlink="http://www.w3.org/1999/xlink">
<g id="graph0" class="graph" transform="scale(1 1) rotate(0) translate(4 207)">
<title>dependencies</title>
<polygon fill="#ffffff" stroke="transparent" points="-4,4 -4,-207 1242,-207 1242,4 -4,4"/>
<text text-anchor="start" x="598.0091" y="-42.4" font-family="sans-serif" font-weight="bold" font-size="14.00" fill="#000000">Legend</text>
<polygon fill="#ffffb3" stroke="transparent" points="385,-10 385,-30 405,-30 405,-10 385,-10"/>
<text text-anchor="start" x="408.629" y="-15.4" font-family="sans-serif" font-size="14.00" fill="#000000"> &#160;Declarations</text>
<polygon fill="#8dd3c7" stroke="transparent" points="498,-10 498,-30 518,-30 518,-10 498,-10"/>
<text text-anchor="start" x="521.7251" y="-15.4" font-family="sans-serif" font-size="14.00" fill="#000000"> &#160;Module</text>
<polygon fill="#80b1d3" stroke="transparent" points="584,-10 584,-30 604,-30 604,-10 584,-10"/>
<text text-anchor="start" x="607.7812" y="-15.4" font-family="sans-serif" font-size="14.00" fill="#000000"> &#160;Bootstrap</text>
<polygon fill="#fdb462" stroke="transparent" points="681,-10 681,-30 701,-30 701,-10 681,-10"/>
<text text-anchor="start" x="704.6732" y="-15.4" font-family="sans-serif" font-size="14.00" fill="#000000"> &#160;Providers</text>
<polygon fill="#fb8072" stroke="transparent" points="777,-10 777,-30 797,-30 797,-10 777,-10"/>
<text text-anchor="start" x="800.7258" y="-15.4" font-family="sans-serif" font-size="14.00" fill="#000000"> &#160;Exports</text>
<g id="clust1" class="cluster">
<title>cluster_AuthenticationModule</title>
<polygon fill="none" stroke="#000000" stroke-dasharray="1,5" points="8,-70 8,-195 1230,-195 1230,-70 8,-70"/>
</g>
<g id="clust2" class="cluster">
<title>cluster_AuthenticationModule_declarations</title>
<polygon fill="none" stroke="#000000" points="166,-78 166,-130 1222,-130 1222,-78 166,-78"/>
</g>
<g id="clust9" class="cluster">
<title>cluster_AuthenticationModule_imports</title>
<polygon fill="none" stroke="#000000" points="16,-78 16,-130 158,-130 158,-78 16,-78"/>
</g>
<!-- AuthenticationComponent -->
<g id="node1" class="node">
<title>AuthenticationComponent</title>
<polygon fill="#ffffb3" stroke="#000000" points="1214.0365,-122 1049.9635,-122 1049.9635,-86 1214.0365,-86 1214.0365,-122"/>
<text text-anchor="middle" x="1132" y="-99.8" font-family="Times,serif" font-size="14.00" fill="#000000">AuthenticationComponent</text>
</g>
<!-- AuthenticationModule -->
<g id="node7" class="node">
<title>AuthenticationModule</title>
<polygon fill="#8dd3c7" stroke="#000000" points="680.2534,-187 677.2534,-191 656.2534,-191 653.2534,-187 537.7466,-187 537.7466,-151 680.2534,-151 680.2534,-187"/>
<text text-anchor="middle" x="609" y="-164.8" font-family="Times,serif" font-size="14.00" fill="#000000">AuthenticationModule</text>
</g>
<!-- AuthenticationComponent&#45;&gt;AuthenticationModule -->
<g id="edge1" class="edge">
<title>AuthenticationComponent&#45;&gt;AuthenticationModule</title>
<path fill="none" stroke="#000000" d="M1132,-122.2921C1132,-144.2057 1132,-178 1132,-178 1132,-178 690.3512,-178 690.3512,-178"/>
<polygon fill="#000000" stroke="#000000" points="690.3512,-174.5001 680.3512,-178 690.3511,-181.5001 690.3512,-174.5001"/>
</g>
<!-- LoginComponent -->
<g id="node2" class="node">
<title>LoginComponent</title>
<polygon fill="#ffffb3" stroke="#000000" points="1031.2758,-122 916.7242,-122 916.7242,-86 1031.2758,-86 1031.2758,-122"/>
<text text-anchor="middle" x="974" y="-99.8" font-family="Times,serif" font-size="14.00" fill="#000000">LoginComponent</text>
</g>
<!-- LoginComponent&#45;&gt;AuthenticationModule -->
<g id="edge2" class="edge">
<title>LoginComponent&#45;&gt;AuthenticationModule</title>
<path fill="none" stroke="#000000" d="M974,-122.1061C974,-141.3391 974,-169 974,-169 974,-169 690.6768,-169 690.6768,-169"/>
<polygon fill="#000000" stroke="#000000" points="690.6768,-165.5001 680.6768,-169 690.6767,-172.5001 690.6768,-165.5001"/>
</g>
<!-- PasswordRecoveryComponent -->
<g id="node3" class="node">
<title>PasswordRecoveryComponent</title>
<polygon fill="#ffffb3" stroke="#000000" points="898.1274,-122 709.8726,-122 709.8726,-86 898.1274,-86 898.1274,-122"/>
<text text-anchor="middle" x="804" y="-99.8" font-family="Times,serif" font-size="14.00" fill="#000000">PasswordRecoveryComponent</text>
</g>
<!-- PasswordRecoveryComponent&#45;&gt;AuthenticationModule -->
<g id="edge3" class="edge">
<title>PasswordRecoveryComponent&#45;&gt;AuthenticationModule</title>
<path fill="none" stroke="#000000" d="M804,-122.027C804,-138.3976 804,-160 804,-160 804,-160 690.5035,-160 690.5035,-160"/>
<polygon fill="#000000" stroke="#000000" points="690.5036,-156.5001 680.5035,-160 690.5035,-163.5001 690.5036,-156.5001"/>
</g>
<!-- PasswordResetComponent -->
<g id="node4" class="node">
<title>PasswordResetComponent</title>
<polygon fill="#ffffb3" stroke="#000000" points="692.087,-122 525.913,-122 525.913,-86 692.087,-86 692.087,-122"/>
<text text-anchor="middle" x="609" y="-99.8" font-family="Times,serif" font-size="14.00" fill="#000000">PasswordResetComponent</text>
</g>
<!-- PasswordResetComponent&#45;&gt;AuthenticationModule -->
<g id="edge4" class="edge">
<title>PasswordResetComponent&#45;&gt;AuthenticationModule</title>
<path fill="none" stroke="#000000" d="M609,-122.1061C609,-122.1061 609,-140.991 609,-140.991"/>
<polygon fill="#000000" stroke="#000000" points="605.5001,-140.9909 609,-150.991 612.5001,-140.991 605.5001,-140.9909"/>
</g>
<!-- RegistrationComponent -->
<g id="node5" class="node">
<title>RegistrationComponent</title>
<polygon fill="#ffffb3" stroke="#000000" points="507.766,-122 358.234,-122 358.234,-86 507.766,-86 507.766,-122"/>
<text text-anchor="middle" x="433" y="-99.8" font-family="Times,serif" font-size="14.00" fill="#000000">RegistrationComponent</text>
</g>
<!-- RegistrationComponent&#45;&gt;AuthenticationModule -->
<g id="edge5" class="edge">
<title>RegistrationComponent&#45;&gt;AuthenticationModule</title>
<path fill="none" stroke="#000000" d="M433,-122.027C433,-138.3976 433,-160 433,-160 433,-160 527.6678,-160 527.6678,-160"/>
<polygon fill="#000000" stroke="#000000" points="527.6678,-163.5001 537.6678,-160 527.6677,-156.5001 527.6678,-163.5001"/>
</g>
<!-- UserActivationComponent -->
<g id="node6" class="node">
<title>UserActivationComponent</title>
<polygon fill="#ffffb3" stroke="#000000" points="340.3571,-122 173.6429,-122 173.6429,-86 340.3571,-86 340.3571,-122"/>
<text text-anchor="middle" x="257" y="-99.8" font-family="Times,serif" font-size="14.00" fill="#000000">UserActivationComponent</text>
</g>
<!-- UserActivationComponent&#45;&gt;AuthenticationModule -->
<g id="edge6" class="edge">
<title>UserActivationComponent&#45;&gt;AuthenticationModule</title>
<path fill="none" stroke="#000000" d="M257,-122.1061C257,-141.3391 257,-169 257,-169 257,-169 527.3433,-169 527.3433,-169"/>
<polygon fill="#000000" stroke="#000000" points="527.3433,-172.5001 537.3433,-169 527.3432,-165.5001 527.3433,-172.5001"/>
</g>
<!-- HytRoutingModule -->
<g id="node8" class="node">
<title>HytRoutingModule</title>
<polygon fill="#8dd3c7" stroke="#000000" points="149.6652,-122 146.6652,-126 125.6652,-126 122.6652,-122 24.3348,-122 24.3348,-86 149.6652,-86 149.6652,-122"/>
<text text-anchor="middle" x="87" y="-99.8" font-family="Times,serif" font-size="14.00" fill="#000000">HytRoutingModule</text>
</g>
<!-- HytRoutingModule&#45;&gt;AuthenticationModule -->
<g id="edge7" class="edge">
<title>HytRoutingModule&#45;&gt;AuthenticationModule</title>
<path fill="none" stroke="#000000" d="M87,-122.2921C87,-144.2057 87,-178 87,-178 87,-178 527.5126,-178 527.5126,-178"/>
<polygon fill="#000000" stroke="#000000" points="527.5127,-181.5001 537.5126,-178 527.5126,-174.5001 527.5127,-181.5001"/>
</g>
</g>
</svg>
