<?xml version="1.0" standalone="no"?>
<!DOCTYPE svg PUBLIC "-//W3C//DTD SVG 1.1//EN" "http://www.w3.org/Graphics/SVG/1.1/DTD/svg11.dtd">
<svg xmlns="http://www.w3.org/2000/svg">
<defs >
<font id="KoHo" horiz-adv-x="578" ><font-face
    font-family="KoHo"
    units-per-em="1000"
    panose-1="0 0 8 0 0 0 0 0 0 0"
    ascent="1045"
    descent="-255"
    alphabetic="0" />
<glyph unicode=" " glyph-name="space" horiz-adv-x="280" />
<glyph unicode="!" glyph-name="exclam" horiz-adv-x="296" d="M167 700H295L192 218H100L167 700ZM77 -12T58 6T39 52Q39 87 67 115T133 144Q160 144 178 125T197 79Q197 43 169 16T106 -12Q77 -12 58 6Z" />
<glyph unicode="&quot;" glyph-name="quotedbl" horiz-adv-x="385" d="M129 712H242L190 455H91L129 712ZM311 712H424L372 455H274L311 712Z" />
<glyph unicode="#" glyph-name="numbersign" horiz-adv-x="579" d="M464 415L425 285H532L516 195H398L339 0H244L303 195H217L158 0H63L122 195H28L44 285H149L188 415H88L104 505H215L274 700H369L310 505H396L455 700H550L491 505H592L576 415H464ZM369 415H283L244
285H330L369 415Z" />
<glyph unicode="$" glyph-name="dollar" horiz-adv-x="634" d="M451 391T492 375T563 323T592 227Q592 128 521 64T317 -10L298 -120H223L242 -11Q150 -7 101 25T15 123L124 202Q153 150 183 126T262 99L296 292L267 299Q183 321 147 360T111 471Q111 537 141
590T229 675T370 711L389 820H464L445 710Q520 703 569 674T641 596L535 520Q508 554 483 573T425 598L390 403Q451 391 492 375ZM254 462T270 446T318 420L350 599Q303 590 279 562T254 492Q254 462 270 446ZM392 112T420 139T448 208Q448 234 428 249T368 276L337
102Q392 112 420 139Z" />
<glyph unicode="%" glyph-name="percent" horiz-adv-x="967" d="M152 308T113 340T73 432Q73 449 76 467L98 590Q111 666 157 704T280 742Q348 742 388 712T428 623Q428 608 425 590L403 467Q389 390 344 349T222 308Q152 308 113 340ZM258 383T279 404T308 467L330
590Q332 606 332 612Q332 639 318 653T275 667Q243 667 222 647T193 590L171 467Q168 454 168 441Q168 413 182 398T225 383Q258 383 279 404ZM729 700H820L279 0H188L729 700ZM661 -36T622 -4T582 88Q582 105 585 123L607 246Q620 322 666 360T789 398Q857 398
897 368T937 279Q937 264 934 246L912 123Q898 46 853 5T731 -36Q661 -36 622 -4ZM767 39T788 60T817 123L839 246Q841 262 841 268Q841 295 827 309T784 323Q752 323 731 303T702 246L680 123Q677 110 677 97Q677 69 691 54T734 39Q767 39 788 60Z" />
<glyph unicode="&amp;" glyph-name="ampersand" horiz-adv-x="715" d="M646 226T561 128L654 0H489L458 42Q366 -12 251 -12Q182 -12 132 10T54 73T27 166Q27 245 74 295T208 391Q182 430 169 461T155 525Q155 580 182 622T258 688T373 712Q456 712 506 674T556
566Q556 500 513 453T392 361L485 233Q520 287 542 368H683Q646 226 561 128ZM335 602T316 581T296 529Q296 511 304 493T328 450Q370 472 392 497T415 557Q415 578 401 590T364 602Q335 602 316 581ZM337 98T392 134L272 301Q222 275 195 247T168 175Q168 139
195 119T271 98Q337 98 392 134Z" />
<glyph unicode="&apos;" glyph-name="quotesingle" horiz-adv-x="203" d="M129 712H242L190 455H92L129 712Z" />
<glyph unicode="(" glyph-name="parenleft" horiz-adv-x="313" d="M111 -59T88 16T65 188Q65 339 110 464T208 666T316 805L385 759Q309 663 246 514T182 184Q182 37 236 -87L151 -133Q111 -59 88 16Z" />
<glyph unicode=")" glyph-name="parenright" horiz-adv-x="313" d="M-37 -87Q39 9 103 157T168 488Q168 631 112 759L197 805Q238 730 261 655T284 484Q284 333 239 208T140 7T32 -133L-37 -87Z" />
<glyph unicode="*" glyph-name="asterisk" horiz-adv-x="450" d="M471 555H339L385 440L321 407L275 521L189 407L137 440L224 555H91L103 621H235L189 736L253 769L299 655L385 769L437 736L350 621H483L471 555Z" />
<glyph unicode="+" glyph-name="plus" horiz-adv-x="680" d="M623 250H395L354 20H249L290 250H63L80 348H307L348 578H453L412 348H640L623 250Z" />
<glyph unicode="," glyph-name="comma" horiz-adv-x="250" d="M141 141T157 124T174 74Q174 9 134 -46T34 -146L2 -109Q37 -83 58 -59T89 -7Q76 -13 57 -13Q35 -13 23 0T11 36Q11 62 25 86T63 126T110 141Q141 141 157 124Z" />
<glyph unicode="-" glyph-name="hyphen" horiz-adv-x="369" d="M56 295H335L320 210H41L56 295Z" />
<glyph unicode="." glyph-name="period" horiz-adv-x="266" d="M62 -12T43 6T24 52Q24 87 52 115T118 144Q145 144 163 125T182 79Q182 43 154 16T91 -12Q62 -12 43 6Z" />
<glyph unicode="/" glyph-name="slash" horiz-adv-x="464" d="M461 782H565L44 -79H-60L461 782Z" />
<glyph unicode="0" glyph-name="zero" horiz-adv-x="622" d="M174 -12T113 41T52 191Q52 220 58 253L94 457Q116 581 189 646T385 712Q493 712 552 662T612 517Q612 489 606 457L570 253Q547 123 476 56T282 -12Q174 -12 113 41ZM346 88T386 130T440 253L476 457Q481
485 481 504Q481 556 454 584T377 612Q317 612 277 572T224 457L188 253Q183 221 183 201Q183 146 209 117T285 88Q346 88 386 130Z" />
<glyph unicode="1" glyph-name="one" horiz-adv-x="418" d="M415 700L292 0H162L265 583L87 489L107 603L290 700H415Z" />
<glyph unicode="2" glyph-name="two" horiz-adv-x="597" d="M193 100H532L514 0H0L17 96L249 272Q324 329 365 364T432 439T459 521Q459 564 428 587T343 610Q299 610 252 594T163 535L123 625Q180 674 239 692T365 710Q458 710 523 668T589 537Q589 464 545 399T404
261L193 100Z" />
<glyph unicode="3" glyph-name="three" horiz-adv-x="626" d="M504 352T535 318T566 228Q566 158 529 104T422 19T260 -12Q188 -12 123 11T18 95L105 170Q139 128 173 108T268 88Q340 88 388 121T436 217Q436 315 270 315Q231 315 194 311L195 394Q294 397 355
411T446 453T476 530Q476 570 445 591T358 612Q253 612 179 537L139 627Q194 675 253 693T381 712Q476 712 541 676T606 555Q606 482 565 434T453 365Q504 352 535 318Z" />
<glyph unicode="4" glyph-name="four" horiz-adv-x="655" d="M393 134H45L18 226L450 700H613L530 234H634L617 134H513L489 0H369L393 134ZM410 234L473 587L152 234H410Z" />
<glyph unicode="5" glyph-name="five" horiz-adv-x="647" d="M193 -12T127 9T20 95L106 170Q135 119 179 104T283 88Q363 88 411 131T459 247Q459 299 423 323T312 347Q250 347 169 328L116 406L196 700H632L614 600H283L242 443Q285 451 330 451Q459 451 525
402T591 255Q591 176 552 116T441 22T275 -12Q193 -12 127 9Z" />
<glyph unicode="6" glyph-name="six" horiz-adv-x="618" d="M432 433T479 410T552 345T577 249Q577 171 541 112T437 21T282 -12Q170 -12 109 45T48 200Q48 329 105 434T269 611T518 712L545 618Q433 599 348 537T219 384Q285 433 367 433Q432 433 479 410ZM357
88T401 131T445 242Q445 286 416 309T331 333Q246 333 184 265Q180 240 180 207Q180 154 205 121T288 88Q357 88 401 131Z" />
<glyph unicode="7" glyph-name="seven" horiz-adv-x="570" d="M242 274T491 600H120L137 700H590L620 602Q494 435 400 293T226 0H89Q242 274 491 600Z" />
<glyph unicode="8" glyph-name="eight" horiz-adv-x="598" d="M162 -12T99 33T35 158Q35 233 75 284T188 373Q117 421 117 499Q117 561 150 609T242 685T377 712Q475 712 529 671T583 561Q583 504 549 455T454 373Q497 351 521 313T546 221Q546 151 512 99T415
17T264 -12Q162 -12 99 33ZM392 443T422 474T453 549Q453 581 429 599T365 617Q312 617 280 588T247 509Q247 451 317 430L334 425Q392 443 422 474ZM338 84T377 119T416 214Q416 251 394 272T329 307L296 317Q233 294 199 256T165 166Q165 126 192 105T271 84Q338
84 377 119Z" />
<glyph unicode="9" glyph-name="nine" horiz-adv-x="618" d="M484 712T547 658T611 505Q611 375 553 268T389 88T141 -12L114 82Q226 101 311 163T440 316Q374 267 292 267Q227 267 180 290T107 355T82 451Q82 529 118 588T220 679T374 712Q484 712 547 658ZM370
367T407 384T475 435Q479 460 479 493Q479 545 451 578T366 612Q297 612 256 570T214 458Q214 414 243 391T328 367Q370 367 407 384Z" />
<glyph unicode=":" glyph-name="colon" horiz-adv-x="266" d="M120 320T101 338T82 384Q82 419 111 447T176 476Q204 476 222 457T241 411Q241 376 213 348T149 320Q120 320 101 338ZM62 -12T43 6T24 52Q24 87 52 115T118 144Q145 144 163 125T182 79Q182 43 154
16T91 -12Q62 -12 43 6Z" />
<glyph unicode=";" glyph-name="semicolon" horiz-adv-x="265" d="M114 320T96 338T77 384Q77 419 105 447T171 476Q198 476 216 457T235 411Q235 376 207 348T143 320Q114 320 96 338ZM12 -109Q50 -81 70 -58T99 -7Q85 -13 67 -13Q45 -13 33 0T21 36Q21 62 35
86T73 126T120 141Q151 141 167 124T184 74Q184 9 144 -46T44 -146L12 -109Z" />
<glyph unicode="&lt;" glyph-name="less" horiz-adv-x="511" d="M369 77T278 155T55 294Q211 357 329 434T515 598L493 478Q382 373 222 294Q358 212 429 110L407 -10Q369 77 278 155Z" />
<glyph unicode="=" glyph-name="equal" horiz-adv-x="680" d="M101 463H660L643 365H84L101 463ZM67 273H626L609 175H50L67 273Z" />
<glyph unicode="&gt;" glyph-name="greater" horiz-adv-x="511" d="M38 110Q151 216 309 294Q174 375 103 478L124 598Q162 512 252 434T476 294Q321 232 203 154T17 -10L38 110Z" />
<glyph unicode="?" glyph-name="question" horiz-adv-x="546" d="M209 249Q213 271 223 288T257 326T332 391Q369 422 395 459T422 548Q422 579 400 596T332 613Q287 613 257 590T202 509L91 554Q118 631 180 672T340 713Q444 713 499 672T554 559Q554 488 524
441T450 358Q383 304 362 285T338 249L332 211H202L209 249ZM199 -12T181 6T162 52Q162 87 190 115T256 144Q283 144 301 125T320 79Q320 44 292 16T228 -12Q199 -12 181 6Z" />
<glyph unicode="@" glyph-name="at" horiz-adv-x="921" d="M630 166Q622 142 622 129Q622 99 656 99Q704 99 745 138T811 242T835 383Q835 496 766 555T556 614Q430 614 325 552T159 383T98 146Q98 28 176 -35T401 -98Q471 -98 534 -82T647 -34L680 -103Q553 -174
387 -174Q268 -174 186 -135T61 -24T18 146Q18 298 89 422T285 618T559 690Q671 690 751 654T873 549T915 387Q915 287 879 204T779 72T638 23Q589 23 560 42T526 93Q482 55 445 40T358 24Q290 24 249 63T207 167Q207 202 226 263Q254 354 319 413T478 472Q525
472 551 458T593 420L606 461H724L630 166ZM557 310V311Q557 381 482 381Q433 381 396 346T343 262Q332 227 329 214T326 186Q326 153 343 134T398 115Q474 115 519 189L557 310Z" />
<glyph unicode="A" glyph-name="A" horiz-adv-x="690" d="M469 163H196L120 0H-21L248 558Q277 618 302 651T358 698T429 712Q472 712 497 697T535 648T556 558L629 0H488L469 163ZM457 268L424 556Q421 582 407 582Q398 582 392 576T380 556L245 268H457Z" />
<glyph unicode="B" glyph-name="B" horiz-adv-x="686" d="M167 700H464Q560 700 616 658T672 544Q672 478 635 433T526 368Q580 353 608 318T637 232Q637 164 603 112T507 30T366 0H44L167 700ZM425 418Q470 418 500 448T531 522Q531 554 511 572T455 590H289L259
418H425ZM354 110Q422 110 459 142T496 233Q496 308 389 308H239L204 110H354Z" />
<glyph unicode="C" glyph-name="C" horiz-adv-x="637" d="M187 -12T119 41T51 190Q51 213 56 243L94 457Q116 583 199 647T419 712Q515 712 577 679T666 582L552 512Q530 560 500 581T409 602Q332 602 290 566T235 457L197 243Q193 223 193 201Q193 98 320 98Q385
98 426 120T507 193L594 119Q541 52 475 20T311 -12Q187 -12 119 41Z" />
<glyph unicode="D" glyph-name="D" horiz-adv-x="711" d="M167 700H418Q695 700 695 451Q695 235 596 118T313 0H44L167 700ZM323 110Q395 110 447 150T527 265T555 446Q555 520 519 555T408 590H289L204 110H323Z" />
<glyph unicode="E" glyph-name="E" horiz-adv-x="573" d="M151 0T98 40T45 161Q45 193 50 218L97 482Q115 587 183 643T384 700H618L599 590H365Q312 590 281 566T238 482L224 405H522L503 295H205L191 218Q188 200 188 186Q188 147 210 129T280 110H516L497 0H261Q151
0 98 40Z" />
<glyph unicode="F" glyph-name="F" d="M104 482Q122 587 190 643T391 700H625L606 590H372Q322 590 289 567T245 482L228 385H526L506 275H208L160 0H19L104 482Z" />
<glyph unicode="G" glyph-name="G" horiz-adv-x="674" d="M187 -12T119 40T51 190Q51 211 56 243L94 457Q139 712 423 712Q526 712 591 679T682 581L562 508Q540 557 509 579T413 602Q333 602 291 566T235 457L197 243Q193 223 193 200Q193 149 224 124T324 98Q391
98 434 122T484 190L489 221Q491 233 491 238Q491 283 443 283H329L348 393H502Q566 393 601 368T636 285Q636 262 632 241L621 180Q605 90 523 39T315 -12Q187 -12 119 40Z" />
<glyph unicode="H" glyph-name="H" horiz-adv-x="724" d="M167 700H308L257 406H529L580 700H721L598 0H457L509 296H237L185 0H44L167 700Z" />
<glyph unicode="I" glyph-name="I" horiz-adv-x="311" d="M167 700H308L185 0H44L167 700Z" />
<glyph unicode="J" glyph-name="J" horiz-adv-x="560" d="M129 -12T81 9T-6 85L92 170Q116 129 140 114T206 98Q269 98 307 126T355 210L441 700H582L496 210Q476 101 403 45T201 -12Q129 -12 81 9Z" />
<glyph unicode="K" glyph-name="K" horiz-adv-x="698" d="M502 409T527 385T565 324T590 224L630 0H488L449 210Q441 250 434 270T408 304T352 324L221 202L185 0H44L167 700H308L251 378L591 700H757L457 422Q502 409 527 385Z" />
<glyph unicode="L" glyph-name="L" horiz-adv-x="548" d="M152 0T102 40T51 159Q51 187 57 218L142 700H283L198 218Q195 199 195 184Q195 146 215 128T277 110H501L482 0H258Q152 0 102 40Z" />
<glyph unicode="M" glyph-name="M" horiz-adv-x="834" d="M167 700H240Q291 700 320 688T369 642T413 540L451 424L529 540Q572 603 601 635T666 683T758 700H831L708 0H580L678 553Q666 553 656 542T625 503L412 206L305 503Q294 532 288 542T270 554L172 0H44L167 700Z" />
<glyph unicode="N" glyph-name="N" horiz-adv-x="734" d="M743 700L649 165Q635 84 595 42T481 0H382L260 477L176 0H44L167 700H326L478 120H480Q497 120 505 134T521 187L611 700H743Z" />
<glyph unicode="O" glyph-name="O" horiz-adv-x="682" d="M182 -12T117 39T51 186Q51 218 56 243L94 457Q139 712 415 712Q538 712 604 660T671 513Q671 482 666 457L628 243Q583 -12 307 -12Q182 -12 117 39ZM386 98T430 135T487 243L525 457Q529 483 529 494Q529
547 498 574T405 602Q335 602 292 565T235 457L197 243Q193 217 193 206Q193 153 224 126T316 98Q386 98 430 135Z" />
<glyph unicode="P" glyph-name="P" horiz-adv-x="638" d="M167 700H440Q556 700 611 655T667 512Q667 433 632 375T533 285T382 254H230L185 0H44L167 700ZM398 364Q458 364 492 404T526 506Q526 590 438 590H289L249 364H398Z" />
<glyph unicode="Q" glyph-name="Q" horiz-adv-x="682" d="M538 712T604 660T671 513Q671 482 666 457L628 243Q594 44 417 0Q457 -41 561 -41L540 -159Q424 -159 361 -123T276 -11Q166 -5 109 45T51 186Q51 218 56 243L94 457Q139 712 415 712Q538 712 604 660ZM529
483T529 494Q529 547 498 574T405 602Q335 602 292 565T235 457L197 243Q193 217 193 206Q193 153 224 126T316 98Q386 98 430 135T487 243L525 457Q529 483 529 494Z" />
<glyph unicode="R" glyph-name="R" horiz-adv-x="682" d="M669 452T623 398T497 327Q546 311 565 268T592 154L611 0H462L443 155Q437 202 428 229T398 270T336 284H235L185 0H44L167 700H450Q551 700 610 654T669 525Q669 452 623 398ZM458 394T493 427T528 514Q528
552 503 571T438 590H289L254 394H403Q458 394 493 427Z" />
<glyph unicode="S" glyph-name="S" horiz-adv-x="634" d="M196 -12T149 4T71 48T15 123L124 202Q155 145 189 122T280 98Q362 98 405 127T448 208Q448 243 415 258T315 288Q299 291 267 299Q183 321 147 360T111 471Q111 541 144 595T241 681T397 712Q492 712
554 682T641 596L535 520Q500 563 468 582T387 602Q323 602 289 572T254 492Q254 464 268 448T306 424T371 407Q442 392 485 378T560 327T592 227Q592 157 555 103T446 19T270 -12Q196 -12 149 4Z" />
<glyph unicode="T" glyph-name="T" horiz-adv-x="603" d="M294 590H83L102 700H665L646 590H435L331 0H190L294 590Z" />
<glyph unicode="U" glyph-name="U" horiz-adv-x="674" d="M180 -13T116 34T51 165Q51 188 55 208L142 700H283L196 208Q194 198 194 181Q194 138 223 118T312 97Q449 97 468 208L555 700H696L609 208Q590 103 515 45T303 -13Q180 -13 116 34Z" />
<glyph unicode="V" glyph-name="V" horiz-adv-x="672" d="M232 -12T204 24T166 142L102 700H243L298 144Q300 118 315 118Q330 118 342 144L593 700H734L474 142Q445 81 421 48T367 2T297 -12Q232 -12 204 24Z" />
<glyph unicode="W" glyph-name="W" horiz-adv-x="923" d="M982 700L699 0H660Q604 0 574 11T526 56T497 160L474 306L400 160Q369 99 342 66T278 16T181 0H142L105 700H237L265 138Q277 153 292 180L530 626L611 180Q616 152 623 137L850 700H982Z" />
<glyph unicode="X" glyph-name="X" horiz-adv-x="613" d="M410 341L562 0H402L300 231L116 0H-41L244 357L92 700H251L354 467L539 700H695L410 341Z" />
<glyph unicode="Y" glyph-name="Y" horiz-adv-x="606" d="M241 300L82 700H239L338 429L530 700H688L382 300L330 0H189L241 300Z" />
<glyph unicode="Z" glyph-name="Z" horiz-adv-x="584" d="M137 148Q136 144 136 138Q136 121 147 115T178 109H539L519 -1H128Q71 -1 37 19T3 94Q3 110 6 128L19 202L461 590H102L122 700H627L604 573L139 157L137 148Z" />
<glyph unicode="[" glyph-name="bracketleft" horiz-adv-x="381" d="M172 758H432L417 670H269L147 -24H295L279 -112H19L172 758Z" />
<glyph unicode="\" glyph-name="backslash" horiz-adv-x="464" d="M91 782H195L414 -79H310L91 782Z" />
<glyph unicode="]" glyph-name="bracketright" horiz-adv-x="381" d="M-5 -24H144L266 670H117L132 758H393L240 -112H-21L-5 -24Z" />
<glyph unicode="^" glyph-name="asciicircum" horiz-adv-x="626" d="M203 392T271 490T396 707Q411 588 445 489T533 303H429Q393 367 356 480Q314 419 285 380T221 303H117Q203 392 271 490Z" />
<glyph unicode="_" glyph-name="underscore" horiz-adv-x="519" d="M-60 -105H459L444 -190H-75L-60 -105Z" />
<glyph unicode="`" glyph-name="grave" horiz-adv-x="600" d="M220 692H356L408 535H303L220 692Z" />
<glyph unicode="a" glyph-name="a" horiz-adv-x="531" d="M449 129T449 124Q449 107 457 94T484 64L397 -12Q337 22 322 64Q259 -12 160 -12Q95 -12 58 18T21 107Q21 194 80 233T243 282L292 287Q321 290 334 297T351 320Q358 392 286 392Q246 392 222 381T164
341L86 403Q126 444 173 463T306 482Q393 482 438 447T483 346Q483 335 479 307L451 145Q449 129 449 124ZM256 81T287 106T325 169L332 211Q316 205 269 200L238 197Q149 189 149 124Q149 103 163 92T201 81Q256 81 287 106Z" />
<glyph unicode="b" glyph-name="b" horiz-adv-x="593" d="M263 -12T226 6T170 51L161 0H31L136 593Q138 607 138 612Q138 630 130 643T102 674L189 750Q233 725 251 701T270 639Q270 618 266 597L235 421Q264 450 302 466T380 482Q466 482 512 430T559 296Q559
281 555 251L550 219Q535 120 474 54T314 -12Q263 -12 226 6ZM348 88T379 125T419 219L424 251Q427 268 427 282Q427 326 404 354T335 382Q252 382 213 300L191 171Q197 127 226 108T294 88Q348 88 379 125Z" />
<glyph unicode="c" glyph-name="c" horiz-adv-x="467" d="M132 -12T81 26T30 134Q30 145 34 173L56 297Q72 387 131 434T294 482Q362 482 409 462T477 403L375 331Q356 359 337 370T287 382Q201 382 186 297L164 173Q162 165 162 150Q162 88 235 88Q266 88 289
100T341 139L417 67Q347 -12 227 -12Q132 -12 81 26Z" />
<glyph unicode="d" glyph-name="d" horiz-adv-x="593" d="M505 145Q503 129 503 124Q503 106 511 93T538 64L451 -12Q392 21 377 66Q313 -12 212 -12Q131 -12 83 36T34 169Q34 195 38 219L43 251Q59 356 124 419T284 482Q333 482 368 466T424 424L454 593Q455
599 455 609Q455 628 447 643T420 674L508 750Q550 727 569 699T589 633Q589 623 585 597L505 145ZM402 301Q393 382 310 382Q256 382 219 344T173 251L168 219Q165 204 165 189Q165 144 188 116T258 88Q340 88 379 168L402 301Z" />
<glyph unicode="e" glyph-name="e" horiz-adv-x="493" d="M163 172Q161 156 161 149Q161 86 236 86Q271 86 296 95T353 129L418 59Q380 21 336 5T228 -12Q132 -12 81 23T30 131Q30 153 34 173L59 316Q73 394 131 438T283 482Q369 482 421 441T474 328Q474 250
445 216T348 181H165L163 172ZM239 384T216 363T186 306L180 270H291Q319 270 332 281T345 325Q345 354 328 369T276 384Q239 384 216 363Z" />
<glyph unicode="f" glyph-name="f" horiz-adv-x="343" d="M319 640T292 613T255 534L244 470H379L361 370H226L161 0H31L125 534Q142 633 208 686T378 740H426L409 640H361Q319 640 292 613Z" />
<glyph unicode="g" glyph-name="g" horiz-adv-x="593" d="M598 406Q567 385 555 369T537 325L471 -49Q455 -144 396 -189T211 -235H79L96 -135H228Q275 -135 304 -117T341 -49L360 61Q302 0 209 0Q128 0 82 48T36 181Q36 207 40 231L43 251Q52 313 85 366T170
450T289 482Q391 482 430 401Q444 427 466 446T524 482L598 406ZM342 100T381 180L402 301Q393 382 310 382Q255 382 218 344T173 251L170 231Q168 211 168 202Q168 156 190 128T260 100Q342 100 381 180Z" />
<glyph unicode="h" glyph-name="h" horiz-adv-x="556" d="M441 482T477 450T514 358Q514 340 511 320L455 0H325L379 308Q381 322 381 328Q381 353 367 367T324 382Q260 382 215 303L162 0H32L137 593Q139 605 139 611Q139 629 131 643T102 674L189 750Q232 725
251 698T270 632Q270 615 267 597L236 423Q292 482 375 482Q441 482 477 450Z" />
<glyph unicode="i" glyph-name="i" horiz-adv-x="280" d="M163 533T145 551T127 595Q127 629 154 656T217 683Q243 683 261 665T279 620Q279 587 252 560T190 533Q163 533 145 551ZM91 12T72 40T52 106Q52 122 55 141L113 470H243L186 145Q184 133 184 128Q184
110 192 95T220 64L133 -12Q91 12 72 40Z" />
<glyph unicode="j" glyph-name="j" horiz-adv-x="271" d="M170 533T152 551T134 596Q134 628 161 655T223 683Q250 683 268 665T286 620Q286 587 258 560T196 533Q170 533 152 551ZM-135 -135H-83Q-30 -135 -4 -112T32 -29L120 470H250L162 -29Q149 -101 123 -145T43
-212T-101 -235H-153L-135 -135Z" />
<glyph unicode="k" glyph-name="k" horiz-adv-x="548" d="M421 296T440 261T466 158L482 0H349L333 158Q330 185 318 199T268 219L188 150L162 0H32L137 593Q139 605 139 611Q139 629 131 643T102 674L189 750Q232 725 251 698T270 632Q270 615 267 597L216 310L401
470H559L372 308Q421 296 440 261Z" />
<glyph unicode="l" glyph-name="l" horiz-adv-x="276" d="M92 12T73 40T53 105Q53 115 57 141L137 593Q139 605 139 609Q139 627 130 642T102 674L189 750Q231 726 250 698T270 632Q270 617 267 597L188 145Q186 133 186 128Q186 109 194 94T221 64L134 -12Q92 12 73 40Z" />
<glyph unicode="m" glyph-name="m" horiz-adv-x="813" d="M704 482T738 451T772 361Q772 340 768 320L712 0H582L636 308Q638 322 638 329Q638 354 626 368T591 382Q532 382 491 307L437 0H307L361 308Q363 322 363 329Q363 354 351 368T316 382Q257 382 216 307L162
0H32L89 325Q91 339 91 344Q91 361 83 375T55 406L142 482Q202 449 218 402Q281 482 372 482Q421 482 449 462T491 402Q550 482 642 482Q704 482 738 451Z" />
<glyph unicode="n" glyph-name="n" horiz-adv-x="556" d="M441 482T477 450T514 358Q514 340 511 320L455 0H325L379 308Q381 322 381 328Q381 353 367 367T324 382Q260 382 215 303L162 0H32L89 325Q91 339 91 344Q91 361 83 375T55 406L142 482Q203 447 218
401Q276 482 375 482Q441 482 477 450Z" />
<glyph unicode="o" glyph-name="o" horiz-adv-x="522" d="M137 -12T84 27T31 138Q31 155 34 173L56 297Q72 388 132 435T294 482Q388 482 440 444T492 335Q492 323 488 297L466 173Q434 -12 232 -12Q137 -12 84 27ZM276 88T302 110T336 173L358 297Q360 313 360
318Q360 349 341 365T287 382Q246 382 220 360T186 297L164 173Q162 157 162 152Q162 121 181 105T235 88Q276 88 302 110Z" />
<glyph unicode="p" glyph-name="p" horiz-adv-x="593" d="M472 482T515 431T559 300Q559 274 555 251L550 219Q535 120 474 54T314 -12Q265 -12 228 5T170 49L123 -219H-7L89 325Q91 339 91 343Q91 362 83 376T55 406L142 482Q209 447 222 400Q255 441 295 461T387
482Q472 482 515 431ZM427 268T427 282Q427 326 404 354T335 382Q252 382 213 300L191 171Q197 127 226 108T294 88Q348 88 379 125T419 219L424 251Q427 268 427 282Z" />
<glyph unicode="q" glyph-name="q" horiz-adv-x="572" d="M357 49Q298 -12 211 -12Q129 -12 82 37T34 171Q34 196 38 219L43 251Q53 314 86 366T172 450T294 482Q343 482 373 467T423 424L432 472H562L440 -219H310L357 49ZM340 88T379 168L402 301Q393 382 310
382Q256 382 219 344T173 251L168 219Q165 204 165 189Q165 144 188 116T258 88Q340 88 379 168Z" />
<glyph unicode="r" glyph-name="r" horiz-adv-x="417" d="M425 482T456 454L405 346Q387 360 369 366T323 372Q256 372 211 283L161 0H31L88 325Q90 339 90 345Q90 362 82 376T55 406L142 482Q176 463 195 441T220 392Q278 482 368 482Q425 482 456 454Z" />
<glyph unicode="s" glyph-name="s" horiz-adv-x="456" d="M108 -12T66 10T0 76L93 145Q113 114 134 101T193 88Q238 88 260 102T283 139Q283 159 262 168T195 186L175 190Q109 204 83 235T57 314Q57 389 111 435T262 482Q331 482 375 461T437 402L345 334Q325
359 304 370T254 382Q219 382 201 367T182 331Q182 316 194 307T222 294T248 288Q306 274 337 262T388 225T407 156Q407 78 353 33T185 -12Q108 -12 66 10Z" />
<glyph unicode="t" glyph-name="t" horiz-adv-x="364" d="M188 176Q185 158 185 144Q185 120 196 110T232 100H310L292 0H214Q132 0 92 25T52 117Q52 143 58 176L123 543Q124 549 124 559Q124 578 116 593T89 624L177 700Q219 677 238 649T257 584Q257 573 253
547L240 470H375L357 370H222L188 176Z" />
<glyph unicode="u" glyph-name="u" horiz-adv-x="561" d="M470 133T470 127Q470 110 478 96T506 66L406 -10Q349 23 340 69Q314 33 275 11T186 -12Q122 -12 82 22T42 117Q42 132 45 150L101 470H231L177 162Q175 150 175 146Q175 119 191 104T237 88Q303 88 348
175L399 470H529L472 147Q470 133 470 127Z" />
<glyph unicode="v" glyph-name="v" horiz-adv-x="505" d="M161 -12T133 13T97 93L46 470H172L218 105Q219 88 228 88Q235 88 243 105L415 470H541L358 93Q330 35 298 12T215 -12Q161 -12 133 13Z" />
<glyph unicode="w" glyph-name="w" horiz-adv-x="666" d="M56 470H174L186 116Q198 125 213 152L369 439L425 152Q430 127 438 118L574 470H692L502 0H452Q413 0 392 9T359 41T341 106L326 198L279 106Q257 62 238 40T194 9T130 0H80L56 470Z" />
<glyph unicode="x" glyph-name="x" horiz-adv-x="458" d="M301 229L412 0H281L211 146L95 0H-36L161 248L54 470H184L251 331L362 470H492L301 229Z" />
<glyph unicode="y" glyph-name="y" horiz-adv-x="558" d="M547 470L456 -44Q439 -139 380 -184T196 -230H64L82 -130H214Q265 -130 291 -110T326 -44L345 62Q317 27 279 9T196 -10Q126 -10 88 22T50 115Q50 133 53 152L84 325Q86 339 86 344Q86 361 78 375T50
406L137 482Q180 457 198 430T217 364Q217 349 214 329L185 164Q183 152 183 148Q183 121 199 106T245 90Q290 90 318 119T368 195L417 470H547Z" />
<glyph unicode="z" glyph-name="z" horiz-adv-x="458" d="M449 372L121 110Q126 100 145 100H414L396 0H95Q48 0 23 15T-3 65Q-3 71 -1 85L8 138L300 370H59L77 470H466L449 372Z" />
<glyph unicode="{" glyph-name="braceleft" horiz-adv-x="381" d="M164 -112T127 -86T89 1Q89 20 94 50L123 213Q125 227 125 232Q125 265 104 286T46 323Q96 342 124 367T161 433L190 596Q205 679 252 718T399 758H428L412 670H383Q346 670 328 653T302 596L273
433Q265 394 249 370T196 323Q218 304 228 287T238 245Q238 231 235 213L206 50Q203 35 203 24Q203 -1 216 -12T261 -24H290L274 -112H245Q164 -112 127 -86Z" />
<glyph unicode="|" glyph-name="bar" horiz-adv-x="260" d="M179 770H269L108 -143H18L179 770Z" />
<glyph unicode="}" glyph-name="braceright" horiz-adv-x="381" d="M0 -24H30Q67 -24 85 -7T111 50L139 213Q146 251 163 276T217 323Q195 341 185 359T175 402Q175 417 178 433L207 596Q210 611 210 622Q210 647 197 658T152 670H122L137 758H167Q247 758 285
732T324 644Q324 626 319 596L290 433Q288 419 288 414Q288 381 308 360T367 323Q319 306 289 281T251 213L223 50Q209 -35 160 -73T14 -112H-16L0 -24Z" />
<glyph unicode="~" glyph-name="asciitilde" horiz-adv-x="676" d="M52 319T101 365T237 411Q274 411 304 402T374 375Q410 360 433 353T484 345Q516 345 539 362T580 420H674Q659 348 609 303T475 257Q435 257 405 266T337 293Q300 309 278 316T227 323Q195 323
172 305T131 248H37Q52 319 101 365Z" />
<glyph unicode="&#xa0;" glyph-name="uni00A0" horiz-adv-x="280" />
<glyph unicode="&#xa1;" glyph-name="exclamdown" horiz-adv-x="296" d="M136 326T118 345T99 391Q99 427 127 454T193 482Q221 482 239 464T257 419Q257 383 229 355T165 326Q136 326 118 345ZM106 252H198L131 -230H3L106 252Z" />
<glyph unicode="&#xa2;" glyph-name="cent" horiz-adv-x="467" d="M303 103T341 139L417 67Q357 -2 255 -11L236 -120H161L180 -9Q108 -1 69 36T30 134Q30 145 34 173L56 297Q71 381 124 428T267 481L286 590H361L341 479Q391 473 425 454T477 403L375 331Q350
367 323 377L274 94Q303 103 341 139ZM162 165T162 150Q162 106 199 93L248 377Q198 361 186 297L164 173Q162 165 162 150Z" />
<glyph unicode="&#xa3;" glyph-name="sterling" horiz-adv-x="591" d="M293 182T203 104H533L514 -1H9L28 104Q94 135 129 184T165 297V305H63L75 371H157Q150 410 150 443Q150 522 183 583T277 678T420 712Q490 712 533 695T607 640L512 553Q496 583 473 597T412
612Q353 612 317 565T280 442Q280 413 288 371H447L435 305H295Q293 182 203 104Z" />
<glyph unicode="&#xa4;" glyph-name="currency" horiz-adv-x="518" d="M444 220T421 181L473 118L386 44L334 107Q292 89 239 89Q180 89 141 110L64 44L3 118L78 182Q71 202 71 229Q71 249 75 268L79 290Q88 340 111 377L60 440L147 514L199 451Q240 469 294 469Q353
469 392 448L469 514L530 440L454 375Q461 355 461 329Q461 309 457 290L453 268Q444 220 421 181ZM173 258T173 244Q173 213 192 196T249 179Q292 179 319 201T355 266L360 292Q362 300 362 314Q362 346 342 362T284 379Q241 379 215 357T180 292L175 266Q173
258 173 244Z" />
<glyph unicode="&#xa5;" glyph-name="yen" horiz-adv-x="606" d="M406 331H565L553 265H376L365 201H542L530 135H353L330 0H189L212 135H59L71 201H224L235 265H82L94 331H229L82 700H239L338 429L530 700H688L406 331Z" />
<glyph unicode="&#xa6;" glyph-name="brokenbar" horiz-adv-x="261" d="M180 770H270L203 392H113L180 770ZM86 235H176L109 -143H19L86 235Z" />
<glyph unicode="&#xa7;" glyph-name="section" horiz-adv-x="558" d="M423 458T473 421T523 319Q523 263 495 220T417 151Q439 123 439 82Q439 -2 381 -48T215 -94Q134 -94 92 -71T26 -1L121 66Q140 32 159 19T217 6Q267 6 290 22T314 75Q314 100 296 110T228
134L181 147Q61 183 61 295Q61 355 89 398T168 466Q154 496 154 530Q154 615 209 663T357 712Q427 712 472 686T535 616L439 553Q420 586 403 599T354 612Q319 612 299 594T279 545Q279 521 294 509T334 488Q423 458 473 421ZM186 256T246 238L267 232L295 223Q345
225 371 245T397 305Q397 322 385 335T345 361T259 393H258Q227 389 207 366T186 308Q186 256 246 238Z" />
<glyph unicode="&#xa8;" glyph-name="dieresis" horiz-adv-x="600" d="M239 522T224 537T208 575Q208 603 231 626T284 649Q307 649 322 634T337 596Q337 568 314 545T262 522Q239 522 224 537ZM417 522T402 537T387 575Q387 604 410 626T463 649Q486 649 501
634T517 596Q517 568 494 545T441 522Q417 522 402 537Z" />
<glyph unicode="&#xa9;" glyph-name="copyright" horiz-adv-x="810" d="M279 -14T208 18T94 116T52 278Q52 390 106 490T258 652T481 714Q572 714 643 682T756 583T798 422Q798 308 745 208T594 47T369 -14Q279 -14 208 18ZM482 35T567 89T697 233T742 422Q742
547 671 606T481 665Q370 665 285 611T154 469T108 278Q108 156 180 96T369 35Q482 35 567 89ZM292 107T243 144T194 251Q194 273 198 292L220 416Q236 506 297 553T462 601Q526 601 573 581T640 522L539 450Q520 478 501 489T451 501Q365 501 350 416L328 292Q326
284 326 269Q326 207 399 207Q430 207 453 219T505 258L581 186Q511 107 386 107Q292 107 243 144Z" />
<glyph unicode="&#xaa;" glyph-name="ordfeminine" horiz-adv-x="421" d="M403 440T403 431Q403 417 409 407T430 383L363 325Q317 348 306 384Q257 325 179 325Q132 325 103 348T74 412Q74 484 120 513T246 551L283 555Q305 557 314 562T327 578L328 589Q328
634 278 634Q247 634 229 626T185 596L124 643Q155 675 190 689T288 704Q356 704 392 677T429 598Q429 585 426 570L404 445Q403 440 403 431ZM254 397T278 416T307 464L313 496Q298 491 265 488L241 486Q172 480 172 433Q172 415 183 406T214 397Q254 397 278
416Z" />
<glyph unicode="&#xab;" glyph-name="guillemotleft" horiz-adv-x="571" d="M218 231T262 182T319 83H225Q211 133 160 183T44 260Q120 288 187 337T287 437H381Q350 387 289 338T164 260Q218 231 262 182ZM530 387T469 338T344 260Q398 231 442 182T499 83H405Q391
133 340 183T224 260Q298 288 366 338T467 437H561Q530 387 469 338Z" />
<glyph unicode="&#xac;" glyph-name="logicalnot" horiz-adv-x="640" d="M485 265H60L75 350H605L565 124H460L485 265Z" />
<glyph unicode="&#xad;" glyph-name="uni00AD" horiz-adv-x="419" d="M56 295H385L370 210H41L56 295Z" />
<glyph unicode="&#xae;" glyph-name="registered" horiz-adv-x="504" d="M181 274T129 320T76 450Q76 519 109 578T200 674T331 710Q416 710 467 665T519 535Q519 466 487 406T397 310T264 274Q181 274 129 320ZM330 304T381 335T459 420T487 535Q487 607 446
644T331 681Q267 681 216 650T137 565T108 450Q108 379 151 342T264 304Q330 304 381 335ZM220 625H338Q378 625 400 608T423 558Q423 526 405 505T355 477Q370 471 375 458T383 412L387 363H324L319 421Q317 441 312 448T290 456H250L234 363H174L220 625ZM311
503Q361 503 361 551Q361 566 352 571T324 577H271L258 503H311Z" />
<glyph unicode="&#xaf;" glyph-name="overscore" horiz-adv-x="600" d="M211 642H533L517 552H195L211 642Z" />
<glyph unicode="&#xb0;" glyph-name="degree" horiz-adv-x="340" d="M159 458T126 489T92 571Q92 643 135 686T250 730Q306 730 340 699T374 616Q374 545 331 502T215 458Q159 458 126 489ZM256 529T277 551T298 608Q298 631 284 645T244 659Q209 659 189 637T168
579Q168 556 182 543T221 529Q256 529 277 551Z" />
<glyph unicode="&#xb1;" glyph-name="plusminus" horiz-adv-x="680" d="M652 418L634 320H407L379 160H274L302 320H75L93 418H320L348 578H453L425 418H652ZM34 85H593L578 0H19L34 85Z" />
<glyph unicode="&#xb2;" glyph-name="uni00B2" horiz-adv-x="399" d="M68 389L196 484Q269 538 294 564T319 621Q319 642 303 654T262 667Q201 667 159 626L129 691Q163 720 199 731T275 742Q333 742 374 717T416 635Q416 591 390 552T308 471L197 389H385L372
314H55L68 389Z" />
<glyph unicode="&#xb3;" glyph-name="uni00B3" horiz-adv-x="419" d="M363 525T381 503T400 448Q400 384 349 346T213 308Q171 308 131 321T68 372L130 430Q148 406 167 395T221 383Q259 383 282 398T305 444Q305 498 220 498Q201 498 177 495L176 560Q256 562
291 576T326 626Q326 645 310 656T273 667Q243 667 219 660T171 631L139 689Q173 720 209 731T286 742Q343 742 383 718T423 642Q423 600 399 573T334 534Q363 525 381 503Z" />
<glyph unicode="&#xb4;" glyph-name="acute" horiz-adv-x="600" d="M400 692H536L397 535H292L400 692Z" />
<glyph unicode="&#xb5;" glyph-name="uni00B5" horiz-adv-x="573" d="M482 133T482 127Q482 110 490 96T518 66L418 -10Q389 6 373 25T352 67Q328 31 296 10T223 -12Q186 -12 162 9L119 -235H-11L57 150V152L113 470H243L188 158L187 147Q187 121 203 106T249
90Q314 90 360 176L411 470H541L484 147Q482 133 482 127Z" />
<glyph unicode="&#xb6;" glyph-name="paragraph" horiz-adv-x="561" d="M281 325H227Q194 325 161 339T104 386T80 470Q80 531 109 583T187 667T293 699H558L422 -70H352L477 639H406L281 -70H211L281 325Z" />
<glyph unicode="&#xb7;" glyph-name="middot" horiz-adv-x="285" d="M107 211T86 231T65 282Q65 308 80 332T119 371T170 386Q201 386 221 365T242 313Q242 273 211 242T140 211Q107 211 86 231Z" />
<glyph unicode="&#xb8;" glyph-name="cedilla" horiz-adv-x="600" d="M358 -45T358 -108Q358 -168 316 -201T197 -234Q136 -234 93 -209L127 -139Q162 -158 195 -158Q228 -158 242 -150T257 -124Q257 -97 202 -97Q195 -97 169 -99L213 6H305L285 -35Q358 -45 358 -108Z" />
<glyph unicode="&#xb9;" glyph-name="uni00B9" horiz-adv-x="324" d="M327 736L253 314H158L216 645L104 586L119 672L240 736H327Z" />
<glyph unicode="&#xba;" glyph-name="ordmasculine" horiz-adv-x="421" d="M163 325T123 355T83 439Q83 452 86 467L103 562Q116 632 163 668T289 704Q361 704 399 675T437 593Q437 579 434 562L417 467Q392 325 237 325Q163 325 123 355ZM272 401T292 418T317
467L334 562Q336 574 336 579Q336 601 322 614T280 627Q249 627 229 611T203 562L186 467Q184 455 184 450Q184 426 198 414T240 401Q272 401 292 418Z" />
<glyph unicode="&#xbb;" glyph-name="guillemotright" horiz-adv-x="571" d="M191 388T241 338T356 260Q281 232 213 183T113 83H19Q50 132 111 182T236 260Q182 288 139 337T81 437H175Q191 388 241 338ZM369 386T419 337T535 260Q460 232 392 183T293 83H199Q230
132 290 182T415 260Q361 288 318 337T261 437H355Q369 386 419 337Z" />
<glyph unicode="&#xbc;" glyph-name="onequarter" horiz-adv-x="916" d="M327 736L253 314H158L216 645L104 586L119 672L240 736H327ZM656 700H747L206 0H115L656 700ZM717 41H518L496 114L750 392H864L815 116H875L862 41H802L790 -30H705L717 41ZM730 116L764
306L589 116H730Z" />
<glyph unicode="&#xbd;" glyph-name="onehalf" horiz-adv-x="896" d="M327 736L253 314H158L216 645L104 586L119 672L240 736H327ZM656 700H747L206 0H115L656 700ZM504 45L632 140Q705 194 730 220T755 277Q755 298 739 310T698 323Q637 323 595 282L565 347Q599
376 635 387T711 398Q769 398 810 373T852 291Q852 247 826 208T744 127L633 45H821L808 -30H491L504 45Z" />
<glyph unicode="&#xbe;" glyph-name="threequarters" horiz-adv-x="1011" d="M363 525T381 503T400 448Q400 384 349 346T213 308Q171 308 131 321T68 372L130 430Q148 406 167 395T221 383Q259 383 282 398T305 444Q305 498 220 498Q201 498 177 495L176 560Q256
562 291 576T326 626Q326 645 310 656T273 667Q243 667 219 660T171 631L139 689Q173 720 209 731T286 742Q343 742 383 718T423 642Q423 600 399 573T334 534Q363 525 381 503ZM751 700H842L301 0H210L751 700ZM812 41H613L591 114L845 392H959L910 116H970L957
41H897L885 -30H800L812 41ZM825 116L859 306L684 116H825Z" />
<glyph unicode="&#xbf;" glyph-name="questiondown" horiz-adv-x="546" d="M263 326T245 345T226 391Q226 426 254 454T318 482Q347 482 365 464T384 418Q384 383 356 355T290 326Q263 326 245 345ZM102 -242T47 -201T-8 -88Q-8 -17 21 29T96 112Q163 166 184
185T208 221L214 259H344L337 221Q333 199 323 182T289 144T214 79Q176 48 150 11T124 -77Q124 -108 146 -125T214 -142Q259 -142 289 -119T344 -38L455 -83Q428 -160 366 -201T206 -242Q102 -242 47 -201Z" />
<glyph unicode="&#xc0;" glyph-name="Agrave" horiz-adv-x="690" d="M469 163H196L120 0H-21L248 558Q277 618 302 651T358 698T429 712Q472 712 497 697T535 648T556 558L629 0H488L469 163ZM457 268L424 556Q421 582 407 582Q398 582 392 576T380 556L245 268H457ZM305
922H441L493 765H388L305 922Z" />
<glyph unicode="&#xc1;" glyph-name="Aacute" horiz-adv-x="690" d="M469 163H196L120 0H-21L248 558Q277 618 302 651T358 698T429 712Q472 712 497 697T535 648T556 558L629 0H488L469 163ZM457 268L424 556Q421 582 407 582Q398 582 392 576T380 556L245 268H457ZM485
922H621L482 765H377L485 922Z" />
<glyph unicode="&#xc2;" glyph-name="Acircumflex" horiz-adv-x="690" d="M469 163H196L120 0H-21L248 558Q277 618 302 651T358 698T429 712Q472 712 497 697T535 648T556 558L629 0H488L469 163ZM457 268L424 556Q421 582 407 582Q398 582 392 576T380 556L245
268H457ZM291 791T334 835T410 924H520Q536 879 564 834T615 765H501Q477 792 450 839Q417 798 373 765H259Q291 791 334 835Z" />
<glyph unicode="&#xc3;" glyph-name="Atilde" horiz-adv-x="690" d="M469 163H196L120 0H-21L248 558Q277 618 302 651T358 698T429 712Q472 712 497 697T535 648T556 558L629 0H488L469 163ZM457 268L424 556Q421 582 407 582Q398 582 392 576T380 556L245 268H457ZM278
827T313 868T402 909Q422 909 438 903T474 886Q485 880 496 875T518 870Q530 870 538 881T554 918H638Q623 858 587 816T506 774Q486 774 470 780T434 797Q423 803 412 808T390 813Q366 813 349 765H265Q278 827 313 868Z" />
<glyph unicode="&#xc4;" glyph-name="Adieresis" horiz-adv-x="690" d="M469 163H196L120 0H-21L248 558Q277 618 302 651T358 698T429 712Q472 712 497 697T535 648T556 558L629 0H488L469 163ZM457 268L424 556Q421 582 407 582Q398 582 392 576T380 556L245
268H457ZM325 757T310 772T294 810Q294 838 317 861T370 884Q392 884 407 869T423 831Q423 803 400 780T348 757Q325 757 310 772ZM503 757T488 772T473 810Q473 839 496 861T549 884Q572 884 587 869T603 831Q603 803 579 780T527 757Q503 757 488 772Z" />
<glyph unicode="&#xc5;" glyph-name="Aring" horiz-adv-x="690" d="M469 163H196L120 0H-21L248 558Q277 618 302 651T358 698T429 712Q472 712 497 697T535 648T556 558L629 0H488L469 163ZM457 268L424 556Q421 582 407 582Q398 582 392 576T380 556L245 268H457ZM390
752T365 776T340 841Q340 893 378 926T473 960Q520 960 545 936T570 871Q570 819 532 786T437 752Q390 752 365 776ZM470 815T483 829T497 865Q497 881 488 889T462 897Q440 897 427 882T413 847Q413 831 422 823T448 815Q470 815 483 829Z" />
<glyph unicode="&#xc6;" glyph-name="AE" horiz-adv-x="1026" d="M765 590T735 566T693 493L678 405H975L956 295H658L649 244L644 218Q641 200 641 186Q641 148 663 129T733 110H969L950 0H714Q600 0 549 42T497 163H249L135 0H-21L360 546Q402 607 433 639T499
685T583 700Q644 700 674 667Q738 700 837 700H1071L1052 590H818Q765 590 735 566ZM322 268H512L542 434L561 545Q562 548 562 554Q562 570 548 570Q537 570 530 564T514 544L322 268Z" />
<glyph unicode="&#xc7;" glyph-name="Ccedilla" horiz-adv-x="637" d="M385 98T426 120T507 193L594 119Q545 57 485 25T340 -11L328 -36Q366 -41 383 -61T401 -112Q401 -169 360 -201T244 -234Q179 -234 136 -209L170 -139Q205 -158 238 -158Q271 -158 285 -150T300
-124Q300 -97 245 -97Q238 -97 212 -99L250 -8Q154 5 103 56T51 190Q51 211 56 243L94 457Q116 583 199 647T419 712Q515 712 577 679T666 582L552 512Q530 560 500 581T409 602Q332 602 290 566T235 457L197 243Q193 223 193 201Q193 98 320 98Q385 98 426 120Z"
/>
<glyph unicode="&#xc8;" glyph-name="Egrave" horiz-adv-x="573" d="M151 0T98 40T45 161Q45 193 50 218L97 482Q115 587 183 643T384 700H618L599 590H365Q312 590 281 566T238 482L224 405H522L503 295H205L191 218Q188 200 188 186Q188 147 210 129T280 110H516L497
0H261Q151 0 98 40ZM299 922H435L487 765H382L299 922Z" />
<glyph unicode="&#xc9;" glyph-name="Eacute" horiz-adv-x="573" d="M151 0T98 40T45 161Q45 193 50 218L97 482Q115 587 183 643T384 700H618L599 590H365Q312 590 281 566T238 482L224 405H522L503 295H205L191 218Q188 200 188 186Q188 147 210 129T280 110H516L497
0H261Q151 0 98 40ZM479 922H615L476 765H371L479 922Z" />
<glyph unicode="&#xca;" glyph-name="Ecircumflex" horiz-adv-x="573" d="M151 0T98 40T45 161Q45 193 50 218L97 482Q115 587 183 643T384 700H618L599 590H365Q312 590 281 566T238 482L224 405H522L503 295H205L191 218Q188 200 188 186Q188 147 210 129T280
110H516L497 0H261Q151 0 98 40ZM285 791T328 835T404 924H514Q530 879 558 834T609 765H495Q471 792 444 839Q411 798 367 765H253Q285 791 328 835Z" />
<glyph unicode="&#xcb;" glyph-name="Edieresis" horiz-adv-x="573" d="M151 0T98 40T45 161Q45 193 50 218L97 482Q115 587 183 643T384 700H618L599 590H365Q312 590 281 566T238 482L224 405H522L503 295H205L191 218Q188 200 188 186Q188 147 210 129T280
110H516L497 0H261Q151 0 98 40ZM319 757T304 772T288 810Q288 838 311 861T364 884Q386 884 401 869T417 831Q417 803 394 780T342 757Q319 757 304 772ZM497 757T482 772T467 810Q467 839 490 861T543 884Q566 884 581 869T597 831Q597 803 573 780T521 757Q497
757 482 772Z" />
<glyph unicode="&#xcc;" glyph-name="Igrave" horiz-adv-x="311" d="M167 700H308L185 0H44L167 700ZM116 922H252L304 765H199L116 922Z" />
<glyph unicode="&#xcd;" glyph-name="Iacute" horiz-adv-x="311" d="M167 700H308L185 0H44L167 700ZM296 922H432L293 765H188L296 922Z" />
<glyph unicode="&#xce;" glyph-name="Icircumflex" horiz-adv-x="311" d="M167 700H308L185 0H44L167 700ZM102 791T145 835T221 924H331Q347 879 375 834T426 765H312Q288 792 261 839Q228 798 184 765H70Q102 791 145 835Z" />
<glyph unicode="&#xcf;" glyph-name="Idieresis" horiz-adv-x="311" d="M167 700H308L185 0H44L167 700ZM136 757T121 772T105 810Q105 838 128 861T181 884Q203 884 218 869T234 831Q234 803 211 780T159 757Q136 757 121 772ZM314 757T299 772T284 810Q284 839
307 861T360 884Q383 884 398 869T414 831Q414 803 390 780T338 757Q314 757 299 772Z" />
<glyph unicode="&#xd0;" glyph-name="Eth" horiz-adv-x="711" d="M695 700T695 451Q695 235 596 118T313 0H44L98 305H13L30 401H114L167 700H418Q695 700 695 451ZM395 110T447 150T527 265T555 446Q555 520 519 555T408 590H289L256 401H430L413 305H239L204
110H323Q395 110 447 150Z" />
<glyph unicode="&#xd1;" glyph-name="Ntilde" horiz-adv-x="734" d="M743 700L649 165Q635 84 595 42T481 0H382L260 477L176 0H44L167 700H326L478 120H480Q497 120 505 134T521 187L611 700H743ZM306 827T341 868T430 909Q450 909 466 903T502 886Q513 880 524
875T546 870Q558 870 566 881T582 918H666Q651 858 615 816T534 774Q514 774 498 780T462 797Q451 803 440 808T418 813Q394 813 377 765H293Q306 827 341 868Z" />
<glyph unicode="&#xd2;" glyph-name="Ograve" horiz-adv-x="682" d="M182 -12T117 39T51 186Q51 218 56 243L94 457Q139 712 415 712Q538 712 604 660T671 513Q671 482 666 457L628 243Q583 -12 307 -12Q182 -12 117 39ZM386 98T430 135T487 243L525 457Q529 483
529 494Q529 547 498 574T405 602Q335 602 292 565T235 457L197 243Q193 217 193 206Q193 153 224 126T316 98Q386 98 430 135ZM299 922H435L487 765H382L299 922Z" />
<glyph unicode="&#xd3;" glyph-name="Oacute" horiz-adv-x="682" d="M182 -12T117 39T51 186Q51 218 56 243L94 457Q139 712 415 712Q538 712 604 660T671 513Q671 482 666 457L628 243Q583 -12 307 -12Q182 -12 117 39ZM386 98T430 135T487 243L525 457Q529 483
529 494Q529 547 498 574T405 602Q335 602 292 565T235 457L197 243Q193 217 193 206Q193 153 224 126T316 98Q386 98 430 135ZM479 922H615L476 765H371L479 922Z" />
<glyph unicode="&#xd4;" glyph-name="Ocircumflex" horiz-adv-x="682" d="M182 -12T117 39T51 186Q51 218 56 243L94 457Q139 712 415 712Q538 712 604 660T671 513Q671 482 666 457L628 243Q583 -12 307 -12Q182 -12 117 39ZM386 98T430 135T487 243L525 457Q529
483 529 494Q529 547 498 574T405 602Q335 602 292 565T235 457L197 243Q193 217 193 206Q193 153 224 126T316 98Q386 98 430 135ZM285 791T328 835T404 924H514Q530 879 558 834T609 765H495Q471 792 444 839Q411 798 367 765H253Q285 791 328 835Z" />
<glyph unicode="&#xd5;" glyph-name="Otilde" horiz-adv-x="682" d="M182 -12T117 39T51 186Q51 218 56 243L94 457Q139 712 415 712Q538 712 604 660T671 513Q671 482 666 457L628 243Q583 -12 307 -12Q182 -12 117 39ZM386 98T430 135T487 243L525 457Q529 483
529 494Q529 547 498 574T405 602Q335 602 292 565T235 457L197 243Q193 217 193 206Q193 153 224 126T316 98Q386 98 430 135ZM272 827T307 868T396 909Q416 909 432 903T468 886Q479 880 490 875T512 870Q524 870 532 881T548 918H632Q617 858 581 816T500 774Q480
774 464 780T428 797Q417 803 406 808T384 813Q360 813 343 765H259Q272 827 307 868Z" />
<glyph unicode="&#xd6;" glyph-name="Odieresis" horiz-adv-x="682" d="M182 -12T117 39T51 186Q51 218 56 243L94 457Q139 712 415 712Q538 712 604 660T671 513Q671 482 666 457L628 243Q583 -12 307 -12Q182 -12 117 39ZM386 98T430 135T487 243L525 457Q529
483 529 494Q529 547 498 574T405 602Q335 602 292 565T235 457L197 243Q193 217 193 206Q193 153 224 126T316 98Q386 98 430 135ZM319 757T304 772T288 810Q288 838 311 861T364 884Q386 884 401 869T417 831Q417 803 394 780T342 757Q319 757 304 772ZM497 757T482
772T467 810Q467 839 490 861T543 884Q566 884 581 869T597 831Q597 803 573 780T521 757Q497 757 482 772Z" />
<glyph unicode="&#xd7;" glyph-name="multiply" horiz-adv-x="526" d="M345 300L479 137L397 67L262 230L70 67L13 137L205 300L70 463L153 533L287 370L479 533L536 463L345 300Z" />
<glyph unicode="&#xd8;" glyph-name="Oslash" horiz-adv-x="682" d="M628 639Q671 588 671 513Q671 482 666 457L628 243Q583 -12 307 -12Q240 -12 190 3L140 -70H39L115 40Q51 92 51 186Q51 218 56 243L94 457Q139 712 415 712Q499 712 560 687L617 770H718L628
639ZM193 226T193 206Q193 181 200 164L487 582Q456 602 405 602Q335 602 292 565T235 457L197 243Q193 226 193 206ZM529 483T529 495L261 106Q287 98 316 98Q386 98 430 135T487 243L525 457Q529 483 529 495Z" />
<glyph unicode="&#xd9;" glyph-name="Ugrave" horiz-adv-x="674" d="M180 -13T116 34T51 165Q51 188 55 208L142 700H283L196 208Q194 198 194 181Q194 138 223 118T312 97Q449 97 468 208L555 700H696L609 208Q590 103 515 45T303 -13Q180 -13 116 34ZM297 922H433L485
765H380L297 922Z" />
<glyph unicode="&#xda;" glyph-name="Uacute" horiz-adv-x="674" d="M180 -13T116 34T51 165Q51 188 55 208L142 700H283L196 208Q194 198 194 181Q194 138 223 118T312 97Q449 97 468 208L555 700H696L609 208Q590 103 515 45T303 -13Q180 -13 116 34ZM477 922H613L474
765H369L477 922Z" />
<glyph unicode="&#xdb;" glyph-name="Ucircumflex" horiz-adv-x="674" d="M180 -13T116 34T51 165Q51 188 55 208L142 700H283L196 208Q194 198 194 181Q194 138 223 118T312 97Q449 97 468 208L555 700H696L609 208Q590 103 515 45T303 -13Q180 -13 116 34ZM283
791T326 835T402 924H512Q528 879 556 834T607 765H493Q469 792 442 839Q409 798 365 765H251Q283 791 326 835Z" />
<glyph unicode="&#xdc;" glyph-name="Udieresis" horiz-adv-x="674" d="M180 -13T116 34T51 165Q51 188 55 208L142 700H283L196 208Q194 198 194 181Q194 138 223 118T312 97Q449 97 468 208L555 700H696L609 208Q590 103 515 45T303 -13Q180 -13 116 34ZM317
757T302 772T286 810Q286 838 309 861T362 884Q384 884 399 869T415 831Q415 803 392 780T340 757Q317 757 302 772ZM495 757T480 772T465 810Q465 839 488 861T541 884Q564 884 579 869T595 831Q595 803 571 780T519 757Q495 757 480 772Z" />
<glyph unicode="&#xdd;" glyph-name="Yacute" horiz-adv-x="606" d="M241 300L82 700H239L338 429L530 700H688L382 300L330 0H189L241 300ZM440 922H576L437 765H332L440 922Z" />
<glyph unicode="&#xde;" glyph-name="Thorn" horiz-adv-x="636" d="M167 700H308L286 572H415Q531 572 586 527T642 384Q642 305 607 247T508 157T357 126H207L185 0H44L167 700ZM373 236Q433 236 467 276T501 378Q501 462 412 462H266L227 236H373Z" />
<glyph unicode="&#xdf;" glyph-name="germandbls" horiz-adv-x="659" d="M578 362T597 335T617 271Q617 253 615 244L600 158Q585 70 527 29T361 -12Q329 -12 300 -7T250 9L269 118Q308 96 360 96Q409 96 437 115T472 168L485 244Q486 250 486 260Q486 324 390
324H316L334 424H406Q460 424 493 452T527 528Q527 567 497 589T415 612Q347 612 308 574T254 456L174 0H44L124 456Q147 588 217 650T423 712Q533 712 595 668T657 546Q657 485 627 443T540 378Q578 362 597 335Z" />
<glyph unicode="&#xe0;" glyph-name="agrave" horiz-adv-x="531" d="M449 129T449 124Q449 107 457 94T484 64L397 -12Q337 22 322 64Q259 -12 160 -12Q95 -12 58 18T21 107Q21 194 80 233T243 282L292 287Q321 290 334 297T351 320Q358 392 286 392Q246 392 222
381T164 341L86 403Q126 444 173 463T306 482Q393 482 438 447T483 346Q483 335 479 307L451 145Q449 129 449 124ZM256 81T287 106T325 169L332 211Q316 205 269 200L238 197Q149 189 149 124Q149 103 163 92T201 81Q256 81 287 106ZM196 692H332L384 535H279L196
692Z" />
<glyph unicode="&#xe1;" glyph-name="aacute" horiz-adv-x="531" d="M449 129T449 124Q449 107 457 94T484 64L397 -12Q337 22 322 64Q259 -12 160 -12Q95 -12 58 18T21 107Q21 194 80 233T243 282L292 287Q321 290 334 297T351 320Q358 392 286 392Q246 392 222
381T164 341L86 403Q126 444 173 463T306 482Q393 482 438 447T483 346Q483 335 479 307L451 145Q449 129 449 124ZM256 81T287 106T325 169L332 211Q316 205 269 200L238 197Q149 189 149 124Q149 103 163 92T201 81Q256 81 287 106ZM376 692H512L373 535H268L376
692Z" />
<glyph unicode="&#xe2;" glyph-name="acircumflex" horiz-adv-x="531" d="M449 129T449 124Q449 107 457 94T484 64L397 -12Q337 22 322 64Q259 -12 160 -12Q95 -12 58 18T21 107Q21 194 80 233T243 282L292 287Q321 290 334 297T351 320Q358 392 286 392Q246
392 222 381T164 341L86 403Q126 444 173 463T306 482Q393 482 438 447T483 346Q483 335 479 307L451 145Q449 129 449 124ZM256 81T287 106T325 169L332 211Q316 205 269 200L238 197Q149 189 149 124Q149 103 163 92T201 81Q256 81 287 106ZM182 561T225 605T301
694H411Q427 649 455 604T506 535H392Q368 562 341 609Q308 568 264 535H150Q182 561 225 605Z" />
<glyph unicode="&#xe3;" glyph-name="atilde" horiz-adv-x="531" d="M449 129T449 124Q449 107 457 94T484 64L397 -12Q337 22 322 64Q259 -12 160 -12Q95 -12 58 18T21 107Q21 194 80 233T243 282L292 287Q321 290 334 297T351 320Q358 392 286 392Q246 392 222
381T164 341L86 403Q126 444 173 463T306 482Q393 482 438 447T483 346Q483 335 479 307L451 145Q449 129 449 124ZM256 81T287 106T325 169L332 211Q316 205 269 200L238 197Q149 189 149 124Q149 103 163 92T201 81Q256 81 287 106ZM169 597T204 638T293 679Q313
679 329 673T365 656Q376 650 387 645T409 640Q421 640 429 651T445 688H529Q514 628 478 586T397 544Q377 544 361 550T325 567Q314 573 303 578T281 583Q257 583 240 535H156Q169 597 204 638Z" />
<glyph unicode="&#xe4;" glyph-name="adieresis" horiz-adv-x="531" d="M449 129T449 124Q449 107 457 94T484 64L397 -12Q337 22 322 64Q259 -12 160 -12Q95 -12 58 18T21 107Q21 194 80 233T243 282L292 287Q321 290 334 297T351 320Q358 392 286 392Q246 392
222 381T164 341L86 403Q126 444 173 463T306 482Q393 482 438 447T483 346Q483 335 479 307L451 145Q449 129 449 124ZM256 81T287 106T325 169L332 211Q316 205 269 200L238 197Q149 189 149 124Q149 103 163 92T201 81Q256 81 287 106ZM216 527T201 542T185
580Q185 608 208 631T261 654Q283 654 298 639T314 601Q314 573 291 550T239 527Q216 527 201 542ZM394 527T379 542T364 580Q364 609 387 631T440 654Q463 654 478 639T494 601Q494 573 470 550T418 527Q394 527 379 542Z" />
<glyph unicode="&#xe5;" glyph-name="aring" horiz-adv-x="531" d="M449 129T449 124Q449 107 457 94T484 64L397 -12Q337 22 322 64Q259 -12 160 -12Q95 -12 58 18T21 107Q21 194 80 233T243 282L292 287Q321 290 334 297T351 320Q358 392 286 392Q246 392 222
381T164 341L86 403Q126 444 173 463T306 482Q393 482 438 447T483 346Q483 335 479 307L451 145Q449 129 449 124ZM256 81T287 106T325 169L332 211Q316 205 269 200L238 197Q149 189 149 124Q149 103 163 92T201 81Q256 81 287 106ZM281 522T256 546T231 611Q231
663 269 696T364 730Q411 730 436 706T461 641Q461 589 423 556T328 522Q281 522 256 546ZM361 585T374 599T388 635Q388 651 379 659T353 667Q331 667 318 652T304 617Q304 601 313 593T339 585Q361 585 374 599Z" />
<glyph unicode="&#xe6;" glyph-name="ae" horiz-adv-x="789" d="M456 172Q453 159 453 148Q453 88 529 88Q565 88 589 97T644 131L710 59Q641 -12 521 -12Q405 -12 360 54Q320 22 274 5T163 -12Q96 -12 59 18T21 107Q21 194 80 233T244 282L293 287Q322 290 335
297T352 320Q359 392 287 392Q247 392 223 381T165 341L87 403Q127 444 174 463T303 482Q351 482 388 471T447 439Q504 480 582 480Q669 480 720 442T771 331Q771 254 739 221T646 187H459L456 172ZM473 266H585Q615 266 628 276T641 320Q641 349 622 364T570 380Q534
380 510 359T480 304L473 266ZM257 81T288 106T326 169L333 211Q317 205 270 200L239 197Q149 189 149 124Q149 103 163 92T202 81Q257 81 288 106Z" />
<glyph unicode="&#xe7;" glyph-name="ccedilla" horiz-adv-x="467" d="M266 88T289 100T341 139L417 67Q357 -2 255 -11L243 -36Q281 -41 298 -61T316 -112Q316 -169 275 -201T159 -234Q94 -234 51 -209L85 -139Q120 -158 153 -158Q186 -158 200 -150T215 -124Q215
-97 160 -97Q153 -97 127 -99L165 -7Q100 4 65 40T30 134Q30 145 34 173L56 297Q72 387 131 434T294 482Q362 482 409 462T477 403L375 331Q356 359 337 370T287 382Q201 382 186 297L164 173Q162 165 162 150Q162 88 235 88Q266 88 289 100Z" />
<glyph unicode="&#xe8;" glyph-name="egrave" horiz-adv-x="493" d="M163 172Q161 156 161 149Q161 86 236 86Q271 86 296 95T353 129L418 59Q380 21 336 5T228 -12Q132 -12 81 23T30 131Q30 153 34 173L59 316Q73 394 131 438T283 482Q369 482 421 441T474 328Q474
250 445 216T348 181H165L163 172ZM239 384T216 363T186 306L180 270H291Q319 270 332 281T345 325Q345 354 328 369T276 384Q239 384 216 363ZM167 692H303L355 535H250L167 692Z" />
<glyph unicode="&#xe9;" glyph-name="eacute" horiz-adv-x="493" d="M163 172Q161 156 161 149Q161 86 236 86Q271 86 296 95T353 129L418 59Q380 21 336 5T228 -12Q132 -12 81 23T30 131Q30 153 34 173L59 316Q73 394 131 438T283 482Q369 482 421 441T474 328Q474
250 445 216T348 181H165L163 172ZM239 384T216 363T186 306L180 270H291Q319 270 332 281T345 325Q345 354 328 369T276 384Q239 384 216 363ZM347 692H483L344 535H239L347 692Z" />
<glyph unicode="&#xea;" glyph-name="ecircumflex" horiz-adv-x="493" d="M163 172Q161 156 161 149Q161 86 236 86Q271 86 296 95T353 129L418 59Q380 21 336 5T228 -12Q132 -12 81 23T30 131Q30 153 34 173L59 316Q73 394 131 438T283 482Q369 482 421 441T474
328Q474 250 445 216T348 181H165L163 172ZM239 384T216 363T186 306L180 270H291Q319 270 332 281T345 325Q345 354 328 369T276 384Q239 384 216 363ZM153 561T196 605T272 694H382Q398 649 426 604T477 535H363Q339 562 312 609Q279 568 235 535H121Q153 561
196 605Z" />
<glyph unicode="&#xeb;" glyph-name="edieresis" horiz-adv-x="493" d="M163 172Q161 156 161 149Q161 86 236 86Q271 86 296 95T353 129L418 59Q380 21 336 5T228 -12Q132 -12 81 23T30 131Q30 153 34 173L59 316Q73 394 131 438T283 482Q369 482 421 441T474
328Q474 250 445 216T348 181H165L163 172ZM239 384T216 363T186 306L180 270H291Q319 270 332 281T345 325Q345 354 328 369T276 384Q239 384 216 363ZM187 527T172 542T156 580Q156 608 179 631T232 654Q254 654 269 639T285 601Q285 573 262 550T210 527Q187
527 172 542ZM365 527T350 542T335 580Q335 609 358 631T411 654Q434 654 449 639T465 601Q465 573 441 550T389 527Q365 527 350 542Z" />
<glyph unicode="&#xec;" glyph-name="igrave" horiz-adv-x="270" d="M81 12T62 40T42 106Q42 122 45 141L103 470H233L176 145Q174 133 174 128Q174 110 182 95T210 64L123 -12Q81 12 62 40ZM50 692H186L238 535H133L50 692Z" />
<glyph unicode="&#xed;" glyph-name="iacute" horiz-adv-x="270" d="M81 12T62 40T42 106Q42 122 45 141L103 470H233L176 145Q174 133 174 128Q174 110 182 95T210 64L123 -12Q81 12 62 40ZM230 692H366L227 535H122L230 692Z" />
<glyph unicode="&#xee;" glyph-name="icircumflex" horiz-adv-x="270" d="M81 12T62 40T42 106Q42 122 45 141L103 470H233L176 145Q174 133 174 128Q174 110 182 95T210 64L123 -12Q81 12 62 40ZM36 561T79 605T155 694H265Q281 649 309 604T360 535H246Q222
562 195 609Q162 568 118 535H4Q36 561 79 605Z" />
<glyph unicode="&#xef;" glyph-name="idieresis" horiz-adv-x="270" d="M81 12T62 40T42 106Q42 122 45 141L103 470H233L176 145Q174 133 174 128Q174 110 182 95T210 64L123 -12Q81 12 62 40ZM70 527T55 542T39 580Q39 608 62 631T115 654Q137 654 152 639T168
601Q168 573 145 550T93 527Q70 527 55 542ZM248 527T233 542T218 580Q218 609 241 631T294 654Q317 654 332 639T348 601Q348 573 324 550T272 527Q248 527 233 542Z" />
<glyph unicode="&#xf0;" glyph-name="eth" horiz-adv-x="522" d="M503 541H413L475 412Q491 375 491 332Q491 315 488 297L466 173Q433 -12 231 -12Q138 -12 85 27T31 137Q31 154 34 173L56 297Q72 387 134 434T300 482Q312 482 317 481L289 541H149L161 607H257L213
700H336L381 607H515L503 541ZM360 313T360 318Q360 349 341 365T287 382Q246 382 220 360T186 297L164 173Q162 157 162 152Q162 121 181 105T235 88Q276 88 302 110T336 173L358 297Q360 313 360 318Z" />
<glyph unicode="&#xf1;" glyph-name="ntilde" horiz-adv-x="556" d="M441 482T477 450T514 358Q514 340 511 320L455 0H325L379 308Q381 322 381 328Q381 353 367 367T324 382Q260 382 215 303L162 0H32L89 325Q91 339 91 344Q91 361 83 375T55 406L142 482Q203
447 218 401Q276 482 375 482Q441 482 477 450ZM168 597T203 638T292 679Q312 679 328 673T364 656Q375 650 386 645T408 640Q420 640 428 651T444 688H528Q513 628 477 586T396 544Q376 544 360 550T324 567Q313 573 302 578T280 583Q256 583 239 535H155Q168
597 203 638Z" />
<glyph unicode="&#xf2;" glyph-name="ograve" horiz-adv-x="522" d="M137 -12T84 27T31 138Q31 155 34 173L56 297Q72 388 132 435T294 482Q388 482 440 444T492 335Q492 323 488 297L466 173Q434 -12 232 -12Q137 -12 84 27ZM276 88T302 110T336 173L358 297Q360
313 360 318Q360 349 341 365T287 382Q246 382 220 360T186 297L164 173Q162 157 162 152Q162 121 181 105T235 88Q276 88 302 110ZM180 692H316L368 535H263L180 692Z" />
<glyph unicode="&#xf3;" glyph-name="oacute" horiz-adv-x="522" d="M137 -12T84 27T31 138Q31 155 34 173L56 297Q72 388 132 435T294 482Q388 482 440 444T492 335Q492 323 488 297L466 173Q434 -12 232 -12Q137 -12 84 27ZM276 88T302 110T336 173L358 297Q360
313 360 318Q360 349 341 365T287 382Q246 382 220 360T186 297L164 173Q162 157 162 152Q162 121 181 105T235 88Q276 88 302 110ZM360 692H496L357 535H252L360 692Z" />
<glyph unicode="&#xf4;" glyph-name="ocircumflex" horiz-adv-x="522" d="M137 -12T84 27T31 138Q31 155 34 173L56 297Q72 388 132 435T294 482Q388 482 440 444T492 335Q492 323 488 297L466 173Q434 -12 232 -12Q137 -12 84 27ZM276 88T302 110T336 173L358
297Q360 313 360 318Q360 349 341 365T287 382Q246 382 220 360T186 297L164 173Q162 157 162 152Q162 121 181 105T235 88Q276 88 302 110ZM166 561T209 605T285 694H395Q411 649 439 604T490 535H376Q352 562 325 609Q292 568 248 535H134Q166 561 209 605Z"
/>
<glyph unicode="&#xf5;" glyph-name="otilde" horiz-adv-x="522" d="M137 -12T84 27T31 138Q31 155 34 173L56 297Q72 388 132 435T294 482Q388 482 440 444T492 335Q492 323 488 297L466 173Q434 -12 232 -12Q137 -12 84 27ZM276 88T302 110T336 173L358 297Q360
313 360 318Q360 349 341 365T287 382Q246 382 220 360T186 297L164 173Q162 157 162 152Q162 121 181 105T235 88Q276 88 302 110ZM153 597T188 638T277 679Q297 679 313 673T349 656Q360 650 371 645T393 640Q405 640 413 651T429 688H513Q498 628 462 586T381
544Q361 544 345 550T309 567Q298 573 287 578T265 583Q241 583 224 535H140Q153 597 188 638Z" />
<glyph unicode="&#xf6;" glyph-name="odieresis" horiz-adv-x="522" d="M137 -12T84 27T31 138Q31 155 34 173L56 297Q72 388 132 435T294 482Q388 482 440 444T492 335Q492 323 488 297L466 173Q434 -12 232 -12Q137 -12 84 27ZM276 88T302 110T336 173L358 297Q360
313 360 318Q360 349 341 365T287 382Q246 382 220 360T186 297L164 173Q162 157 162 152Q162 121 181 105T235 88Q276 88 302 110ZM200 527T185 542T169 580Q169 608 192 631T245 654Q267 654 282 639T298 601Q298 573 275 550T223 527Q200 527 185 542ZM378 527T363
542T348 580Q348 609 371 631T424 654Q447 654 462 639T478 601Q478 573 454 550T402 527Q378 527 363 542Z" />
<glyph unicode="&#xf7;" glyph-name="divide" horiz-adv-x="680" d="M347 426T329 444T310 489Q310 523 338 550T401 578Q428 578 446 559T465 514Q465 481 437 454T374 426Q347 426 329 444ZM80 348H640L623 250H63L80 348ZM275 20T257 38T239 83Q239 117 267
144T329 172Q356 172 374 154T393 108Q393 75 365 48T302 20Q275 20 257 38Z" />
<glyph unicode="&#xf8;" glyph-name="oslash" horiz-adv-x="522" d="M492 409T492 335Q492 323 488 297L466 173Q434 -12 232 -12Q171 -12 129 4L85 -60H21L82 29Q31 68 31 138Q31 155 34 173L56 297Q72 388 132 435T294 482Q345 482 386 470L427 530H491L434
447Q492 409 492 335ZM162 163T162 145L322 377Q305 382 287 382Q246 382 220 360T186 297L164 173Q162 163 162 145ZM360 305T360 318Q360 331 358 337L193 97Q209 88 235 88Q276 88 302 110T336 173L358 297Q360 305 360 318Z" />
<glyph unicode="&#xf9;" glyph-name="ugrave" horiz-adv-x="561" d="M470 133T470 127Q470 110 478 96T506 66L406 -10Q349 23 340 69Q314 33 275 11T186 -12Q122 -12 82 22T42 117Q42 132 45 150L101 470H231L177 162Q175 150 175 146Q175 119 191 104T237 88Q303
88 348 175L399 470H529L472 147Q470 133 470 127ZM193 692H329L381 535H276L193 692Z" />
<glyph unicode="&#xfa;" glyph-name="uacute" horiz-adv-x="561" d="M470 133T470 127Q470 110 478 96T506 66L406 -10Q349 23 340 69Q314 33 275 11T186 -12Q122 -12 82 22T42 117Q42 132 45 150L101 470H231L177 162Q175 150 175 146Q175 119 191 104T237 88Q303
88 348 175L399 470H529L472 147Q470 133 470 127ZM373 692H509L370 535H265L373 692Z" />
<glyph unicode="&#xfb;" glyph-name="ucircumflex" horiz-adv-x="561" d="M470 133T470 127Q470 110 478 96T506 66L406 -10Q349 23 340 69Q314 33 275 11T186 -12Q122 -12 82 22T42 117Q42 132 45 150L101 470H231L177 162Q175 150 175 146Q175 119 191 104T237
88Q303 88 348 175L399 470H529L472 147Q470 133 470 127ZM179 561T222 605T298 694H408Q424 649 452 604T503 535H389Q365 562 338 609Q305 568 261 535H147Q179 561 222 605Z" />
<glyph unicode="&#xfc;" glyph-name="udieresis" horiz-adv-x="561" d="M470 133T470 127Q470 110 478 96T506 66L406 -10Q349 23 340 69Q314 33 275 11T186 -12Q122 -12 82 22T42 117Q42 132 45 150L101 470H231L177 162Q175 150 175 146Q175 119 191 104T237
88Q303 88 348 175L399 470H529L472 147Q470 133 470 127ZM213 527T198 542T182 580Q182 608 205 631T258 654Q280 654 295 639T311 601Q311 573 288 550T236 527Q213 527 198 542ZM391 527T376 542T361 580Q361 609 384 631T437 654Q460 654 475 639T491 601Q491
573 467 550T415 527Q391 527 376 542Z" />
<glyph unicode="&#xfd;" glyph-name="yacute" horiz-adv-x="558" d="M547 470L456 -44Q439 -139 380 -184T196 -230H64L82 -130H214Q265 -130 291 -110T326 -44L345 62Q317 27 279 9T196 -10Q126 -10 88 22T50 115Q50 133 53 152L84 325Q86 339 86 344Q86 361
78 375T50 406L137 482Q180 457 198 430T217 364Q217 349 214 329L185 164Q183 152 183 148Q183 121 199 106T245 90Q290 90 318 119T368 195L417 470H547ZM373 692H509L370 535H265L373 692Z" />
<glyph unicode="&#xfe;" glyph-name="thorn" horiz-adv-x="593" d="M135 593Q137 607 137 613Q137 630 129 644T102 674L189 750Q232 725 250 698T269 632Q269 617 266 597L234 415Q262 447 300 464T386 482Q471 482 515 431T559 299Q559 272 555 251L550 219Q535
120 474 54T313 -12Q264 -12 227 5T169 49L122 -219H-8L135 593ZM348 88T379 125T419 219L424 251Q427 268 427 282Q427 326 404 354T335 382Q252 382 213 300L191 171Q197 127 226 108T294 88Q348 88 379 125Z" />
<glyph unicode="&#xff;" glyph-name="ydieresis" horiz-adv-x="558" d="M547 470L456 -44Q439 -139 380 -184T196 -230H64L82 -130H214Q265 -130 291 -110T326 -44L345 62Q317 27 279 9T196 -10Q126 -10 88 22T50 115Q50 133 53 152L84 325Q86 339 86 344Q86 361
78 375T50 406L137 482Q180 457 198 430T217 364Q217 349 214 329L185 164Q183 152 183 148Q183 121 199 106T245 90Q290 90 318 119T368 195L417 470H547ZM213 527T198 542T182 580Q182 608 205 631T258 654Q280 654 295 639T311 601Q311 573 288 550T236 527Q213
527 198 542ZM391 527T376 542T361 580Q361 609 384 631T437 654Q460 654 475 639T491 601Q491 573 467 550T415 527Q391 527 376 542Z" />
<glyph unicode="&#x2013;" glyph-name="endash" horiz-adv-x="678" d="M56 295H644L629 210H41L56 295Z" />
<glyph unicode="&#x2014;" glyph-name="emdash" horiz-adv-x="1085" d="M56 295H1051L1036 210H41L56 295Z" />
<glyph unicode="&#x2018;" glyph-name="quoteleft" horiz-adv-x="251" d="M241 628T253 615T265 579Q265 553 251 529T213 489T166 474Q135 474 119 491T102 541Q102 606 142 661T242 761L274 724Q239 698 218 674T187 622Q200 628 219 628Q241 628 253 615Z" />
<glyph unicode="&#x2019;" glyph-name="quoteright" horiz-adv-x="250" d="M256 793T272 776T289 726Q289 661 249 606T149 506L117 543Q152 569 173 593T204 645Q191 639 172 639Q150 639 138 652T126 688Q126 714 140 738T178 778T225 793Q256 793 272 776Z" />
<glyph unicode="&#x201a;" glyph-name="quotesinglbase" horiz-adv-x="250" d="M141 141T157 124T174 74Q174 9 134 -46T34 -146L2 -109Q37 -83 58 -59T89 -7Q76 -13 57 -13Q35 -13 23 0T11 36Q11 62 25 86T63 126T110 141Q141 141 157 124Z" />
<glyph unicode="&#x201c;" glyph-name="quotedblleft" horiz-adv-x="471" d="M239 698T218 674T187 622Q200 628 219 628Q241 628 253 615T265 579Q265 553 251 529T213 489T166 474Q135 474 119 491T102 541Q102 606 142 661T242 761L274 724Q239 698 218 674ZM461
628T473 615T485 579Q485 553 471 529T433 489T386 474Q355 474 339 491T322 541Q322 606 362 661T462 761L494 724Q459 698 438 674T407 622Q420 628 439 628Q461 628 473 615Z" />
<glyph unicode="&#x201d;" glyph-name="quotedblright" horiz-adv-x="470" d="M476 793T492 776T509 726Q509 661 469 606T369 506L337 543Q372 569 393 593T424 645Q411 639 392 639Q370 639 358 652T346 688Q346 714 360 738T398 778T445 793Q476 793 492 776ZM256
793T272 776T289 726Q289 661 249 606T149 506L117 543Q152 569 173 593T204 645Q191 639 172 639Q150 639 138 652T126 688Q126 714 140 738T178 778T225 793Q256 793 272 776Z" />
<glyph unicode="&#x201e;" glyph-name="quotedblbase" horiz-adv-x="470" d="M361 141T377 124T394 74Q394 9 354 -46T254 -146L222 -109Q257 -83 278 -59T309 -7Q296 -13 277 -13Q255 -13 243 0T231 36Q231 62 245 86T283 126T330 141Q361 141 377 124ZM141 141T157
124T174 74Q174 9 134 -46T34 -146L2 -109Q37 -83 58 -59T89 -7Q76 -13 57 -13Q35 -13 23 0T11 36Q11 62 25 86T63 126T110 141Q141 141 157 124Z" />
<glyph unicode="&#x2022;" glyph-name="bullet" horiz-adv-x="448" d="M165 174T133 206T101 285Q101 325 123 361T183 420T261 442Q310 442 341 411T373 331Q373 292 351 256T291 197T213 174Q165 174 133 206Z" />
<glyph unicode="&#x2039;" glyph-name="guilsinglleft" horiz-adv-x="391" d="M350 387T289 338T164 260Q218 231 262 182T319 83H225Q211 133 160 183T44 260Q118 287 186 337T287 437H381Q350 387 289 338Z" />
<glyph unicode="&#x203a;" glyph-name="guilsinglright" horiz-adv-x="391" d="M191 388T241 338T355 260Q280 232 212 183T113 83H19Q50 132 110 182T235 260Q181 288 138 337T81 437H175Q191 388 241 338Z" />
</font>
</defs>
</svg>
