<?xml version="1.0" standalone="no"?>
<!DOCTYPE svg PUBLIC "-//W3C//DTD SVG 1.1//EN" "http://www.w3.org/Graphics/SVG/1.1/DTD/svg11.dtd">
<svg xmlns="http://www.w3.org/2000/svg">
<defs >
<font id="KoHo" horiz-adv-x="571" ><font-face
    font-family="KoHo SemiBold"
    units-per-em="1000"
    panose-1="0 0 7 0 0 0 0 0 0 0"
    ascent="1045"
    descent="-255"
    alphabetic="0" />
<glyph unicode=" " glyph-name="space" horiz-adv-x="269" />
<glyph unicode="!" glyph-name="exclam" horiz-adv-x="284" d="M169 700H281L178 205H98L169 700ZM74 -12T58 4T41 45Q41 76 66 101T123 126Q148 126 164 110T180 69Q180 37 156 13T100 -12Q74 -12 58 4Z" />
<glyph unicode="&quot;" glyph-name="quotedbl" horiz-adv-x="368" d="M136 709H233L185 472H101L136 709ZM303 709H400L351 472H269L303 709Z" />
<glyph unicode="#" glyph-name="numbersign" horiz-adv-x="570" d="M454 422L411 278H520L506 200H387L327 0H246L306 200H208L148 0H67L127 200H31L44 278H151L194 422H91L104 500H218L278 700H359L299 500H397L457 700H538L478 500H580L566 422H454ZM373 422H275L232
278H330L373 422Z" />
<glyph unicode="$" glyph-name="dollar" horiz-adv-x="629" d="M442 383T484 367T555 315T583 222Q583 125 511 62T309 -11L290 -120H225L244 -12Q156 -8 105 24T18 119L109 186Q137 134 172 110T261 81L300 302L274 308Q192 328 153 368T113 478Q113 544 143
595T232 677T372 712L391 820H456L437 710Q511 703 560 674T632 597L543 533Q518 569 489 589T420 616L381 395Q442 383 484 367ZM232 459T254 440T318 409L355 617Q297 610 265 577T232 494Q232 459 254 440ZM392 93T427 125T463 208Q463 240 437 258T362 288L326
84Q392 93 427 125Z" />
<glyph unicode="%" glyph-name="percent" horiz-adv-x="949" d="M150 308T113 340T76 430Q76 448 79 467L101 588Q128 740 278 740Q344 740 381 710T418 623Q418 606 415 588L393 467Q379 389 336 349T218 308Q150 308 113 340ZM257 372T280 396T313 467L334 588Q337
603 337 615Q337 676 273 676Q237 676 213 654T181 588L160 467Q157 452 157 438Q157 406 173 389T220 372Q257 372 280 396ZM728 700H806L265 0H187L728 700ZM648 -36T611 -4T574 86Q574 104 577 123L599 244Q626 396 776 396Q842 396 879 366T916 279Q916 262
913 244L891 123Q877 45 834 5T716 -36Q648 -36 611 -4ZM755 28T778 52T811 123L832 244Q835 259 835 271Q835 332 771 332Q735 332 711 310T679 244L658 123Q655 108 655 94Q655 62 671 45T718 28Q755 28 778 52Z" />
<glyph unicode="&amp;" glyph-name="ampersand" horiz-adv-x="698" d="M627 220T545 124L635 0H495L459 49Q367 -12 245 -12Q145 -12 86 35T27 160Q27 242 75 293T213 390Q186 429 172 461T157 527Q157 581 183 622T258 687T368 711Q446 711 492 675T539 574Q539
507 495 459T369 366L481 212Q523 275 549 368H668Q627 220 545 124ZM323 619T299 595T275 532Q275 511 284 490T314 441Q366 468 393 496T421 564Q421 589 404 604T360 619Q323 619 299 595ZM340 81T403 128L268 314Q209 285 177 253T145 170Q145 129 175 105T260
81Q340 81 403 128Z" />
<glyph unicode="&apos;" glyph-name="quotesingle" horiz-adv-x="202" d="M136 709H233L185 472H102L136 709Z" />
<glyph unicode="(" glyph-name="parenleft" horiz-adv-x="304" d="M112 -58T90 17T67 188Q67 338 112 463T209 665T316 803L375 763Q300 669 233 522T166 188Q166 37 225 -91L152 -131Q112 -58 90 17Z" />
<glyph unicode=")" glyph-name="parenright" horiz-adv-x="304" d="M-36 -91Q40 4 107 151T175 484Q175 630 115 763L188 803Q228 728 250 654T273 484Q273 334 228 209T131 8T23 -131L-36 -91Z" />
<glyph unicode="*" glyph-name="asterisk" horiz-adv-x="453" d="M474 559H334L383 438L327 409L279 529L188 409L142 438L233 559H94L104 617H244L195 738L251 767L299 647L390 767L436 738L345 617H484L474 559Z" />
<glyph unicode="+" glyph-name="plus" horiz-adv-x="683" d="M625 257H390L348 20H259L301 257H66L81 341H315L357 578H446L404 341H640L625 257Z" />
<glyph unicode="," glyph-name="comma" horiz-adv-x="235" d="M126 124T140 109T155 64Q155 6 119 -45T28 -138L1 -106Q34 -81 53 -57T82 -7Q71 -12 52 -12Q33 -12 23 -1T12 31Q12 66 39 95T99 124Q126 124 140 109Z" />
<glyph unicode="-" glyph-name="hyphen" horiz-adv-x="370" d="M58 287H331L318 214H45L58 287Z" />
<glyph unicode="." glyph-name="period" horiz-adv-x="254" d="M59 -12T43 4T26 45Q26 76 51 101T108 126Q133 126 149 110T165 69Q165 37 141 13T85 -12Q59 -12 43 4Z" />
<glyph unicode="/" glyph-name="slash" horiz-adv-x="448" d="M461 782H549L29 -79H-60L461 782Z" />
<glyph unicode="0" glyph-name="zero" horiz-adv-x="613" d="M171 -12T113 40T55 189Q55 219 61 253L97 455Q119 580 191 646T382 712Q486 712 542 662T599 519Q599 490 593 455L558 253Q510 -12 276 -12Q171 -12 113 40ZM346 73T389 119T449 253L484 455Q489
487 489 508Q489 566 460 596T375 627Q308 627 265 583T206 455L170 253Q165 220 165 197Q165 136 194 105T278 73Q346 73 389 119Z" />
<glyph unicode="1" glyph-name="one" horiz-adv-x="402" d="M396 700L272 0H163L269 600L93 507L110 604L292 700H396Z" />
<glyph unicode="2" glyph-name="two" horiz-adv-x="595" d="M166 85H524L508 0H3L18 81L269 273Q339 327 381 364T449 443T476 528Q476 576 441 600T348 625Q240 625 164 549L129 625Q185 674 244 692T367 710Q459 710 522 669T585 540Q585 468 541 403T401 265L166 85Z" />
<glyph unicode="3" glyph-name="three" horiz-adv-x="622" d="M494 353T526 317T558 226Q558 156 521 102T417 18T259 -12Q186 -12 122 12T21 93L95 156Q128 114 166 94T266 73Q346 73 397 112T449 219Q449 324 279 324Q246 324 196 319V390Q300 393 364 408T459
454T490 537Q490 580 455 603T361 627Q253 627 176 551L141 626Q194 673 253 692T380 712Q475 712 537 674T599 556Q599 484 557 435T442 366Q494 353 526 317Z" />
<glyph unicode="4" glyph-name="four" horiz-adv-x="641" d="M399 139H43L20 217L462 700H600L515 224H615L600 139H501L476 0H375L399 139ZM414 224L481 604L133 224H414Z" />
<glyph unicode="5" glyph-name="five" horiz-adv-x="637" d="M191 -12T127 8T23 91L96 154Q125 103 170 88T277 73Q363 73 415 121T468 249Q468 306 428 332T307 359Q241 359 164 339L118 405L199 700H620L605 615H272L224 436Q272 446 322 446Q449 446 513 398T578
256Q578 176 540 116T432 22T270 -12Q191 -12 127 8Z" />
<glyph unicode="6" glyph-name="six" horiz-adv-x="608" d="M453 428T508 379T563 249Q563 171 527 112T426 21T274 -12Q168 -12 110 43T51 194Q51 321 108 428T270 609T513 712L536 632Q420 611 330 541T196 370Q229 398 270 413T357 428Q453 428 508 379ZM356
73T404 120T452 242Q452 291 420 317T327 343Q279 343 238 323T166 265Q161 230 161 201Q161 142 190 108T280 73Q356 73 404 120Z" />
<glyph unicode="7" glyph-name="seven" horiz-adv-x="563" d="M249 283T504 615H126L140 700H587L612 617Q352 274 203 0H88Q249 283 504 615Z" />
<glyph unicode="8" glyph-name="eight" horiz-adv-x="592" d="M160 -12T99 33T38 156Q38 232 82 286T203 375Q121 418 121 502Q121 563 153 610T243 685T375 712Q469 712 522 672T575 563Q575 504 538 454T436 375Q484 354 511 316T538 223Q538 153 504 100T407
17T260 -12Q160 -12 99 33ZM397 436T431 470T466 553Q466 590 439 610T365 631Q305 631 268 598T230 510Q230 444 314 423L332 418Q397 436 431 470ZM340 69T384 109T429 217Q429 258 405 281T329 320L298 329Q225 306 186 263T147 162Q147 117 178 93T266 69Q340
69 384 109Z" />
<glyph unicode="9" glyph-name="nine" horiz-adv-x="608" d="M478 712T538 659T599 509Q599 381 541 273T378 90T136 -12L113 68Q229 89 318 158T452 329Q419 301 378 287T292 272Q196 272 141 321T86 452Q86 529 121 588T222 679T373 712Q478 712 538 659ZM369
357T410 377T483 435Q488 470 488 499Q488 557 458 592T366 627Q290 627 244 580T197 458Q197 409 229 383T321 357Q369 357 410 377Z" />
<glyph unicode=":" glyph-name="colon" horiz-adv-x="254" d="M119 330T103 346T86 386Q86 417 111 442T168 467Q193 467 209 451T225 410Q225 378 201 354T144 330Q119 330 103 346ZM59 -12T43 4T26 45Q26 76 51 101T108 126Q133 126 149 110T165 69Q165 37 141
13T85 -12Q59 -12 43 4Z" />
<glyph unicode=";" glyph-name="semicolon" horiz-adv-x="253" d="M115 330T99 346T82 386Q82 417 107 442T165 467Q189 467 205 451T221 410Q221 378 197 354T140 330Q115 330 99 346ZM13 -106Q47 -80 66 -57T93 -7Q82 -12 64 -12Q45 -12 34 -1T23 31Q23 66 50
95T110 124Q138 124 152 109T167 64Q167 7 131 -45T40 -138L13 -106Z" />
<glyph unicode="&lt;" glyph-name="less" horiz-adv-x="510" d="M367 76T277 153T56 292Q210 354 327 431T511 594L492 489Q378 377 201 292Q349 205 424 95L404 -10Q367 76 277 153Z" />
<glyph unicode="=" glyph-name="equal" horiz-adv-x="682" d="M100 449H658L643 365H85L100 449ZM67 261H624L610 177H52L67 261Z" />
<glyph unicode="&gt;" glyph-name="greater" horiz-adv-x="510" d="M37 95Q153 209 329 292Q180 377 107 489L125 594Q163 509 252 431T473 292Q319 230 202 153T19 -10L37 95Z" />
<glyph unicode="?" glyph-name="question" horiz-adv-x="527" d="M209 249Q213 271 224 288T258 328T332 392Q370 423 397 462T425 554Q425 588 400 608T326 628Q276 628 243 603T185 518L91 556Q117 632 178 672T332 713Q429 713 482 673T536 563Q536 492 504
444T428 361Q363 309 342 288T318 249L310 205H201L209 249ZM193 -12T177 4T160 45Q160 76 185 101T243 126Q267 126 283 110T299 69Q299 38 275 13T218 -12Q193 -12 177 4Z" />
<glyph unicode="@" glyph-name="at" horiz-adv-x="919" d="M620 165Q613 142 613 127Q613 90 655 90Q706 90 748 129T816 234T841 378Q841 496 769 559T556 622Q427 622 320 559T151 386T89 144Q89 23 168 -41T398 -106Q470 -106 534 -89T649 -40L678 -100Q552
-172 386 -172Q209 -172 114 -88T19 144Q19 296 91 420T286 616T560 688Q670 688 749 651T869 544T911 381Q911 282 875 200T777 71T640 24Q590 24 562 44T530 96Q489 58 450 41T358 24Q291 24 251 62T211 165Q211 199 230 262Q258 354 323 413T482 472Q571 472
600 414L615 461H714L620 165ZM568 314V315Q569 394 484 394Q431 394 389 357T330 262Q319 227 316 213T312 181Q312 144 332 123T392 102Q477 102 527 185L568 314Z" />
<glyph unicode="A" glyph-name="A" horiz-adv-x="680" d="M475 184H187L100 0H-18L256 567Q296 649 331 680T423 712Q480 712 505 680T541 567L615 0H497L475 184ZM464 272L429 565Q427 585 422 594T405 603Q394 603 386 594T368 565L229 272H464Z" />
<glyph unicode="B" glyph-name="B" horiz-adv-x="680" d="M170 700H467Q558 700 610 660T663 549Q663 483 625 436T517 369Q570 355 598 320T627 232Q627 164 594 112T500 30T361 0H47L170 700ZM424 411Q475 411 510 445T545 530Q545 566 522 586T458 607H272L238
411H424ZM351 93Q426 93 467 130T509 232Q509 318 391 318H221L181 93H351Z" />
<glyph unicode="C" glyph-name="C" horiz-adv-x="635" d="M188 -12T122 40T55 188Q55 211 60 243L98 457Q120 582 201 647T417 712Q511 712 573 681T662 587L567 528Q543 576 509 597T410 619Q245 619 216 457L178 243Q174 222 174 199Q174 81 317 81Q384 81 428
103T515 176L588 114Q533 49 469 19T311 -12Q188 -12 122 40Z" />
<glyph unicode="D" glyph-name="D" horiz-adv-x="708" d="M170 700H419Q555 700 622 640T689 457Q689 313 645 211T516 54T311 0H47L170 700ZM318 93Q437 93 504 188T571 454Q571 533 532 570T411 607H272L181 93H318Z" />
<glyph unicode="E" glyph-name="E" horiz-adv-x="577" d="M152 0T100 39T47 158Q47 184 53 215L101 485Q119 591 184 645T376 700H618L601 607H365Q303 607 267 579T219 485L203 396H518L502 304H187L171 215Q167 189 167 179Q167 135 193 114T274 93H514L498
0H259Q152 0 100 39Z" />
<glyph unicode="F" glyph-name="F" horiz-adv-x="581" d="M108 485Q127 591 192 645T383 700H624L608 607H372Q312 607 275 579T226 485L207 376H521L505 284H190L140 0H22L108 485Z" />
<glyph unicode="G" glyph-name="G" horiz-adv-x="671" d="M189 -12T122 40T55 188Q55 211 60 243L98 457Q120 583 201 647T421 712Q619 712 676 591L576 529Q552 576 516 597T413 619Q245 619 216 457L178 243Q174 222 174 198Q174 140 209 111T319 81Q395 81
443 108T500 185L507 227Q509 241 509 246Q509 299 451 299H335L351 392H499Q563 392 596 367T630 284Q630 263 626 243L614 177Q598 89 518 39T313 -12Q189 -12 122 40Z" />
<glyph unicode="H" glyph-name="H" horiz-adv-x="723" d="M170 700H288L236 397H546L598 700H716L593 0H475L529 305H219L165 0H47L170 700Z" />
<glyph unicode="I" glyph-name="I" horiz-adv-x="295" d="M170 700H288L165 0H47L170 700Z" />
<glyph unicode="J" glyph-name="J" horiz-adv-x="547" d="M129 -12T81 9T-3 81L79 153Q102 114 130 98T201 81Q269 81 310 112T361 204L448 700H566L478 203Q459 98 389 43T198 -12Q129 -12 81 9Z" />
<glyph unicode="K" glyph-name="K" horiz-adv-x="687" d="M489 414T516 390T556 330T579 232L615 0H496L461 221Q454 263 446 284T416 321T349 342L201 207L165 0H47L170 700H288L227 353L602 700H743L441 425Q489 414 516 390Z" />
<glyph unicode="L" glyph-name="L" horiz-adv-x="551" d="M153 0T104 39T54 157Q54 184 60 215L145 700H263L178 215Q174 187 174 177Q174 134 198 114T273 93H497L481 0H258Q153 0 104 39Z" />
<glyph unicode="M" glyph-name="M" horiz-adv-x="830" d="M170 700H233Q277 700 302 690T347 651T385 564L443 391L561 564Q596 616 622 644T681 686T761 700H824L701 0H593L695 578Q682 578 671 567T642 531L410 207L294 531Q284 558 278 568T258 579L155 0H47L170 700Z" />
<glyph unicode="N" glyph-name="N" horiz-adv-x="728" d="M734 700L636 145Q624 73 588 37T488 0H405L249 515L158 0H47L170 700H305L485 101H489Q505 101 513 114T529 162L623 700H734Z" />
<glyph unicode="O" glyph-name="O" horiz-adv-x="681" d="M184 -12T120 39T55 186Q55 218 60 243L97 457Q120 583 200 647T415 712Q536 712 601 660T667 513Q667 482 662 457L624 243Q602 116 523 52T307 -12Q184 -12 120 39ZM393 81T443 122T506 243L544 457Q548
477 548 498Q548 557 512 588T408 619Q329 619 279 577T215 457L178 243Q174 223 174 202Q174 143 210 112T313 81Q393 81 443 122Z" />
<glyph unicode="P" glyph-name="P" horiz-adv-x="634" d="M170 700H448Q661 700 661 519Q661 442 627 385T532 298T388 267H213L165 0H47L170 700ZM401 360Q466 360 504 403T543 515Q543 561 518 584T445 607H272L229 360H401Z" />
<glyph unicode="Q" glyph-name="Q" horiz-adv-x="681" d="M536 712T601 660T667 513Q667 482 662 457L624 243Q588 35 398 -3Q418 -26 455 -37T544 -49L527 -149Q419 -148 360 -114T280 -11Q170 -6 112 44T54 185Q54 213 60 243L97 457Q120 583 200 647T415 712Q536
712 601 660ZM548 477T548 498Q548 557 512 588T408 619Q329 619 279 577T215 457L178 243Q174 223 174 202Q174 143 210 112T313 81Q393 81 443 122T506 243L544 457Q548 477 548 498Z" />
<glyph unicode="R" glyph-name="R" horiz-adv-x="676" d="M662 455T616 401T491 331Q538 314 556 273T582 163L601 0H476L457 163Q452 212 442 239T408 281T339 295H217L165 0H47L170 700H458Q551 700 606 654T662 530Q662 455 616 401ZM467 388T505 426T544 523Q544
564 517 585T445 607H272L233 388H406Q467 388 505 426Z" />
<glyph unicode="S" glyph-name="S" horiz-adv-x="629" d="M168 -12T113 20T18 119L109 186Q139 130 178 106T277 81Q365 81 414 115T463 208Q463 236 444 253T395 279T314 299L274 308Q192 328 153 368T113 478Q113 546 146 599T242 682T393 712Q486 712 546 682T632
597L543 533Q513 577 476 598T385 619Q314 619 273 584T232 494Q232 463 249 445T292 418T362 399Q432 385 476 370T551 319T583 222Q583 153 546 100T438 18T268 -12Q168 -12 113 20Z" />
<glyph unicode="T" glyph-name="T" horiz-adv-x="597" d="M306 607H89L105 700H656L640 607H424L317 0H199L306 607Z" />
<glyph unicode="U" glyph-name="U" horiz-adv-x="673" d="M183 -12T118 34T53 163Q53 174 57 202L145 700H263L175 202Q173 193 173 176Q173 129 207 105T309 80Q384 80 429 111T485 202L573 700H691L603 202Q585 100 509 44T303 -12Q183 -12 118 34Z" />
<glyph unicode="V" glyph-name="V" horiz-adv-x="661" d="M234 -12T208 22T172 133L105 700H223L283 135Q285 115 290 106T306 97Q317 97 325 106T342 135L602 700H720L454 133Q428 78 406 47T357 2T292 -12Q234 -12 208 22Z" />
<glyph unicode="W" glyph-name="W" horiz-adv-x="913" d="M969 700L686 0H651Q604 0 577 11T533 50T508 136L477 346L371 136Q345 84 320 55T262 13T180 0H145L108 700H219L249 110Q264 122 281 156L524 618L604 156Q611 121 620 110L858 700H969Z" />
<glyph unicode="X" glyph-name="X" horiz-adv-x="600" d="M392 343L550 0H416L299 253L93 0H-39L251 358L93 700H227L343 448L549 700H680L392 343Z" />
<glyph unicode="Y" glyph-name="Y" horiz-adv-x="595" d="M247 298L85 700H217L328 406L541 700H674L365 298L314 0H196L247 298Z" />
<glyph unicode="Z" glyph-name="Z" horiz-adv-x="585" d="M116 129Q115 126 115 119Q115 104 125 98T156 92H534L517 -1H116Q4 -1 4 83Q4 97 7 113L18 174L484 607H109L126 700H625L606 594L118 137L116 129Z" />
<glyph unicode="[" glyph-name="bracketleft" horiz-adv-x="371" d="M175 758H419L406 683H258L131 -37H279L266 -112H22L175 758Z" />
<glyph unicode="\" glyph-name="backslash" horiz-adv-x="445" d="M90 775H178L395 -79H306L90 775Z" />
<glyph unicode="]" glyph-name="bracketright" horiz-adv-x="371" d="M-4 -37H145L272 683H123L135 758H380L227 -112H-18L-4 -37Z" />
<glyph unicode="^" glyph-name="asciicircum" horiz-adv-x="625" d="M204 392T271 488T395 700Q411 583 444 486T531 303H441Q394 384 360 504Q275 374 208 303H119Q204 392 271 488Z" />
<glyph unicode="_" glyph-name="underscore" horiz-adv-x="519" d="M-62 -114H457L444 -187H-74L-62 -114Z" />
<glyph unicode="`" glyph-name="grave" horiz-adv-x="600" d="M230 692H345L398 539H310L230 692Z" />
<glyph unicode="a" glyph-name="a" horiz-adv-x="530" d="M442 125Q440 111 440 106Q440 90 447 79T471 52L398 -12Q342 20 332 64Q304 30 263 9T167 -12Q101 -12 64 19T26 106Q26 190 82 228T240 278L299 284Q334 288 348 296T368 324Q371 363 352 384T290 405Q245
405 218 393T158 351L92 404Q129 444 177 463T304 482Q388 482 433 447T478 347Q478 330 475 312L442 125ZM259 68T296 96T341 170L351 224Q329 216 282 211L236 206Q188 201 160 180T132 119Q132 68 199 68Q259 68 296 96Z" />
<glyph unicode="b" glyph-name="b" horiz-adv-x="586" d="M250 -12T212 7T155 56L145 0H36L143 605Q144 611 144 622Q144 639 137 652T113 679L186 741Q223 721 239 699T255 643Q255 633 251 607L218 415Q246 446 286 464T368 482Q453 482 500 431T547 297Q547
283 543 251L538 219Q522 119 459 54T301 -12Q250 -12 212 7ZM344 73T381 114T428 219L433 251Q436 269 436 285Q436 335 411 366T334 397Q241 397 198 306L173 164Q179 118 209 96T285 73Q344 73 381 114Z" />
<glyph unicode="c" glyph-name="c" horiz-adv-x="471" d="M136 -12T86 25T35 132Q35 144 39 170L62 300Q77 388 136 435T293 482Q360 482 406 462T475 403L389 342Q368 372 347 384T289 397Q240 397 210 372T171 300L148 170Q145 157 145 144Q145 109 167 91T233
73Q269 73 296 86T352 127L416 66Q380 26 334 7T228 -12Q136 -12 86 25Z" />
<glyph unicode="d" glyph-name="d" horiz-adv-x="585" d="M489 125Q487 111 487 107Q487 91 494 79T518 52L445 -12Q392 20 382 63Q317 -12 216 -12Q134 -12 87 37T39 170Q39 196 43 219L48 251Q58 318 90 370T174 452T290 482Q340 482 376 464T432 417L465 605Q466
610 466 620Q466 636 459 649T435 678L509 741Q545 721 561 697T578 639Q578 625 575 607L489 125ZM413 308Q407 354 379 375T309 397Q250 397 209 355T157 251L152 219Q149 201 149 185Q149 134 175 104T252 73Q344 73 387 162L413 308Z" />
<glyph unicode="e" glyph-name="e" horiz-adv-x="494" d="M147 169Q144 156 144 143Q144 72 233 72Q272 72 301 82T362 119L417 59Q379 22 334 5T228 -12Q34 -12 34 129Q34 141 38 169L64 315Q78 393 135 437T284 481Q370 481 420 441T471 330Q471 255 442 222T347
189H150L147 169ZM235 398T207 374T171 307L164 264H303Q334 264 348 277T363 328Q363 362 342 380T279 398Q235 398 207 374Z" />
<glyph unicode="f" glyph-name="f" horiz-adv-x="332" d="M307 647T278 619T240 537L228 470H363L347 385H213L145 0H36L131 537Q147 631 208 681T368 732H408L394 647H353Q307 647 278 619Z" />
<glyph unicode="g" glyph-name="g" horiz-adv-x="585" d="M582 418Q555 399 544 385T528 345L458 -53Q442 -143 386 -187T216 -232H88L102 -147H230Q279 -147 309 -126T349 -53L369 62Q310 0 214 0Q132 0 87 48T41 180Q41 207 45 231L48 251Q58 313 90 366T175
450T293 482Q395 482 435 403Q446 429 466 448T518 482L582 418ZM345 85T388 173L412 308Q406 354 379 375T309 397Q250 397 209 355T157 251L154 231Q151 212 151 195Q151 145 177 115T253 85Q345 85 388 173Z" />
<glyph unicode="h" glyph-name="h" horiz-adv-x="552" d="M433 482T469 450T505 358Q505 340 502 320L446 0H337L391 309Q393 318 393 333Q393 364 377 380T328 397Q284 397 252 368T197 295L145 0H36L143 605Q144 611 144 621Q144 637 137 650T113 678L186 741Q223
720 239 696T255 639Q255 625 252 607L217 409Q278 482 370 482Q433 482 469 450Z" />
<glyph unicode="i" glyph-name="i" horiz-adv-x="269" d="M164 547T149 563T133 602Q133 631 157 654T212 678Q235 678 250 663T266 624Q266 595 242 571T188 547Q164 547 149 563ZM88 10T72 34T55 92Q55 107 58 123L119 470H228L168 125Q166 113 166 108Q166
93 173 80T197 52L124 -12Q88 10 72 34Z" />
<glyph unicode="j" glyph-name="j" horiz-adv-x="264" d="M173 547T158 563T142 602Q142 631 166 654T220 678Q244 678 259 663T275 624Q275 595 251 571T196 547Q173 547 158 563ZM-132 -147H-84Q-28 -147 0 -122T38 -37L128 470H237L147 -37Q135 -105 109 -147T34
-210T-97 -232H-147L-132 -147Z" />
<glyph unicode="k" glyph-name="k" horiz-adv-x="534" d="M403 295T423 260T449 161L464 0H353L337 161Q334 193 320 209T264 230L172 151L145 0H36L143 605Q144 611 144 621Q144 637 137 650T113 678L186 741Q223 720 239 696T255 639Q255 625 252 607L195 284L410
470H544L353 307Q403 295 423 260Z" />
<glyph unicode="l" glyph-name="l" horiz-adv-x="263" d="M87 10T71 34T54 92Q54 107 57 123L143 605Q144 610 144 620Q144 636 137 649T113 678L186 742Q221 721 237 697T254 640Q254 625 251 607L167 125Q166 119 166 109Q166 93 173 80T196 52L123 -12Q87 10 71 34Z" />
<glyph unicode="m" glyph-name="m" horiz-adv-x="818" d="M705 482T738 451T772 361Q772 339 768 320L711 0H602L657 309Q659 327 659 333Q659 364 645 380T604 397Q562 397 531 368T480 296L428 0H319L373 309Q376 323 376 335Q376 364 362 380T320 397Q279 397
248 368T197 296L145 0H36L97 345Q98 351 98 361Q98 377 91 390T67 418L140 482Q200 448 208 397Q273 482 366 482Q466 482 483 388Q544 482 646 482Q705 482 738 451Z" />
<glyph unicode="n" glyph-name="n" horiz-adv-x="552" d="M433 482T469 450T505 358Q505 340 502 320L446 0H338L391 309Q393 318 393 333Q393 364 377 380T328 397Q247 397 197 295L145 0H36L97 345Q98 351 98 361Q98 377 91 390T67 418L140 482Q172 464 188
444T208 397Q269 482 370 482Q433 482 469 450Z" />
<glyph unicode="o" glyph-name="o" horiz-adv-x="521" d="M137 -12T87 27T36 137Q36 154 39 172L61 298Q77 387 136 434T295 482Q387 482 436 443T485 335Q485 318 482 298L459 172Q444 83 387 36T230 -12Q137 -12 87 27ZM282 73T312 99T350 172L373 298Q375 314
375 321Q375 357 354 377T289 397Q239 397 209 371T170 298L148 172Q146 163 146 147Q146 112 167 93T232 73Q282 73 312 99Z" />
<glyph unicode="p" glyph-name="p" horiz-adv-x="585" d="M457 482T501 432T546 300Q546 274 542 251L537 219Q522 120 461 54T302 -12Q250 -12 212 6T154 55L106 -219H-3L97 345Q98 351 98 361Q98 378 91 390T67 418L140 482Q169 465 186 446T208 401Q273 482
374 482Q457 482 501 432ZM436 269T436 285Q436 335 411 366T334 397Q241 397 198 306L173 164Q179 118 209 96T285 73Q344 73 381 114T428 219L433 251Q436 269 436 285Z" />
<glyph unicode="q" glyph-name="q" horiz-adv-x="565" d="M367 55Q340 24 301 6T214 -12Q133 -12 86 37T39 170Q39 196 43 219L48 251Q58 316 91 368T176 451T296 482Q391 482 431 418L441 471H550L428 -219H319L367 55ZM344 73T387 162L413 308Q407 354 379 375T309
397Q250 397 209 355T157 251L152 219Q149 201 149 185Q149 134 175 104T252 73Q344 73 387 162Z" />
<glyph unicode="r" glyph-name="r" horiz-adv-x="408" d="M383 482T405 476T442 457L398 365Q382 376 365 382T323 388Q281 388 249 356T193 274L144 0H35L96 345Q98 357 98 362Q98 378 91 390T67 418L140 482Q174 462 190 440T208 388Q267 482 359 482Q383 482 405 476Z" />
<glyph unicode="s" glyph-name="s" horiz-adv-x="455" d="M112 -12T71 9T5 74L83 132Q104 99 127 86T190 73Q242 73 269 91T296 139Q296 163 271 174T181 198Q117 211 90 240T63 317Q63 390 116 436T263 482Q329 482 371 461T432 403L354 346Q335 372 311 384T255
397Q215 397 192 379T168 332Q168 309 189 298T243 281Q300 269 332 256T382 218T400 153Q400 75 347 32T185 -12Q112 -12 71 9Z" />
<glyph unicode="t" glyph-name="t" horiz-adv-x="350" d="M169 163Q166 147 166 133Q166 106 179 94T219 82H290L275 -2H204Q129 -2 92 23T55 112Q55 131 60 163L129 555Q130 561 130 571Q130 587 123 600T100 628L174 692Q210 672 226 648T242 591Q242 581 238
557L223 470H358L343 385H208L169 163Z" />
<glyph unicode="u" glyph-name="u" horiz-adv-x="558" d="M459 112T459 108Q459 93 466 81T491 54L409 -10Q379 8 365 28T349 75Q321 36 281 12T189 -12Q125 -12 86 22T47 118Q47 134 50 152L106 470H215L161 161Q159 145 159 139Q159 108 177 91T229 73Q274 73
307 104T362 183L412 470H521L461 126Q459 112 459 108Z" />
<glyph unicode="v" glyph-name="v" horiz-adv-x="492" d="M159 -12T134 13T101 94L51 470H157L203 104Q205 87 208 80T219 73Q226 73 231 80T244 104L418 470H523L342 94Q313 34 284 11T208 -12Q159 -12 134 13Z" />
<glyph unicode="w" glyph-name="w" horiz-adv-x="659" d="M59 470H158L173 97Q182 101 188 108T204 132L365 435L420 132Q424 105 437 98L583 470H682L492 0H449Q400 0 378 20T348 93L328 227L261 93Q232 37 204 19T127 0H84L59 470Z" />
<glyph unicode="x" glyph-name="x" horiz-adv-x="452" d="M287 231L401 0H291L211 162L80 0H-31L169 246L59 470H169L245 316L371 470H481L287 231Z" />
<glyph unicode="y" glyph-name="y" horiz-adv-x="551" d="M535 470L443 -50Q427 -141 370 -185T201 -229H73L88 -144H216Q268 -144 296 -122T334 -50L355 69Q326 31 286 11T196 -10Q128 -10 91 22T54 115Q54 134 57 153L91 345Q93 357 93 363Q93 378 86 390T62
418L135 482Q171 461 187 437T203 380Q203 365 200 347L168 163Q166 147 166 140Q166 109 183 92T234 74Q284 74 319 106T377 192L426 470H535Z" />
<glyph unicode="z" glyph-name="z" horiz-adv-x="458" d="M448 388L105 99Q109 84 131 84H406L391 0H93Q1 0 1 60Q1 66 3 78L10 123L322 386H67L82 470H463L448 388Z" />
<glyph unicode="{" glyph-name="braceleft" horiz-adv-x="366" d="M155 -112T121 -88T87 -8Q87 16 91 37L123 213Q125 227 125 232Q125 265 104 286T48 323Q96 342 124 367T161 433L192 609Q205 685 248 721T382 758H411L397 683H368Q331 683 313 666T287 609L256
433Q249 394 233 370T179 323Q201 305 211 287T221 246Q221 231 218 213L187 37Q184 22 184 10Q184 -14 197 -25T242 -37H271L257 -112H228Q155 -112 121 -88Z" />
<glyph unicode="|" glyph-name="bar" horiz-adv-x="251" d="M181 770H258L96 -147H19L181 770Z" />
<glyph unicode="}" glyph-name="braceright" horiz-adv-x="366" d="M-1 -37H29Q66 -37 84 -20T110 37L141 213Q148 251 165 276T219 323Q196 341 187 359T177 401Q177 415 180 433L211 609Q214 624 214 635Q214 660 201 671T156 683H126L139 758H169Q241 758 276
734T311 654Q311 637 306 609L275 433Q273 419 273 413Q273 380 293 360T350 323Q303 306 274 281T236 213L206 37Q192 -41 148 -76T16 -112H-14L-1 -37Z" />
<glyph unicode="~" glyph-name="asciitilde" horiz-adv-x="669" d="M55 320T103 363T231 406Q269 406 298 397T368 369Q405 352 429 345T482 337Q517 337 541 355T583 414H664Q648 346 600 304T473 261Q433 261 404 270T335 298Q301 314 276 322T221 331Q187 331
163 313T120 253H40Q55 320 103 363Z" />
<glyph unicode="&#xa0;" glyph-name="uni00A0" horiz-adv-x="269" />
<glyph unicode="&#xa1;" glyph-name="exclamdown" horiz-adv-x="284" d="M137 344T121 360T104 401Q104 433 129 457T187 482Q211 482 227 466T243 426Q243 394 218 369T162 344Q137 344 121 360ZM108 265H187L116 -230H5L108 265Z" />
<glyph unicode="&#xa2;" glyph-name="cent" horiz-adv-x="471" d="M289 80T309 92T352 127L416 66Q352 -5 250 -11L231 -120H166L185 -10Q113 -2 74 34T35 132Q35 144 39 170L62 300Q76 383 129 430T272 481L291 590H356L337 480Q438 468 475 403L389 342Q373
365 358 377T321 394L265 76Q289 80 309 92ZM145 157T145 144Q145 117 159 100T201 76L256 394Q221 387 200 363T171 300L148 170Q145 157 145 144Z" />
<glyph unicode="&#xa3;" glyph-name="sterling" horiz-adv-x="580" d="M279 239T253 184T176 87H517L501 -1H11L27 88Q96 121 133 174T170 293V308H65L76 366H163Q158 419 158 433Q158 515 190 577T281 672T419 706Q484 706 526 689T596 638L516 565Q500 593 475
607T412 621Q371 621 338 599T286 534T267 434Q267 408 273 366H439L428 308H279V305Q279 239 253 184Z" />
<glyph unicode="&#xa4;" glyph-name="currency" horiz-adv-x="513" d="M442 214T414 173L463 114L389 51L340 111Q296 89 235 89Q171 89 132 113L58 51L7 114L79 175Q69 202 69 230Q69 251 73 268L77 290Q86 343 114 384L65 444L139 507L188 447Q232 469 293 469Q357
469 396 445L469 507L521 444L449 383Q458 359 458 328Q458 311 455 290L451 268Q442 214 414 173ZM156 257T156 241Q156 205 178 186T244 166Q294 166 326 192T367 266L372 292Q374 308 374 316Q374 353 351 372T284 392Q234 392 203 366T162 292L158 266Q156
257 156 241Z" />
<glyph unicode="&#xa5;" glyph-name="yen" horiz-adv-x="595" d="M388 328H546L536 270H360L348 197H523L513 140H338L314 0H196L220 140H63L73 197H230L242 270H86L96 328H235L85 700H217L328 406L541 700H674L388 328Z" />
<glyph unicode="&#xa6;" glyph-name="brokenbar" horiz-adv-x="252" d="M182 770H259L192 392H115L182 770ZM88 235H165L98 -143H21L88 235Z" />
<glyph unicode="&#xa7;" glyph-name="section" horiz-adv-x="549" d="M417 452T465 416T513 320Q513 263 484 219T401 151Q427 122 427 78Q427 -4 371 -49T210 -94Q133 -94 94 -70T30 1L110 57Q129 22 150 7T213 -9Q322 -9 322 72Q322 100 302 111T233 136L187
149Q125 167 94 202T62 292Q62 354 92 398T177 464Q158 495 158 536Q158 620 214 666T357 712Q424 712 467 687T526 618L444 565Q426 599 406 613T353 627Q314 627 289 606T263 548Q263 522 279 507T327 481Q417 452 465 416ZM346 215T376 239T406 306Q406 325
394 339T351 367T263 400L258 402Q220 399 194 372T167 305Q167 277 185 258T243 227L290 213Q346 215 376 239Z" />
<glyph unicode="&#xa8;" glyph-name="dieresis" horiz-adv-x="600" d="M246 530T232 543T218 577Q218 602 239 622T286 643Q306 643 319 630T332 596Q332 571 312 551T266 530Q246 530 232 543ZM419 530T406 543T392 577Q392 603 412 623T459 643Q480 643 493
630T507 596Q507 571 486 551T440 530Q419 530 406 543Z" />
<glyph unicode="&#xa9;" glyph-name="copyright" horiz-adv-x="811" d="M276 -13T206 20T95 119T54 277Q54 392 109 492T262 653T483 713Q575 713 646 680T757 581T797 423Q797 307 743 207T590 47T367 -13Q276 -13 206 20ZM481 31T567 84T700 228T747 423Q747
545 676 607T482 669Q371 669 285 616T152 473T104 277Q104 157 176 94T369 31Q481 31 567 84ZM295 107T247 144T198 250Q198 268 201 289L224 419Q240 506 301 553T462 601Q526 601 571 581T637 522L552 461Q531 491 510 503T453 516Q403 516 372 491T333 419L310
289Q308 280 308 265Q308 192 396 192Q431 192 459 205T515 246L579 185Q543 146 496 127T386 107Q295 107 247 144Z" />
<glyph unicode="&#xaa;" glyph-name="ordfeminine" horiz-adv-x="425" d="M399 430Q398 425 398 417Q398 405 403 396T422 374L366 325Q323 348 314 382Q264 325 185 325Q137 325 108 347T79 411Q79 479 123 509T245 548L290 553Q314 555 325 560T341 577Q342
582 342 591Q342 616 327 630T283 644Q248 644 228 635T182 603L130 644Q159 675 194 689T292 704Q357 704 392 677T427 600Q427 583 425 574L399 430ZM259 387T287 409T321 465L328 505Q313 498 276 495L240 492Q162 485 162 428Q162 387 213 387Q259 387 287
409Z" />
<glyph unicode="&#xab;" glyph-name="guillemotleft" horiz-adv-x="560" d="M205 231T249 182T306 83H225Q211 133 160 183T44 260Q120 288 187 337T287 437H368Q337 387 276 338T151 260Q205 231 249 182ZM512 387T451 338T326 260Q380 231 424 182T481 83H400Q386
133 335 183T219 260Q293 289 362 338T462 437H543Q512 387 451 338Z" />
<glyph unicode="&#xac;" glyph-name="logicalnot" horiz-adv-x="643" d="M504 277H64L77 350H606L566 124H477L504 277Z" />
<glyph unicode="&#xad;" glyph-name="uni00AD" horiz-adv-x="420" d="M58 287H381L368 214H45L58 287Z" />
<glyph unicode="&#xae;" glyph-name="registered" horiz-adv-x="507" d="M181 274T130 320T78 449Q78 520 111 579T203 674T334 710Q419 710 470 664T521 535Q521 465 489 405T398 310T265 274Q181 274 130 320ZM331 302T382 333T461 418T490 535Q490 607 449
645T333 683Q269 683 218 652T137 567T108 449Q108 378 150 340T265 302Q331 302 382 333ZM223 625H342Q379 625 401 609T423 559Q423 527 405 506T353 479Q369 474 374 460T382 416L387 363H332L327 424Q325 444 319 452T293 461H246L229 363H177L223 625ZM315
502Q340 502 354 515T368 554Q368 570 358 576T329 583H267L253 502H315Z" />
<glyph unicode="&#xaf;" glyph-name="overscore" horiz-adv-x="600" d="M213 632H527L513 554H199L213 632Z" />
<glyph unicode="&#xb0;" glyph-name="degree" horiz-adv-x="335" d="M158 462T126 491T94 571Q94 640 136 683T248 726Q302 726 334 696T367 616Q367 547 325 505T212 462Q158 462 126 491ZM255 522T278 546T301 609Q301 635 286 650T242 665Q205 665 182 641T159
577Q159 552 175 537T218 522Q255 522 278 546Z" />
<glyph unicode="&#xb1;" glyph-name="plusminus" horiz-adv-x="683" d="M650 402L635 319H400L369 143H280L311 319H77L92 402H326L357 578H446L415 402H650ZM34 73H592L579 0H21L34 73Z" />
<glyph unicode="&#xb2;" glyph-name="uni00B2" horiz-adv-x="399" d="M70 378L210 483Q276 532 303 561T331 625Q331 649 313 662T266 676Q203 676 159 633L133 689Q167 718 203 729T277 740Q334 740 374 715T414 636Q414 593 387 553T305 472L179 378H379L368
314H59L70 378Z" />
<glyph unicode="&#xb3;" glyph-name="uni00B3" horiz-adv-x="419" d="M359 526T378 504T397 449Q397 386 347 347T214 308Q173 308 134 321T71 371L124 421Q142 396 164 384T221 372Q264 372 290 391T316 445Q316 503 225 503Q204 503 179 500L178 556Q263 558
300 574T337 630Q337 652 320 664T276 676Q245 676 219 668T169 638L141 687Q175 718 211 729T287 740Q343 740 381 716T420 643Q420 602 395 574T329 535Q359 526 378 504Z" />
<glyph unicode="&#xb4;" glyph-name="acute" horiz-adv-x="600" d="M411 692H526L392 539H303L411 692Z" />
<glyph unicode="&#xb5;" glyph-name="uni00B5" horiz-adv-x="570" d="M471 112T471 108Q471 93 478 81T503 54L421 -10Q392 7 378 27T360 72Q335 33 299 11T219 -12Q175 -12 148 17L104 -232H-5L62 149V151L118 470H227L172 155Q171 150 171 142Q171 110 189 92T241
74Q322 74 374 181L424 470H533L473 126Q471 112 471 108Z" />
<glyph unicode="&#xb6;" glyph-name="paragraph" horiz-adv-x="548" d="M283 338H225Q193 338 161 351T106 396T83 478Q83 537 110 588T185 669T288 699H543L408 -70H346L471 644H398L273 -70H211L283 338Z" />
<glyph unicode="&#xb7;" glyph-name="middot" horiz-adv-x="273" d="M106 222T88 240T69 285Q69 322 97 350T163 378Q191 378 209 360T227 313Q227 278 200 250T136 222Q106 222 88 240Z" />
<glyph unicode="&#xb8;" glyph-name="cedilla" horiz-adv-x="600" d="M349 -46T349 -108Q349 -163 311 -192T201 -222Q146 -222 103 -199L132 -138Q165 -156 200 -156Q233 -156 248 -148T263 -120Q263 -93 209 -93Q201 -93 177 -95L220 6H299L277 -39Q349 -46 349 -108Z" />
<glyph unicode="&#xb9;" glyph-name="uni00B9" horiz-adv-x="314" d="M314 735L240 314H159L219 657L110 599L123 673L240 735H314Z" />
<glyph unicode="&#xba;" glyph-name="ordmasculine" horiz-adv-x="422" d="M164 325T126 354T88 437Q88 451 91 466L108 563Q120 631 166 667T290 704Q359 704 396 675T433 594Q433 580 430 563L413 466Q401 398 358 362T235 325Q164 325 126 354ZM277 390T299
410T328 466L346 563Q348 577 348 582Q348 608 332 623T283 638Q245 638 222 619T193 563L175 466Q173 454 173 448Q173 421 190 406T239 390Q277 390 299 410Z" />
<glyph unicode="&#xbb;" glyph-name="guillemotright" horiz-adv-x="560" d="M185 388T235 338T350 260Q275 232 207 183T107 83H26Q57 132 118 182T243 260Q189 288 146 337T88 437H169Q185 388 235 338ZM358 386T408 337T524 260Q449 232 381 183T282 83H200Q231
132 291 182T416 260Q362 288 319 337T262 437H344Q358 386 408 337Z" />
<glyph unicode="&#xbc;" glyph-name="onequarter" horiz-adv-x="897" d="M314 735L240 314H159L219 657L110 599L123 673L240 735H314ZM652 700H730L189 0H111L652 700ZM708 44H503L484 108L743 391H841L791 108H851L840 44H780L768 -30H695L708 44ZM719 108L756
317L563 108H719Z" />
<glyph unicode="&#xbd;" glyph-name="onehalf" horiz-adv-x="881" d="M314 735L240 314H159L219 657L110 599L123 673L240 735H314ZM652 700H730L189 0H111L652 700ZM492 34L632 139Q698 188 725 217T753 281Q753 305 735 318T688 332Q625 332 581 289L555 345Q589
374 625 385T699 396Q756 396 796 371T836 292Q836 249 809 209T727 128L601 34H801L790 -30H481L492 34Z" />
<glyph unicode="&#xbe;" glyph-name="threequarters" horiz-adv-x="1002" d="M359 526T378 504T397 449Q397 386 347 347T214 308Q173 308 134 321T71 371L124 421Q142 396 164 384T221 372Q264 372 290 391T316 445Q316 503 225 503Q204 503 179 500L178 556Q263
558 300 574T337 630Q337 652 320 664T276 676Q245 676 219 668T169 638L141 687Q175 718 211 729T287 740Q343 740 381 716T420 643Q420 602 395 574T329 535Q359 526 378 504ZM757 700H835L294 0H216L757 700ZM813 44H608L589 108L848 391H946L896 108H956L945
44H885L873 -30H800L813 44ZM824 108L861 317L668 108H824Z" />
<glyph unicode="&#xbf;" glyph-name="questiondown" horiz-adv-x="527" d="M260 344T244 360T227 401Q227 433 252 457T309 482Q334 482 350 466T367 425Q367 394 342 369T284 344Q260 344 244 360ZM98 -239T45 -199T-9 -90Q-9 -19 22 27T98 109Q162 160 183 181T209
221L216 265H325L317 221Q313 198 303 181T269 142T195 78Q155 46 129 9T102 -81Q102 -115 127 -134T201 -154Q251 -154 284 -129T342 -44L436 -82Q410 -158 349 -198T195 -239Q98 -239 45 -199Z" />
<glyph unicode="&#xc0;" glyph-name="Agrave" horiz-adv-x="680" d="M475 184H187L100 0H-18L256 567Q296 649 331 680T423 712Q480 712 505 680T541 567L615 0H497L475 184ZM464 272L429 565Q427 585 422 594T405 603Q394 603 386 594T368 565L229 272H464ZM310
922H425L478 769H389L310 922Z" />
<glyph unicode="&#xc1;" glyph-name="Aacute" horiz-adv-x="680" d="M475 184H187L100 0H-18L256 567Q296 649 331 680T423 712Q480 712 505 680T541 567L615 0H497L475 184ZM464 272L429 565Q427 585 422 594T405 603Q394 603 386 594T368 565L229 272H464ZM490
922H605L471 769H383L490 922Z" />
<glyph unicode="&#xc2;" glyph-name="Acircumflex" horiz-adv-x="680" d="M475 184H187L100 0H-18L256 567Q296 649 331 680T423 712Q480 712 505 680T541 567L615 0H497L475 184ZM464 272L429 565Q427 585 422 594T405 603Q394 603 386 594T368 565L229 272H464ZM297
795T340 838T414 925H504Q520 881 548 837T600 769H503Q471 802 446 851Q414 809 361 769H263Q297 795 340 838Z" />
<glyph unicode="&#xc3;" glyph-name="Atilde" horiz-adv-x="680" d="M475 184H187L100 0H-18L256 567Q296 649 331 680T423 712Q480 712 505 680T541 567L615 0H497L475 184ZM464 272L429 565Q427 585 422 594T405 603Q394 603 386 594T368 565L229 272H464ZM278
828T311 865T394 902Q414 902 429 896T465 878Q481 869 490 865T511 861Q526 861 535 872T553 910H624Q610 856 577 818T501 780Q481 780 466 786T430 804Q414 813 405 817T384 821Q369 821 358 810T338 772H266Q278 828 311 865Z" />
<glyph unicode="&#xc4;" glyph-name="Adieresis" horiz-adv-x="680" d="M475 184H187L100 0H-18L256 567Q296 649 331 680T423 712Q480 712 505 680T541 567L615 0H497L475 184ZM464 272L429 565Q427 585 422 594T405 603Q394 603 386 594T368 565L229 272H464ZM325
764T312 777T298 811Q298 836 318 856T365 876Q385 876 398 863T412 829Q412 804 392 784T346 764Q325 764 312 777ZM498 764T485 777T472 810Q472 836 492 856T539 876Q559 876 573 863T587 829Q587 804 566 784T519 764Q498 764 485 777Z" />
<glyph unicode="&#xc5;" glyph-name="Aring" horiz-adv-x="680" d="M475 184H187L100 0H-18L256 567Q296 649 331 680T423 712Q480 712 505 680T541 567L615 0H497L475 184ZM464 272L429 565Q427 585 422 594T405 603Q394 603 386 594T368 565L229 272H464ZM388
757T364 779T340 841Q340 891 376 923T466 956Q510 956 534 933T558 872Q558 822 522 790T432 757Q388 757 364 779ZM465 811T480 827T495 867Q495 884 485 893T457 902Q434 902 419 886T403 846Q403 829 413 820T441 811Q465 811 480 827Z" />
<glyph unicode="&#xc6;" glyph-name="AE" horiz-adv-x="1031" d="M758 607T723 579T675 494L658 396H972L956 304H641L629 233H628L625 215Q622 196 622 180Q622 136 648 115T728 93H968L952 0H712Q502 0 502 158Q502 175 503 184H243L113 0H-18L373 555Q412 611
440 641T501 685T579 700Q639 700 667 662Q734 700 835 700H1071L1055 607H819Q758 607 723 579ZM304 272H517L547 440L567 555Q568 560 568 568Q568 579 563 585T550 591Q536 591 527 583T503 554L304 272Z" />
<glyph unicode="&#xc7;" glyph-name="Ccedilla" horiz-adv-x="635" d="M384 81T428 103T515 176L588 114Q537 53 478 23T335 -12L321 -39Q358 -43 376 -62T394 -111Q394 -164 356 -193T248 -222Q189 -222 148 -199L177 -138Q191 -146 209 -151T244 -156Q277 -156
292 -148T307 -120Q307 -93 254 -93Q246 -93 222 -95L258 -9Q160 2 108 53T55 188Q55 211 60 243L98 457Q120 582 201 647T417 712Q511 712 573 681T662 587L567 528Q543 576 509 597T410 619Q245 619 216 457L178 243Q174 222 174 199Q174 81 317 81Q384 81 428
103Z" />
<glyph unicode="&#xc8;" glyph-name="Egrave" horiz-adv-x="577" d="M152 0T100 39T47 158Q47 184 53 215L101 485Q119 591 184 645T376 700H618L601 607H365Q303 607 267 579T219 485L203 396H518L502 304H187L171 215Q167 189 167 179Q167 135 193 114T274 93H514L498
0H259Q152 0 100 39ZM309 922H424L477 769H388L309 922Z" />
<glyph unicode="&#xc9;" glyph-name="Eacute" horiz-adv-x="577" d="M152 0T100 39T47 158Q47 184 53 215L101 485Q119 591 184 645T376 700H618L601 607H365Q303 607 267 579T219 485L203 396H518L502 304H187L171 215Q167 189 167 179Q167 135 193 114T274 93H514L498
0H259Q152 0 100 39ZM489 922H604L470 769H382L489 922Z" />
<glyph unicode="&#xca;" glyph-name="Ecircumflex" horiz-adv-x="577" d="M152 0T100 39T47 158Q47 184 53 215L101 485Q119 591 184 645T376 700H618L601 607H365Q303 607 267 579T219 485L203 396H518L502 304H187L171 215Q167 189 167 179Q167 135 193 114T274
93H514L498 0H259Q152 0 100 39ZM296 795T339 838T413 925H503Q519 881 547 837T599 769H502Q470 802 445 851Q413 809 360 769H262Q296 795 339 838Z" />
<glyph unicode="&#xcb;" glyph-name="Edieresis" horiz-adv-x="577" d="M152 0T100 39T47 158Q47 184 53 215L101 485Q119 591 184 645T376 700H618L601 607H365Q303 607 267 579T219 485L203 396H518L502 304H187L171 215Q167 189 167 179Q167 135 193 114T274
93H514L498 0H259Q152 0 100 39ZM324 764T311 777T297 811Q297 836 317 856T364 876Q384 876 397 863T411 829Q411 804 391 784T345 764Q324 764 311 777ZM497 764T484 777T471 810Q471 836 491 856T538 876Q558 876 572 863T586 829Q586 804 565 784T518 764Q497
764 484 777Z" />
<glyph unicode="&#xcc;" glyph-name="Igrave" horiz-adv-x="295" d="M170 700H288L165 0H47L170 700ZM119 922H234L287 769H198L119 922Z" />
<glyph unicode="&#xcd;" glyph-name="Iacute" horiz-adv-x="295" d="M170 700H288L165 0H47L170 700ZM299 922H414L280 769H192L299 922Z" />
<glyph unicode="&#xce;" glyph-name="Icircumflex" horiz-adv-x="295" d="M170 700H288L165 0H47L170 700ZM106 795T149 838T223 925H313Q329 881 357 837T409 769H312Q280 802 255 851Q223 809 170 769H72Q106 795 149 838Z" />
<glyph unicode="&#xcf;" glyph-name="Idieresis" horiz-adv-x="295" d="M170 700H288L165 0H47L170 700ZM134 764T121 777T107 811Q107 836 127 856T174 876Q194 876 207 863T221 829Q221 804 201 784T155 764Q134 764 121 777ZM307 764T294 777T281 810Q281 836
301 856T348 876Q368 876 382 863T396 829Q396 804 375 784T328 764Q307 764 294 777Z" />
<glyph unicode="&#xd0;" glyph-name="Eth" horiz-adv-x="708" d="M555 700T622 640T689 457Q689 313 645 211T516 54T311 0H47L102 312H18L33 393H116L170 700H419Q555 700 622 640ZM437 93T504 188T571 454Q571 533 532 570T411 607H272L234 393H418L403 312H220L181
93H318Q437 93 504 188Z" />
<glyph unicode="&#xd1;" glyph-name="Ntilde" horiz-adv-x="728" d="M734 700L636 145Q624 73 588 37T488 0H405L249 515L158 0H47L170 700H305L485 101H489Q505 101 513 114T529 162L623 700H734ZM308 828T341 865T424 902Q444 902 459 896T495 878Q511 869 520
865T541 861Q556 861 565 872T583 910H654Q640 856 607 818T531 780Q511 780 496 786T460 804Q444 813 435 817T414 821Q399 821 388 810T368 772H296Q308 828 341 865Z" />
<glyph unicode="&#xd2;" glyph-name="Ograve" horiz-adv-x="681" d="M184 -12T120 39T55 186Q55 218 60 243L97 457Q120 583 200 647T415 712Q536 712 601 660T667 513Q667 482 662 457L624 243Q602 116 523 52T307 -12Q184 -12 120 39ZM393 81T443 122T506 243L544
457Q548 477 548 498Q548 557 512 588T408 619Q329 619 279 577T215 457L178 243Q174 223 174 202Q174 143 210 112T313 81Q393 81 443 122ZM307 922H422L475 769H386L307 922Z" />
<glyph unicode="&#xd3;" glyph-name="Oacute" horiz-adv-x="681" d="M184 -12T120 39T55 186Q55 218 60 243L97 457Q120 583 200 647T415 712Q536 712 601 660T667 513Q667 482 662 457L624 243Q602 116 523 52T307 -12Q184 -12 120 39ZM393 81T443 122T506 243L544
457Q548 477 548 498Q548 557 512 588T408 619Q329 619 279 577T215 457L178 243Q174 223 174 202Q174 143 210 112T313 81Q393 81 443 122ZM487 922H602L468 769H380L487 922Z" />
<glyph unicode="&#xd4;" glyph-name="Ocircumflex" horiz-adv-x="681" d="M184 -12T120 39T55 186Q55 218 60 243L97 457Q120 583 200 647T415 712Q536 712 601 660T667 513Q667 482 662 457L624 243Q602 116 523 52T307 -12Q184 -12 120 39ZM393 81T443 122T506
243L544 457Q548 477 548 498Q548 557 512 588T408 619Q329 619 279 577T215 457L178 243Q174 223 174 202Q174 143 210 112T313 81Q393 81 443 122ZM294 795T337 838T411 925H501Q517 881 545 837T597 769H500Q468 802 443 851Q411 809 358 769H260Q294 795 337
838Z" />
<glyph unicode="&#xd5;" glyph-name="Otilde" horiz-adv-x="681" d="M184 -12T120 39T55 186Q55 218 60 243L97 457Q120 583 200 647T415 712Q536 712 601 660T667 513Q667 482 662 457L624 243Q602 116 523 52T307 -12Q184 -12 120 39ZM393 81T443 122T506 243L544
457Q548 477 548 498Q548 557 512 588T408 619Q329 619 279 577T215 457L178 243Q174 223 174 202Q174 143 210 112T313 81Q393 81 443 122ZM275 828T308 865T391 902Q411 902 426 896T462 878Q478 869 487 865T508 861Q523 861 532 872T550 910H621Q607 856 574
818T498 780Q478 780 463 786T427 804Q411 813 402 817T381 821Q366 821 355 810T335 772H263Q275 828 308 865Z" />
<glyph unicode="&#xd6;" glyph-name="Odieresis" horiz-adv-x="681" d="M184 -12T120 39T55 186Q55 218 60 243L97 457Q120 583 200 647T415 712Q536 712 601 660T667 513Q667 482 662 457L624 243Q602 116 523 52T307 -12Q184 -12 120 39ZM393 81T443 122T506
243L544 457Q548 477 548 498Q548 557 512 588T408 619Q329 619 279 577T215 457L178 243Q174 223 174 202Q174 143 210 112T313 81Q393 81 443 122ZM322 764T309 777T295 811Q295 836 315 856T362 876Q382 876 395 863T409 829Q409 804 389 784T343 764Q322 764
309 777ZM495 764T482 777T469 810Q469 836 489 856T536 876Q556 876 570 863T584 829Q584 804 563 784T516 764Q495 764 482 777Z" />
<glyph unicode="&#xd7;" glyph-name="multiply" horiz-adv-x="518" d="M330 300L469 132L399 72L260 241L62 72L14 132L211 300L73 468L143 527L281 359L479 527L528 468L330 300Z" />
<glyph unicode="&#xd8;" glyph-name="Oslash" horiz-adv-x="681" d="M620 643Q667 594 667 512Q667 489 662 457L624 243Q602 116 523 52T307 -12Q235 -12 182 6L129 -70H42L118 41Q55 91 55 186Q55 218 60 243L97 457Q120 583 200 647T415 712Q502 712 561 685L620
770H707L620 643ZM174 223T174 202Q174 169 187 141L501 596Q466 619 408 619Q329 619 279 577T215 457L178 243Q174 223 174 202ZM548 477T548 498Q548 520 544 533L241 93Q271 81 313 81Q393 81 443 122T506 243L544 457Q548 477 548 498Z" />
<glyph unicode="&#xd9;" glyph-name="Ugrave" horiz-adv-x="673" d="M183 -12T118 34T53 163Q53 174 57 202L145 700H263L175 202Q173 193 173 176Q173 129 207 105T309 80Q384 80 429 111T485 202L573 700H691L603 202Q585 100 509 44T303 -12Q183 -12 118 34ZM307
922H422L475 769H386L307 922Z" />
<glyph unicode="&#xda;" glyph-name="Uacute" horiz-adv-x="673" d="M183 -12T118 34T53 163Q53 174 57 202L145 700H263L175 202Q173 193 173 176Q173 129 207 105T309 80Q384 80 429 111T485 202L573 700H691L603 202Q585 100 509 44T303 -12Q183 -12 118 34ZM487
922H602L468 769H380L487 922Z" />
<glyph unicode="&#xdb;" glyph-name="Ucircumflex" horiz-adv-x="673" d="M183 -12T118 34T53 163Q53 174 57 202L145 700H263L175 202Q173 193 173 176Q173 129 207 105T309 80Q384 80 429 111T485 202L573 700H691L603 202Q585 100 509 44T303 -12Q183 -12 118
34ZM294 795T337 838T411 925H501Q517 881 545 837T597 769H500Q468 802 443 851Q411 809 358 769H260Q294 795 337 838Z" />
<glyph unicode="&#xdc;" glyph-name="Udieresis" horiz-adv-x="673" d="M183 -12T118 34T53 163Q53 174 57 202L145 700H263L175 202Q173 193 173 176Q173 129 207 105T309 80Q384 80 429 111T485 202L573 700H691L603 202Q585 100 509 44T303 -12Q183 -12 118
34ZM322 764T309 777T295 811Q295 836 315 856T362 876Q382 876 395 863T409 829Q409 804 389 784T343 764Q322 764 309 777ZM495 764T482 777T469 810Q469 836 489 856T536 876Q556 876 570 863T584 829Q584 804 563 784T516 764Q495 764 482 777Z" />
<glyph unicode="&#xdd;" glyph-name="Yacute" horiz-adv-x="595" d="M247 298L85 700H217L328 406L541 700H674L365 298L314 0H196L247 298ZM447 922H562L428 769H340L447 922Z" />
<glyph unicode="&#xde;" glyph-name="Thorn" horiz-adv-x="633" d="M170 700H288L265 567H423Q636 567 636 386Q636 309 602 252T507 165T363 134H189L165 0H47L170 700ZM376 227Q441 227 479 270T518 382Q518 428 493 451T419 475H249L206 227H376Z" />
<glyph unicode="&#xdf;" glyph-name="germandbls" horiz-adv-x="634" d="M590 352T590 276Q590 259 588 250L572 156Q557 71 500 30T342 -12Q279 -12 232 9L248 100Q288 78 342 78Q395 78 425 100T464 164L479 250Q481 262 481 267Q481 302 455 320T379 338H311L326
423H392Q449 423 484 454T520 538Q520 580 490 602T404 625Q334 625 293 586T238 464L156 0H47L129 464Q150 589 218 649T411 709Q514 709 572 668T630 552Q630 491 599 448T511 383Q590 352 590 276Z" />
<glyph unicode="&#xe0;" glyph-name="agrave" horiz-adv-x="530" d="M442 125Q440 111 440 106Q440 90 447 79T471 52L398 -12Q342 20 332 64Q304 30 263 9T167 -12Q101 -12 64 19T26 106Q26 190 82 228T240 278L299 284Q334 288 348 296T368 324Q371 363 352
384T290 405Q245 405 218 393T158 351L92 404Q129 444 177 463T304 482Q388 482 433 447T478 347Q478 330 475 312L442 125ZM259 68T296 96T341 170L351 224Q329 216 282 211L236 206Q188 201 160 180T132 119Q132 68 199 68Q259 68 296 96ZM205 692H320L373 539H284L205
692Z" />
<glyph unicode="&#xe1;" glyph-name="aacute" horiz-adv-x="530" d="M442 125Q440 111 440 106Q440 90 447 79T471 52L398 -12Q342 20 332 64Q304 30 263 9T167 -12Q101 -12 64 19T26 106Q26 190 82 228T240 278L299 284Q334 288 348 296T368 324Q371 363 352
384T290 405Q245 405 218 393T158 351L92 404Q129 444 177 463T304 482Q388 482 433 447T478 347Q478 330 475 312L442 125ZM259 68T296 96T341 170L351 224Q329 216 282 211L236 206Q188 201 160 180T132 119Q132 68 199 68Q259 68 296 96ZM385 692H500L366 539H278L385
692Z" />
<glyph unicode="&#xe2;" glyph-name="acircumflex" horiz-adv-x="530" d="M442 125Q440 111 440 106Q440 90 447 79T471 52L398 -12Q342 20 332 64Q304 30 263 9T167 -12Q101 -12 64 19T26 106Q26 190 82 228T240 278L299 284Q334 288 348 296T368 324Q371 363
352 384T290 405Q245 405 218 393T158 351L92 404Q129 444 177 463T304 482Q388 482 433 447T478 347Q478 330 475 312L442 125ZM259 68T296 96T341 170L351 224Q329 216 282 211L236 206Q188 201 160 180T132 119Q132 68 199 68Q259 68 296 96ZM192 565T235 608T309
695H399Q415 651 443 607T495 539H398Q366 572 341 621Q309 579 256 539H158Q192 565 235 608Z" />
<glyph unicode="&#xe3;" glyph-name="atilde" horiz-adv-x="530" d="M442 125Q440 111 440 106Q440 90 447 79T471 52L398 -12Q342 20 332 64Q304 30 263 9T167 -12Q101 -12 64 19T26 106Q26 190 82 228T240 278L299 284Q334 288 348 296T368 324Q371 363 352
384T290 405Q245 405 218 393T158 351L92 404Q129 444 177 463T304 482Q388 482 433 447T478 347Q478 330 475 312L442 125ZM259 68T296 96T341 170L351 224Q329 216 282 211L236 206Q188 201 160 180T132 119Q132 68 199 68Q259 68 296 96ZM173 598T206 635T289
672Q309 672 324 666T360 648Q376 639 385 635T406 631Q421 631 430 642T448 680H519Q505 626 472 588T396 550Q376 550 361 556T325 574Q309 583 300 587T279 591Q264 591 253 580T233 542H161Q173 598 206 635Z" />
<glyph unicode="&#xe4;" glyph-name="adieresis" horiz-adv-x="530" d="M442 125Q440 111 440 106Q440 90 447 79T471 52L398 -12Q342 20 332 64Q304 30 263 9T167 -12Q101 -12 64 19T26 106Q26 190 82 228T240 278L299 284Q334 288 348 296T368 324Q371 363 352
384T290 405Q245 405 218 393T158 351L92 404Q129 444 177 463T304 482Q388 482 433 447T478 347Q478 330 475 312L442 125ZM259 68T296 96T341 170L351 224Q329 216 282 211L236 206Q188 201 160 180T132 119Q132 68 199 68Q259 68 296 96ZM220 534T207 547T193
581Q193 606 213 626T260 646Q280 646 293 633T307 599Q307 574 287 554T241 534Q220 534 207 547ZM393 534T380 547T367 580Q367 606 387 626T434 646Q454 646 468 633T482 599Q482 574 461 554T414 534Q393 534 380 547Z" />
<glyph unicode="&#xe5;" glyph-name="aring" horiz-adv-x="530" d="M442 125Q440 111 440 106Q440 90 447 79T471 52L398 -12Q342 20 332 64Q304 30 263 9T167 -12Q101 -12 64 19T26 106Q26 190 82 228T240 278L299 284Q334 288 348 296T368 324Q371 363 352 384T290
405Q245 405 218 393T158 351L92 404Q129 444 177 463T304 482Q388 482 433 447T478 347Q478 330 475 312L442 125ZM259 68T296 96T341 170L351 224Q329 216 282 211L236 206Q188 201 160 180T132 119Q132 68 199 68Q259 68 296 96ZM283 527T259 549T235 611Q235
661 271 693T361 726Q405 726 429 703T453 642Q453 592 417 560T327 527Q283 527 259 549ZM360 581T375 597T390 637Q390 654 380 663T352 672Q329 672 314 656T298 616Q298 599 308 590T336 581Q360 581 375 597Z" />
<glyph unicode="&#xe6;" glyph-name="ae" horiz-adv-x="799" d="M449 169Q446 156 446 143Q446 73 537 73Q576 73 604 84T664 120L720 59Q647 -12 531 -12Q407 -12 367 63Q329 27 282 8T169 -12Q101 -12 64 19T26 106Q26 190 82 228T240 278L300 284Q334 287 348
295T367 322Q368 327 368 336Q368 369 349 387T291 405Q245 405 218 393T158 351L93 404Q130 444 176 463T305 482Q355 482 392 468T449 429Q505 480 591 480Q676 480 726 443T777 334Q777 260 746 228T651 196H455L449 169ZM467 264H608Q640 264 654 277T668 327Q668
361 646 378T583 396Q540 396 511 371T474 306L467 264ZM259 68T296 96T341 170L351 224Q329 216 282 211L236 206Q188 201 160 180T132 119Q132 68 199 68Q259 68 296 96Z" />
<glyph unicode="&#xe7;" glyph-name="ccedilla" horiz-adv-x="471" d="M269 73T296 86T352 127L416 66Q352 -4 253 -11L239 -40Q311 -48 311 -111Q311 -164 273 -193T165 -222Q106 -222 65 -199L94 -138Q108 -146 126 -151T161 -156Q194 -156 209 -148T225 -120Q225
-93 171 -93Q163 -93 139 -95L176 -8Q108 2 72 38T35 132Q35 144 39 170L62 300Q77 388 136 435T293 482Q360 482 406 462T475 403L389 342Q368 372 347 384T289 397Q240 397 210 372T171 300L148 170Q145 157 145 144Q145 109 167 91T233 73Q269 73 296 86Z" />
<glyph unicode="&#xe8;" glyph-name="egrave" horiz-adv-x="494" d="M147 169Q144 156 144 143Q144 72 233 72Q272 72 301 82T362 119L417 59Q379 22 334 5T228 -12Q34 -12 34 129Q34 141 38 169L64 315Q78 393 135 437T284 481Q370 481 420 441T471 330Q471 255
442 222T347 189H150L147 169ZM235 398T207 374T171 307L164 264H303Q334 264 348 277T363 328Q363 362 342 380T279 398Q235 398 207 374ZM177 692H292L345 539H256L177 692Z" />
<glyph unicode="&#xe9;" glyph-name="eacute" horiz-adv-x="494" d="M147 169Q144 156 144 143Q144 72 233 72Q272 72 301 82T362 119L417 59Q379 22 334 5T228 -12Q34 -12 34 129Q34 141 38 169L64 315Q78 393 135 437T284 481Q370 481 420 441T471 330Q471 255
442 222T347 189H150L147 169ZM235 398T207 374T171 307L164 264H303Q334 264 348 277T363 328Q363 362 342 380T279 398Q235 398 207 374ZM357 692H472L338 539H250L357 692Z" />
<glyph unicode="&#xea;" glyph-name="ecircumflex" horiz-adv-x="494" d="M147 169Q144 156 144 143Q144 72 233 72Q272 72 301 82T362 119L417 59Q379 22 334 5T228 -12Q34 -12 34 129Q34 141 38 169L64 315Q78 393 135 437T284 481Q370 481 420 441T471 330Q471
255 442 222T347 189H150L147 169ZM235 398T207 374T171 307L164 264H303Q334 264 348 277T363 328Q363 362 342 380T279 398Q235 398 207 374ZM164 565T207 608T281 695H371Q387 651 415 607T467 539H370Q338 572 313 621Q281 579 228 539H130Q164 565 207 608Z"
/>
<glyph unicode="&#xeb;" glyph-name="edieresis" horiz-adv-x="494" d="M147 169Q144 156 144 143Q144 72 233 72Q272 72 301 82T362 119L417 59Q379 22 334 5T228 -12Q34 -12 34 129Q34 141 38 169L64 315Q78 393 135 437T284 481Q370 481 420 441T471 330Q471
255 442 222T347 189H150L147 169ZM235 398T207 374T171 307L164 264H303Q334 264 348 277T363 328Q363 362 342 380T279 398Q235 398 207 374ZM192 534T179 547T165 581Q165 606 185 626T232 646Q252 646 265 633T279 599Q279 574 259 554T213 534Q192 534 179
547ZM365 534T352 547T339 580Q339 606 359 626T406 646Q426 646 440 633T454 599Q454 574 433 554T386 534Q365 534 352 547Z" />
<glyph unicode="&#xec;" glyph-name="igrave" horiz-adv-x="258" d="M77 10T61 34T44 92Q44 107 47 123L108 470H217L157 125Q155 113 155 108Q155 93 162 80T186 52L113 -12Q77 10 61 34ZM55 692H170L223 539H134L55 692Z" />
<glyph unicode="&#xed;" glyph-name="iacute" horiz-adv-x="258" d="M77 10T61 34T44 92Q44 107 47 123L108 470H217L157 125Q155 113 155 108Q155 93 162 80T186 52L113 -12Q77 10 61 34ZM235 692H350L216 539H128L235 692Z" />
<glyph unicode="&#xee;" glyph-name="icircumflex" horiz-adv-x="258" d="M77 10T61 34T44 92Q44 107 47 123L108 470H217L157 125Q155 113 155 108Q155 93 162 80T186 52L113 -12Q77 10 61 34ZM42 565T85 608T159 695H249Q265 651 293 607T345 539H248Q216 572
191 621Q159 579 106 539H8Q42 565 85 608Z" />
<glyph unicode="&#xef;" glyph-name="idieresis" horiz-adv-x="258" d="M77 10T61 34T44 92Q44 107 47 123L108 470H217L157 125Q155 113 155 108Q155 93 162 80T186 52L113 -12Q77 10 61 34ZM70 534T57 547T43 581Q43 606 63 626T110 646Q130 646 143 633T157
599Q157 574 137 554T91 534Q70 534 57 547ZM243 534T230 547T217 580Q217 606 237 626T284 646Q304 646 318 633T332 599Q332 574 311 554T264 534Q243 534 230 547Z" />
<glyph unicode="&#xf0;" glyph-name="eth" horiz-adv-x="521" d="M496 545H405L467 416Q485 376 485 334Q485 316 482 298L459 172Q444 84 387 36T229 -12Q137 -12 87 27T36 136Q36 153 39 172L61 298Q76 385 137 433T299 482Q317 482 332 479L300 545H161L171
603H273L227 700H331L377 603H506L496 545ZM375 314T375 321Q375 357 354 377T289 397Q239 397 209 371T170 298L148 172Q146 164 146 148Q146 113 167 93T232 73Q282 73 312 99T350 172L373 298Q375 314 375 321Z" />
<glyph unicode="&#xf1;" glyph-name="ntilde" horiz-adv-x="552" d="M433 482T469 450T505 358Q505 340 502 320L446 0H338L391 309Q393 318 393 333Q393 364 377 380T328 397Q247 397 197 295L145 0H36L97 345Q98 351 98 361Q98 377 91 390T67 418L140 482Q172
464 188 444T208 397Q269 482 370 482Q433 482 469 450ZM177 598T210 635T293 672Q313 672 328 666T364 648Q380 639 389 635T410 631Q425 631 434 642T452 680H523Q509 626 476 588T400 550Q380 550 365 556T329 574Q313 583 304 587T283 591Q268 591 257 580T237
542H165Q177 598 210 635Z" />
<glyph unicode="&#xf2;" glyph-name="ograve" horiz-adv-x="521" d="M137 -12T87 27T36 137Q36 154 39 172L61 298Q77 387 136 434T295 482Q387 482 436 443T485 335Q485 318 482 298L459 172Q444 83 387 36T230 -12Q137 -12 87 27ZM282 73T312 99T350 172L373
298Q375 314 375 321Q375 357 354 377T289 397Q239 397 209 371T170 298L148 172Q146 163 146 147Q146 112 167 93T232 73Q282 73 312 99ZM189 692H304L357 539H268L189 692Z" />
<glyph unicode="&#xf3;" glyph-name="oacute" horiz-adv-x="521" d="M137 -12T87 27T36 137Q36 154 39 172L61 298Q77 387 136 434T295 482Q387 482 436 443T485 335Q485 318 482 298L459 172Q444 83 387 36T230 -12Q137 -12 87 27ZM282 73T312 99T350 172L373
298Q375 314 375 321Q375 357 354 377T289 397Q239 397 209 371T170 298L148 172Q146 163 146 147Q146 112 167 93T232 73Q282 73 312 99ZM369 692H484L350 539H262L369 692Z" />
<glyph unicode="&#xf4;" glyph-name="ocircumflex" horiz-adv-x="521" d="M137 -12T87 27T36 137Q36 154 39 172L61 298Q77 387 136 434T295 482Q387 482 436 443T485 335Q485 318 482 298L459 172Q444 83 387 36T230 -12Q137 -12 87 27ZM282 73T312 99T350 172L373
298Q375 314 375 321Q375 357 354 377T289 397Q239 397 209 371T170 298L148 172Q146 163 146 147Q146 112 167 93T232 73Q282 73 312 99ZM176 565T219 608T293 695H383Q399 651 427 607T479 539H382Q350 572 325 621Q293 579 240 539H142Q176 565 219 608Z" />
<glyph unicode="&#xf5;" glyph-name="otilde" horiz-adv-x="521" d="M137 -12T87 27T36 137Q36 154 39 172L61 298Q77 387 136 434T295 482Q387 482 436 443T485 335Q485 318 482 298L459 172Q444 83 387 36T230 -12Q137 -12 87 27ZM282 73T312 99T350 172L373
298Q375 314 375 321Q375 357 354 377T289 397Q239 397 209 371T170 298L148 172Q146 163 146 147Q146 112 167 93T232 73Q282 73 312 99ZM157 598T190 635T273 672Q293 672 308 666T344 648Q360 639 369 635T390 631Q405 631 414 642T432 680H503Q489 626 456
588T380 550Q360 550 345 556T309 574Q293 583 284 587T263 591Q248 591 237 580T217 542H145Q157 598 190 635Z" />
<glyph unicode="&#xf6;" glyph-name="odieresis" horiz-adv-x="521" d="M137 -12T87 27T36 137Q36 154 39 172L61 298Q77 387 136 434T295 482Q387 482 436 443T485 335Q485 318 482 298L459 172Q444 83 387 36T230 -12Q137 -12 87 27ZM282 73T312 99T350 172L373
298Q375 314 375 321Q375 357 354 377T289 397Q239 397 209 371T170 298L148 172Q146 163 146 147Q146 112 167 93T232 73Q282 73 312 99ZM204 534T191 547T177 581Q177 606 197 626T244 646Q264 646 277 633T291 599Q291 574 271 554T225 534Q204 534 191 547ZM377
534T364 547T351 580Q351 606 371 626T418 646Q438 646 452 633T466 599Q466 574 445 554T398 534Q377 534 364 547Z" />
<glyph unicode="&#xf7;" glyph-name="divide" horiz-adv-x="683" d="M354 444T338 460T321 499Q321 529 346 553T402 578Q426 578 442 561T459 521Q459 492 434 468T378 444Q354 444 338 460ZM81 341H640L625 257H66L81 341ZM279 20T263 36T247 76Q247 106 272
130T327 154Q352 154 368 138T384 98Q384 69 359 45T303 20Q279 20 263 36Z" />
<glyph unicode="&#xf8;" glyph-name="oslash" horiz-adv-x="521" d="M486 407T486 335Q486 324 482 298L459 172Q444 83 387 36T230 -12Q169 -12 126 5L81 -60H24L85 29Q36 69 36 137Q36 154 39 172L61 298Q77 387 136 434T295 482Q348 482 388 468L430 530H487L430
447Q486 407 486 335ZM145 160T145 148Q145 138 149 122L333 389Q314 397 289 397Q239 397 209 371T170 298L148 172Q145 160 145 148ZM375 314T375 321Q375 342 368 357L180 84Q200 73 232 73Q282 73 312 99T350 172L373 298Q375 314 375 321Z" />
<glyph unicode="&#xf9;" glyph-name="ugrave" horiz-adv-x="558" d="M459 112T459 108Q459 93 466 81T491 54L409 -10Q379 8 365 28T349 75Q321 36 281 12T189 -12Q125 -12 86 22T47 118Q47 134 50 152L106 470H215L161 161Q159 145 159 139Q159 108 177 91T229
73Q274 73 307 104T362 183L412 470H521L461 126Q459 112 459 108ZM203 692H318L371 539H282L203 692Z" />
<glyph unicode="&#xfa;" glyph-name="uacute" horiz-adv-x="558" d="M459 112T459 108Q459 93 466 81T491 54L409 -10Q379 8 365 28T349 75Q321 36 281 12T189 -12Q125 -12 86 22T47 118Q47 134 50 152L106 470H215L161 161Q159 145 159 139Q159 108 177 91T229
73Q274 73 307 104T362 183L412 470H521L461 126Q459 112 459 108ZM383 692H498L364 539H276L383 692Z" />
<glyph unicode="&#xfb;" glyph-name="ucircumflex" horiz-adv-x="558" d="M459 112T459 108Q459 93 466 81T491 54L409 -10Q379 8 365 28T349 75Q321 36 281 12T189 -12Q125 -12 86 22T47 118Q47 134 50 152L106 470H215L161 161Q159 145 159 139Q159 108 177
91T229 73Q274 73 307 104T362 183L412 470H521L461 126Q459 112 459 108ZM190 565T233 608T307 695H397Q413 651 441 607T493 539H396Q364 572 339 621Q307 579 254 539H156Q190 565 233 608Z" />
<glyph unicode="&#xfc;" glyph-name="udieresis" horiz-adv-x="558" d="M459 112T459 108Q459 93 466 81T491 54L409 -10Q379 8 365 28T349 75Q321 36 281 12T189 -12Q125 -12 86 22T47 118Q47 134 50 152L106 470H215L161 161Q159 145 159 139Q159 108 177 91T229
73Q274 73 307 104T362 183L412 470H521L461 126Q459 112 459 108ZM218 534T205 547T191 581Q191 606 211 626T258 646Q278 646 291 633T305 599Q305 574 285 554T239 534Q218 534 205 547ZM391 534T378 547T365 580Q365 606 385 626T432 646Q452 646 466 633T480
599Q480 574 459 554T412 534Q391 534 378 547Z" />
<glyph unicode="&#xfd;" glyph-name="yacute" horiz-adv-x="551" d="M535 470L443 -50Q427 -141 370 -185T201 -229H73L88 -144H216Q268 -144 296 -122T334 -50L355 69Q326 31 286 11T196 -10Q128 -10 91 22T54 115Q54 134 57 153L91 345Q93 357 93 363Q93 378
86 390T62 418L135 482Q171 461 187 437T203 380Q203 365 200 347L168 163Q166 147 166 140Q166 109 183 92T234 74Q284 74 319 106T377 192L426 470H535ZM381 692H496L362 539H274L381 692Z" />
<glyph unicode="&#xfe;" glyph-name="thorn" horiz-adv-x="585" d="M142 605Q144 617 144 623Q144 638 137 650T113 678L186 742Q222 720 238 696T254 639Q254 624 251 607L216 411Q243 444 283 463T373 482Q456 482 501 432T546 300Q546 274 542 251L537 219Q522
120 461 54T301 -12Q250 -12 212 6T153 55L105 -219H-4L142 605ZM344 73T381 114T428 219L433 251Q436 269 436 285Q436 335 411 366T334 397Q241 397 198 306L173 164Q179 118 209 96T285 73Q344 73 381 114Z" />
<glyph unicode="&#xff;" glyph-name="ydieresis" horiz-adv-x="551" d="M535 470L443 -50Q427 -141 370 -185T201 -229H73L88 -144H216Q268 -144 296 -122T334 -50L355 69Q326 31 286 11T196 -10Q128 -10 91 22T54 115Q54 134 57 153L91 345Q93 357 93 363Q93
378 86 390T62 418L135 482Q171 461 187 437T203 380Q203 365 200 347L168 163Q166 147 166 140Q166 109 183 92T234 74Q284 74 319 106T377 192L426 470H535ZM216 534T203 547T189 581Q189 606 209 626T256 646Q276 646 289 633T303 599Q303 574 283 554T237 534Q216
534 203 547ZM389 534T376 547T363 580Q363 606 383 626T430 646Q450 646 464 633T478 599Q478 574 457 554T410 534Q389 534 376 547Z" />
<glyph unicode="&#x2013;" glyph-name="endash" horiz-adv-x="679" d="M58 287H640L627 214H45L58 287Z" />
<glyph unicode="&#x2014;" glyph-name="emdash" horiz-adv-x="1086" d="M58 287H1047L1034 214H45L58 287Z" />
<glyph unicode="&#x2018;" glyph-name="quoteleft" horiz-adv-x="235" d="M227 627T238 616T249 584Q249 549 222 520T162 491Q134 491 120 506T105 551Q105 608 141 660T232 753L259 721Q226 696 207 672T178 622Q189 627 208 627Q227 627 238 616Z" />
<glyph unicode="&#x2019;" glyph-name="quoteright" horiz-adv-x="235" d="M241 776T255 761T270 716Q270 658 234 607T143 514L116 546Q149 571 168 595T197 645Q186 640 167 640Q148 640 138 651T127 683Q127 718 154 747T214 776Q241 776 255 761Z" />
<glyph unicode="&#x201a;" glyph-name="quotesinglbase" horiz-adv-x="235" d="M126 124T140 109T155 64Q155 6 119 -45T28 -138L1 -106Q34 -81 53 -57T82 -7Q71 -12 52 -12Q33 -12 23 -1T12 31Q12 66 39 95T99 124Q126 124 140 109Z" />
<glyph unicode="&#x201c;" glyph-name="quotedblleft" horiz-adv-x="433" d="M226 696T207 672T178 622Q189 627 208 627Q227 627 238 616T249 584Q249 549 222 520T162 491Q134 491 120 506T105 551Q105 608 141 660T232 753L259 721Q226 696 207 672ZM424 627T435
616T446 584Q446 549 419 520T359 491Q332 491 317 507T302 551Q302 608 338 660T429 753L457 721Q393 673 376 622Q387 627 405 627Q424 627 435 616Z" />
<glyph unicode="&#x201d;" glyph-name="quotedblright" horiz-adv-x="432" d="M438 776T452 761T467 716Q467 658 431 607T340 514L313 546Q346 571 365 595T394 645Q383 640 364 640Q345 640 335 651T324 683Q324 718 351 747T411 776Q438 776 452 761ZM241 776T255
761T270 716Q270 658 234 607T143 514L116 546Q149 571 168 595T197 645Q186 640 167 640Q148 640 138 651T127 683Q127 718 154 747T214 776Q241 776 255 761Z" />
<glyph unicode="&#x201e;" glyph-name="quotedblbase" horiz-adv-x="432" d="M323 124T337 109T352 64Q352 6 316 -45T225 -138L198 -106Q231 -81 250 -57T279 -7Q268 -12 249 -12Q230 -12 220 -1T209 31Q209 66 236 95T296 124Q323 124 337 109ZM126 124T140
109T155 64Q155 6 119 -45T28 -138L1 -106Q34 -81 53 -57T82 -7Q71 -12 52 -12Q33 -12 23 -1T12 31Q12 66 39 95T99 124Q126 124 140 109Z" />
<glyph unicode="&#x2022;" glyph-name="bullet" horiz-adv-x="442" d="M163 177T132 208T101 285Q101 324 123 359T181 417T257 439Q305 439 336 408T367 330Q367 292 345 257T286 199T211 177Q163 177 132 208Z" />
<glyph unicode="&#x2039;" glyph-name="guilsinglleft" horiz-adv-x="385" d="M337 387T276 338T151 260Q205 231 249 182T306 83H225Q211 133 160 183T44 260Q118 288 186 338T287 437H368Q337 387 276 338Z" />
<glyph unicode="&#x203a;" glyph-name="guilsinglright" horiz-adv-x="385" d="M185 388T235 338T349 260Q274 232 206 183T107 83H26Q57 132 117 182T242 260Q188 288 145 337T88 437H169Q185 388 235 338Z" />
</font>
</defs>
</svg>
