<?xml version="1.0" encoding="UTF-8" standalone="no"?>
<!DOCTYPE svg PUBLIC "-//W3C//DTD SVG 1.1//EN"
 "http://www.w3.org/Graphics/SVG/1.1/DTD/svg11.dtd">
<!-- Generated by graphviz version 2.40.1 (20161225.0304)
 -->
<!-- Title: dependencies Pages: 1 -->
<svg width="2411pt" height="284pt"
 viewBox="0.00 0.00 2411.00 284.00" xmlns="http://www.w3.org/2000/svg" xmlns:xlink="http://www.w3.org/1999/xlink">
<g id="graph0" class="graph" transform="scale(1 1) rotate(0) translate(4 280)">
<title>dependencies</title>
<polygon fill="#ffffff" stroke="transparent" points="-4,4 -4,-280 2407,-280 2407,4 -4,4"/>
<text text-anchor="start" x="1180.5091" y="-42.4" font-family="sans-serif" font-weight="bold" font-size="14.00" fill="#000000">Legend</text>
<polygon fill="#ffffb3" stroke="transparent" points="967.5,-10 967.5,-30 987.5,-30 987.5,-10 967.5,-10"/>
<text text-anchor="start" x="991.129" y="-15.4" font-family="sans-serif" font-size="14.00" fill="#000000"> &#160;Declarations</text>
<polygon fill="#8dd3c7" stroke="transparent" points="1080.5,-10 1080.5,-30 1100.5,-30 1100.5,-10 1080.5,-10"/>
<text text-anchor="start" x="1104.2251" y="-15.4" font-family="sans-serif" font-size="14.00" fill="#000000"> &#160;Module</text>
<polygon fill="#80b1d3" stroke="transparent" points="1166.5,-10 1166.5,-30 1186.5,-30 1186.5,-10 1166.5,-10"/>
<text text-anchor="start" x="1190.2812" y="-15.4" font-family="sans-serif" font-size="14.00" fill="#000000"> &#160;Bootstrap</text>
<polygon fill="#fdb462" stroke="transparent" points="1263.5,-10 1263.5,-30 1283.5,-30 1283.5,-10 1263.5,-10"/>
<text text-anchor="start" x="1287.1732" y="-15.4" font-family="sans-serif" font-size="14.00" fill="#000000"> &#160;Providers</text>
<polygon fill="#fb8072" stroke="transparent" points="1359.5,-10 1359.5,-30 1379.5,-30 1379.5,-10 1359.5,-10"/>
<text text-anchor="start" x="1383.2258" y="-15.4" font-family="sans-serif" font-size="14.00" fill="#000000"> &#160;Exports</text>
<g id="clust1" class="cluster">
<title>cluster_AppModule</title>
<polygon fill="none" stroke="#000000" stroke-dasharray="1,5" points="8,-70 8,-268 2395,-268 2395,-70 8,-70"/>
</g>
<g id="clust2" class="cluster">
<title>cluster_AppModule_declarations</title>
<polygon fill="none" stroke="#000000" points="755,-78 755,-130 2387,-130 2387,-78 755,-78"/>
</g>
<g id="clust13" class="cluster">
<title>cluster_AppModule_imports</title>
<polygon fill="none" stroke="#000000" points="16,-78 16,-130 747,-130 747,-78 16,-78"/>
</g>
<g id="clust15" class="cluster">
<title>cluster_AppModule_bootstrap</title>
<polygon fill="none" stroke="#000000" points="1080,-208 1080,-260 1204,-260 1204,-208 1080,-208"/>
</g>
<!-- AccountButtonComponent -->
<g id="node1" class="node">
<title>AccountButtonComponent</title>
<polygon fill="#ffffb3" stroke="#000000" points="2379.3766,-122 2212.6234,-122 2212.6234,-86 2379.3766,-86 2379.3766,-122"/>
<text text-anchor="middle" x="2296" y="-99.8" font-family="Times,serif" font-size="14.00" fill="#000000">AccountButtonComponent</text>
</g>
<!-- AppModule -->
<g id="node11" class="node">
<title>AppModule</title>
<polygon fill="#8dd3c7" stroke="#000000" points="1183.6571,-187 1180.6571,-191 1159.6571,-191 1156.6571,-187 1100.3429,-187 1100.3429,-151 1183.6571,-151 1183.6571,-187"/>
<text text-anchor="middle" x="1142" y="-164.8" font-family="Times,serif" font-size="14.00" fill="#000000">AppModule</text>
</g>
<!-- AccountButtonComponent&#45;&gt;AppModule -->
<g id="edge1" class="edge">
<title>AccountButtonComponent&#45;&gt;AppModule</title>
<path fill="none" stroke="#000000" d="M2296,-122.3228C2296,-145.6602 2296,-183 2296,-183 2296,-183 1193.7532,-183 1193.7532,-183"/>
<polygon fill="#000000" stroke="#000000" points="1193.7533,-179.5001 1183.7532,-183 1193.7532,-186.5001 1193.7533,-179.5001"/>
</g>
<!-- AppComponent -->
<g id="node2" class="node">
<title>AppComponent</title>
<polygon fill="#ffffb3" stroke="#000000" points="2194.9399,-122 2089.0601,-122 2089.0601,-86 2194.9399,-86 2194.9399,-122"/>
<text text-anchor="middle" x="2142" y="-99.8" font-family="Times,serif" font-size="14.00" fill="#000000">AppComponent</text>
</g>
<!-- AppComponent&#45;&gt;AppModule -->
<g id="edge2" class="edge">
<title>AppComponent&#45;&gt;AppModule</title>
<path fill="none" stroke="#000000" d="M2142,-122.2921C2142,-144.2057 2142,-178 2142,-178 2142,-178 1193.6956,-178 1193.6956,-178"/>
<polygon fill="#000000" stroke="#000000" points="1193.6956,-174.5001 1183.6956,-178 1193.6956,-181.5001 1193.6956,-174.5001"/>
</g>
<!-- DeleteConfirmDialogComponent -->
<g id="node3" class="node">
<title>DeleteConfirmDialogComponent</title>
<polygon fill="#ffffb3" stroke="#000000" points="2071.9058,-122 1868.0942,-122 1868.0942,-86 2071.9058,-86 2071.9058,-122"/>
<text text-anchor="middle" x="1970" y="-99.8" font-family="Times,serif" font-size="14.00" fill="#000000">DeleteConfirmDialogComponent</text>
</g>
<!-- DeleteConfirmDialogComponent&#45;&gt;AppModule -->
<g id="edge3" class="edge">
<title>DeleteConfirmDialogComponent&#45;&gt;AppModule</title>
<path fill="none" stroke="#000000" d="M1970,-122.0267C1970,-142.7672 1970,-174 1970,-174 1970,-174 1193.9131,-174 1193.9131,-174"/>
<polygon fill="#000000" stroke="#000000" points="1193.9131,-170.5001 1183.9131,-174 1193.9131,-177.5001 1193.9131,-170.5001"/>
</g>
<!-- HomeComponent -->
<g id="node4" class="node">
<title>HomeComponent</title>
<polygon fill="#ffffb3" stroke="#000000" points="1850.5451,-122 1735.4549,-122 1735.4549,-86 1850.5451,-86 1850.5451,-122"/>
<text text-anchor="middle" x="1793" y="-99.8" font-family="Times,serif" font-size="14.00" fill="#000000">HomeComponent</text>
</g>
<!-- HomeComponent&#45;&gt;AppModule -->
<g id="edge4" class="edge">
<title>HomeComponent&#45;&gt;AppModule</title>
<path fill="none" stroke="#000000" d="M1793,-122.1061C1793,-141.3391 1793,-169 1793,-169 1793,-169 1193.7133,-169 1193.7133,-169"/>
<polygon fill="#000000" stroke="#000000" points="1193.7133,-165.5001 1183.7133,-169 1193.7133,-172.5001 1193.7133,-165.5001"/>
</g>
<!-- NotFoundComponent -->
<g id="node5" class="node">
<title>NotFoundComponent</title>
<polygon fill="#ffffb3" stroke="#000000" points="1717.1122,-122 1578.8878,-122 1578.8878,-86 1717.1122,-86 1717.1122,-122"/>
<text text-anchor="middle" x="1648" y="-99.8" font-family="Times,serif" font-size="14.00" fill="#000000">NotFoundComponent</text>
</g>
<!-- NotFoundComponent&#45;&gt;AppModule -->
<g id="edge5" class="edge">
<title>NotFoundComponent&#45;&gt;AppModule</title>
<path fill="none" stroke="#000000" d="M1648,-122.302C1648,-140.2699 1648,-165 1648,-165 1648,-165 1193.8386,-165 1193.8386,-165"/>
<polygon fill="#000000" stroke="#000000" points="1193.8386,-161.5001 1183.8386,-165 1193.8386,-168.5001 1193.8386,-161.5001"/>
</g>
<!-- NotificationbarComponent -->
<g id="node6" class="node">
<title>NotificationbarComponent</title>
<polygon fill="#ffffb3" stroke="#000000" points="1561.3571,-122 1394.6429,-122 1394.6429,-86 1561.3571,-86 1561.3571,-122"/>
<text text-anchor="middle" x="1478" y="-99.8" font-family="Times,serif" font-size="14.00" fill="#000000">NotificationbarComponent</text>
</g>
<!-- NotificationbarComponent&#45;&gt;AppModule -->
<g id="edge6" class="edge">
<title>NotificationbarComponent&#45;&gt;AppModule</title>
<path fill="none" stroke="#000000" d="M1478,-122.027C1478,-138.3976 1478,-160 1478,-160 1478,-160 1193.8753,-160 1193.8753,-160"/>
<polygon fill="#000000" stroke="#000000" points="1193.8753,-156.5001 1183.8753,-160 1193.8752,-163.5001 1193.8753,-156.5001"/>
</g>
<!-- ProfileComponent -->
<g id="node7" class="node">
<title>ProfileComponent</title>
<polygon fill="#ffffb3" stroke="#000000" points="1376.9328,-122 1257.0672,-122 1257.0672,-86 1376.9328,-86 1376.9328,-122"/>
<text text-anchor="middle" x="1317" y="-99.8" font-family="Times,serif" font-size="14.00" fill="#000000">ProfileComponent</text>
</g>
<!-- ProfileComponent&#45;&gt;AppModule -->
<g id="edge7" class="edge">
<title>ProfileComponent&#45;&gt;AppModule</title>
<path fill="none" stroke="#000000" d="M1317,-122.1871C1317,-137.1824 1317,-156 1317,-156 1317,-156 1193.9169,-156 1193.9169,-156"/>
<polygon fill="#000000" stroke="#000000" points="1193.9169,-152.5001 1183.9169,-156 1193.9168,-159.5001 1193.9169,-152.5001"/>
</g>
<!-- SaveChangesDialogComponent -->
<g id="node8" class="node">
<title>SaveChangesDialogComponent</title>
<polygon fill="#ffffb3" stroke="#000000" points="1239.3571,-122 1044.6429,-122 1044.6429,-86 1239.3571,-86 1239.3571,-122"/>
<text text-anchor="middle" x="1142" y="-99.8" font-family="Times,serif" font-size="14.00" fill="#000000">SaveChangesDialogComponent</text>
</g>
<!-- SaveChangesDialogComponent&#45;&gt;AppModule -->
<g id="edge8" class="edge">
<title>SaveChangesDialogComponent&#45;&gt;AppModule</title>
<path fill="none" stroke="#000000" d="M1142,-122.1061C1142,-122.1061 1142,-140.991 1142,-140.991"/>
<polygon fill="#000000" stroke="#000000" points="1138.5001,-140.9909 1142,-150.991 1145.5001,-140.991 1138.5001,-140.9909"/>
</g>
<!-- SidebarComponent -->
<g id="node9" class="node">
<title>SidebarComponent</title>
<polygon fill="#ffffb3" stroke="#000000" points="1027.0954,-122 902.9046,-122 902.9046,-86 1027.0954,-86 1027.0954,-122"/>
<text text-anchor="middle" x="965" y="-99.8" font-family="Times,serif" font-size="14.00" fill="#000000">SidebarComponent</text>
</g>
<!-- SidebarComponent&#45;&gt;AppModule -->
<g id="edge9" class="edge">
<title>SidebarComponent&#45;&gt;AppModule</title>
<path fill="none" stroke="#000000" d="M965,-122.1871C965,-137.1824 965,-156 965,-156 965,-156 1090.0535,-156 1090.0535,-156"/>
<polygon fill="#000000" stroke="#000000" points="1090.0535,-159.5001 1100.0535,-156 1090.0534,-152.5001 1090.0535,-159.5001"/>
</g>
<!-- TopbarComponent -->
<g id="node10" class="node">
<title>TopbarComponent</title>
<polygon fill="#ffffb3" stroke="#000000" points="884.7604,-122 763.2396,-122 763.2396,-86 884.7604,-86 884.7604,-122"/>
<text text-anchor="middle" x="824" y="-99.8" font-family="Times,serif" font-size="14.00" fill="#000000">TopbarComponent</text>
</g>
<!-- TopbarComponent&#45;&gt;AppModule -->
<g id="edge10" class="edge">
<title>TopbarComponent&#45;&gt;AppModule</title>
<path fill="none" stroke="#000000" d="M824,-122.027C824,-138.3976 824,-160 824,-160 824,-160 1090.1001,-160 1090.1001,-160"/>
<polygon fill="#000000" stroke="#000000" points="1090.1001,-163.5001 1100.1001,-160 1090.1,-156.5001 1090.1001,-163.5001"/>
</g>
<!-- AppComponent  -->
<g id="node17" class="node">
<title>AppComponent </title>
<polygon fill="#80b1d3" stroke="#000000" points="1196.439,-252 1087.561,-252 1087.561,-216 1196.439,-216 1196.439,-252"/>
<text text-anchor="middle" x="1142" y="-229.8" font-family="Times,serif" font-size="14.00" fill="#000000">AppComponent </text>
</g>
<!-- AppModule&#45;&gt;AppComponent  -->
<g id="edge16" class="edge">
<title>AppModule&#45;&gt;AppComponent </title>
<path fill="none" stroke="#000000" stroke-dasharray="1,5" d="M1142,-187.1061C1142,-187.1061 1142,-205.991 1142,-205.991"/>
<polygon fill="#000000" stroke="#000000" points="1138.5001,-205.9909 1142,-215.991 1145.5001,-205.991 1138.5001,-205.9909"/>
</g>
<!-- AuthenticationModule -->
<g id="node12" class="node">
<title>AuthenticationModule</title>
<polygon fill="#8dd3c7" stroke="#000000" points="739.2534,-122 736.2534,-126 715.2534,-126 712.2534,-122 596.7466,-122 596.7466,-86 739.2534,-86 739.2534,-122"/>
<text text-anchor="middle" x="668" y="-99.8" font-family="Times,serif" font-size="14.00" fill="#000000">AuthenticationModule</text>
</g>
<!-- AuthenticationModule&#45;&gt;AppModule -->
<g id="edge11" class="edge">
<title>AuthenticationModule&#45;&gt;AppModule</title>
<path fill="none" stroke="#000000" d="M668,-122.302C668,-140.2699 668,-165 668,-165 668,-165 1089.9357,-165 1089.9357,-165"/>
<polygon fill="#000000" stroke="#000000" points="1089.9357,-168.5001 1099.9357,-165 1089.9356,-161.5001 1089.9357,-168.5001"/>
</g>
<!-- CustomMaterialModule -->
<g id="node13" class="node">
<title>CustomMaterialModule</title>
<polygon fill="#8dd3c7" stroke="#000000" points="578.0337,-122 575.0337,-126 554.0337,-126 551.0337,-122 427.9663,-122 427.9663,-86 578.0337,-86 578.0337,-122"/>
<text text-anchor="middle" x="503" y="-99.8" font-family="Times,serif" font-size="14.00" fill="#000000">CustomMaterialModule</text>
</g>
<!-- CustomMaterialModule&#45;&gt;AppModule -->
<g id="edge12" class="edge">
<title>CustomMaterialModule&#45;&gt;AppModule</title>
<path fill="none" stroke="#000000" d="M503,-122.1061C503,-141.3391 503,-169 503,-169 503,-169 1090.0734,-169 1090.0734,-169"/>
<polygon fill="#000000" stroke="#000000" points="1090.0735,-172.5001 1100.0734,-169 1090.0734,-165.5001 1090.0735,-172.5001"/>
</g>
<!-- DashboardModule -->
<g id="node14" class="node">
<title>DashboardModule</title>
<polygon fill="#8dd3c7" stroke="#000000" points="410.191,-122 407.191,-126 386.191,-126 383.191,-122 289.809,-122 289.809,-86 410.191,-86 410.191,-122"/>
<text text-anchor="middle" x="350" y="-99.8" font-family="Times,serif" font-size="14.00" fill="#000000">DashboardModule</text>
</g>
<!-- DashboardModule&#45;&gt;AppModule -->
<g id="edge13" class="edge">
<title>DashboardModule&#45;&gt;AppModule</title>
<path fill="none" stroke="#000000" d="M350,-122.0267C350,-142.7672 350,-174 350,-174 350,-174 1090.2562,-174 1090.2562,-174"/>
<polygon fill="#000000" stroke="#000000" points="1090.2562,-177.5001 1100.2562,-174 1090.2562,-170.5001 1090.2562,-177.5001"/>
</g>
<!-- HytRoutingModule -->
<g id="node15" class="node">
<title>HytRoutingModule</title>
<polygon fill="#8dd3c7" stroke="#000000" points="271.6652,-122 268.6652,-126 247.6652,-126 244.6652,-122 146.3348,-122 146.3348,-86 271.6652,-86 271.6652,-122"/>
<text text-anchor="middle" x="209" y="-99.8" font-family="Times,serif" font-size="14.00" fill="#000000">HytRoutingModule</text>
</g>
<!-- HytRoutingModule&#45;&gt;AppModule -->
<g id="edge14" class="edge">
<title>HytRoutingModule&#45;&gt;AppModule</title>
<path fill="none" stroke="#000000" d="M209,-122.2921C209,-144.2057 209,-178 209,-178 209,-178 1090.0984,-178 1090.0984,-178"/>
<polygon fill="#000000" stroke="#000000" points="1090.0984,-181.5001 1100.0984,-178 1090.0984,-174.5001 1090.0984,-181.5001"/>
</g>
<!-- ProjectsModule -->
<g id="node16" class="node">
<title>ProjectsModule</title>
<polygon fill="#8dd3c7" stroke="#000000" points="128.1486,-122 125.1486,-126 104.1486,-126 101.1486,-122 23.8514,-122 23.8514,-86 128.1486,-86 128.1486,-122"/>
<text text-anchor="middle" x="76" y="-99.8" font-family="Times,serif" font-size="14.00" fill="#000000">ProjectsModule</text>
</g>
<!-- ProjectsModule&#45;&gt;AppModule -->
<g id="edge15" class="edge">
<title>ProjectsModule&#45;&gt;AppModule</title>
<path fill="none" stroke="#000000" d="M76,-122.3228C76,-145.6602 76,-183 76,-183 76,-183 1090.2115,-183 1090.2115,-183"/>
<polygon fill="#000000" stroke="#000000" points="1090.2116,-186.5001 1100.2115,-183 1090.2115,-179.5001 1090.2116,-186.5001"/>
</g>
</g>
</svg>
