<?xml version="1.0" encoding="UTF-8" standalone="no"?>
<!DOCTYPE svg PUBLIC "-//W3C//DTD SVG 1.1//EN"
 "http://www.w3.org/Graphics/SVG/1.1/DTD/svg11.dtd">
<!-- Generated by graphviz version 2.40.1 (20161225.0304)
 -->
<!-- Title: dependencies Pages: 1 -->
<svg width="4176pt" height="211pt"
 viewBox="0.00 0.00 4176.00 211.00" xmlns="http://www.w3.org/2000/svg" xmlns:xlink="http://www.w3.org/1999/xlink">
<g id="graph0" class="graph" transform="scale(1 1) rotate(0) translate(4 207)">
<title>dependencies</title>
<polygon fill="#ffffff" stroke="transparent" points="-4,4 -4,-207 4172,-207 4172,4 -4,4"/>
<text text-anchor="start" x="2063.0091" y="-42.4" font-family="sans-serif" font-weight="bold" font-size="14.00" fill="#000000">Legend</text>
<polygon fill="#ffffb3" stroke="transparent" points="1850,-10 1850,-30 1870,-30 1870,-10 1850,-10"/>
<text text-anchor="start" x="1873.629" y="-15.4" font-family="sans-serif" font-size="14.00" fill="#000000"> &#160;Declarations</text>
<polygon fill="#8dd3c7" stroke="transparent" points="1963,-10 1963,-30 1983,-30 1983,-10 1963,-10"/>
<text text-anchor="start" x="1986.7251" y="-15.4" font-family="sans-serif" font-size="14.00" fill="#000000"> &#160;Module</text>
<polygon fill="#80b1d3" stroke="transparent" points="2049,-10 2049,-30 2069,-30 2069,-10 2049,-10"/>
<text text-anchor="start" x="2072.7812" y="-15.4" font-family="sans-serif" font-size="14.00" fill="#000000"> &#160;Bootstrap</text>
<polygon fill="#fdb462" stroke="transparent" points="2146,-10 2146,-30 2166,-30 2166,-10 2146,-10"/>
<text text-anchor="start" x="2169.6732" y="-15.4" font-family="sans-serif" font-size="14.00" fill="#000000"> &#160;Providers</text>
<polygon fill="#fb8072" stroke="transparent" points="2242,-10 2242,-30 2262,-30 2262,-10 2242,-10"/>
<text text-anchor="start" x="2265.7258" y="-15.4" font-family="sans-serif" font-size="14.00" fill="#000000"> &#160;Exports</text>
<g id="clust1" class="cluster">
<title>cluster_ProjectsModule</title>
<polygon fill="none" stroke="#000000" stroke-dasharray="1,5" points="8,-70 8,-195 4160,-195 4160,-70 8,-70"/>
</g>
<g id="clust2" class="cluster">
<title>cluster_ProjectsModule_declarations</title>
<polygon fill="none" stroke="#000000" points="16,-78 16,-130 4152,-130 4152,-78 16,-78"/>
</g>
<!-- AssetCategoryComponent -->
<g id="node1" class="node">
<title>AssetCategoryComponent</title>
<polygon fill="#ffffb3" stroke="#000000" points="4143.7506,-122 3980.2494,-122 3980.2494,-86 4143.7506,-86 4143.7506,-122"/>
<text text-anchor="middle" x="4062" y="-99.8" font-family="Times,serif" font-size="14.00" fill="#000000">AssetCategoryComponent</text>
</g>
<!-- ProjectsModule -->
<g id="node23" class="node">
<title>ProjectsModule</title>
<polygon fill="#8dd3c7" stroke="#000000" points="2044.1486,-187 2041.1486,-191 2020.1486,-191 2017.1486,-187 1939.8514,-187 1939.8514,-151 2044.1486,-151 2044.1486,-187"/>
<text text-anchor="middle" x="1992" y="-164.8" font-family="Times,serif" font-size="14.00" fill="#000000">ProjectsModule</text>
</g>
<!-- AssetCategoryComponent&#45;&gt;ProjectsModule -->
<g id="edge1" class="edge">
<title>AssetCategoryComponent&#45;&gt;ProjectsModule</title>
<path fill="none" stroke="#000000" d="M4062,-122.1532C4062,-145.7566 4062,-184 4062,-184 4062,-184 2054.2041,-184 2054.2041,-184"/>
<polygon fill="#000000" stroke="#000000" points="2054.2041,-180.5001 2044.2041,-184 2054.2041,-187.5001 2054.2041,-180.5001"/>
</g>
<!-- AssetTagComponent -->
<g id="node2" class="node">
<title>AssetTagComponent</title>
<polygon fill="#ffffb3" stroke="#000000" points="3962.2008,-122 3827.7992,-122 3827.7992,-86 3962.2008,-86 3962.2008,-122"/>
<text text-anchor="middle" x="3895" y="-99.8" font-family="Times,serif" font-size="14.00" fill="#000000">AssetTagComponent</text>
</g>
<!-- AssetTagComponent&#45;&gt;ProjectsModule -->
<g id="edge2" class="edge">
<title>AssetTagComponent&#45;&gt;ProjectsModule</title>
<path fill="none" stroke="#000000" d="M3895,-122.0908C3895,-145.1328 3895,-182 3895,-182 3895,-182 2054.3843,-182 2054.3843,-182"/>
<polygon fill="#000000" stroke="#000000" points="2054.3844,-178.5001 2044.3843,-182 2054.3843,-185.5001 2054.3844,-178.5001"/>
</g>
<!-- DeviceFormComponent -->
<g id="node3" class="node">
<title>DeviceFormComponent</title>
<polygon fill="#ffffb3" stroke="#000000" points="3809.8075,-122 3658.1925,-122 3658.1925,-86 3809.8075,-86 3809.8075,-122"/>
<text text-anchor="middle" x="3734" y="-99.8" font-family="Times,serif" font-size="14.00" fill="#000000">DeviceFormComponent</text>
</g>
<!-- DeviceFormComponent&#45;&gt;ProjectsModule -->
<g id="edge3" class="edge">
<title>DeviceFormComponent&#45;&gt;ProjectsModule</title>
<path fill="none" stroke="#000000" d="M3734,-122.2921C3734,-144.2057 3734,-178 3734,-178 3734,-178 2054.6092,-178 2054.6092,-178"/>
<polygon fill="#000000" stroke="#000000" points="2054.6092,-174.5001 2044.6092,-178 2054.6092,-181.5001 2054.6092,-174.5001"/>
</g>
<!-- DeviceSelectComponent -->
<g id="node4" class="node">
<title>DeviceSelectComponent</title>
<polygon fill="#ffffb3" stroke="#000000" points="3640.6811,-122 3485.3189,-122 3485.3189,-86 3640.6811,-86 3640.6811,-122"/>
<text text-anchor="middle" x="3563" y="-99.8" font-family="Times,serif" font-size="14.00" fill="#000000">DeviceSelectComponent</text>
</g>
<!-- DeviceSelectComponent&#45;&gt;ProjectsModule -->
<g id="edge4" class="edge">
<title>DeviceSelectComponent&#45;&gt;ProjectsModule</title>
<path fill="none" stroke="#000000" d="M3563,-122.2843C3563,-143.3211 3563,-175 3563,-175 3563,-175 2054.27,-175 2054.27,-175"/>
<polygon fill="#000000" stroke="#000000" points="2054.27,-171.5001 2044.27,-175 2054.2699,-178.5001 2054.27,-171.5001"/>
</g>
<!-- EventMailComponent -->
<g id="node5" class="node">
<title>EventMailComponent</title>
<polygon fill="#ffffb3" stroke="#000000" points="3467.4313,-122 3326.5687,-122 3326.5687,-86 3467.4313,-86 3467.4313,-122"/>
<text text-anchor="middle" x="3397" y="-99.8" font-family="Times,serif" font-size="14.00" fill="#000000">EventMailComponent</text>
</g>
<!-- EventMailComponent&#45;&gt;ProjectsModule -->
<g id="edge5" class="edge">
<title>EventMailComponent&#45;&gt;ProjectsModule</title>
<path fill="none" stroke="#000000" d="M3397,-122.2228C3397,-142.3652 3397,-172 3397,-172 3397,-172 2054.5134,-172 2054.5134,-172"/>
<polygon fill="#000000" stroke="#000000" points="2054.5134,-168.5001 2044.5134,-172 2054.5134,-175.5001 2054.5134,-168.5001"/>
</g>
<!-- GenericSummaryListComponent -->
<g id="node6" class="node">
<title>GenericSummaryListComponent</title>
<polygon fill="#ffffb3" stroke="#000000" points="3308.8515,-122 3107.1485,-122 3107.1485,-86 3308.8515,-86 3308.8515,-122"/>
<text text-anchor="middle" x="3208" y="-99.8" font-family="Times,serif" font-size="14.00" fill="#000000">GenericSummaryListComponent</text>
</g>
<!-- GenericSummaryListComponent&#45;&gt;ProjectsModule -->
<g id="edge6" class="edge">
<title>GenericSummaryListComponent&#45;&gt;ProjectsModule</title>
<path fill="none" stroke="#000000" d="M3208,-122.1061C3208,-141.3391 3208,-169 3208,-169 3208,-169 2054.25,-169 2054.25,-169"/>
<polygon fill="#000000" stroke="#000000" points="2054.25,-165.5001 2044.25,-169 2054.25,-172.5001 2054.25,-165.5001"/>
</g>
<!-- PacketEnrichmentFormComponent -->
<g id="node7" class="node">
<title>PacketEnrichmentFormComponent</title>
<polygon fill="#ffffb3" stroke="#000000" points="3089.2976,-122 2874.7024,-122 2874.7024,-86 3089.2976,-86 3089.2976,-122"/>
<text text-anchor="middle" x="2982" y="-99.8" font-family="Times,serif" font-size="14.00" fill="#000000">PacketEnrichmentFormComponent</text>
</g>
<!-- PacketEnrichmentFormComponent&#45;&gt;ProjectsModule -->
<g id="edge7" class="edge">
<title>PacketEnrichmentFormComponent&#45;&gt;ProjectsModule</title>
<path fill="none" stroke="#000000" d="M2982,-122.2222C2982,-140.8285 2982,-167 2982,-167 2982,-167 2054.1798,-167 2054.1798,-167"/>
<polygon fill="#000000" stroke="#000000" points="2054.1798,-163.5001 2044.1798,-167 2054.1797,-170.5001 2054.1798,-163.5001"/>
</g>
<!-- PacketEventsFormComponent -->
<g id="node8" class="node">
<title>PacketEventsFormComponent</title>
<polygon fill="#ffffb3" stroke="#000000" points="2856.5856,-122 2669.4144,-122 2669.4144,-86 2856.5856,-86 2856.5856,-122"/>
<text text-anchor="middle" x="2763" y="-99.8" font-family="Times,serif" font-size="14.00" fill="#000000">PacketEventsFormComponent</text>
</g>
<!-- PacketEventsFormComponent&#45;&gt;ProjectsModule -->
<g id="edge8" class="edge">
<title>PacketEventsFormComponent&#45;&gt;ProjectsModule</title>
<path fill="none" stroke="#000000" d="M2763,-122.0225C2763,-139.3734 2763,-163 2763,-163 2763,-163 2054.3878,-163 2054.3878,-163"/>
<polygon fill="#000000" stroke="#000000" points="2054.3878,-159.5001 2044.3878,-163 2054.3878,-166.5001 2054.3878,-159.5001"/>
</g>
<!-- PacketFieldsFormComponent -->
<g id="node9" class="node">
<title>PacketFieldsFormComponent</title>
<polygon fill="#ffffb3" stroke="#000000" points="2651.7063,-122 2468.2937,-122 2468.2937,-86 2651.7063,-86 2651.7063,-122"/>
<text text-anchor="middle" x="2560" y="-99.8" font-family="Times,serif" font-size="14.00" fill="#000000">PacketFieldsFormComponent</text>
</g>
<!-- PacketFieldsFormComponent&#45;&gt;ProjectsModule -->
<g id="edge9" class="edge">
<title>PacketFieldsFormComponent&#45;&gt;ProjectsModule</title>
<path fill="none" stroke="#000000" d="M2560,-122.027C2560,-138.3976 2560,-160 2560,-160 2560,-160 2054.1647,-160 2054.1647,-160"/>
<polygon fill="#000000" stroke="#000000" points="2054.1647,-156.5001 2044.1647,-160 2054.1647,-163.5001 2054.1647,-156.5001"/>
</g>
<!-- PacketFormComponent -->
<g id="node10" class="node">
<title>PacketFormComponent</title>
<polygon fill="#ffffb3" stroke="#000000" points="2450.4832,-122 2301.5168,-122 2301.5168,-86 2450.4832,-86 2450.4832,-122"/>
<text text-anchor="middle" x="2376" y="-99.8" font-family="Times,serif" font-size="14.00" fill="#000000">PacketFormComponent</text>
</g>
<!-- PacketFormComponent&#45;&gt;ProjectsModule -->
<g id="edge10" class="edge">
<title>PacketFormComponent&#45;&gt;ProjectsModule</title>
<path fill="none" stroke="#000000" d="M2376,-122.2396C2376,-137.5706 2376,-157 2376,-157 2376,-157 2054.1876,-157 2054.1876,-157"/>
<polygon fill="#000000" stroke="#000000" points="2054.1876,-153.5001 2044.1876,-157 2054.1875,-160.5001 2054.1876,-153.5001"/>
</g>
<!-- PacketStatisticsFormComponent -->
<g id="node11" class="node">
<title>PacketStatisticsFormComponent</title>
<polygon fill="#ffffb3" stroke="#000000" points="2283.5377,-122 2084.4623,-122 2084.4623,-86 2283.5377,-86 2283.5377,-122"/>
<text text-anchor="middle" x="2184" y="-99.8" font-family="Times,serif" font-size="14.00" fill="#000000">PacketStatisticsFormComponent</text>
</g>
<!-- PacketStatisticsFormComponent&#45;&gt;ProjectsModule -->
<g id="edge11" class="edge">
<title>PacketStatisticsFormComponent&#45;&gt;ProjectsModule</title>
<path fill="none" stroke="#000000" d="M2184,-122.0511C2184,-136.373 2184,-154 2184,-154 2184,-154 2054.2112,-154 2054.2112,-154"/>
<polygon fill="#000000" stroke="#000000" points="2054.2113,-150.5001 2044.2112,-154 2054.2112,-157.5001 2054.2113,-150.5001"/>
</g>
<!-- ProjectCardComponent -->
<g id="node12" class="node">
<title>ProjectCardComponent</title>
<polygon fill="#ffffb3" stroke="#000000" points="2066.1979,-122 1917.8021,-122 1917.8021,-86 2066.1979,-86 2066.1979,-122"/>
<text text-anchor="middle" x="1992" y="-99.8" font-family="Times,serif" font-size="14.00" fill="#000000">ProjectCardComponent</text>
</g>
<!-- ProjectCardComponent&#45;&gt;ProjectsModule -->
<g id="edge12" class="edge">
<title>ProjectCardComponent&#45;&gt;ProjectsModule</title>
<path fill="none" stroke="#000000" d="M1992,-122.1061C1992,-122.1061 1992,-140.991 1992,-140.991"/>
<polygon fill="#000000" stroke="#000000" points="1988.5001,-140.9909 1992,-150.991 1995.5001,-140.991 1988.5001,-140.9909"/>
</g>
<!-- ProjectDetailComponent -->
<g id="node13" class="node">
<title>ProjectDetailComponent</title>
<polygon fill="#ffffb3" stroke="#000000" points="1899.6937,-122 1744.3063,-122 1744.3063,-86 1899.6937,-86 1899.6937,-122"/>
<text text-anchor="middle" x="1822" y="-99.8" font-family="Times,serif" font-size="14.00" fill="#000000">ProjectDetailComponent</text>
</g>
<!-- ProjectDetailComponent&#45;&gt;ProjectsModule -->
<g id="edge13" class="edge">
<title>ProjectDetailComponent&#45;&gt;ProjectsModule</title>
<path fill="none" stroke="#000000" d="M1822,-122.0511C1822,-136.373 1822,-154 1822,-154 1822,-154 1929.6072,-154 1929.6072,-154"/>
<polygon fill="#000000" stroke="#000000" points="1929.6073,-157.5001 1939.6072,-154 1929.6072,-150.5001 1929.6073,-157.5001"/>
</g>
<!-- ProjectFormComponent -->
<g id="node14" class="node">
<title>ProjectFormComponent</title>
<polygon fill="#ffffb3" stroke="#000000" points="1726.8201,-122 1575.1799,-122 1575.1799,-86 1726.8201,-86 1726.8201,-122"/>
<text text-anchor="middle" x="1651" y="-99.8" font-family="Times,serif" font-size="14.00" fill="#000000">ProjectFormComponent</text>
</g>
<!-- ProjectFormComponent&#45;&gt;ProjectsModule -->
<g id="edge14" class="edge">
<title>ProjectFormComponent&#45;&gt;ProjectsModule</title>
<path fill="none" stroke="#000000" d="M1651,-122.2396C1651,-137.5706 1651,-157 1651,-157 1651,-157 1929.8382,-157 1929.8382,-157"/>
<polygon fill="#000000" stroke="#000000" points="1929.8383,-160.5001 1939.8382,-157 1929.8382,-153.5001 1929.8383,-160.5001"/>
</g>
<!-- ProjectWizardComponent -->
<g id="node15" class="node">
<title>ProjectWizardComponent</title>
<polygon fill="#ffffb3" stroke="#000000" points="1557.1811,-122 1394.8189,-122 1394.8189,-86 1557.1811,-86 1557.1811,-122"/>
<text text-anchor="middle" x="1476" y="-99.8" font-family="Times,serif" font-size="14.00" fill="#000000">ProjectWizardComponent</text>
</g>
<!-- ProjectWizardComponent&#45;&gt;ProjectsModule -->
<g id="edge15" class="edge">
<title>ProjectWizardComponent&#45;&gt;ProjectsModule</title>
<path fill="none" stroke="#000000" d="M1476,-122.027C1476,-138.3976 1476,-160 1476,-160 1476,-160 1929.6835,-160 1929.6835,-160"/>
<polygon fill="#000000" stroke="#000000" points="1929.6836,-163.5001 1939.6835,-160 1929.6835,-156.5001 1929.6836,-163.5001"/>
</g>
<!-- ProjectsComponent -->
<g id="node16" class="node">
<title>ProjectsComponent</title>
<polygon fill="#ffffb3" stroke="#000000" points="1377.4313,-122 1250.5687,-122 1250.5687,-86 1377.4313,-86 1377.4313,-122"/>
<text text-anchor="middle" x="1314" y="-99.8" font-family="Times,serif" font-size="14.00" fill="#000000">ProjectsComponent</text>
</g>
<!-- ProjectsComponent&#45;&gt;ProjectsModule -->
<g id="edge16" class="edge">
<title>ProjectsComponent&#45;&gt;ProjectsModule</title>
<path fill="none" stroke="#000000" d="M1314,-122.0225C1314,-139.3734 1314,-163 1314,-163 1314,-163 1929.6438,-163 1929.6438,-163"/>
<polygon fill="#000000" stroke="#000000" points="1929.6438,-166.5001 1939.6438,-163 1929.6437,-159.5001 1929.6438,-166.5001"/>
</g>
<!-- RuleDefinitionComponent -->
<g id="node17" class="node">
<title>RuleDefinitionComponent</title>
<polygon fill="#ffffb3" stroke="#000000" points="1232.8187,-122 1067.1813,-122 1067.1813,-86 1232.8187,-86 1232.8187,-122"/>
<text text-anchor="middle" x="1150" y="-99.8" font-family="Times,serif" font-size="14.00" fill="#000000">RuleDefinitionComponent</text>
</g>
<!-- RuleDefinitionComponent&#45;&gt;ProjectsModule -->
<g id="edge17" class="edge">
<title>RuleDefinitionComponent&#45;&gt;ProjectsModule</title>
<path fill="none" stroke="#000000" d="M1150,-122.2222C1150,-140.8285 1150,-167 1150,-167 1150,-167 1929.6473,-167 1929.6473,-167"/>
<polygon fill="#000000" stroke="#000000" points="1929.6473,-170.5001 1939.6473,-167 1929.6472,-163.5001 1929.6473,-170.5001"/>
</g>
<!-- SelectableTextComponent -->
<g id="node18" class="node">
<title>SelectableTextComponent</title>
<polygon fill="#ffffb3" stroke="#000000" points="1049.0183,-122 884.9817,-122 884.9817,-86 1049.0183,-86 1049.0183,-122"/>
<text text-anchor="middle" x="967" y="-99.8" font-family="Times,serif" font-size="14.00" fill="#000000">SelectableTextComponent</text>
</g>
<!-- SelectableTextComponent&#45;&gt;ProjectsModule -->
<g id="edge18" class="edge">
<title>SelectableTextComponent&#45;&gt;ProjectsModule</title>
<path fill="none" stroke="#000000" d="M939.5804,-122.2228C939.5804,-142.3652 939.5804,-172 939.5804,-172 939.5804,-172 1929.8103,-172 1929.8103,-172"/>
<polygon fill="#000000" stroke="#000000" points="1929.8104,-175.5001 1939.8103,-172 1929.8103,-168.5001 1929.8104,-175.5001"/>
</g>
<!-- SelectableTextComponent&#45;&gt;ProjectsModule -->
<g id="edge19" class="edge">
<title>SelectableTextComponent&#45;&gt;ProjectsModule</title>
<path fill="none" stroke="#000000" d="M994.4196,-122.1061C994.4196,-141.3391 994.4196,-169 994.4196,-169 994.4196,-169 1929.7703,-169 1929.7703,-169"/>
<polygon fill="#000000" stroke="#000000" points="1929.7703,-172.5001 1939.7703,-169 1929.7703,-165.5001 1929.7703,-172.5001"/>
</g>
<!-- StatisticsStepComponent -->
<g id="node19" class="node">
<title>StatisticsStepComponent</title>
<polygon fill="#ffffb3" stroke="#000000" points="866.2744,-122 709.7256,-122 709.7256,-86 866.2744,-86 866.2744,-122"/>
<text text-anchor="middle" x="788" y="-99.8" font-family="Times,serif" font-size="14.00" fill="#000000">StatisticsStepComponent</text>
</g>
<!-- StatisticsStepComponent&#45;&gt;ProjectsModule -->
<g id="edge20" class="edge">
<title>StatisticsStepComponent&#45;&gt;ProjectsModule</title>
<path fill="none" stroke="#000000" d="M788,-122.2843C788,-143.3211 788,-175 788,-175 788,-175 1929.4914,-175 1929.4914,-175"/>
<polygon fill="#000000" stroke="#000000" points="1929.4915,-178.5001 1939.4914,-175 1929.4914,-171.5001 1929.4915,-178.5001"/>
</g>
<!-- WizardDeactivationModalComponent -->
<g id="node20" class="node">
<title>WizardDeactivationModalComponent</title>
<polygon fill="#ffffb3" stroke="#000000" points="691.1049,-122 460.8951,-122 460.8951,-86 691.1049,-86 691.1049,-122"/>
<text text-anchor="middle" x="576" y="-99.8" font-family="Times,serif" font-size="14.00" fill="#000000">WizardDeactivationModalComponent</text>
</g>
<!-- WizardDeactivationModalComponent&#45;&gt;ProjectsModule -->
<g id="edge21" class="edge">
<title>WizardDeactivationModalComponent&#45;&gt;ProjectsModule</title>
<path fill="none" stroke="#000000" d="M576,-122.2921C576,-144.2057 576,-178 576,-178 576,-178 1929.5007,-178 1929.5007,-178"/>
<polygon fill="#000000" stroke="#000000" points="1929.5008,-181.5001 1939.5007,-178 1929.5007,-174.5001 1929.5008,-181.5001"/>
</g>
<!-- WizardOptionsModalComponent -->
<g id="node21" class="node">
<title>WizardOptionsModalComponent</title>
<polygon fill="#ffffb3" stroke="#000000" points="442.91,-122 239.09,-122 239.09,-86 442.91,-86 442.91,-122"/>
<text text-anchor="middle" x="341" y="-99.8" font-family="Times,serif" font-size="14.00" fill="#000000">WizardOptionsModalComponent</text>
</g>
<!-- WizardOptionsModalComponent&#45;&gt;ProjectsModule -->
<g id="edge22" class="edge">
<title>WizardOptionsModalComponent&#45;&gt;ProjectsModule</title>
<path fill="none" stroke="#000000" d="M341,-122.0908C341,-145.1328 341,-182 341,-182 341,-182 1929.401,-182 1929.401,-182"/>
<polygon fill="#000000" stroke="#000000" points="1929.4011,-185.5001 1939.401,-182 1929.401,-178.5001 1929.4011,-185.5001"/>
</g>
<!-- WizardReportModalComponent -->
<g id="node22" class="node">
<title>WizardReportModalComponent</title>
<polygon fill="#ffffb3" stroke="#000000" points="221.6797,-122 24.3203,-122 24.3203,-86 221.6797,-86 221.6797,-122"/>
<text text-anchor="middle" x="123" y="-99.8" font-family="Times,serif" font-size="14.00" fill="#000000">WizardReportModalComponent</text>
</g>
<!-- WizardReportModalComponent&#45;&gt;ProjectsModule -->
<g id="edge23" class="edge">
<title>WizardReportModalComponent&#45;&gt;ProjectsModule</title>
<path fill="none" stroke="#000000" d="M123,-122.1532C123,-145.7566 123,-184 123,-184 123,-184 1929.5694,-184 1929.5694,-184"/>
<polygon fill="#000000" stroke="#000000" points="1929.5694,-187.5001 1939.5694,-184 1929.5694,-180.5001 1929.5694,-187.5001"/>
</g>
</g>
</svg>
