<?xml version="1.0" encoding="utf-8"?>
<!-- Generator: Adobe Illustrator 19.1.1, SVG Export Plug-In . SVG Version: 6.00 Build 0)  -->
<svg version="1.1" xmlns="http://www.w3.org/2000/svg" xmlns:xlink="http://www.w3.org/1999/xlink" x="0px" y="0px"
	 viewBox="-305.4 219 226.8 396.9" style="enable-background:new -305.4 219 226.8 396.9;" xml:space="preserve">
<filter  id="glow">
	<feOffset  dx="0" dy="0"></feOffset>
	<feGaussianBlur  result="offset-blur" stdDeviation="6"></feGaussianBlur>
	<feComposite  operator="out" in="SourceGraphic" result="inverse" in2="offset-blur"></feComposite>
	<feFlood  flood-opacity="1" flood-color="rgb(0,175,235)" result="color"></feFlood>
	<feComposite  operator="in" in="color" result="shadow" in2="inverse"></feComposite>
	<feComponentTransfer  in="shadow" result="shadow">
		<feFuncA  type="linear" slope="1.1"></feFuncA>
	</feComponentTransfer>
</filter>
<g id="Front_BODY">
	<path id="frontBody" class="blueDark" d="M-87.2,413c-1.5-1.6-18.6-11.7-22.2-15.1c-3.6-3.5-5.8-9.6-9.4-20.4
		c-3.5-10.8-6.9-16.5-8.7-19c-3.8-5.6-6.6-5.4-6.8-9.2c-0.3-8.4-1.1-17.3-2.8-23c-1.5-5.1-3.1-8.2-3.3-13.4
		c-0.1-5.2,0.7-11-2.3-17.6c-3-6.6-13.7-8.8-20-10.2c-9.9-2.1-18-12.1-18.4-15.4c1.4-0.7,2.4-1.4,2.7-2c1.1-1.7,1.5-6.2,3.3-9.2
		c1.8-2.9,2.5-7,1.9-8s-2.2,0.1-2.2-1c0-1.1,2.7-12.1-3.1-19.4c-5.8-7.4-8.2-6.8-13.4-6.8c-5.1,0-7.6-0.5-13.3,6.8
		c-5.8,7.4-3.1,18.4-3.1,19.4c0,1.1-1.7,0.1-2.3,1c-0.6,0.9,0.4,4.9,2,8c1,2,1.4,4.3,3.1,8.6c0.3,0.7,1.5,1.6,3.1,2.5
		c-0.4,3.3-8.5,13.3-18.4,15.4c-6.3,1.3-17.1,3.5-20,10.2c-3,6.6-2.1,12.3-2.3,17.6c-0.1,5.2-1.8,8.3-3.2,13.4
		c-1.7,5.8-2.5,14.6-2.8,23c-0.2,3.8-3,3.5-6.8,9.2c-1.8,2.6-5.2,8.3-8.7,19c-3.5,10.8-5.8,17-9.4,20.4
		c-3.5,3.4-20.8,13.5-22.2,15.1c-1.5,1.6-0.1,2.1,0.5,2.2c0.6,0.1,8,0.7,10.6-2.2c2.7-2.9,0.1,2.3,0.1,2.3s-7,16.5-6.9,18.6
		c0.1,2.2,2.9,0.9,3.3,0c0.5-0.9-0.1,2.6,0.3,3.6c0.3,0.8,0.9,2.7,3.4-0.6c0.8-1.1,0.8-0.5,0.8,0.3c0,1.2,1,3.5,2.9,1.2
		c0.7-0.8,1.2-2.5,1.6-3.5c0.3-0.6,0.4-0.5,0.5,0.2c0.1,1.4,1.2,3.2,2.7,1.5c2.2-2.5,7.4-11.5,9.1-25.7c1.1-9.5,3.5-9.2,6.9-13
		c4.3-4.8,16.3-18.8,19.6-25.4s3.3-9.9,5.2-15.6c2-5.6,7.5-10.9,7.9-22.9c0,0,8,19.4,9,22c1,2.5,0.7,17.1-1.4,24.8
		c-2.1,7.6-5.1,21.6-5.6,44.4c-0.5,22.7,3.7,52.9,6.4,60.7s0.6,13.5-0.4,21.4c-1.1,7.8-1.7,17.3,0,26.1c1.7,8.8,6.8,23.4,7.5,27.6
		c0.8,4.1,3.3,13.9,3,19.4c-0.3,5.5,0.9,19.7-8.5,26.3c-9.3,6.6,7.7,5.6,9.8,5.6c3.2-0.1,9.9,1.7,10-6.6c0.1-8.3-1.9-19.3-1.1-32.5
		c0.7-13.1,2.3-19,3.1-28.9c0.7-9.8-1.2-26.3-3.2-38.1s-0.7-15.5,0-22c0.7-6.5,4.8-43.3,5.4-50.2c0.3-3.3,1.5-7.7,2-8.5h-0.1
		c0-0.2,0.1-0.2,0.2,0c0.1-0.1,0.2-0.2,0.2,0h-0.2c0.5,0.8,1.7,5.2,2,8.5c0.6,6.9,4.6,43.3,5.3,49.8c0.7,6.5,2,10.4,0,22.2
		c-1.9,11.8-3.8,28.3-3.1,38.2c0.8,9.8,2.3,15.9,3.1,29c0.8,13.1-1.3,24.1-1.2,32.4c0.1,8.3,6.8,6.6,10,6.6c2.1,0.1,19,1,9.7-5.6
		c-9.3-6.6-8.2-20.8-8.5-26.3c-0.3-5.5,2.3-15.3,3.1-19.4c0.7-4.2,5.8-18.8,7.5-27.6s1-18.3,0-26.1c-1.1-7.9-3.1-13.7-0.4-21.4
		c2.7-7.8,6.8-38,6.3-60.7c-0.5-22.8-3.5-36.8-5.6-44.4c-2.1-7.6-2.5-22.2-1.4-24.8c1-2.5,9-22,9-22c0.4,12,5.9,17.3,7.8,22.9
		c2,5.7,2,9,5.3,15.6c3.3,6.6,15.3,20.6,19.6,25.4c3.5,3.8,5.7,3.5,6.8,13c1.7,14.1,7.8,22.7,9.9,25.2c2.1,2.5,1.2-2.4,1.2-2.4
		s0.9,2.7,2.9,4.5c4,3.9,1.2-3.9,3.3-1.2c2.5,3.3,3.4,1.3,3.7,0.5c0.3-1-0.1-4.4,0.3-3.6c0.4,0.9,3.2,2.2,3.3,0
		c0.1-2.1-6.8-18.6-6.8-18.6s-2.5-5.2,0.1-2.3c2.7,2.9,10,2.3,10.6,2.2C-87.1,415-85.7,414.5-87.2,413z"/>
</g>
<g id="FRONTMusclesLEFT">
	<path id="frontFootLeft" class="blue" d="M-207.2,583.6c0-0.1,5.5,6.3,7,11.3c0.7,2.3,1.6,9.6-0.1,9.8c0,0-7.6-8.2-7.6-8.2
		C-209.4,593.9-208.3,587.2-207.2,583.6z M-205.6,576.9c0,0,3.8,1.9,4.6,4c0.4,1,1.1,6.1,0,6.2c0,0-4.8-6.2-4.8-6.2
		C-206.7,579.8-206.4,578.4-205.6,576.9z M-211.4,601c0.5-2,3.9-0.8,5.3,1.3c1.3,1.9,0.4,7.8-1.1,8c-5.9,0.6-9.8-0.8-9.8-0.8
		C-218.5,606.8-212.5,605.5-211.4,601z M-203.9,604.4c-0.1-1.2,1.2-0.7,1.9,0.4c0.7,1.1,1.3,4.8,0.8,5c-1.9,0.8-3.4,0.2-3.4,0.2
		C-205.4,608.4-203.6,607.2-203.9,604.4z"/>
	<path id="frontGastrocnemiusLeft" class="blue" d="M-201.2,511.9c8,14.5,3.5,45.4-0.5,57.9C-206.2,552.8-206.2,526.5-201.2,511.9z"
		/>
	<path id="frontTibialLeft2" class="blue" d="M-217.3,504.4c10.9,18.5,9.6,49.2,15.2,72.8c-4.2-8.2-10.5-44.5-15.5-62.4
		C-219.2,509.4-217.5,505.5-217.3,504.4z"/>
	<path id="frontTibialLeft1" class="blue" d="M-205.3,574.5c-6.9-16.5-15.1-43.9-13.7-58.8c0.5,0.1,3,7.7,5.3,18
		C-210.4,548.5-207.1,568.3-205.3,574.5z"/>
	<path id="frontkneeLeft" class="blue" d="M-202.4,488.4c3.7,4.7,0.1,20.4-3.1,27.7C-209.4,506.9-202.1,497.5-202.4,488.4z"/>
	<path id="frontVastoMedLeft" class="blue" d="M-201.2,484.8c-0.1,0.2-0.8,1.2-0.9,1.3c-0.5,0.4-1.4,0.1-1.7-0.7
		c-3.4-9.6,3.6-26.8-0.3-39.5C-197.8,456.3-196.2,473.6-201.2,484.8z"/>
	<path id="frontBicepsFemLeft2" class="blue" d="M-213.1,485.5c-9.8-12.4-11.7-37.6-11.1-62.7c0.2,0.4,2.9,9.6,5.8,21.3
		C-214.6,459-209.6,476.9-213.1,485.5z"/>
	<path id="frontBicepsFemLeft1" class="blue" d="M-222.9,422.1c-0.4-7.9-0.3-23.4,2.1-28.1c4,15.5,13.7,35.3,15.3,56.5
		c0.9,12,1.7,28.3-5,36.4C-208,470.2-221.4,428.1-222.9,422.1z"/>
	<path id="frontSartoriusLeft" class="blue" d="M-200.9,424.7c3.9,12,2.8,13.5,3.4,29.6c0,0.2-1.1-0.1-1.1-0.3
		c-4.3-21.9-17.9-39.5-18.4-61.7C-212.2,403.6-205.3,412.9-200.9,424.7z"/>
	<path id="frontAdductorLeft2" class="blue" d="M-197.5,435.6c-2.8-11.9-1.3-17.8,3.4-26.4C-192.1,417-192.7,430.9-197.5,435.6z"/>
	<path id="frontAdductorLeft1_1_" class="blue" d="M-196.4,409c-1.4,3.9-2.4,8.4-5,11.1c-1.1-11-10-19.7-11.1-27.3
		C-207.6,398.5-200.3,402.1-196.4,409z"/>
	<path id="frontFlexorLeft4" class="blue" d="M-240.2,356.3c3.3,0,1.2,5.5,1.5,8.5c0,0.4-0.2,0.7-0.5,0.7c-4.4,0.7-5.8,4.4-10.3,4.9
		c-0.5,0.1-0.9-0.5-0.7-0.9c2.3-5.1,6.2-8.8,9.5-13C-240.6,356.4-240.4,356.3-240.2,356.3z"/>
	<path id="frontFlexorLeft3" class="blue" d="M-265.4,398.3c4.8-6.6,15.4-16.3,21.2-25.3C-244.3,380.4-258,391.5-265.4,398.3z"/>
	<path id="frontFlexorLeft2" class="blue" d="M-247.2,372c-5.7,9.8-14.2,16.8-20.2,26.3C-264.8,389.5-257.1,376.9-247.2,372z"/>
	<path id="frontFlexorLeft1" class="blue" d="M-245.9,352c-1.5,16-11.7,24.7-19.2,36.4c-0.1,0.1-5.6,11.6-4,6
		C-265.2,380.1-259,361.9-245.9,352z"/>
	<path id="frontAbdominalLeft4" class="blue" d="M-195.9,403.2c-0.8-0.2-3-0.8-3.8-1.3c-5.9-4.1-8.5-19.1-8.1-29.8
		c0-1.5,0.2-3,0.3-4.3c4.3-1.4,11.1,4.1,11.4,5.3C-193.9,380.8-194.5,397.7-195.9,403.2z"/>
	<path id="frontAbdominalLeft3" class="blue" d="M-194.6,355.8V367c-4.4-0.3-7.8-1.7-13.1-1c-0.9-0.9-1.8-1.2-2.1-3.1
		C-210.8,353.7-199.9,353.1-194.6,355.8z"/>
	<path id="frontAbdominalLeft2" class="blue" d="M-194.6,339.6c0.1,4.2,0.2,8.3-1,11.1c-4.7,0.1-9.9-0.5-13.2,1
		C-210.4,341.4-201.7,338.3-194.6,339.6z"/>
	<path id="frontAbdominalLeft1" class="blue" d="M-194.2,327.3l-0.4,7.3c-4,1.6-11,1.2-13.1,5C-211.3,331.8-203.1,326.1-194.2,327.3
		z"/>
	<path id="frontObliqueLeft5" class="blue" d="M-216.5,357.9c8.3,4.5,5.8,20.5,6.7,32.3c-2.3,0-4.6-1.4-5.6-2.8
		C-220,381.1-215.5,365.9-216.5,357.9z"/>
	<path id="frontObliqueLeft4" class="blue" d="M-221.5,342.5c3,3.7,9.2,4.2,8.1,12.1C-220.3,354.7-219.8,347.5-221.5,342.5z"/>
	<path id="frontObliqueLeft3" class="blue" d="M-220.8,335.6c2.9-0.3,4.1,0.2,5.7,2.3c2,2.7,1.9,3.6,1.4,6.8
		C-218.1,343.7-219.4,339.6-220.8,335.6z"/>
	<path id="frontObliqueLeft2" class="blue" d="M-219.2,328.2c4.3,0.1,9.4,3.5,6,8C-216.4,335.1-220.8,331-219.2,328.2z"/>
	<path id="frontObliqueLeft1" class="blue" d="M-211.7,328.6c-4.2-0.6-6.3-3.2-9.1-5.1C-219.7,319.5-207.4,323.7-211.7,328.6z"/>
	<path id="frontSerratusAntLeft" class="blue" d="M-226.3,318.2c4,4.6,6.9,15.2,4,23.3C-226.5,336.6-225.5,326.5-226.3,318.2z"/>
	<path id="frontTricepsLeft" class="blue" d="M-231,338.7c1.7,7-6.2,13.3-13.1,15.2C-239,349.6-234.6,344.6-231,338.7z"/>
	<path id="frontBicepsLeft" class="blue" d="M-228.7,315.3c2,15.3-4.8,29.3-17.3,33.4C-247,334.7-248.2,312.1-228.7,315.3z"/>
	<path id="frontPectoralisMajorLeft" class="blue" d="M-226.7,314.9c2.5-14.8,19.8-31.5,33.4-17.2V322
		C-204.3,329.5-218.3,319.6-226.7,314.9z"/>
	<path id="frontDeltoidLeft2" class="blue" d="M-225.9,289.1c-6.6,5.6-11.8,12.4-14.1,22.2C-244.9,302-238.9,287.3-225.9,289.1z"/>
	<path id="frontDeltoidLeft1" class="blue" d="M-219.8,290.1c1.2,11.3-6.9,22.2-19.2,23.3C-236.2,302.1-228.7,295.4-219.8,290.1z"/>
	<path id="frontTrapezeLeft" class="blue" d="M-204.7,280c-0.9,6.7-7.8,11-15.1,8.1C-215.7,284.5-211.2,281.2-204.7,280z
		 M-203.3,285c1.5,0.9,2.1,2.5,2,5h-4C-205.5,287.6-203.8,287-203.3,285z M-200.9,271.9c1.3,8.2,10.5,13.7,7.1,23.3
		C-196.8,289.1-205.6,278.9-200.9,271.9z"/>
	<path id="frontAdamApple" class="blue" d="M-194.7,274.8h6.6c-0.2,4.2-1.3,8.1-3.3,10.7C-193.4,282.8-194.7,279.4-194.7,274.8z"/>
</g>
<g id="FRONTMusclesRIGHT">
	<path id="frontFootRight" class="blue" d="M-175,596.5c0,0-7.6,8.2-7.6,8.2c-1.6-0.2-0.8-7.5-0.1-9.8c1.5-5,7-11.4,7-11.3
		C-174.6,587.2-173.5,593.9-175,596.5z M-177.2,581c0,0-4.8,6.2-4.8,6.2c-1.1,0-0.3-5.2,0-6.2c0.8-2.1,4.6-4.1,4.6-4
		C-176.5,578.4-176.3,579.8-177.2,581z M-165.9,609.4c0,0-3.9,1.4-9.8,0.8c-1.5-0.2-2.4-6.1-1.1-8c1.4-2,4.7-3.2,5.3-1.3
		C-170.4,605.5-164.4,606.8-165.9,609.4z M-178.5,609.9c0,0-1.5,0.6-3.4-0.2c-0.5-0.2,0.1-3.9,0.8-5c0.8-1.1,2-1.7,1.9-0.4
		C-179.3,607.2-177.6,608.4-178.5,609.9z"/>
	<path id="frontGastrocnemiusRight" class="blue" d="M-181.2,569.8c-4-12.5-8.5-43.4-0.5-57.9C-176.7,526.5-176.8,552.8-181.2,569.8
		z"/>
	<path id="frontTibialRight2" class="blue" d="M-165.3,514.9c-5.1,17.8-11.4,54.2-15.5,62.4c5.6-23.6,4.3-54.4,15.2-72.8
		C-165.5,505.5-163.7,509.4-165.3,514.9z"/>
	<path id="frontTibialRight1" class="blue" d="M-169.3,533.8c2.3-10.4,4.8-18,5.3-18c1.4,14.8-6.8,42.3-13.7,58.8
		C-175.8,568.3-172.5,548.5-169.3,533.8z"/>
	<path id="frontKneeRight" class="blue" d="M-177.4,516.1c-3.2-7.3-6.8-23-3.1-27.7C-180.8,497.5-173.6,506.9-177.4,516.1z"/>
	<path id="frontVastoMedRight" class="blue" d="M-178.7,445.9c-3.9,12.6,3.1,29.8-0.3,39.5c-0.3,0.7-1.2,1.1-1.7,0.7
		c-0.2-0.1-0.9-1.1-0.9-1.3C-186.7,473.6-185.1,456.3-178.7,445.9z"/>
	<path id="frontBicepsFemRight2" class="blue" d="M-164.6,444.1c2.9-11.8,5.6-20.9,5.8-21.3c0.6,25.1-1.3,50.3-11.1,62.7
		C-173.3,476.9-168.3,459-164.6,444.1z"/>
	<path id="frontBicepsFemRight1" class="blue" d="M-172.4,487c-6.8-8.1-6-24.4-5-36.4c1.6-21.2,11.2-41,15.3-56.5
		c2.5,4.7,2.5,20.2,2.1,28.1C-161.6,428.1-175,470.2-172.4,487z"/>
	<path id="frontSartoriusRight" class="blue" d="M-165.9,392.3c-0.5,22.2-14,39.9-18.4,61.7c0,0.2-1.1,0.4-1.1,0.3
		c0.6-16.1-0.5-17.5,3.4-29.6C-177.7,412.9-170.7,403.6-165.9,392.3z"/>
	<path id="frontAdductorRight2" class="blue" d="M-188.8,409.2c4.7,8.6,6.1,14.5,3.4,26.4C-190.2,430.9-190.8,417-188.8,409.2z"/>
	<path id="frontAdductorRight1" class="blue" d="M-170.4,392.8c-1.1,7.6-10,16.3-11.1,27.3c-2.7-2.8-3.7-7.2-5-11.1
		C-182.6,402.1-175.4,398.5-170.4,392.8z"/>
	<path id="frontFlexorRight4" class="blue" d="M-142.2,356.6c3.3,4.2,7.2,7.8,9.5,13c0.2,0.5-0.2,1-0.7,0.9c-4.6-0.5-6-4.2-10.3-4.9
		c-0.4-0.1-0.6-0.4-0.5-0.7c0.4-3-1.8-8.5,1.5-8.5C-142.5,356.3-142.3,356.4-142.2,356.6z"/>
	<path id="frontFlexorRight3" class="blue" d="M-138.8,373c5.8,9,16.4,18.7,21.2,25.3C-124.9,391.5-138.7,380.4-138.8,373z"/>
	<path id="frontFlexorRight2" class="blue" d="M-115.5,398.3c-6-9.5-14.5-16.5-20.2-26.3C-125.8,376.9-118.2,389.5-115.5,398.3z"/>
	<path id="frontFlexorRight1" class="blue" d="M-113.8,394.5c1.5,5.6-4-6-4-6c-7.4-11.7-17.7-20.4-19.2-36.4
		C-123.9,361.9-117.8,380.1-113.8,394.5z"/>
	<path id="frontAbdominalRight4" class="blue" d="M-186.9,373.2c0.3-1.2,7.2-6.7,11.4-5.3c0.2,1.3,0.3,2.8,0.3,4.3
		c0.3,10.6-2.2,25.7-8.1,29.8c-0.7,0.5-2.9,1.1-3.8,1.3C-188.4,397.7-189,380.8-186.9,373.2z"/>
	<path id="frontAbdominalRight3" class="blue" d="M-173.2,362.9c-0.3,1.8-1.2,2.2-2.1,3.1c-5.3-0.7-8.7,0.7-13.1,1v-11.1
		C-183.1,353.1-172.1,353.7-173.2,362.9z"/>
	<path id="frontAbdominalRight2" class="blue" d="M-174.2,351.8c-3.3-1.5-8.5-0.9-13.2-1c-1.2-2.9-1.1-7-1-11.1
		C-181.2,338.3-172.6,341.4-174.2,351.8z"/>
	<path id="frontAbdominalRight1" class="blue" d="M-175.2,339.6c-2.2-3.8-9.1-3.4-13.1-5l-0.4-7.3
		C-179.8,326.1-171.7,331.8-175.2,339.6z"/>
	<path id="frontObliqueRight5" class="blue" d="M-167.6,387.4c-1,1.4-3.3,2.8-5.6,2.8c0.9-11.9-1.6-27.8,6.7-32.3
		C-167.5,365.9-163,381.1-167.6,387.4z"/>
	<path id="frontObliqueRight4" class="blue" d="M-169.5,354.6c-1.1-7.9,5.1-8.4,8.1-12.1C-163.1,347.5-162.7,354.7-169.5,354.6z"/>
	<path id="frontObliqueRight3" class="blue" d="M-169.1,344.7c-0.5-3.2-0.6-4,1.4-6.8c1.6-2.1,2.7-2.6,5.7-2.3
		C-163.5,339.6-164.8,343.7-169.1,344.7z"/>
	<path id="frontObliqueRight2" class="blue" d="M-169.8,336.2c-3.3-4.5,1.7-8,6-8C-162.1,331-166.6,335.1-169.8,336.2z"/>
	<path id="frontObliqueRight1" class="blue" d="M-162.1,323.5c-2.8,1.9-4.9,4.5-9.1,5.1C-175.6,323.7-163.2,319.5-162.1,323.5z"/>
	<path id="frontSerratusAntRight" class="blue" d="M-160.7,341.5c-2.9-8.1,0.1-18.7,4-23.3C-157.5,326.5-156.4,336.6-160.7,341.5z"
		/>
	<path id="frontTricepsRight" class="blue" d="M-138.8,353.9c-6.9-1.9-14.8-8.2-13.1-15.2C-148.4,344.6-144,349.6-138.8,353.9z"/>
	<path id="frontBicepsRight" class="blue" d="M-136.9,348.7c-12.4-4.1-19.2-18.1-17.3-33.4C-134.8,312.1-135.9,334.7-136.9,348.7z"
		/>
	<path id="frontPectoralisMajorRight" class="blue" d="M-189.6,322v-24.3c13.6-14.3,30.9,2.4,33.4,17.2
		C-164.7,319.6-178.6,329.5-189.6,322z"/>
	<path id="frontDeltoidRight2" class="blue" d="M-142.9,311.3c-2.3-9.8-7.6-16.7-14.1-22.2C-144.1,287.3-138,302-142.9,311.3z"/>
	<path id="frontDeltoidRight1" class="blue" d="M-143.9,313.4c-12.3-1.1-20.4-11.9-19.2-23.3C-154.3,295.4-146.8,302.1-143.9,313.4z
		"/>
	<path id="frontTrapezeRight" class="blue" d="M-163.1,288.1c-7.3,2.9-14.3-1.4-15.1-8.1C-171.7,281.2-167.3,284.5-163.1,288.1z
		 M-177.5,290.1h-4c-0.1-2.5,0.5-4.2,2-5C-179.1,287-177.4,287.6-177.5,290.1z M-189.1,295.2c-3.4-9.6,5.8-15.1,7.1-23.3
		C-177.4,278.9-186.2,289.1-189.1,295.2z"/>
</g>
<g id="Front_Body_Glow">
	<g id="frontBodyGlow" class="st0">
		<path class="st1" d="M-87.2,413c-1.5-1.6-18.6-11.7-22.2-15.1c-3.6-3.5-5.8-9.6-9.4-20.4c-3.5-10.8-6.9-16.5-8.7-19
			c-3.8-5.6-6.6-5.4-6.8-9.2c-0.3-8.4-1.1-17.3-2.8-23c-1.5-5.1-3.1-8.2-3.3-13.4c-0.1-5.2,0.7-11-2.3-17.6c-3-6.6-13.7-8.8-20-10.2
			c-9.9-2.1-18-12.1-18.4-15.4c1.4-0.7,2.4-1.4,2.7-2c1.1-1.7,1.5-6.2,3.3-9.2c1.8-2.9,2.5-7,1.9-8s-2.2,0.1-2.2-1
			c0-1.1,2.7-12.1-3.1-19.4c-5.8-7.4-8.2-6.8-13.4-6.8c-5.1,0-7.6-0.5-13.3,6.8c-5.8,7.4-3.1,18.4-3.1,19.4c0,1.1-1.7,0.1-2.3,1
			c-0.6,0.9,0.4,4.9,2,8c1,2,1.4,4.3,3.1,8.6c0.3,0.7,1.5,1.6,3.1,2.5c-0.4,3.3-8.5,13.3-18.4,15.4c-6.3,1.3-17.1,3.5-20,10.2
			c-3,6.6-2.1,12.3-2.3,17.6c-0.1,5.2-1.8,8.3-3.2,13.4c-1.7,5.8-2.5,14.6-2.8,23c-0.2,3.8-3,3.5-6.8,9.2c-1.8,2.6-5.2,8.3-8.7,19
			c-3.5,10.8-5.8,17-9.4,20.4c-3.5,3.4-20.8,13.5-22.2,15.1c-1.5,1.6-0.1,2.1,0.5,2.2c0.6,0.1,8,0.7,10.6-2.2
			c2.7-2.9,0.1,2.3,0.1,2.3s-7,16.5-6.9,18.6c0.1,2.2,2.9,0.9,3.3,0c0.5-0.9-0.1,2.6,0.3,3.6c0.3,0.8,0.9,2.7,3.4-0.6
			c0.8-1.1,0.8-0.5,0.8,0.3c0,1.2,1,3.5,2.9,1.2c0.7-0.8,1.2-2.5,1.6-3.5c0.3-0.6,0.4-0.5,0.5,0.2c0.1,1.4,1.2,3.2,2.7,1.5
			c2.2-2.5,7.4-11.5,9.1-25.7c1.1-9.5,3.5-9.2,6.9-13c4.3-4.8,16.3-18.8,19.6-25.4s3.3-9.9,5.2-15.6c2-5.6,7.5-10.9,7.9-22.9
			c0,0,8,19.4,9,22c1,2.5,0.7,17.1-1.4,24.8c-2.1,7.6-5.1,21.6-5.6,44.4c-0.5,22.7,3.7,52.9,6.4,60.7s0.6,13.5-0.4,21.4
			c-1.1,7.8-1.7,17.3,0,26.1c1.7,8.8,6.8,23.4,7.5,27.6c0.8,4.1,3.3,13.9,3,19.4c-0.3,5.5,0.9,19.7-8.5,26.3
			c-9.3,6.6,7.7,5.6,9.8,5.6c3.2-0.1,9.9,1.7,10-6.6c0.1-8.3-1.9-19.3-1.1-32.5c0.7-13.1,2.3-19,3.1-28.9c0.7-9.8-1.2-26.3-3.2-38.1
			s-0.7-15.5,0-22c0.7-6.5,4.8-43.3,5.4-50.2c0.3-3.3,1.5-7.7,2-8.5h-0.1c0-0.2,0.1-0.2,0.2,0c0.1-0.1,0.2-0.2,0.2,0h-0.2
			c0.5,0.8,1.7,5.2,2,8.5c0.6,6.9,4.6,43.3,5.3,49.8c0.7,6.5,2,10.4,0,22.2c-1.9,11.8-3.8,28.3-3.1,38.2c0.8,9.8,2.3,15.9,3.1,29
			c0.8,13.1-1.3,24.1-1.2,32.4c0.1,8.3,6.8,6.6,10,6.6c2.1,0.1,19,1,9.7-5.6c-9.3-6.6-8.2-20.8-8.5-26.3c-0.3-5.5,2.3-15.3,3.1-19.4
			c0.7-4.2,5.8-18.8,7.5-27.6s1-18.3,0-26.1c-1.1-7.9-3.1-13.7-0.4-21.4c2.7-7.8,6.8-38,6.3-60.7c-0.5-22.8-3.5-36.8-5.6-44.4
			c-2.1-7.6-2.5-22.2-1.4-24.8c1-2.5,9-22,9-22c0.4,12,5.9,17.3,7.8,22.9c2,5.7,2,9,5.3,15.6c3.3,6.6,15.3,20.6,19.6,25.4
			c3.5,3.8,5.7,3.5,6.8,13c1.7,14.1,7.8,22.7,9.9,25.2c2.1,2.5,1.2-2.4,1.2-2.4s0.9,2.7,2.9,4.5c4,3.9,1.2-3.9,3.3-1.2
			c2.5,3.3,3.4,1.3,3.7,0.5c0.3-1-0.1-4.4,0.3-3.6c0.4,0.9,3.2,2.2,3.3,0c0.1-2.1-6.8-18.6-6.8-18.6s-2.5-5.2,0.1-2.3
			c2.7,2.9,10,2.3,10.6,2.2C-87.1,415-85.7,414.5-87.2,413z"/>
	</g>
</g>
<!-- <g id="Front_Organs">
	<path id="frontLungs" class="st2" d="M-161,316.4c0-0.2,0-0.5,0-0.7c-0.6-3.7-3.1-9.9-6.5-13.6c-2.9-3.2-14-12.8-18.7-6
		c-3.3,4.8-0.7,10.3-1.3,15.5c-0.1,0-0.3-0.1-0.4-0.1c-0.9-0.2-1.2-1.4-1.1-2.3c0.1-5.9,0.4-24.7,0.7-31.3c0.1-3.3-3.9-2.9-4.7-2
		c-1.1,1.3-0.5,5.7-0.5,5.7s0.9,11.8,0,19.9c-0.3,3.1,0.4,9.3-1.3,9.7c-0.1,0-0.1,0-0.2,0.1c-0.5-5.1,2-10.5-1.3-15.2
		c-4.8-6.8-15.8,2.8-18.7,6c-3.4,3.7-5.9,10-6.5,13.6c-0.1,0.3-0.1,0.7-0.1,1c-1,4.2-3.6,16.4-1.7,22.5c1.4,4.6,11.9,1.6,14.1,1.5
		c8.4-0.4,8.5-5.8,8-8.4c-1-4.6,2-5.8,2-8.6c0,0,0,0,0,0c1.2-0.8,2.1-1.9,3.1-3.9c0.4-0.8,1.2-2.3,1.5-4.2c0.7-0.4,1.5-1,2.4-1.7
		c0.5-0.4,1.2-0.4,1.7,0c1.2,0.9,2,1.5,3,2.1c0.3,1.7,1.1,3.1,1.5,3.9c1,2,1.9,3.1,3.1,3.9c0,0,0,0,0,0c0,2.8,2.9,4,2,8.6
		c-0.6,2.6-0.4,8,8,8.4c2.2,0.1,12.7,3.1,14.1-1.5C-157.3,332.9-160,320.2-161,316.4z"/>
	<path id="frontHeart" class="st3" d="M-178.1,325.1c-1.2-2.9-2-5.2-2.8-5.9c-0.4-0.3-0.8-0.6-1.2-0.8c0.1,0,0.1,0,0.2,0
		c0,0,0.8-0.2,0.7-1.7c-0.1-1.7-0.9-1.5-0.9-1.5c-0.5,0.1-1,0.1-1.5,0.2c0-0.1,0-0.1,0-0.2c0.3,0,0.5,0,0.9,0.1c0.2,0,0.8-1,0.8-1.7
		c0-1.8-0.5-1.7-1-1.9c-0.3-0.1-1.2-0.2-2.3-0.1c0,0,0,0,0-0.1c1-0.5,1.7-0.9,1.7-0.9s0.6-0.2-0.1-1.1c-0.7-0.8-1-0.7-1.3-0.4
		c0.8-1.4,1.1-1.5,1.1-1.5s0.1-0.3-0.3-0.6c-0.7-0.6-0.9-0.2-0.9-0.2l-1.3,2.1l0-2c0,0-0.2-0.4-1.1-0.4c-0.8,0.1-0.8,0.6-0.8,0.6
		s0.2,2.4,0.3,4c-0.3,0.1-0.5,0.3-0.8,0.4c-0.9-1-2-2.6-2-2.6s-0.2-0.4-1.2-0.1c-0.9,0.3-0.6,0.8-0.6,0.8s0.2,0.2,0.5,0.6
		c-0.2,0-0.5,0-0.9,0.2c-1,0.4-0.8,1-0.8,1s0.3,0.9,0.5,3.4c0.2,2.4-0.6,3.8-0.9,5.4c-0.4,0.3-0.7,0.8-1.1,1.3c-1.8,2.8-0.1,6,2.3,7
		c2.5,1.1,3.2,1.4,6.3,1.7c3.1,0.3,3.9,0.6,6.6-0.3C-177.2,329.1-176.9,328.1-178.1,325.1z M-184.6,309.3c0.1-0.2,0.5-0.1,0.8,0.2
		c0.3,0.3,0.4,0.7,0.3,0.9c-0.1,0.2-0.5,0.1-0.8-0.2C-184.6,309.9-184.7,309.5-184.6,309.3z M-184.8,306.9c0.1-0.1,0.3-0.1,0.6,0
		c0.3,0.2,0.4,0.4,0.3,0.6c-0.1,0.1-0.3,0.1-0.6,0C-184.7,307.3-184.9,307.1-184.8,306.9z M-192.2,311.4c-0.5,0.2-1,0.2-1.2,0
		c-0.2-0.2,0.1-0.6,0.6-0.9c0.5-0.2,1-0.2,1.2,0C-191.4,310.8-191.7,311.2-192.2,311.4z M-191.4,309.6c-0.4,0.1-0.8,0-0.9-0.2
		c-0.1-0.2,0.2-0.5,0.7-0.6c0.4-0.1,0.8,0,0.9,0.2C-190.7,309.3-191,309.5-191.4,309.6z M-187,307.4c-0.4,0-0.8-0.1-0.9-0.3
		c-0.1-0.2,0.2-0.4,0.7-0.5c0.4,0,0.8,0.1,0.9,0.3C-186.3,307.2-186.6,307.4-187,307.4z M-182.6,316.8c0-0.7,0.3-1.2,0.6-1.2
		s0.6,0.6,0.6,1.2c0,0.7-0.3,1.2-0.6,1.2S-182.6,317.5-182.6,316.8z"/>
</g> -->
<!-- <g id="configuration">
	<circle id="bMap-v1" class="bMap-sensors" cx="-198" cy="325" r="3"/>
	<circle id="bMap-v2" class="bMap-sensors" cx="-185" cy="325" r="3"/>
	<circle id="bMap-v3" class="bMap-sensors" cx="-175" cy="330" r="3"/>
	<circle id="bMap-v4" class="bMap-sensors" cx="-168" cy="337" r="3"/>
	<circle id="bMap-v5" class="bMap-sensors" cx="-163" cy="342" r="3"/>
</g> -->
</svg>
