<?xml version="1.0" encoding="utf-8"?>
<!-- Generator: Adobe Illustrator 19.1.1, SVG Export Plug-In . SVG Version: 6.00 Build 0)  -->
<svg version="1.1" xmlns="http://www.w3.org/2000/svg" xmlns:xlink="http://www.w3.org/1999/xlink" x="0px" y="0px"
	 viewBox="-305.4 219 226.8 396.9" style="enable-background:new -305.4 219 226.8 396.9;" xml:space="preserve">
<filter  id="glow">
	<feOffset  dx="0" dy="0"></feOffset>
	<feGaussianBlur  result="offset-blur" stdDeviation="6"></feGaussianBlur>
	<feComposite  operator="out" in="SourceGraphic" result="inverse" in2="offset-blur"></feComposite>
	<feFlood  flood-opacity="1" flood-color="rgb(0,175,235)" result="color"></feFlood>
	<feComposite  operator="in" in="color" result="shadow" in2="inverse"></feComposite>
	<feComponentTransfer  in="shadow" result="shadow">
		<feFuncA  type="linear" slope="1.1"></feFuncA>
	</feComponentTransfer>
</filter>
<g id="FRONTBODY">
	<path id="frontBody" class="blueDark" d="M-86.3,418.1c-0.3-1.7-7-5.4-7.7-6c-0.4-0.4-7.4-3.7-11.3-5.1c-1-0.4-4.9-3.1-6.5-5.9
		c-2-3.5-8.2-20.5-12.7-29.9c-4.3-8.9-10.8-13.8-11.2-14.3c-0.2-0.3-3.3-14.8-4.4-18.2c-1.6-5.2-5.5-12.8-7.2-22.3
		c-0.6-3.4-1-10.6-2.3-13.3c-2.9-6.1-11.8-6.3-16.7-7c-6.5-1-9.5,1.4-13.4-4.8c-1.3-2.1-1.7-6.5-1.9-8c3.4-3.6,5.9-10.4,5.9-10.5
		c1.5-0.7,3.1-1.7,3.6-3.2c0.8-2.4,1.2-6.4,1.4-8.2c0.1-1.1-0.2-2.5-1.6-1.9c-0.5,0.2-1.1,1.2-1.1,0.6c0,0-0.2-2.7-0.1-3.6
		c0.5-6.4-0.6-19.3-16.9-19.6c-16.3,0.4-17.4,13.2-16.9,19.6c0.1,0.9-0.1,3.6-0.1,3.6c0,0.5-0.6-0.4-1.1-0.6
		c-1.4-0.6-1.7,0.9-1.6,1.9c0.2,1.8,0.6,5.8,1.4,8.2c0.5,1.6,2.1,2.5,3.6,3.2c-0.2,4.7,2.4,7.7,5.6,10.4c-0.2,1.3-0.5,5.9-1.9,8.1
		c-3.9,6.2-6.9,3.8-13.4,4.8c-4.9,0.7-13.8,0.9-16.7,7c-1.3,2.7-1.7,9.9-2.3,13.3c-1.6,9.5-5.6,17.1-7.2,22.3
		c-1,3.4-4.6,17.6-4.8,17.9c-0.4,0.5-6.5,5.6-10.8,14.5c-4.5,9.4-10.7,26.4-12.7,29.9c-1.6,2.8-5.5,5.7-6.5,6
		c-3.9,1.4-10.9,4.7-11.3,5.1c-0.7,0.6-7.4,4.3-7.7,6c-0.2,1.5,1,1.8,2.6,1.5c1.9-0.4,4.4-2.5,5.9-3.1c1.4-0.5,2.7,0.2,3.7,0
		c-2.2,3.9-2.5,5.2-3.1,8c-1,4.3-3.1,9.2-4.1,11.8c-1.3,3.3,1.7,4.3,2.6,2.5c1.8-3.7,4.3-10.1,5-11.3c0.4-0.8,0.8-0.4,0.5,0.2
		c-0.5,1.1-2.1,5.5-2.1,5.5s-0.7,2.1-1.6,4.4c-0.5,1.4-0.8,1.7-1.1,3c-0.3,1.5,0.2,1.9,0.8,2.1c2,0.7,3.1-2.2,3.1-2.2
		s3.7-9.4,4-10.3c0.8-2,0.8-1.2-0.2,1.7c-0.2,0.6-1.3,4.4-1.8,5.5c-1.2,2.6-1.7,5.3-0.8,5.7c1.8,0.7,2.5-1.4,3.1-2.4
		c0.6-1,3.7-9.2,4.2-10c0.4-0.6,0.5-0.5,0.3,0.1c-0.1,0.3-1.1,3.9-1.6,5c-0.2,0.6-0.7,1.7-0.9,3.1c-0.2,1.3,0.8,1.6,1.3,1.4
		c0.7-0.2,1.5-1.7,1.9-2.4c0.8-1.6,1.3-3.2,2.1-5c0.2-0.5,0.5-1,0.8-1.6c1.3-3.1,2.1-5.7,2.5-7.7c0.4-2,1.7-9.1,2.6-12.1
		c0.7-2.3,17.4-22.6,19.9-26.1c3.2-4.5,8.1-14,9.8-21.1c1-4.2,5.3-6.9,7.1-11.3c2-5.1,8.8-21,9.8-23.5c-1.7,4.1-2.4,13.7,3.4,16.7
		c2.3,8.5,1.8,21.3-0.1,28c-0.9,3-5.2,14.5-8.3,25.2c-3.1,10.8-3.8,19.5-3.6,24.5c0.1,2.5,0.3,5.8,0.9,10.2
		c0.6,4.2,1.8,13.4,3.4,18.1c10.9,32,10.2,53.1,10.2,53.7c0,3.7-4.5,18.6-0.5,34.6c4.2,16.9,6.8,37.3,7.4,41.9
		c0.3,2.7,0.1,10.7-1.1,13.8c-2,5-5.3,10.7-5.3,10.7s-1.5,1.6-0.5,3.5c0.7,1.4,16.4,1.6,16.8,1.1c0.3-0.5,2.6-1.4,3-4
		c-0.4-5.9-0.5-10.5-0.5-12.5c0-1-0.6-6-1-10.5c-0.3-2.8-0.4-10.3-0.4-13.6c-0.2-8.4,0.9-17.8,1.6-32.6c0.4-8.8-1.5-17.2-1.1-27.6
		c0.2-4.7,1.4-12.6,1.7-19.2c1.1-26.3,0.3-58.3-1.6-63.7c0.2,1,1.8,1.5,3.3,1.6c1.4,0,3.2-0.6,3.4-1.6c-1.8,5.4-2.7,37.4-1.6,63.7
		c0.3,6.6,1.5,14.5,1.7,19.2c0.4,10.4-1.5,18.7-1.1,27.6c0.7,14.9,1.7,24.3,1.6,32.6c-0.1,3.3-0.2,10.8-0.4,13.6
		c-0.5,4.6-1,9.5-1,10.5c0,2.1-0.1,6.6-0.5,12.5c0.4,2.6,2.7,3.5,3,4c0.4,0.6,15,0.2,15.3-0.3c0.4,0.1,1.1-0.2,1.5-0.7
		c1.1-1.8-0.5-3.5-0.5-3.5s-3.3-5.7-5.3-10.7c-1.2-3-1.4-11.1-1.1-13.8c0.6-4.7,3.2-25.1,7.4-41.9c4-16-0.5-30.9-0.5-34.6
		c0-0.6-0.7-21.7,10.2-53.7c1.6-4.7,2.8-13.9,3.4-18.1c0.6-4.4,0.8-7.7,0.9-10.2c0.2-4.9-0.5-13.7-3.6-24.5
		c-3.1-10.7-7.4-22.2-8.3-25.2c-2-6.8-2.1-19.9,0.5-28.1c4.3-2.4,5.8-8.8,3.9-15.3c1.4,3.7,6.6,17,8.6,22.1
		c1.8,4.4,6.1,7.1,7.1,11.3c1.6,7.2,6.6,16.6,9.8,21.1c2.5,3.5,19.2,23.7,19.9,26c0.9,3,2.2,10.1,2.6,12.1c0.4,2,1.3,4.5,2.5,7.7
		c0.2,0.6,0.5,1.1,0.8,1.6c0.8,1.8,1.3,3.4,2.1,5c0.4,0.7,1.2,2.2,1.9,2.4c0.5,0.2,1.5-0.1,1.3-1.4c-0.2-1.4-0.7-2.5-0.9-3.1
		c-0.4-1.1-1.5-4.7-1.6-5c-0.2-0.6-0.1-0.7,0.3-0.1c0.5,0.7,3.6,9,4.2,10c0.6,1,1.3,3.1,3.1,2.4c1-0.4,0.4-3.1-0.8-5.7
		c-0.5-1.1-1.6-4.9-1.8-5.5c-1.1-2.9-1-3.7-0.2-1.7c0.4,0.9,4,10.3,4,10.3s1.1,3.4,3.3,2.7c0.7-0.2,0.9-1.3,0.6-2.8
		c-0.3-1.3-0.6-1.5-1.1-2.9c-0.8-2.3-1.6-4.4-1.6-4.4s-1.6-4.4-2.1-5.5c-0.2-0.5,0.1-0.9,0.5-0.2c0.6,1.1,3.2,7.6,5,11.3
		c0.9,1.8,3.9,0.8,2.6-2.5c-1-2.6-3.1-7.4-4.1-11.8c-0.7-2.8-1-4-3.1-8c1,0.1,2.3-0.6,3.7,0c1.6,0.6,4,2.7,5.9,3.1
		C-87.3,419.9-86,419.6-86.3,418.1z"/>
</g>
<g id="FRONTMusclesLEFT">
	<path id="frontFootLeft" class="blue" d="M-202.2,587.9c0-0.1,4.9,5.3,6.2,9.5c0.6,1.9,1.4,8.1-0.1,8.3c0,0-6.7-6.9-6.7-6.9
		C-204.2,596.6-203.2,590.9-202.2,587.9z M-200.8,582.2c0,0,3.4,1.6,4.1,3.4c0.3,0.8,1,5.2,0,5.2c0,0-4.3-5.2-4.3-5.2
		C-201.7,584.7-201.5,583.5-200.8,582.2z M-205.9,602.6c0.4-1.6,3.4-0.6,4.7,1.1c1.1,1.6,0.3,6.6-1,6.7c-5.2,0.5-8.7-0.7-8.7-0.7
		C-212.2,607.4-206.9,606.4-205.9,602.6z M-199.3,605.4c-0.1-1,1-0.6,1.7,0.3c0.6,0.9,1.2,4.1,0.8,4.2c-1.6,0.7-3,0.1-3,0.1
		C-200.6,608.8-199,607.8-199.3,605.4z"/>
	<path id="frontGastrocnemiusLeft" class="blue" d="M-194.7,525.9c2.3,6.8,0.6,27.8-1.3,39.4C-199,546.5-200.4,536.7-194.7,525.9z"
		/>
	<path id="frontTibialLeft2" class="blue" d="M-205.2,523c5.5,28.6,8.9,35.8,7.1,54.8c-5.5-20.7-9-27.8-10.5-49.5
		C-209,522.6-206,521.1-205.2,523z"/>
	<path id="frontTibialLeft1" class="blue" d="M-205.4,573.7c-2.7-22.8-13.1-52.3-5.5-52.3c0.8,5.6,2.6,18.4,4.8,28.8
		c2.3,11.4,5.2,20.9,6.3,27.3c0.6,3.4-0.6,3.1-2,2.2C-203.5,578.6-205.2,575.8-205.4,573.7z"/>
	<path id="frontKneeLeft" class="blue" d="M-195.4,513.5c0.2,4.1-0.7,5.5-3.4,12.3c-4.1-12.8,1.9-12.2,2.8-20.4
		C-195.9,504.7-195.4,512.7-195.4,513.5z"/>
	<path id="frontVastoMedLeft" class="blue" d="M-195,499.3c0,0.2-2,1-2.1,1.1c-0.5,0.4-1.3,0.1-1.6-0.7c-3.7-10.5,3.8-32.3,3.6-42.7
		c0-0.3-0.1-0.3,0,0C-192.4,469.6-194,490.3-195,499.3z"/>
	<path id="frontBicepsFemLeft2" class="blue" d="M-212,496.6c1.8-12.3-4.8-30.2-9.5-47.2c-2.7-9.6-4.8-20-0.9-25
		c1,0-0.6,7.2,2.4,19.6c1.7,6.7,6.2,20.8,9.8,31.5c1.4,4.2,4.1,6.9,4.2,9.5c0.2,3.1,0.1,9-0.4,9.8C-208,497.3-212.4,499.1-212,496.6
		z"/>
	<path id="frontBicepsFemLeft1" class="blue" d="M-220.6,434.6c-1.3-11.9-1.5-28.4-1-29.6c4.3,12.9,18.6,31.1,21,44.3
		c1.4,10.1,2.7,27.7-3,34.8C-209.5,477.5-220.1,438.7-220.6,434.6z"/>
	<path id="frontSartoriusLeft" class="blue" d="M-201.9,430.6c1.7,4.7,5.4,7.7,6.4,20.8c0.3,4.2-1.5,5.7-1.5,5.6
		c-3.7-22.6-21.9-38-22.6-59.9C-213.9,409.3-206.8,419.8-201.9,430.6z"/>
	<path id="frontAdductorLeft2" class="blue" d="M-195,444c-2.8-11.9-11.4-17.6-6.8-30.3C-199.9,421.5-192,421.3-195,444z"/>
	<path id="frontAdductorLeft1" class="blue" d="M-203.5,410c-1.3,3.7-1.5,6.4-1.4,11.8c-1.2-4.1-11.7-22.3-12.8-29.6
		C-212.8,396.6-206.5,402.4-203.5,410z"/>
	<path id="frontFlexorLeft4" class="blue" d="M-240.2,373c-1.9-3.5-5.5-3.7-9.2-2.6c1.6-3.7,4.8-4.6,6.6-5.3
		C-242.7,365-240.4,370.3-240.2,373z"/>
	<path id="frontFlexorLeft3" class="blue" d="M-261.1,404.2c2.9-7.1,12.3-23.3,17.6-32.3c0.3-0.6,2.7,1.6,2.6,2.2
		C-242.5,382-253.7,394.4-261.1,404.2z"/>
	<path id="frontFlexorLeft2" class="blue" d="M-243.8,371.5c-4.9,8.1-15.2,23.6-20.5,31.6c2.4-7.4,10.3-25.1,15.7-32.2
		C-247.8,370-243.2,370.4-243.8,371.5z"/>
	<path id="frontFlexorLeft1" class="blue" d="M-248.5,360.4c-1.4,15.3-13.8,29.5-19.6,42.2c-0.1,0.1,7-18,10.2-25.2
		C-255,370.5-252.2,365.9-248.5,360.4z"/>
	<path id="frontAbdominalLeft4" class="blue" d="M-191.7,414.3c-0.6,0.9-2,0.8-2.2,0c-3.4-10.4-10.4-26.3-10.8-35.5c0-1,0-2,0.1-3
		c0.1-0.9,0.7-1.5,1.5-1.6c1.6-0.2,7.1-0.4,10.1-0.2c0.2,1.9,2.2,2.7,2.2,2.9C-190.7,384.4-191.3,404.5-191.7,414.3z"/>
	<path id="frontAbdominalLeft3" class="blue" d="M-190.3,362.1l-0.2,8.1c-1.2,0-2.5,0.9-2.6,2.3c-2.5,0.2-4.9,0.5-7.9,0.5
		c-1.9,0.1-4.3,0-4.4-1c-0.2-2-0.3-4.6-0.4-6.6c0-1.7,0.5-2.8,1.5-3.1c3.8-1.2,7.4-1.7,11.2-2.3
		C-191.9,359.9-190.3,360.8-190.3,362.1z"/>
	<path id="frontAbdominalLeft2" class="blue" d="M-190.3,348.9c0,3.2,0,5.6-0.3,8c-0.1,1-0.8,1.8-1.7,2.1c-2.8,0.8-8.2,1.2-11.5,2.1
		c-0.6,0.2-1.2-0.3-1.3-0.9c-0.2-1.2-0.2-2.9,0.8-4c4.3-4.1,8.7-8.4,12.6-8.6C-190.9,347.6-190.3,348.2-190.3,348.9z"/>
	<path id="frontAbdominalLeft1" class="blue" d="M-193.7,335.4c3.3-0.4,4,7.7,2.6,9.3c-1.5,1.8-9.5,3.2-12.2,5.9
		c-0.6,0.6-1.8,0.1-1.8-0.8c0.1-1.8,0-6.2,0.3-7.1C-203,337.7-197.4,340.7-193.7,335.4z"/>
	<path id="frontObliqueLeft5" class="blue" d="M-212.5,373.4c8.7,6.3,3,16.4,5,27.5c-1.4-2.9-6-8.4-6.8-9.9
		c-2.7-5.2-1.1-10.7,0.4-16.6C-213.8,373.8-212.9,373.1-212.5,373.4z"/>
	<path id="frontObliqueLeft4" class="blue" d="M-212.4,364.3c1.6,2.6,3.3,2.7,4.2,4.5c0.3,0.7,0,2.2-0.2,3.8c-0.1,0.6-0.5,1-0.9,0.9
		c-1.2-0.3-3.2-2.1-3.2-2.1C-213.5,370.6-212.3,368.1-212.4,364.3z"/>
	<path id="frontObliqueLeft3" class="blue" d="M-212.4,351.9c1.6,1.8,3.4,3.1,4.7,5c0.5,0.8,0.4,2.5,0.4,4.9c0,1.5-0.7,1.9-1.2,1.6
		c-1.4-1-3.6-2.5-3.6-3.4C-212.3,357.6-212.2,353.6-212.4,351.9z"/>
	<path id="frontObliqueLeft2" class="blue" d="M-213.5,342.5c1.5,0.6,5,2.1,6,3.4c0.3,0.4,0.5,1,0.6,1.5c0.1,1.5,0.1,3.2-0.7,4.7
		c-2-1.7-3.4-3.2-4.8-4.7C-212.6,346.6-213.3,344.1-213.5,342.5z"/>
	<path id="frontObliqueLeft1" class="blue" d="M-207.9,342.2c-2-1.3-3.2-1.5-5.5-2.7c-0.2-0.8-0.9-1.7-0.3-1.6
		c1.8,0.3,3.5-3.6,7-0.6C-206.4,338-207.1,341-207.9,342.2z"/>
	<path id="frontSerratusAntLeft" class="blue" d="M-216.8,329.2c-0.1,2.1-0.1,2.1,0,3.9c0.1,1.4,0.5,2.6,0.6,4.3
		c0.1,3.9-0.1,7.6-0.1,6.8C-218.9,342.3-218.6,330.9-216.8,329.2z"/>
	<path id="frontTricepsLeft" class="blue" d="M-225,337.2c1.9,9.9-7,18.8-14.7,21.5C-234.5,354.7-227.8,346.8-225,337.2z"/>
	<path id="frontBicepsLeft" class="blue" d="M-221.8,319.8c-0.5,2.2-2.7,8.6-5.9,16.1c-1.5,3.6-4.5,10.5-5.3,12.3
		c-1.8,4.2-6.5,6.5-9.2,7.6c-0.6-4.7,1-12.2,3.7-18.5c1.8-4.3,3.4-8.5,4.7-11.4c0.4-0.8,1-1.5,1.8-2.1c4.1-2.8,6.8-5.3,10.6-7.5
		C-219.9,315.6-221,316.5-221.8,319.8z"/>
	<path id="frontPectoralisMajorLeft" class="blue" d="M-219.6,325c0-16.1,17.2-28,27.5-16.7c2.5,5,1.5,17.7-1,23
		C-198.2,342.2-212.7,329.6-219.6,325z"/>
	<path id="frontDeltoidLeft2" class="blue" d="M-218.1,298.3c-8.8,2.1-11.4,14.3-14.5,22.5C-230.9,307.5-231.9,296.8-218.1,298.3z"
		/>
	<path id="frontDeltoidLeft1" class="blue" d="M-214.7,302.8c-1.4,3.5-15.3,17.4-16.7,18.1c0.8-5.2,3.9-12.5,5.4-15.1
		c1.3-2.3,4.5-5.9,7.1-6.7C-216.6,298.3-212.5,297.6-214.7,302.8z"/>
	<path id="frontTrapezeLeft" class="blue" d="M-202.9,295.8c-4.1,4.1-0.3,5-9.5,1.6C-206.5,297.5-208,297.6-202.9,295.8z
		 M-199.6,295.1c0.5,0.9,0.6,2.5,0.6,3.9c0,0.7-0.7,1.2-1.4,1l-3.3-0.7c-0.1-1.9,2.2-3,3.2-4.3
		C-200.4,294.6-199.8,294.7-199.6,295.1z M-195.6,286.8c2.3,7.4,2.9,8.5,2.4,15.5C-196.6,297.6-197.2,291.2-195.6,286.8z
		 M-198.2,292.3c1.2,5.4,2.6,3.8,2.3,8.9C-197.6,297.8-199,295.5-198.2,292.3z M-192.1,287.5c0,4.2,0.8,4-0.2,7.8
		C-193,292.4-193.2,289.8-192.1,287.5z"/>
</g>
<g id="FRONTMusclesRIGHT">
	<path id="frontFootRight" class="blue" d="M-177.4,598.8c0,0-6.7,6.9-6.7,6.9c-1.5-0.2-0.7-6.3-0.1-8.3c1.3-4.2,6.2-9.6,6.2-9.5
		C-177,590.9-176.1,596.6-177.4,598.8z M-179.3,585.7c0,0-4.3,5.2-4.3,5.2c-0.9,0-0.3-4.4,0-5.2c0.7-1.8,4-3.4,4.1-3.4
		C-178.7,583.5-178.5,584.7-179.3,585.7z M-169.3,609.7c0,0-3.5,1.2-8.7,0.7c-1.3-0.1-2.1-5.1-1-6.7c1.2-1.7,4.2-2.7,4.7-1.1
		C-173.3,606.4-168,607.4-169.3,609.7z M-180.4,610.1c0,0-1.3,0.5-3-0.1c-0.4-0.2,0.1-3.3,0.8-4.2c0.7-1,1.8-1.4,1.7-0.3
		C-181.2,607.8-179.6,608.8-180.4,610.1z"/>
	<path id="frontGastrocnemiusRight" class="blue" d="M-184.7,565.3c-1.8-11.7-3.6-32.7-1.3-39.4
		C-180.2,536.7-181.6,546.5-184.7,565.3z"/>
	<path id="frontTibialRight2" class="blue" d="M-172,528.3c-1.5,21.7-5,28.8-10.5,49.5c-1.7-19,1.6-26.2,7.1-54.8
		C-174.6,521.1-171.6,522.6-172,528.3z"/>
	<path id="frontTibialRight1" class="blue" d="M-178.8,579.8c-1.4,1-2.6,1.2-2-2.2c1.2-6.4,4-15.9,6.3-27.3
		c2.1-10.4,3.9-23.2,4.8-28.8c7.6,0-2.8,29.5-5.5,52.3C-175.5,575.8-177.2,578.6-178.8,579.8z"/>
	<path id="frontKneeRight" class="blue" d="M-184.9,505.3c0.9,8.1,6.9,7.6,2.8,20.4c-2.7-6.8-3.6-8.2-3.4-12.3
		C-185.5,512.6-185,504.6-184.9,505.3z"/>
	<path id="frontVastoMedRight" class="blue" d="M-185.7,499.3c0,0.2,2,1,2.1,1.1c0.5,0.4,1.3,0.1,1.6-0.7c4.1-11.5-4-34.4-2.9-42.8
		C-187.7,468.7-186.7,489.6-185.7,499.3z"/>
	<path id="frontSartoriusRight" class="blue" d="M-178.7,430.6c-1.7,4.7-5.4,7.7-6.4,20.8c-0.3,4.2,1.5,5.7,1.5,5.6
		c3.7-22.6,21.3-38,22-59.9C-167.3,409.3-173.9,419.8-178.7,430.6z"/>
	<path id="frontBicepsFemRight2" class="blue" d="M-168.7,496.6c-1.8-12.3,4.8-30.2,9.5-47.2c2.7-9.6,4.8-20,0.9-25
		c-1,0,0.6,7.2-2.4,19.6c-1.7,6.7-6.2,20.8-9.8,31.5c-1.4,4.2-4.1,6.9-4.2,9.5c-0.2,3.1-0.1,9,0.4,9.8
		C-172.7,497.3-168.3,499.1-168.7,496.6z"/>
	<path id="frontBicepsFemRight1" class="blue" d="M-160.4,434.6c1.3-11.9,1.5-28.4,1-29.6c-4.3,12.9-18.6,31.1-21,44.3
		c-1.4,10.1-2.7,27.7,3,34.8C-171.4,477.5-160.8,438.7-160.4,434.6z"/>
	<path id="frontAdductorRight2" class="blue" d="M-185.6,444c2.8-11.9,11.4-17.6,6.8-30.3C-180.7,421.5-188.7,421.3-185.6,444z"/>
	<path id="frontAdductorRight1" class="blue" d="M-163,392.2c-1.1,7.3-11.6,25.5-12.8,29.6c0.2-5.4,0-8-1.4-11.8
		C-174.1,402.4-167.8,396.6-163,392.2z"/>
	<path id="frontFlexorRight4" class="blue" d="M-140.4,373c1.9-3.5,5.5-3.7,9.2-2.6c-1.6-3.7-4.8-4.6-6.6-5.3
		C-138,365-140.3,370.3-140.4,373z"/>
	<path id="frontFlexorRight3" class="blue" d="M-119.3,404c-3-7-12.7-23.1-18.1-32c-0.3-0.6-2.7,1.7-2.5,2.3
		C-138.2,382.1-126.9,394.3-119.3,404z"/>
	<path id="frontFlexorRight2" class="blue" d="M-136.8,371.6c4.9,8.1,15.2,23.6,20.5,31.6c-2.4-7.4-10.3-25.1-15.7-32.2
		C-132.8,370-137.5,370.4-136.8,371.6z"/>
	<path id="frontFlexorRight1" class="blue" d="M-122.9,377.4c3.1,7.2,10.2,25.2,10.2,25.2c-5.8-12.6-18.3-26.9-19.7-42.2
		C-128.7,366-125.9,370.6-122.9,377.4z"/>
	<path id="frontAbdominalRight4" class="blue" d="M-188.9,414.3c0.6,0.9,2,0.8,2.2,0c3.4-10.4,10.4-26.3,10.8-35.5c0-1,0-2-0.1-3
		c-0.1-0.9-0.7-1.5-1.5-1.6c-1.6-0.2-7.1-0.4-10.1-0.2c-0.2,1.9-2.2,2.7-2.2,2.9C-189.9,384.4-189.4,404.5-188.9,414.3z"/>
	<path id="frontAbdominalRight3" class="blue" d="M-190.3,362.1l0.2,8.1c1.2,0,2.5,0.9,2.6,2.3c2.5,0.2,4.9,0.5,7.9,0.5
		c1.9,0.1,4.3,0,4.4-1c0.2-2,0.3-4.6,0.4-6.6c0-1.7-0.5-2.8-1.5-3.1c-3.8-1.2-7.4-1.7-11.2-2.3
		C-188.8,359.9-190.3,360.8-190.3,362.1z"/>
	<path id="frontAbdominalRight2" class="blue" d="M-190.3,348.9c0,3.2,0,5.6,0.3,8c0.1,1,0.8,1.8,1.7,2.1c2.8,0.8,8.2,1.2,11.5,2.1
		c0.6,0.2,1.2-0.3,1.3-0.9c0.2-1.2,0.2-2.9-0.8-4c-4.3-4.1-8.7-8.4-12.6-8.6C-189.7,347.6-190.3,348.2-190.3,348.9z"/>
	<path id="frontAbdominalRight1" class="blue" d="M-186.6,335.4c-3.3-0.4-4,7.7-2.6,9.3c1.5,1.8,9.5,3.2,12.2,5.9
		c0.6,0.6,1.8,0.1,1.8-0.8c-0.1-1.8,0.2-6.3-0.3-7.1C-178.4,338.4-182.9,340.7-186.6,335.4z"/>
	<path id="frontObliqueRight5" class="blue" d="M-167.9,373.4c-8.7,6.3-3,16.4-5,27.5c1.4-2.9,6-8.4,6.8-9.9
		c2.7-5.2,1.1-10.7-0.4-16.6C-166.6,373.8-167.4,373.1-167.9,373.4z"/>
	<path id="frontObliqueRight4" class="blue" d="M-167.8,371.5c0,0-2,1.9-3.2,2.1c-0.4,0.1-0.9-0.3-0.9-0.9c-0.2-1.6-0.5-3.1-0.2-3.8
		c0.9-1.8,2.6-1.9,4.3-4.5C-168,368.1-166.8,370.6-167.8,371.5z"/>
	<path id="frontObliqueRight3" class="blue" d="M-167.9,352.3c-1.6,1.8-3.4,2.6-4.7,4.5c-0.5,0.8-0.4,2.5-0.4,4.9
		c0,1.5,0.7,1.9,1.2,1.6c1.4-1,3.6-2.5,3.6-3.4C-168.1,357.6-168.2,354.1-167.9,352.3z"/>
	<path id="frontObliqueRight2" class="blue" d="M-166.9,342.5c-1.5,0.6-5,2.1-6,3.4c-0.3,0.4-0.5,1-0.6,1.5
		c-0.1,1.5-0.1,3.2,0.7,4.7c2-1.7,3.4-2.4,4.8-3.9C-167.8,347.3-167.4,344.7-166.9,342.5z"/>
	<path id="frontObliqueRight1" class="blue" d="M-172.3,342.2c2-1.3,3.2-1.5,5.5-2.7c0.2-0.8,0.9-1.7,0.3-1.6
		c-1.8,0.3-3.9-3.4-7-0.6C-173.8,338-173.1,341-172.3,342.2z"/>
	<path id="frontSerratusAntRight" class="blue" d="M-163.8,344c0.1,0.8-0.2-2.8-0.1-6.8c0.1-1.6,0.5-2.8,0.6-4.3
		c0.1-1.8,0.1-1.8,0-3.9C-161.5,330.9-161.2,342.3-163.8,344z"/>
	<path id="frontTricepsRight" class="blue" d="M-155.1,337.2c-1.9,9.9,7,18.8,14.7,21.5C-145.6,354.7-152.3,346.8-155.1,337.2z"/>
	<path id="frontBicepsRight" class="blue" d="M-158.9,316.4c3.8,2.2,6.5,4.7,10.6,7.5c0.8,0.6,1.4,1.3,1.8,2.1
		c1.3,2.9,2.9,7.1,4.7,11.4c2.6,6.3,4.3,13.8,3.7,18.5c-2.7-1.1-7.4-3.4-9.2-7.6c-0.8-1.8-3.8-8.7-5.3-12.3
		c-3.1-7.5-5.3-13.9-5.9-16.1C-159.1,316.5-160.2,315.6-158.9,316.4z"/>
	<path id="frontPectoralisMajorRight" class="blue" d="M-187.2,331c-2.4-5.3-3.5-17.9-1-23c10.3-11.3,27.5,0.6,27.5,16.7
		C-167.6,329.3-182.1,342-187.2,331z"/>
	<path id="frontDeltoidRight2" class="blue" d="M-165.9,302.8c1.4,3.5,15.3,17.4,16.7,18.1c-0.8-5.2-3.9-12.5-5.4-15.1
		c-1.3-2.3-4.5-5.9-7.1-6.7C-164,298.3-168,297.6-165.9,302.8z"/>
	<path id="frontDeltoidRight1" class="blue" d="M-162.4,298.3c8.8,2.1,11.4,14.3,14.5,22.5C-149.6,307.5-148.6,296.8-162.4,298.3z"
		/>
	<path id="frontTrapezeRight" class="blue" d="M-167.5,297.4c-9.2,3.3-5.4,2.5-9.5-1.6C-172,297.6-173.4,297.5-167.5,297.4z
		 M-179.4,295c0.9,1.3,3.3,2.4,3.2,4.3l-3.3,0.7c-0.7,0.2-1.4-0.3-1.4-1c0-1.5,0.1-3,0.6-3.9C-180.1,294.7-179.6,294.6-179.4,295z
		 M-186.8,302.3c-0.5-7,0-8.2,2.4-15.5C-182.8,291.2-183.4,297.6-186.8,302.3z M-184.1,301.2c-0.2-5.1,1.2-3.6,2.3-8.9
		C-181,295.5-182.4,297.8-184.1,301.2z M-187.6,295.3c-1-3.8-0.2-3.6-0.2-7.8C-186.8,289.8-187,292.4-187.6,295.3z"/>
</g>
<g id="Glow">
	<g id="frontBodyGlow" class="st0">
		<path class="st1" d="M-86.3,418.1c-0.3-1.7-7-5.4-7.7-6c-0.4-0.4-7.4-3.7-11.3-5.1c-1-0.4-4.9-3.1-6.5-5.9
			c-2-3.5-8.2-20.5-12.7-29.9c-4.3-8.9-10.8-13.8-11.2-14.3c-0.2-0.3-3.3-14.8-4.4-18.2c-1.6-5.2-5.5-12.8-7.2-22.3
			c-0.6-3.4-1-10.6-2.3-13.3c-2.9-6.1-11.8-6.3-16.7-7c-6.5-1-9.5,1.4-13.4-4.8c-1.3-2.1-1.7-6.5-1.9-8c3.4-3.6,5.9-10.4,5.9-10.5
			c1.5-0.7,3.1-1.7,3.6-3.2c0.8-2.4,1.2-6.4,1.4-8.2c0.1-1.1-0.2-2.5-1.6-1.9c-0.5,0.2-1.1,1.2-1.1,0.6c0,0-0.2-2.7-0.1-3.6
			c0.5-6.4-0.6-19.3-16.9-19.6c-16.3,0.4-17.4,13.2-16.9,19.6c0.1,0.9-0.1,3.6-0.1,3.6c0,0.5-0.6-0.4-1.1-0.6
			c-1.4-0.6-1.7,0.9-1.6,1.9c0.2,1.8,0.6,5.8,1.4,8.2c0.5,1.6,2.1,2.5,3.6,3.2c-0.2,4.7,2.4,7.7,5.6,10.4c-0.2,1.3-0.5,5.9-1.9,8.1
			c-3.9,6.2-6.9,3.8-13.4,4.8c-4.9,0.7-13.8,0.9-16.7,7c-1.3,2.7-1.7,9.9-2.3,13.3c-1.6,9.5-5.6,17.1-7.2,22.3
			c-1,3.4-4.6,17.6-4.8,17.9c-0.4,0.5-6.5,5.6-10.8,14.5c-4.5,9.4-10.7,26.4-12.7,29.9c-1.6,2.8-5.5,5.7-6.5,6
			c-3.9,1.4-10.9,4.7-11.3,5.1c-0.7,0.6-7.4,4.3-7.7,6c-0.2,1.5,1,1.8,2.6,1.5c1.9-0.4,4.4-2.5,5.9-3.1c1.4-0.5,2.7,0.2,3.7,0
			c-2.2,3.9-2.5,5.2-3.1,8c-1,4.3-3.1,9.2-4.1,11.8c-1.3,3.3,1.7,4.3,2.6,2.5c1.8-3.7,4.3-10.1,5-11.3c0.4-0.8,0.8-0.4,0.5,0.2
			c-0.5,1.1-2.1,5.5-2.1,5.5s-0.7,2.1-1.6,4.4c-0.5,1.4-0.8,1.7-1.1,3c-0.3,1.5,0.2,1.9,0.8,2.1c2,0.7,3.1-2.2,3.1-2.2
			s3.7-9.4,4-10.3c0.8-2,0.8-1.2-0.2,1.7c-0.2,0.6-1.3,4.4-1.8,5.5c-1.2,2.6-1.7,5.3-0.8,5.7c1.8,0.7,2.5-1.4,3.1-2.4
			c0.6-1,3.7-9.2,4.2-10c0.4-0.6,0.5-0.5,0.3,0.1c-0.1,0.3-1.1,3.9-1.6,5c-0.2,0.6-0.7,1.7-0.9,3.1c-0.2,1.3,0.8,1.6,1.3,1.4
			c0.7-0.2,1.5-1.7,1.9-2.4c0.8-1.6,1.3-3.2,2.1-5c0.2-0.5,0.5-1,0.8-1.6c1.3-3.1,2.1-5.7,2.5-7.7c0.4-2,1.7-9.1,2.6-12.1
			c0.7-2.3,17.4-22.6,19.9-26.1c3.2-4.5,8.1-14,9.8-21.1c1-4.2,5.3-6.9,7.1-11.3c2-5.1,8.8-21,9.8-23.5c-1.7,4.1-2.4,13.7,3.4,16.7
			c2.3,8.5,1.8,21.3-0.1,28c-0.9,3-5.2,14.5-8.3,25.2c-3.1,10.8-3.8,19.5-3.6,24.5c0.1,2.5,0.3,5.8,0.9,10.2
			c0.6,4.2,1.8,13.4,3.4,18.1c10.9,32,10.2,53.1,10.2,53.7c0,3.7-4.5,18.6-0.5,34.6c4.2,16.9,6.8,37.3,7.4,41.9
			c0.3,2.7,0.1,10.7-1.1,13.8c-2,5-5.3,10.7-5.3,10.7s-1.7,1.7-0.5,3.5c0.4,0.6,1.1,0.8,1.5,0.7c0.4,0.5,1.8,0.5,2.5,0.3
			c0.2,0.3,1.8,0.4,2.5,0.2c0.2-0.1,0.3,0,0.5,0.1c0.7,0.3,2.3,0,2.3,0l2,0.4c1.4,0,1.2,0.1,2.4-0.2c0,0,2.6,0.2,3.1-0.4
			c0.3-0.5,2.6-1.4,3-4c-0.4-5.9-0.5-10.5-0.5-12.5c0-1-0.6-6-1-10.5c-0.3-2.8-0.4-10.3-0.4-13.6c-0.2-8.4,0.9-17.8,1.6-32.6
			c0.4-8.8-1.5-17.2-1.1-27.6c0.2-4.7,1.4-12.6,1.7-19.2c1.1-26.3,0.3-58.3-1.6-63.7c0.2,1,1.8,1.5,3.3,1.6c1.4,0,3.2-0.6,3.4-1.6
			c-1.8,5.4-2.7,37.4-1.6,63.7c0.3,6.6,1.5,14.5,1.7,19.2c0.4,10.4-1.5,18.7-1.1,27.6c0.7,14.9,1.7,24.3,1.6,32.6
			c-0.1,3.3-0.2,10.8-0.4,13.6c-0.5,4.6-1,9.5-1,10.5c0,2.1-0.1,6.6-0.5,12.5c0.4,2.6,2.7,3.5,3,4c0.4,0.6,3.1,0.4,3.1,0.4
			c1.2,0.2,0.9,0.2,2.4,0.2l2-0.4c0,0,1.6,0.4,2.3,0c0.2-0.1,0.3-0.1,0.5-0.1c0.7,0.2,2.3,0.2,2.5-0.2c0.7,0.2,2.1,0.2,2.5-0.3
			c0.4,0.1,1.1-0.2,1.5-0.7c1.1-1.8-0.5-3.5-0.5-3.5s-3.3-5.7-5.3-10.7c-1.2-3-1.4-11.1-1.1-13.8c0.6-4.7,3.2-25.1,7.4-41.9
			c4-16-0.5-30.9-0.5-34.6c0-0.6-0.7-21.7,10.2-53.7c1.6-4.7,2.8-13.9,3.4-18.1c0.6-4.4,0.8-7.7,0.9-10.2c0.2-4.9-0.5-13.7-3.6-24.5
			c-3.1-10.7-7.4-22.2-8.3-25.2c-2-6.8-2.1-19.9,0.5-28.1c4.3-2.4,5.8-8.8,3.9-15.3c1.4,3.7,6.6,17,8.6,22.1
			c1.8,4.4,6.1,7.1,7.1,11.3c1.6,7.2,6.6,16.6,9.8,21.1c2.5,3.5,19.2,23.7,19.9,26c0.9,3,2.2,10.1,2.6,12.1c0.4,2,1.3,4.5,2.5,7.7
			c0.2,0.6,0.5,1.1,0.8,1.6c0.8,1.8,1.3,3.4,2.1,5c0.4,0.7,1.2,2.2,1.9,2.4c0.5,0.2,1.5-0.1,1.3-1.4c-0.2-1.4-0.7-2.5-0.9-3.1
			c-0.4-1.1-1.5-4.7-1.6-5c-0.2-0.6-0.1-0.7,0.3-0.1c0.5,0.7,3.6,9,4.2,10c0.6,1,1.3,3.1,3.1,2.4c1-0.4,0.4-3.1-0.8-5.7
			c-0.5-1.1-1.6-4.9-1.8-5.5c-1.1-2.9-1-3.7-0.2-1.7c0.4,0.9,4,10.3,4,10.3s1.1,3.4,3.3,2.7c0.7-0.2,0.9-1.3,0.6-2.8
			c-0.3-1.3-0.6-1.5-1.1-2.9c-0.8-2.3-1.6-4.4-1.6-4.4s-1.6-4.4-2.1-5.5c-0.2-0.5,0.1-0.9,0.5-0.2c0.6,1.1,3.2,7.6,5,11.3
			c0.9,1.8,3.9,0.8,2.6-2.5c-1-2.6-3.1-7.4-4.1-11.8c-0.7-2.8-1-4-3.1-8c1,0.1,2.3-0.6,3.7,0c1.6,0.6,4,2.7,5.9,3.1
			C-87.3,419.9-86,419.6-86.3,418.1z"/>
	</g>
</g>
<!-- <g id="Front_Organs">
	<path id="frontLungs" class="st2" d="M-164.3,322.3c0-0.2,0-0.4,0-0.6c-0.5-3.2-2.7-8.6-5.5-11.9c-2.4-2.8-11.8-11.1-15.9-5.2
		c-2.8,4.1-0.6,9-1.1,13.5c-0.1,0-0.2-0.1-0.4-0.1c-0.7-0.2-1-1.2-1-2c0.1-5.1,0.3-21.5,0.6-27.2c0.1-2.9-3.3-2.5-4-1.7
		c-1,1.1-0.4,4.9-0.4,4.9s0.7,10.2,0,17.4c-0.3,2.7,0.4,8.1-1.1,8.5c-0.1,0-0.1,0-0.2,0.1c-0.4-4.5,1.7-9.2-1.1-13.3
		c-4-5.9-13.4,2.4-15.9,5.2c-2.9,3.3-5,8.7-5.5,11.9c0,0.3-0.1,0.6-0.1,0.9c-0.9,3.6-3,14.2-1.4,19.6c1.2,4,10.1,1.4,11.9,1.3
		c7.1-0.4,7.2-5.1,6.8-7.3c-0.8-4,1.7-5,1.7-7.5c0,0,0,0,0,0c1-0.7,1.8-1.6,2.6-3.4c0.3-0.7,1.1-2,1.3-3.7c0.6-0.4,1.3-0.8,2.1-1.5
		c0.4-0.4,1-0.3,1.4,0c1,0.8,1.7,1.3,2.5,1.8c0.3,1.5,0.9,2.7,1.2,3.4c0.8,1.8,1.6,2.7,2.6,3.4c0,0,0,0,0,0c0,2.5,2.5,3.5,1.7,7.5
		c-0.5,2.2-0.3,6.9,6.8,7.3c1.8,0.1,10.7,2.7,11.9-1.3C-161.2,336.7-163.5,325.7-164.3,322.3z"/>
	<path id="frontHeart" class="st3" d="M-177.8,330c-1.1-2.7-1.8-4.8-2.5-5.4c-0.4-0.3-0.7-0.6-1.1-0.8c0,0,0.1,0,0.1,0
		c0,0,0.7-0.2,0.7-1.6c-0.1-1.5-0.8-1.4-0.8-1.4c-0.5,0.1-0.9,0.1-1.3,0.2c0-0.1,0-0.1,0-0.2c0.2,0,0.5,0,0.8,0c0.2,0,0.7-1,0.7-1.6
		c0-1.6-0.5-1.6-0.9-1.7c-0.3-0.1-1.1-0.2-2.1-0.1c0,0,0,0,0,0c0.9-0.5,1.6-0.9,1.6-0.9s0.5-0.2-0.1-1c-0.6-0.8-1-0.6-1.2-0.4
		c0.7-1.3,1-1.4,1-1.4s0.1-0.3-0.2-0.6c-0.7-0.5-0.8-0.2-0.8-0.2l-1.2,1.9l0-1.8c0,0-0.2-0.4-1-0.4c-0.7,0.1-0.8,0.5-0.8,0.5
		s0.2,2.2,0.3,3.7c-0.2,0.1-0.5,0.2-0.7,0.3c-0.8-1-1.9-2.4-1.9-2.4s-0.2-0.4-1.1-0.1c-0.8,0.2-0.6,0.7-0.6,0.7s0.2,0.2,0.4,0.6
		c-0.2,0-0.5,0-0.8,0.2c-0.9,0.4-0.7,0.9-0.7,0.9s0.3,0.9,0.5,3.1c0.2,2.2-0.5,3.5-0.8,5c-0.3,0.3-0.7,0.7-1,1.2
		c-1.6,2.5-0.1,5.5,2.2,6.5c2.3,1,3,1.3,5.8,1.6c2.9,0.3,3.6,0.5,6.1-0.3C-176.9,333.6-176.6,332.7-177.8,330z M-183.7,315.4
		c0.1-0.2,0.5-0.1,0.7,0.2c0.3,0.3,0.4,0.7,0.3,0.8c-0.1,0.2-0.5,0.1-0.7-0.2C-183.7,315.9-183.8,315.5-183.7,315.4z M-183.9,313.2
		c0.1-0.1,0.3-0.1,0.5,0c0.2,0.2,0.4,0.4,0.3,0.5c-0.1,0.1-0.3,0.1-0.5,0C-183.8,313.6-184,313.3-183.9,313.2z M-190.8,317.3
		c-0.5,0.2-1,0.2-1.1,0c-0.1-0.2,0.1-0.6,0.6-0.8c0.5-0.2,1-0.2,1.1,0C-190,316.8-190.3,317.1-190.8,317.3z M-190,315.7
		c-0.4,0.1-0.7,0-0.8-0.2c-0.1-0.2,0.2-0.4,0.6-0.5c0.4-0.1,0.7,0,0.8,0.2C-189.4,315.3-189.6,315.6-190,315.7z M-186,313.6
		c-0.4,0-0.7-0.1-0.8-0.3c-0.1-0.2,0.2-0.4,0.6-0.4c0.4,0,0.7,0.1,0.8,0.3C-185.3,313.4-185.6,313.6-186,313.6z M-181.9,322.3
		c0-0.6,0.3-1.2,0.6-1.2s0.6,0.5,0.6,1.2c0,0.6-0.3,1.2-0.6,1.2S-181.9,322.9-181.9,322.3z"/>
</g> -->
<!-- <g id="configuration">
	  <circle id="bMap-v1" class="bMap-sensors" cx="-196" cy="328" r="3"/>
    <circle id="bMap-v2" class="bMap-sensors" cx="-183" cy="328" r="3"/>
    <circle id="bMap-v3" class="bMap-sensors" cx="-175" cy="333" r="3"/>
    <circle id="bMap-v4" class="bMap-sensors" cx="-168" cy="340" r="3"/>
    <circle id="bMap-v5" class="bMap-sensors" cx="-163" cy="345" r="3"/>
</g> -->
</svg>
