<?xml version="1.0" encoding="utf-8"?>
<!-- Generator: Adobe Illustrator 19.1.1, SVG Export Plug-In . SVG Version: 6.00 Build 0)  -->
<svg version="1.1" xmlns="http://www.w3.org/2000/svg" xmlns:xlink="http://www.w3.org/1999/xlink" x="0px" y="0px"
	 viewBox="-64.4 219 226.8 396.9" style="enable-background:new -64.4 219 226.8 396.9;" xml:space="preserve">
<style type="text/css">
	.sensor{fill:#0096B9;}
	.blue{fill-rule:evenodd;clip-rule:evenodd;fill:#144B64;}
	.blueDark{fill:#001A24;}
	.Glow{fill:#001A24;filter:url(#glow);}
	.st0{filter:url(#glow);}
	.st1{fill:#001A24;}
	.st2{opacity:0.8;fill:#EA0707;}
	.st3{opacity:0.6;fill:#006496;}
</style>
<filter  id="glow">
	<feOffset  dx="0" dy="0"></feOffset>
	<feGaussianBlur  result="offset-blur" stdDeviation="5"></feGaussianBlur>
	<feComposite  operator="out" in="SourceGraphic" result="inverse" in2="offset-blur"></feComposite>
	<feFlood  flood-opacity="1" flood-color="rgb(0,175,235)" result="color"></feFlood>
	<feComposite  operator="in" in="color" result="shadow" in2="inverse"></feComposite>
	<feComponentTransfer  in="shadow" result="shadow">
		<feFuncA  type="linear" slope="1"></feFuncA>
	</feComponentTransfer>
</filter>
<g id="REARBODY">
	<path id="rearBody" class="blueDark" d="M153.4,417.6c-0.3-1.7-7-5.4-7.7-6c-0.4-0.4-7.4-3.7-11.3-5.1c-1-0.4-4.9-3.1-6.5-5.9
		c-2-3.5-8.2-20.5-12.7-29.9c-4.3-8.9-10.8-13.8-11.2-14.3c-0.2-0.3-3.3-14.8-4.4-18.2c-1.6-5.2-5.5-12.8-7.2-22.3
		c-0.6-3.4-1-10.6-2.3-13.3c-2.9-6.1-11.8-6.3-16.7-7c-6.5-1-9.5,1.4-13.4-4.8c-1.5-2.4-1.8-7.8-2-8.4c3.3-3.7,5.8-10.2,5.8-10.4
		c1.5-0.7,3.1-1.7,3.6-3.2c0.8-2.4,1.2-6.4,1.4-8.2c0.1-1.1-0.2-2.5-1.6-1.9c-0.5,0.2-1.1,1.2-1.1,0.6c0,0-0.2-2.7-0.1-3.6
		c0.5-6.4-0.6-19.3-16.9-19.6c-16.3,0.4-17.4,13.2-16.9,19.6c0.1,0.9-0.1,3.6-0.1,3.6c0,0.5-0.6-0.4-1.1-0.6
		c-1.4-0.6-1.7,0.9-1.6,1.9c0.2,1.8,0.6,5.8,1.4,8.2c0.5,1.6,2.1,2.5,3.6,3.2c-0.2,4.8,2.5,7.9,5.8,10.6c-0.2,1.1-0.5,6-1.9,8.2
		c-3.9,6.2-6.9,3.8-13.4,4.8c-4.9,0.7-13.8,0.9-16.7,7c-1.3,2.7-1.7,9.9-2.3,13.3c-1.6,9.5-5.6,17.1-7.2,22.3
		c-1,3.4-4.6,17.6-4.8,17.9c-0.4,0.5-6.5,5.6-10.8,14.5c-4.5,9.4-10.7,26.4-12.7,29.9c-1.6,2.8-5.5,5.7-6.5,6
		c-3.9,1.4-10.9,4.7-11.3,5.1c-0.7,0.6-7.4,4.3-7.7,6c-0.2,1.5,1,1.8,2.6,1.5c1.9-0.4,4.4-2.5,5.9-3.1c1.4-0.5,2.7,0.2,3.7,0
		c-2.2,3.9-2.5,5.2-3.1,8c-1,4.3-3.1,9.2-4.1,11.8c-1.3,3.3,1.7,4.3,2.6,2.5c1.8-3.7,4.3-10.1,5-11.3c0.4-0.8,0.8-0.4,0.5,0.2
		c-0.5,1.1-2.1,5.5-2.1,5.5s-0.7,2.1-1.6,4.4c-0.5,1.4-0.8,1.7-1.1,3c-0.3,1.5,0.2,1.9,0.8,2.1c2,0.7,3.1-2.2,3.1-2.2
		s3.7-9.4,4-10.3c0.8-2,0.8-1.2-0.2,1.7c-0.2,0.6-1.3,4.4-1.8,5.5c-1.2,2.6-1.7,5.3-0.8,5.7c1.8,0.7,2.5-1.4,3.1-2.4
		c0.6-1,3.7-9.2,4.2-10c0.4-0.6,0.5-0.5,0.3,0.1c-0.1,0.3-1.1,3.9-1.6,5c-0.2,0.6-0.7,1.7-0.9,3.1c-0.2,1.3,0.8,1.6,1.3,1.4
		c0.7-0.2,1.5-1.7,1.9-2.4c0.8-1.6,1.3-3.2,2.1-5c0.2-0.5,0.5-1,0.8-1.6c1.3-3.1,2.1-5.7,2.5-7.7c0.4-2,1.7-9.1,2.6-12.1
		c0.7-2.3,17.4-22.6,19.9-26.1c3.2-4.5,8.1-14,9.8-21.1c1-4.2,5.3-6.9,7.1-11.3c2-5.1,8-18.6,9-21.1c0.2,0.9-2.7,11.8,4.2,14.8
		c2.4,9.7,1.8,20.8-0.1,27.6c-0.9,3-5.2,14.5-8.3,25.2c-3.1,10.8-3.8,19.5-3.6,24.5c0.1,2.5,0.3,5.8,0.9,10.2
		c0.6,4.2,1.8,13.4,3.4,18.1c10.9,32,10.2,53.1,10.2,53.7c0,3.7-4.5,18.6-0.5,34.6c4.2,16.9,6.8,37.3,7.4,41.9
		c0.3,2.7-0.5,10.5-1.1,13.8c-2.4,12.6-8.2,10.2-7.8,14c0.2,1.7,20.2,1.7,21.4-0.5c0.7-2.2-1.2-7.6-2.3-12.1
		c-0.2-1-1.6-19.4-0.2-25.7c1.7-8.2,1.9-18.8,2.6-33.6c0.4-8.8-1.5-17.2-1.1-27.6c0.2-4.7,1.4-12.6,1.7-19.2
		c1.1-26.3,0.3-55.3-1.6-60.7c0.2,1,2.3-0.6,3.3-1.4c0.9,0.7,3.2,2.4,3.4,1.4c-1.8,5.4-2.7,34.4-1.6,60.7c0.3,6.6,1.5,14.5,1.7,19.2
		c0.4,10.4-1.5,18.7-1.1,27.6c0.7,14.9,1,25.4,2.6,33.6c1.2,6.4-0.1,24.5-0.3,25.5c-0.9,4.6-2.3,9.8-2.1,12.6
		c0.1,2.1,21.4,1.8,21.3,0.3c-0.5-4.5-5.1-1.5-7.8-14c-0.7-3.2-1.4-11.1-1.1-13.8c0.6-4.7,3.2-25.1,7.4-41.9c4-16-0.5-30.9-0.5-34.6
		c0-0.6-0.7-21.7,10.2-53.7c1.6-4.7,2.8-13.9,3.4-18.1c0.6-4.4,0.8-7.7,0.9-10.2c0.2-4.9-0.5-13.7-3.6-24.5
		c-3.1-10.7-7.4-22.2-8.3-25.2c-2-6.8-2.7-17,0.5-27.6c4.4-2.7,5.5-8.9,4.1-14.7c1,2.5,6.4,16,8.5,21.1c1.8,4.4,6.1,7.1,7.1,11.3
		c1.6,7.2,6.6,16.6,9.8,21.1c2.5,3.5,19.2,23.7,19.9,26c0.9,3,2.2,10.1,2.6,12.1c0.4,2,1.3,4.5,2.5,7.7c0.2,0.6,0.5,1.1,0.8,1.6
		c0.8,1.8,1.3,3.4,2.1,5c0.4,0.7,1.2,2.2,1.9,2.4c0.5,0.2,1.5-0.1,1.3-1.4c-0.2-1.4-0.7-2.5-0.9-3.1c-0.4-1.1-1.5-4.7-1.6-5
		c-0.2-0.6-0.1-0.7,0.3-0.1c0.5,0.7,3.6,9,4.2,10c0.6,1,1.3,3.1,3.1,2.4c1-0.4,0.4-3.1-0.8-5.7c-0.5-1.1-1.6-4.9-1.8-5.5
		c-1.1-2.9-1-3.7-0.2-1.7c0.4,0.9,4,10.3,4,10.3s1.1,3.4,3.3,2.7c0.7-0.2,0.9-1.3,0.6-2.8c-0.3-1.3-0.6-1.5-1.1-2.9
		c-0.8-2.3-1.6-4.4-1.6-4.4s-1.6-4.4-2.1-5.5c-0.2-0.5,0.1-0.9,0.5-0.2c0.6,1.1,3.2,7.6,5,11.3c0.9,1.8,3.9,0.8,2.6-2.5
		c-1-2.6-3.1-7.4-4.1-11.8c-0.7-2.8-1-4-3.1-8c1,0.1,2.3-0.6,3.7,0c1.6,0.6,4,2.7,5.9,3.1C152.3,419.4,153.6,419.1,153.4,417.6z"/>
</g>
<g id="REARMusclesLEFT">
	<path id="rearFootLeft_1_" class="blue" d="M35.8,595c0.2-0.9-1.6,12.3,2,11.8c3.7-0.5,3.3-11,3.8-10c0.9,1.7,1.7,11.7,0.6,11.9
		c-4.3,0.5-9.1,0.1-9.1,0.1C31.9,606.4,34.9,599,35.8,595z"/>
	<path id="rearSoleusLeft2" class="blue" d="M41.5,555.7c-1.3,8.4-1.1,21,0.3,29c0.6-3.5,0.2-12.8,0.6-15.8
		C43.3,563,43,560.5,41.5,555.7L41.5,555.7z"/>
	<path id="rearSoleusLeft1" class="blue" d="M33.4,557.7c-2.1,7.5,2.8,15.8,3.5,25.2c0.4,4.2-1.3,7.8,1.5,11.5
		c-0.9-12.9,1.6-28.2-4.3-36.6L33.4,557.7z"/>
	<path id="rearGastrocnemiusLeft2" class="blue" d="M35.4,496.3c3.1,8.1,11,28.5,10.3,42.8c-0.1,3.1-0.1,9.6-0.8,10.8
		c-1.2,2-5.6-2.7-6.6-5.7C34.7,533.7,35.4,496.3,35.4,496.3z"/>
	<path id="rearGastrocnemiusLeft1" class="blue" d="M31.7,491.9c3.1,8.1,2.6,29.8,3.1,45.4c0.1,3.1,1,8.5-0.5,11.5
		c-1.1,2.1-3.5-3.1-5-5.8C23.5,532,31,491.8,31.7,491.9z"/>
	<path id="rearSemimembranosusLeft" class="blue" d="M41.2,460.7c2.5,11,3.9,28.1,0.9,39.5C37.4,489.8,42.5,473.8,41.2,460.7
		L41.2,460.7z"/>
	<path id="rearAdductorMagnusLeft" class="blue" d="M43.9,430.2c-3.9-0.5-7.2,2-5.9,4.9c2.8,6.4,6.5,19,7.9,32.6
		c0,0.5,0.6,0.6,0.8,0C46.3,449.5,45.2,436.7,43.9,430.2C43.9,430.2,43.9,430.2,43.9,430.2z"/>
	<path id="rearBicepsFemorisLeft2" class="blue" d="M38.1,497.5c-7.3-15.7-8.5-45.3-2.5-64.1C45.3,452.3,35.8,478.5,38.1,497.5
		L38.1,497.5z"/>
	<path id="rearBicepsFemorisLeft1" class="blue" d="M34.4,435.4c-7.8,17.9-0.3,44.1-5.7,61.2C26.3,475.6,19,444.9,34.4,435.4
		L34.4,435.4z"/>
	<path id="rearVastusLateralisLeft" class="blue" d="M14.6,432.7c-0.3,12.3,5.7,22.7,10.6,44c-2.9-20.8-0.8-16.9-2.3-28.2
		c-1.3-9.5-2-14.1-4.9-17.2C14.6,428.1,14.6,432.7,14.6,432.7z"/>
	<path id="rearGluteusMaxLeft" class="blue" d="M19.8,432.1c-3.6-8.5-5.1-15.5-4.8-21.4c1.1-21,33.2-21.5,33.7-0.5
		c0.1,2.9-0.2,5.6-0.9,7.9C45.1,427.3,35.4,431.9,19.8,432.1L19.8,432.1z"/>
	<path id="rearGluteusMedLeft" class="blue" d="M38.3,392.4c-6.9,1.3-15.9-0.1-19.2,5.8c-1.8-6.5,3.4-11.9,9.2-12.2
		C32.1,385.7,36.3,388.2,38.3,392.4L38.3,392.4z"/>
	<path id="rearExtensorLeft3" class="blue" d="M-25.2,403.6c-0.8-0.8-1.4-0.6-1.6-1.7c-0.5-4.5,3.6-13.2,5.7-18.2
		c3.2-9.1,6.6-14.3,10.3-19.4C-11,365.6-24.7,403.3-25.2,403.6L-25.2,403.6z"/>
	<path id="rearExtensorLeft2" class="blue" d="M-18.4,387.3c1.5-4.2,2.9-8.3,4.3-11.9c1.3-3.3,2.6-6.1,3.8-10c0-0.1,0.2-0.1,0.2,0
		c1.8,12.8-4.8,23.8-9.6,31.8c-1.1-0.4-0.6-1.8-0.7-3.2C-20.6,392.2-19.4,390.3-18.4,387.3L-18.4,387.3z"/>
	<path id="rearExtensorLeft1" class="blue" d="M1.1,368.1c-1.4,10.9-10.5,20-16.5,28.5c2.8-9.2,4.1-24.8,14.7-27.9L1.1,368.1z"/>
	<path id="rearElbowLeft" class="blue" d="M2.4,358.1c-0.2,1.7-1.1,3.3-2.3,4.8c-1.1,1.3-3.1,2.3-4.2,3.6c-0.2,0.3-0.6,0.1-0.6-0.2
		c0.2-2.4,0.9-4.8,2.2-6.6c0.8-1,2.5-1,4-1.4L2.4,358.1z"/>
	<path id="rearTricepsLeft3" class="blue" d="M5,326.6c-0.9,6.7-4.3,20-8.1,26.7C-1.7,342.8,1,333.9,5,326.6L5,326.6z"/>
	<path id="rearTricepsLeft2" class="blue" d="M7.5,333c1.2,4.2-5.2,17.3-6,22.7C-4.1,352.5,6.2,337.4,7.5,333L7.5,333z"/>
	<path id="rearTricepsLeft1" class="blue" d="M20.2,320.7c-0.5,13.4-5.6,33.2-18,35.5C7.7,344.9,8.8,325.4,20.2,320.7L20.2,320.7z"
		/>
	<path id="rearLombarLeft" class="blue" d="M32.8,384.3c6.4,3.1,10.6,5.9,13.9,10.3c-1.3-9.4,0.9-31.7,0.3-38.4
		C47,356.2,36,366.8,32.8,384.3z"/>
	<path id="rearInternalObliqueLeft" class="blue" d="M28.6,371.6c-0.5,0.2-2,2.4-3.3,4.7c-1.2,2.1-2,5.1-2,5.1
		c0,0.2,0.2,0.4,0.3,0.4c0.3,0.1,1.1,0.5,1.9,0.1c0.2-0.1,3.8-2.7,3.8-2.9C29,377.3,29.1,371.4,28.6,371.6z"/>
	<path id="rearLatissimusDorsiLeft" class="blue" d="M46.3,352.5c-0.1-0.1,0.2-3.2-0.9-6.2c-2.4-6.3-7.2-15-7.8-15.8
		c-3.8-4.9-13.6-11.9-16.7-11.1c2.7,4.3-2.4,14.4,1.4,20.4c5.3,8.4,6.4,19.3,8.5,42.8C33.1,367.8,46.3,352.5,46.3,352.5z"/>
	<path id="rearRhomboidLeft" class="blue" d="M28.3,304.2c-0.4-0.7-1.1-1.1-1.9-1c-2.5,0.4-6.9,3.1-8.3,4.2c-1.1,1.6,0.9,5,2.3,7.9
		c0.4,0.8,1,1.6,1.7,2.3c3,2.8,7.4,4.4,13.5,6.7C33,317.4,30.7,309.2,28.3,304.2z"/>
	<path id="rearDorsalLeft" class="blue" d="M47.6,302.1c-7.2-5.9-12.7-6.3-24.3-4.9c12.1,7.4,7.7,12.6,12.9,27
		c3.2,8.8,7.9,13.4,11.8,22.2C47.7,331.3,48.4,313.6,47.6,302.1L47.6,302.1z"/>
	<path id="rearDeltoidLeft" class="blue" d="M22.3,297.4c-1.1-0.5-10.5,0.7-12.8,5.8c-2.6,5.8-2.1,11.4-3.2,19
		c6.4-5.8,8.6-13.5,10.8-16.4c1.6-2.1,7.1-3,8.7-3.5c1.6-0.5,0.2-1.9-1-3.1C24.1,298.4,22.9,297.7,22.3,297.4z"/>
	<path id="rearTrapeziusLeft2" class="blue" d="M39.8,292c-2.5,2.6-2.4,2.8-4.4,2.8c5.5,0.1,11.1,3,13.2,4.8
		c0.4-4.7,0.3-21.1,0.4-26C49,269.8,47.1,284.4,39.8,292z"/>
	<path id="rearTrapeziusLeft1" class="blue" d="M43.3,277.1c0.2-1.1,1.3-2.4,1.4-3c0.1-0.6,0.1,2.4,0.1,4.5c0,2,0,2.9-0.5,4.3
		c0.1-0.3-0.4,0-0.9-0.1"/>
</g>
<g id="REARMusclesRIGHT">
	<path id="rearFootRight" class="blue" d="M65.3,608.8c0,0-4.8,0.4-9.1-0.1c-1.1-0.1-0.3-10.2,0.6-11.9c0.5-0.9,0.1,9.6,3.8,10
		c3.5,0.4,1.8-12.7,2-11.8C63.4,599,66.4,606.4,65.3,608.8z"/>
	<path id="rearSoleusRight2" class="blue" d="M56.9,555.7c1.3,8.4,1.1,21-0.3,29c-0.6-3.5-0.2-12.8-0.6-15.8
		C55.1,563,55.4,560.5,56.9,555.7L56.9,555.7z"/>
	<path id="rearSoleusRight1" class="blue" d="M65,557.7c2.1,7.5-2.8,15.8-3.5,25.2c-0.4,4.2,1.3,7.8-1.5,11.5
		c0.9-12.9-1.6-28.2,4.3-36.6L65,557.7z"/>
	<path id="rearGastrocnemiusRight2" class="blue" d="M60.2,544.3c-1,3-5.5,7.6-6.6,5.7c-0.7-1.2-0.7-7.8-0.8-10.8
		c-0.8-14.4,7.2-34.7,10.3-42.8C63,496.3,63.7,533.7,60.2,544.3z"/>
	<path id="rearGastrocnemiusRight1" class="blue" d="M69,542.9c-1.5,2.7-3.9,7.9-5,5.8c-1.5-3-0.6-8.4-0.5-11.5
		c0.5-15.6,0-37.2,3.1-45.4C67.4,491.8,74.9,532,69,542.9z"/>
	<path id="rearSemimembranosusRight" class="blue" d="M57.2,460.7c-1.3,13.2,3.7,29.1-0.9,39.5C53.4,488.8,54.7,471.6,57.2,460.7
		L57.2,460.7z"/>
	<path id="rearAdductorMagnusRight" class="blue" d="M54.5,430.2c3.9-0.5,7.2,2,5.9,4.9c-2.8,6.4-6.5,19-7.9,32.6
		c0,0.5-0.6,0.6-0.8,0C52.1,449.5,53.3,436.7,54.5,430.2C54.5,430.2,54.5,430.2,54.5,430.2z"/>
	<path id="rearBicepsFemorisRight2" class="blue" d="M60.3,497.5c7.3-15.7,8.5-45.3,2.5-64.1C53.1,452.3,62.6,478.5,60.3,497.5
		L60.3,497.5z"/>
	<path id="rearBicepsFemorisRight1" class="blue" d="M64,435.4c7.8,17.9,0.3,44.1,5.7,61.2C72.1,475.6,79.4,444.9,64,435.4L64,435.4
		z"/>
	<path id="rearVastusLateralisRight" class="blue" d="M80.4,431.2c-2.9,3.2-3.6,7.7-4.9,17.2c-1.5,11.3,0.6,7.4-2.3,28.2
		c5-21.4,11-31.7,10.6-44C83.8,432.7,83.9,428.1,80.4,431.2z"/>
	<path id="rearGluteusMaxRight" class="blue" d="M79,432.1c3.3-8.6,4.8-15.8,4.6-21.7c-0.8-21-33-20.8-33.7,0.1
		c-0.1,2.9,0.1,5.6,0.8,7.9C53.3,427.7,63.1,432.2,79,432.1L79,432.1z"/>
	<path id="rearGluteusMedRight" class="blue" d="M60.4,392.4c6.9,1.3,15.9-0.1,19.2,5.8c1.8-6.5-3.4-11.9-9.2-12.2
		C66.6,385.7,62.4,388.2,60.4,392.4L60.4,392.4z"/>
	<path id="rearExtensorRight3" class="blue" d="M123.7,403.6c0.8-0.8,1.4-0.6,1.6-1.7c0.5-4.5-3.6-13.2-5.7-18.2
		c-3.2-9.1-6.6-14.3-10.3-19.4C109.7,366.3,123.2,403.2,123.7,403.6L123.7,403.6z"/>
	<path id="rearExtensorRight2" class="blue" d="M117.1,387.6c-1.5-4.2-2.9-8.3-4.3-12c-1.3-3.3-2.6-6.2-3.9-10.1
		c0-0.1-0.2-0.1-0.2,0c-1.8,13,4.8,24,9.7,32c1.1-0.4,0.6-1.8,0.7-3.2C119.4,392.6,118.1,390.6,117.1,387.6L117.1,387.6z"/>
	<path id="rearExtensorRight1" class="blue" d="M97.4,367.9c1.4,11,10.5,20.2,16.7,28.8c-2.9-9.2-4.2-25-14.8-28.2L97.4,367.9z"/>
	<path id="rearElbowRight" class="blue" d="M98.3,357.9c1.5,0.4,3.2,0.3,4,1.4c1.4,1.8,2,4.1,2.2,6.6c0,0.3-0.4,0.5-0.6,0.2
		c-1.1-1.3-3.1-2.3-4.2-3.6c-1.2-1.5-2.1-3.1-2.3-4.8L98.3,357.9z"/>
	<path id="rearTricepsRight3" class="blue" d="M93.4,326.6c0.9,6.7,4.3,20,8.1,26.7C100,342.8,97.4,333.9,93.4,326.6L93.4,326.6z"/>
	<path id="rearTricepsRight2" class="blue" d="M91.3,332.8c1.3,4.4,11.1,19.7,5.5,22.9C96.1,350.3,90.2,337,91.3,332.8L91.3,332.8z"
		/>
	<path id="rearTricepsRight1" class="blue" d="M78.6,320.7c11.3,4.6,12.4,24.1,18,35.5C84.3,353.9,79.2,334.1,78.6,320.7L78.6,320.7
		z"/>
	<path id="rearLombarRight" class="blue" d="M51.7,356.2c-0.6,6.6,1.6,29,0.3,38.4c3.3-4.4,7.5-7.2,13.9-10.3
		C62.8,366.8,51.7,356.2,51.7,356.2z"/>
	<path id="rearInternalObliqueRight" class="blue" d="M68.8,378.8c-0.1,0.2,4.2,3,4.3,3.1c0.8,0.4,1.6,0,1.9-0.1
		c0.2,0,0.3-0.2,0.3-0.4c0,0-0.8-3-2-5.1c-1.3-2.3-3.3-4.6-3.8-4.8C69.1,371.3,69.2,377.2,68.8,378.8z"/>
	<path id="rearLatissimusDorsiRight" class="blue" d="M67.9,382.7c-0.2-22.3,1.9-30,8.5-42.8c3.3-6.3-1.3-16.1,1.4-20.4
		c-3-0.8-12.9,6.1-16.7,11.1c-0.5,0.7-5.4,9.5-7.8,15.8c-1.1,2.9-0.8,6.1-0.9,6.2C52.5,352.5,65.6,367.8,67.9,382.7z"/>
	<path id="rearRhomboidRight" class="blue" d="M63.2,324.3c6-2.3,10.4-3.9,13.5-6.7c0.7-0.6,1.3-1.4,1.7-2.3
		c1.4-2.9,3.5-6.3,2.3-7.9c-1.4-1.2-5.8-3.9-8.3-4.2c-0.8-0.1-1.6,0.3-1.9,1C68,309.2,65.7,317.4,63.2,324.3z"/>
	<path id="rearDorsalRight" class="blue" d="M51.1,302.1c-0.8,11.6-0.1,29.2-0.4,44.3c3.9-8.7,8.6-13.4,11.8-22.2
		c5.2-14.4,0.3-19.4,12.4-26.8C63.9,295.8,58.3,296.2,51.1,302.1L51.1,302.1z"/>
	<path id="rearDeltoidRight" class="blue" d="M73.9,299.2c-1.2,1.2-2.6,2.5-1,3.1c1.6,0.5,7.1,1.4,8.7,3.5
		c2.3,2.9,4.5,10.6,10.8,16.4c-1.1-7.6-0.7-13.2-3.2-19c-2.2-5-11.6-6.2-12.8-5.8C75.8,297.7,74.6,298.4,73.9,299.2z"/>
	<path id="rearTrapeziusRight2" class="blue" d="M50.3,274.1c0.1,4.9,0.5,20.9,0.9,25.5c2.1-1.8,6.1-4.7,11.7-4.7
		c-2,0-1.8-1.1-3.7-3.2C51.6,283.3,50.1,268.7,50.3,274.1z"/>
	<path id="rearTrapeziusRight1" class="blue" d="M56,277.1c-0.2-1.1-1.3-2.4-1.4-3c-0.1-0.6-0.1,2.4-0.1,4.5c0,2,0,2.9,0.5,4.3
		c-0.1-0.3,0.4,0,0.9-0.1"/>
</g>
<g id="REAR_Body_Glow">
	<g id="rearBodyGlow" class="st0">
		<path class="st1" d="M153.4,417.6c-0.3-1.7-7-5.4-7.7-6c-0.4-0.4-7.4-3.7-11.3-5.1c-1-0.4-4.9-3.1-6.5-5.9
			c-2-3.5-8.2-20.5-12.7-29.9c-4.3-8.9-10.8-13.8-11.2-14.3c-0.2-0.3-3.3-14.8-4.4-18.2c-1.6-5.2-5.5-12.8-7.2-22.3
			c-0.6-3.4-1-10.6-2.3-13.3c-2.9-6.1-11.8-6.3-16.7-7c-6.5-1-9.5,1.4-13.4-4.8c-1.5-2.4-1.8-7.8-2-8.4c3.3-3.7,5.8-10.2,5.8-10.4
			c1.5-0.7,3.1-1.7,3.6-3.2c0.8-2.4,1.2-6.4,1.4-8.2c0.1-1.1-0.2-2.5-1.6-1.9c-0.5,0.2-1.1,1.2-1.1,0.6c0,0-0.2-2.7-0.1-3.6
			c0.5-6.4-0.6-19.3-16.9-19.6c-16.3,0.4-17.4,13.2-16.9,19.6c0.1,0.9-0.1,3.6-0.1,3.6c0,0.5-0.6-0.4-1.1-0.6
			c-1.4-0.6-1.7,0.9-1.6,1.9c0.2,1.8,0.6,5.8,1.4,8.2c0.5,1.6,2.1,2.5,3.6,3.2c-0.2,4.8,2.5,7.9,5.8,10.6c-0.2,1.1-0.5,6-1.9,8.2
			c-3.9,6.2-6.9,3.8-13.4,4.8c-4.9,0.7-13.8,0.9-16.7,7c-1.3,2.7-1.7,9.9-2.3,13.3c-1.6,9.5-5.6,17.1-7.2,22.3
			c-1,3.4-4.6,17.6-4.8,17.9c-0.4,0.5-6.5,5.6-10.8,14.5c-4.5,9.4-10.7,26.4-12.7,29.9c-1.6,2.8-5.5,5.7-6.5,6
			c-3.9,1.4-10.9,4.7-11.3,5.1c-0.7,0.6-7.4,4.3-7.7,6c-0.2,1.5,1,1.8,2.6,1.5c1.9-0.4,4.4-2.5,5.9-3.1c1.4-0.5,2.7,0.2,3.7,0
			c-2.2,3.9-2.5,5.2-3.1,8c-1,4.3-3.1,9.2-4.1,11.8c-1.3,3.3,1.7,4.3,2.6,2.5c1.8-3.7,4.3-10.1,5-11.3c0.4-0.8,0.8-0.4,0.5,0.2
			c-0.5,1.1-2.1,5.5-2.1,5.5s-0.7,2.1-1.6,4.4c-0.5,1.4-0.8,1.7-1.1,3c-0.3,1.5,0.2,1.9,0.8,2.1c2,0.7,3.1-2.2,3.1-2.2
			s3.7-9.4,4-10.3c0.8-2,0.8-1.2-0.2,1.7c-0.2,0.6-1.3,4.4-1.8,5.5c-1.2,2.6-1.7,5.3-0.8,5.7c1.8,0.7,2.5-1.4,3.1-2.4
			c0.6-1,3.7-9.2,4.2-10c0.4-0.6,0.5-0.5,0.3,0.1c-0.1,0.3-1.1,3.9-1.6,5c-0.2,0.6-0.7,1.7-0.9,3.1c-0.2,1.3,0.8,1.6,1.3,1.4
			c0.7-0.2,1.5-1.7,1.9-2.4c0.8-1.6,1.3-3.2,2.1-5c0.2-0.5,0.5-1,0.8-1.6c1.3-3.1,2.1-5.7,2.5-7.7c0.4-2,1.7-9.1,2.6-12.1
			c0.7-2.3,17.4-22.6,19.9-26.1c3.2-4.5,8.1-14,9.8-21.1c1-4.2,5.3-6.9,7.1-11.3c2-5.1,8-18.6,9-21.1c0.2,0.9-2.7,11.8,4.2,14.8
			c2.4,9.7,1.8,20.8-0.1,27.6c-0.9,3-5.2,14.5-8.3,25.2c-3.1,10.8-3.8,19.5-3.6,24.5c0.1,2.5,0.3,5.8,0.9,10.2
			c0.6,4.2,1.8,13.4,3.4,18.1c10.9,32,10.2,53.1,10.2,53.7c0,3.7-4.5,18.6-0.5,34.6c4.2,16.9,6.8,37.3,7.4,41.9
			c0.3,2.7-0.5,10.5-1.1,13.8c-2.4,12.6-8.2,10.2-7.8,14c0.2,1.7,20.2,1.7,21.4-0.5c0.7-2.2-1.2-7.6-2.3-12.1
			c-0.2-1-1.6-19.4-0.2-25.7c1.7-8.2,1.9-18.8,2.6-33.6c0.4-8.8-1.5-17.2-1.1-27.6c0.2-4.7,1.4-12.6,1.7-19.2
			c1.1-26.3,0.3-55.3-1.6-60.7c0.2,1,2.3-0.6,3.3-1.4c0.9,0.7,3.2,2.4,3.4,1.4c-1.8,5.4-2.7,34.4-1.6,60.7
			c0.3,6.6,1.5,14.5,1.7,19.2c0.4,10.4-1.5,18.7-1.1,27.6c0.7,14.9,1,25.4,2.6,33.6c1.2,6.4-0.1,24.5-0.3,25.5
			c-0.9,4.6-2.3,9.8-2.1,12.6c0.1,2.1,21.4,1.8,21.3,0.3c-0.5-4.5-5.1-1.5-7.8-14c-0.7-3.2-1.4-11.1-1.1-13.8
			c0.6-4.7,3.2-25.1,7.4-41.9c4-16-0.5-30.9-0.5-34.6c0-0.6-0.7-21.7,10.2-53.7c1.6-4.7,2.8-13.9,3.4-18.1c0.6-4.4,0.8-7.7,0.9-10.2
			c0.2-4.9-0.5-13.7-3.6-24.5c-3.1-10.7-7.4-22.2-8.3-25.2c-2-6.8-2.7-17,0.5-27.6c4.4-2.7,5.5-8.9,4.1-14.7c1,2.5,6.4,16,8.5,21.1
			c1.8,4.4,6.1,7.1,7.1,11.3c1.6,7.2,6.6,16.6,9.8,21.1c2.5,3.5,19.2,23.7,19.9,26c0.9,3,2.2,10.1,2.6,12.1c0.4,2,1.3,4.5,2.5,7.7
			c0.2,0.6,0.5,1.1,0.8,1.6c0.8,1.8,1.3,3.4,2.1,5c0.4,0.7,1.2,2.2,1.9,2.4c0.5,0.2,1.5-0.1,1.3-1.4c-0.2-1.4-0.7-2.5-0.9-3.1
			c-0.4-1.1-1.5-4.7-1.6-5c-0.2-0.6-0.1-0.7,0.3-0.1c0.5,0.7,3.6,9,4.2,10c0.6,1,1.3,3.1,3.1,2.4c1-0.4,0.4-3.1-0.8-5.7
			c-0.5-1.1-1.6-4.9-1.8-5.5c-1.1-2.9-1-3.7-0.2-1.7c0.4,0.9,4,10.3,4,10.3s1.1,3.4,3.3,2.7c0.7-0.2,0.9-1.3,0.6-2.8
			c-0.3-1.3-0.6-1.5-1.1-2.9c-0.8-2.3-1.6-4.4-1.6-4.4s-1.6-4.4-2.1-5.5c-0.2-0.5,0.1-0.9,0.5-0.2c0.6,1.1,3.2,7.6,5,11.3
			c0.9,1.8,3.9,0.8,2.6-2.5c-1-2.6-3.1-7.4-4.1-11.8c-0.7-2.8-1-4-3.1-8c1,0.1,2.3-0.6,3.7,0c1.6,0.6,4,2.7,5.9,3.1
			C152.3,419.4,153.6,419.1,153.4,417.6z"/>
	</g>
</g>
<g id="Rear_Organs">
	<path id="rearHeart" class="st2" d="M38.6,334.4c2.4,0.8,3.2,0.6,6.1,0.3c2.9-0.3,3.5-0.6,5.8-1.6c2.3-1,3.8-3.9,2.2-6.5
		c-0.3-0.5-0.7-0.9-1-1.2c-0.3-1.5-1-2.8-0.8-5c0.2-2.3,0.5-3.1,0.5-3.1s0.2-0.5-0.7-0.9c-0.4-0.2-0.6-0.2-0.8-0.2
		c0.3-0.3,0.4-0.6,0.4-0.6s0.2-0.5-0.6-0.7c-1-0.3-1.1,0.1-1.1,0.1s-1.1,1.4-1.9,2.4c-0.2-0.1-0.5-0.2-0.7-0.3
		c0.1-1.5,0.3-3.7,0.3-3.7s-0.1-0.5-0.8-0.5c-0.8-0.1-1,0.4-1,0.4l0,1.8l-1.2-1.9c0,0-0.2-0.3-0.8,0.2c-0.4,0.3-0.2,0.6-0.2,0.6
		s0.3,0.1,1,1.4c-0.2-0.2-0.6-0.4-1.2,0.4c-0.6,0.8-0.1,1-0.1,1s0.7,0.4,1.6,0.9c0,0,0,0,0,0c-1-0.1-1.9,0-2.1,0.1
		c-0.4,0.2-0.9,0.1-0.9,1.7c0,0.6,0.5,1.6,0.7,1.6c0.3,0,0.6,0,0.8,0c0,0.1,0,0.1,0,0.2c-0.4-0.1-0.9-0.1-1.3-0.2
		c0,0-0.8-0.2-0.8,1.4c0,1.4,0.7,1.6,0.7,1.6c0,0,0.1,0,0.1,0c-0.3,0.2-0.7,0.5-1.1,0.8c-0.7,0.6-1.4,2.7-2.5,5.4
		C35.9,332.7,36.2,333.6,38.6,334.4z M42.7,316.2c-0.3,0.3-0.6,0.4-0.7,0.2c-0.1-0.2,0-0.5,0.3-0.8c0.3-0.3,0.6-0.4,0.7-0.2
		C43.1,315.5,43,315.9,42.7,316.2z M42.9,313.7c-0.2,0.2-0.5,0.2-0.5,0c-0.1-0.1,0.1-0.4,0.3-0.5c0.2-0.2,0.5-0.2,0.5,0
		C43.2,313.3,43.1,313.6,42.9,313.7z M49.4,316.5c0.1-0.2,0.6-0.2,1.1,0c0.5,0.2,0.7,0.6,0.6,0.8c-0.1,0.2-0.6,0.2-1.1,0
		C49.6,317.1,49.3,316.8,49.4,316.5z M48.7,315.2c0.1-0.2,0.4-0.3,0.8-0.2c0.4,0.1,0.7,0.3,0.6,0.5c-0.1,0.2-0.4,0.3-0.8,0.2
		C48.9,315.6,48.6,315.3,48.7,315.2z M44.6,313.2c0-0.2,0.4-0.3,0.8-0.3c0.4,0,0.7,0.2,0.6,0.4c-0.1,0.2-0.4,0.3-0.8,0.3
		C44.9,313.6,44.6,313.4,44.6,313.2z M40.6,323.5c-0.3,0-0.6-0.5-0.6-1.2c0-0.6,0.3-1.2,0.6-1.2s0.6,0.5,0.6,1.2
		C41.1,322.9,40.9,323.5,40.6,323.5z"/>
	<path id="rearLungs" class="st3" d="M22.4,342.2c1.2,4,10.1,1.4,11.9,1.3c7.1-0.4,7.2-5.1,6.8-7.3c-0.8-4,1.7-5,1.7-7.5
		c0,0,0,0,0,0c1-0.7,1.8-1.6,2.6-3.4c0.3-0.7,1-1.8,1.2-3.4c0.8-0.5,1.5-1,2.5-1.8c0.4-0.4,1-0.4,1.4,0c0.8,0.7,1.4,1.2,2.1,1.5
		c0.2,1.7,1,3,1.3,3.7c0.8,1.7,1.6,2.7,2.6,3.4c0,0,0,0,0,0c0,2.5,2.5,3.5,1.7,7.5c-0.5,2.2-0.3,6.9,6.8,7.3
		c1.8,0.1,10.7,2.7,11.9-1.3c1.6-5.4-0.6-16-1.4-19.6c0-0.3,0-0.6-0.1-0.9c-0.5-3.2-2.7-8.6-5.5-11.9c-2.4-2.8-11.8-11.1-15.9-5.2
		c-2.8,4.1-0.7,8.8-1.1,13.3c-0.1,0-0.1,0-0.2-0.1c-1.5-0.4-0.8-5.7-1.1-8.5c-0.7-7.1,0-17.4,0-17.4s0.5-3.8-0.4-4.9
		c-0.7-0.8-4.1-1.2-4,1.7c0.2,5.7,0.5,22.1,0.6,27.2c0,0.8-0.2,1.8-1,2c-0.1,0-0.2,0.1-0.4,0.1c-0.5-4.5,1.7-9.3-1.1-13.5
		c-4-5.9-13.4,2.4-15.9,5.2c-2.9,3.3-5,8.7-5.5,11.9c0,0.2,0,0.4,0,0.6C23.1,325.7,20.8,336.7,22.4,342.2z"/>
</g>
</svg>
