<svg id="Livello_1" data-name="Livello 1" xmlns="http://www.w3.org/2000/svg" xmlns:xlink="http://www.w3.org/1999/xlink" viewBox="0 0 128 128"><defs><style>.cls-1,.cls-2{fill:none;}.cls-1{clip-rule:evenodd;}.cls-2{stroke:#43a6de;stroke-miterlimit:10;}.cls-3{clip-path:url(#clip-path);}.cls-4{fill:#2258a5;}</style><clipPath id="clip-path"><path class="cls-1" d="M111.71,68l-20.4,35.5a8,8,0,0,1-6.94,4H43.63a8,8,0,0,1-6.94-4L16.29,68a8,8,0,0,1,0-8l20.4-35.5a8,8,0,0,1,6.94-4H84.37a8,8,0,0,1,6.94,4L111.71,60A8,8,0,0,1,111.71,68Z"/></clipPath></defs><title>Exagon</title><path class="cls-2" d="M123.71,68l-26.4,46a8,8,0,0,1-6.94,4H37.63a8,8,0,0,1-6.94-4L4.29,68a8,8,0,0,1,0-8l26.4-46a8,8,0,0,1,6.94-4H90.37a8,8,0,0,1,6.94,4l26.4,46A8,8,0,0,1,123.71,68Z"/><g class="cls-3"><rect class="cls-4" x="7.75" y="14.22" width="112.5" height="99.56"/></g></svg>